<?xml version="1.0" encoding="UTF-8" standalone="no"?>
<!-- Created with Inkscape (http://www.inkscape.org/) -->

<svg
   xmlns:dc="http://purl.org/dc/elements/1.1/"
   xmlns:cc="http://creativecommons.org/ns#"
   xmlns:rdf="http://www.w3.org/1999/02/22-rdf-syntax-ns#"
   xmlns:svg="http://www.w3.org/2000/svg"
   xmlns="http://www.w3.org/2000/svg"
   xmlns:sodipodi="http://sodipodi.sourceforge.net/DTD/sodipodi-0.dtd"
   xmlns:inkscape="http://www.inkscape.org/namespaces/inkscape"
   width="64px"
   height="64px"
   id="svg2888"
   version="1.1"
   inkscape:version="0.47 r22583"
   sodipodi:docname="icon.svg"
   inkscape:export-filename="/media/FreeAgent Drive/T3/Projects/Games/the_devil-1.1/bin/data/graphics/icon.png"
   inkscape:export-xdpi="45"
   inkscape:export-ydpi="45">
  <defs
     id="defs2890">
    <inkscape:perspective
       sodipodi:type="inkscape:persp3d"
       inkscape:vp_x="0 : 32 : 1"
       inkscape:vp_y="0 : 1000 : 0"
       inkscape:vp_z="64 : 32 : 1"
       inkscape:persp3d-origin="32 : 21.333333 : 1"
       id="perspective2896" />
    <inkscape:perspective
       id="perspective2946"
       inkscape:persp3d-origin="0.5 : 0.33333333 : 1"
       inkscape:vp_z="1 : 0.5 : 1"
       inkscape:vp_y="0 : 1000 : 0"
       inkscape:vp_x="0 : 0.5 : 1"
       sodipodi:type="inkscape:persp3d" />
    <inkscape:perspective
       id="perspective3015"
       inkscape:persp3d-origin="0.5 : 0.33333333 : 1"
       inkscape:vp_z="1 : 0.5 : 1"
       inkscape:vp_y="0 : 1000 : 0"
       inkscape:vp_x="0 : 0.5 : 1"
       sodipodi:type="inkscape:persp3d" />
  </defs>
  <sodipodi:namedview
     id="base"
     pagecolor="#ffffff"
     bordercolor="#666666"
     borderopacity="1.0"
     inkscape:pageopacity="0.0"
     inkscape:pageshadow="2"
     inkscape:zoom="7.7781746"
     inkscape:cx="22.585932"
     inkscape:cy="20.391316"
     inkscape:current-layer="layer1"
     showgrid="true"
     inkscape:document-units="px"
     inkscape:grid-bbox="true"
     inkscape:window-width="1680"
     inkscape:window-height="975"
     inkscape:window-x="0"
     inkscape:window-y="24"
     inkscape:window-maximized="1" />
  <metadata
     id="metadata2893">
    <rdf:RDF>
      <cc:Work
         rdf:about="">
        <dc:format>image/svg+xml</dc:format>
        <dc:type
           rdf:resource="http://purl.org/dc/dcmitype/StillImage" />
        <dc:title></dc:title>
      </cc:Work>
    </rdf:RDF>
  </metadata>
  <g
     id="layer1"
     inkscape:label="Layer 1"
     inkscape:groupmode="layer">
    <g
       id="g3887">
      <path
         sodipodi:nodetypes="cssssssscssssscsssssscssssssssssss"
         id="path3021-3"
         d="m 33.453054,63.809029 c 0,0 -4.718787,-8.821806 -6.852302,-13.34395 -1.899366,-4.02585 -3.607157,-8.14075 -5.289496,-12.26201 -1.558123,-3.816963 -3.579661,-7.510457 -4.447983,-11.540715 -0.44803,-2.079495 -0.451401,-4.246161 -0.360645,-6.371436 0.09671,-2.264747 0.327951,-4.555675 0.961723,-6.732086 0.51646,-1.77356 1.220014,-3.539113 2.284103,-5.0490616 0.93052,-1.3204126 2.100278,-2.5363271 3.486255,-3.366043 1.011202,-0.6053581 3.366043,-1.0819405 3.366043,-1.0819405 0,0 -1.204738,2.6733286 -1.562803,4.0873382 -0.37702,1.4888654 -0.634743,3.0327119 -0.601078,4.5681999 0.04551,2.074745 0.543436,4.126844 1.08194,6.131003 0.575673,2.142488 1.565197,4.152449 2.284098,6.251219 0.681699,1.990168 1.161647,4.049889 1.923452,6.010791 1.006414,2.590527 3.48626,7.573593 3.48626,7.573593 0,0 1.629946,-2.709322 2.404314,-4.087334 1.536992,-2.735131 3.034674,-5.493841 4.447984,-8.294888 1.138516,-2.256436 2.33588,-4.494397 3.245826,-6.852303 0.49748,-1.289094 1.016705,-2.597868 1.202157,-3.967121 0.215194,-1.58887 0.174441,-3.232559 -0.120212,-4.808629 -0.30514,-1.6321694 -1.042411,-3.1565229 -1.683024,-4.6884166 -0.428722,-1.025193 -1.442585,-3.005393 -1.442585,-3.005393 0,0 2.376804,0.3427703 3.366038,0.9617239 1.323102,0.8278498 2.274915,2.1777287 3.125609,3.4862596 1.173153,1.8045305 1.928837,3.8607711 2.644748,5.8905741 0.578686,1.640724 1.120713,3.321001 1.322374,5.049062 0.195139,1.672151 0.0656,3.375849 -0.120212,5.049062 -0.202975,1.827713 -0.492577,3.667765 -1.081945,5.409712 -0.672007,1.986198 -1.800642,3.788244 -2.764965,5.650141 -1.113401,2.149733 -2.363675,4.226477 -3.486254,6.371435 -0.997165,1.905321 -1.937834,3.839784 -2.885182,5.770358 -1.057986,2.15605 -2.13141,4.305455 -3.125609,6.491652 -1.010669,2.222414 -1.903336,4.496786 -2.885176,6.732086 -0.353434,0.804643 -1.081946,2.40431 -1.081946,2.40431"
         style="fill:#000000;fill-opacity:0.31555553;stroke:none" />
      <path
         sodipodi:nodetypes="csscsssc"
         id="path2876-0-9"
         d="m 23.955997,51.150996 c 0,0 -1.774602,-2.317311 -2.885176,-3.245827 -1.297035,-1.084411 -2.728819,-2.095546 -4.327767,-2.644747 -1.678273,-0.576444 -5.289495,-0.601079 -5.289495,-0.601079 0,0 0.227409,1.802017 0.721295,2.524531 0.71008,1.038784 1.885066,1.711267 3.005393,2.284103 1.715542,0.877176 3.624118,1.399428 5.529924,1.683019 1.070159,0.159246 3.245826,0 3.245826,0 z"
         style="fill:#000000;fill-opacity:0.31555553;stroke:none" />
      <path
         sodipodi:nodetypes="csscsssc"
         id="path2876-5"
         d="m 42.589448,50.825734 c 0,0 1.774602,-2.317311 2.885176,-3.245827 1.297035,-1.084411 2.728819,-2.095546 4.327767,-2.644747 1.678273,-0.576444 5.289495,-0.601079 5.289495,-0.601079 0,0 -0.227409,1.802017 -0.721295,2.524531 -0.71008,1.038784 -1.885065,1.711267 -3.005393,2.284103 -1.715542,0.877176 -3.624118,1.399429 -5.529924,1.683019 -1.070159,0.159246 -3.245826,0 -3.245826,0 z"
         style="fill:#000000;fill-opacity:0.31555553;stroke:none" />
    </g>
    <g
       id="g2993"
       transform="matrix(0.47603021,0,0,0.47603021,15.919753,19.904638)">
      <g
         inkscape:export-ydpi="93.881981"
         inkscape:export-xdpi="93.881981"
         inkscape:export-filename="/media/FreeAgent Drive/T3/Projects/Games/the_devil-1.1/bin/data/graphics/title_logo.png"
         transform="translate(-339.54918,-524.82634)"
         id="g4404">
        <path
           style="fill:#fff0d5;fill-opacity:1;stroke:none"
           d="m 370.47345,611.68313 c 0,0 -9.91279,-18.53203 -14.39468,-28.03173 -3.99001,-8.45713 -7.57758,-17.10133 -11.11168,-25.75889 -3.27316,-8.01832 -7.51982,-15.77727 -9.34391,-24.24366 -0.94118,-4.36841 -0.94826,-8.91994 -0.75761,-13.38452 0.20316,-4.75757 0.68893,-9.57014 2.0203,-14.14214 1.08493,-3.72573 2.56289,-7.43464 4.79823,-10.6066 1.95475,-2.7738 4.41207,-5.32808 7.3236,-7.07107 2.12424,-1.27168 7.07107,-2.27284 7.07107,-2.27284 0,0 -2.5308,5.61588 -3.28299,8.5863 -0.79201,3.12767 -1.33341,6.37084 -1.26269,9.59645 0.0956,4.35843 1.1416,8.66929 2.27284,12.87944 1.20932,4.50074 3.28802,8.72308 4.79822,13.13198 1.43205,4.18076 2.44028,8.50763 4.04061,12.62691 2.11418,5.44194 7.32361,15.9099 7.32361,15.9099 0,0 3.42404,-5.69149 5.05076,-8.58629 3.22877,-5.74571 6.37496,-11.54095 9.34391,-17.42513 2.39169,-4.74011 4.907,-9.44141 6.81853,-14.39468 1.04506,-2.70801 2.1358,-5.45736 2.52538,-8.33376 0.45206,-3.33775 0.36645,-6.79066 -0.25253,-10.10152 -0.64101,-3.42871 -2.1898,-6.63093 -3.53554,-9.84899 -0.90062,-2.15363 -3.03045,-6.31345 -3.03045,-6.31345 0,0 4.99297,0.72006 7.07106,2.0203 2.77945,1.73907 4.77893,4.57477 6.56599,7.32361 2.46445,3.79079 4.05192,8.11035 5.55584,12.37437 1.21565,3.44668 2.35429,6.97645 2.77792,10.6066 0.40993,3.5127 0.13781,7.09167 -0.25253,10.6066 -0.42639,3.83949 -1.03476,7.7049 -2.27285,11.36422 -1.41169,4.17242 -3.78262,7.95799 -5.80838,11.86929 -2.33893,4.51596 -4.96539,8.87859 -7.3236,13.38452 -2.09475,4.00252 -4.07082,8.06626 -6.06092,12.12183 -2.22252,4.52923 -4.47747,9.0445 -6.56599,13.63706 -2.12312,4.66864 -3.99835,9.44643 -6.06091,14.14214 -0.74246,1.69032 -2.27285,5.05075 -2.27285,5.05075"
           id="path3021"
           sodipodi:nodetypes="cssssssscssssscsssssscssssssssssss" />
        <path
           style="fill:#000000;fill-opacity:0.31555553;stroke:none"
           d="m 371.4836,602.59176 c 1.21682,-5.43205 3.65325,-10.52479 5.80838,-15.65736 1.83693,-4.37475 4.05658,-8.57882 6.06091,-12.87945 2.03656,-4.36979 3.85964,-8.84281 6.06092,-13.13198 2.96058,-5.76864 7.3453,-10.83939 9.59645,-16.92006 1.36988,-3.70023 1.28057,-7.79789 2.27284,-11.61675 1.02427,-3.94203 3.05329,-7.61065 3.78807,-11.61675 0.63855,-3.48147 0.79157,-7.07868 0.50508,-10.60661 -0.3274,-4.03172 -2.52538,-11.86929 -2.52538,-11.86929 0,0 3.7255,8.93912 4.79822,13.63706 0.67876,2.9726 1.04025,6.04241 1.01015,9.09137 -0.0511,5.17866 -0.5555,10.43738 -2.0203,15.40483 -1.55491,5.27302 -4.63011,9.97387 -7.07107,14.89975 -3.74457,7.55659 -7.84211,14.93428 -11.61675,22.47589 -2.6793,5.35314 -5.28516,10.74347 -7.82869,16.16244 -2.59309,5.52456 -5.12908,11.07674 -7.57614,16.66752 -0.69584,1.58979 -2.02031,4.79823 -2.02031,4.79823 0,0 0.11124,-5.95327 0.75762,-8.83884 z"
           id="path4378"
           sodipodi:nodetypes="cssssssscssssssscs" />
        <path
           style="fill:#000000;fill-opacity:0.31372549;stroke:none"
           d="m 369.46329,558.65013 0,3.53553 c 0,0 -4.42394,-9.06922 -6.56599,-13.63706 -1.80729,-3.85396 -3.78778,-7.639 -5.3033,-11.61675 -1.72533,-4.52844 -2.9119,-9.24463 -4.29315,-13.8896 -1.04806,-3.52448 -2.29044,-7.00482 -3.03045,-10.6066 -0.8027,-3.90693 -1.82519,-7.89282 -1.51523,-11.8693 0.21117,-2.70909 1.08286,-5.38579 2.27284,-7.82868 1.13563,-2.33133 4.54569,-6.31345 4.54569,-6.31345 0,0 -1.9645,5.01229 -2.77792,7.57614 -0.68544,2.16047 -1.5431,4.31055 -1.76777,6.56599 -0.2592,2.60211 0.1201,5.2422 0.50508,7.82869 0.43287,2.90822 1.20465,5.76143 2.0203,8.58629 0.79018,2.73666 1.8325,5.39424 2.77792,8.08122 0.74238,2.10991 1.54033,4.20011 2.27284,6.31346 1.13333,3.26974 2.09271,6.59955 3.283,9.84898 0.93554,2.55397 1.95512,5.07783 3.03046,7.57615 1.42953,3.32121 4.54568,9.84899 4.54568,9.84899 z"
           id="path4380"
           sodipodi:nodetypes="ccsssssscssssssssc" />
        <path
           style="fill:none;stroke:#000000;stroke-opacity:1"
           d="m 370.47346,611.68313 c 0,0 -9.91279,-18.53203 -14.39468,-28.03173 -3.99001,-8.45713 -7.57758,-17.10133 -11.11168,-25.75889 -3.27317,-8.01832 -7.51983,-15.77727 -9.34392,-24.24366 -0.94118,-4.36841 -0.94826,-8.91994 -0.75761,-13.38452 0.20316,-4.75757 0.68893,-9.57014 2.0203,-14.14214 1.08493,-3.72573 2.56289,-7.43464 4.79823,-10.6066 1.95475,-2.7738 4.41208,-5.32808 7.32361,-7.07107 2.12424,-1.27168 7.07107,-2.27284 7.07107,-2.27284 0,0 -2.5308,5.61588 -3.28299,8.5863 -0.79201,3.12767 -1.33341,6.37084 -1.26269,9.59645 0.0956,4.35843 1.1416,8.66929 2.27284,12.87944 1.20932,4.50074 3.28802,8.72308 4.79822,13.13198 1.43205,4.18076 2.44028,8.50763 4.04061,12.62691 2.11418,5.44194 7.32361,15.9099 7.32361,15.9099 0,0 3.42404,-5.69149 5.05076,-8.58629 3.22877,-5.74571 6.37496,-11.54095 9.34391,-17.42513 2.39169,-4.74011 4.907,-9.44141 6.81853,-14.39468 1.04506,-2.70801 2.1358,-5.45736 2.52538,-8.33376 0.45206,-3.33775 0.36645,-6.79066 -0.25253,-10.10152 -0.64101,-3.42871 -2.1898,-6.63093 -3.53554,-9.84899 -0.90062,-2.15363 -3.03045,-6.31345 -3.03045,-6.31345 0,0 4.99297,0.72006 7.07106,2.0203 2.77945,1.73907 4.77893,4.57477 6.56599,7.32361 2.46445,3.79079 4.05192,8.11035 5.55584,12.37437 1.21565,3.44668 2.35429,6.97645 2.77792,10.6066 0.40993,3.5127 0.13781,7.09167 -0.25253,10.6066 -0.42639,3.83949 -1.03476,7.7049 -2.27285,11.36422 -1.41169,4.17242 -3.78262,7.95799 -5.80838,11.86929 -2.33893,4.51596 -4.96539,8.87859 -7.3236,13.38452 -2.09475,4.00252 -4.07082,8.06626 -6.06092,12.12183 -2.22252,4.52923 -4.47747,9.0445 -6.56599,13.63706 -2.12312,4.66864 -3.99835,9.44643 -6.06091,14.14214 -0.74246,1.69032 -4.04062,8.58628 -4.04062,8.58628"
           id="path3021-5"
           sodipodi:nodetypes="cssssssscssssscsssssscssssssssssss" />
      </g>
      <g
         id="g3764"
         transform="translate(-339.29664,-525.58395)">
        <g
           id="g3756">
          <path
             sodipodi:nodetypes="csscsssc"
             id="path2876-0"
             d="m 350.27039,585.84991 c 0,0 -3.72792,-4.86799 -6.06091,-6.81853 -2.72469,-2.27803 -5.73245,-4.40213 -9.09137,-5.55584 -3.52556,-1.21094 -11.11168,-1.26269 -11.11168,-1.26269 0,0 0.47772,3.78551 1.51523,5.3033 1.49167,2.18218 3.95997,3.59487 6.31345,4.79823 3.60385,1.84269 7.61321,2.93979 11.61675,3.53553 2.24809,0.33453 6.81853,0 6.81853,0 z"
             style="fill:#ff0000;fill-opacity:1;stroke:none" />
          <path
             sodipodi:nodetypes="csscsssc"
             id="path2876-0-3"
             d="m 350.27039,585.84991 c 0,0 -3.72792,-4.86799 -6.06091,-6.81853 -2.72469,-2.27803 -5.73245,-4.40213 -9.09137,-5.55584 -3.52556,-1.21094 -11.11168,-1.26269 -11.11168,-1.26269 0,0 0.47772,3.78551 1.51523,5.3033 1.49167,2.18218 3.95997,3.59487 6.31345,4.79823 3.60385,1.84269 7.61321,2.93979 11.61675,3.53553 2.24809,0.33453 6.81853,0 6.81853,0 z"
             style="fill:none;stroke:#000000;stroke-opacity:1" />
        </g>
        <g
           id="g3760">
          <path
             sodipodi:nodetypes="csscsssc"
             id="path2876"
             d="m 389.41381,585.16663 c 0,0 3.72792,-4.86799 6.06091,-6.81853 2.72469,-2.27803 5.73245,-4.40213 9.09137,-5.55584 3.52556,-1.21094 11.11168,-1.26269 11.11168,-1.26269 0,0 -0.47772,3.78551 -1.51523,5.3033 -1.49167,2.18218 -3.95997,3.59487 -6.31345,4.79823 -3.60385,1.84269 -7.61321,2.93979 -11.61675,3.53553 -2.24809,0.33453 -6.81853,0 -6.81853,0 z"
             style="fill:#ff0000;fill-opacity:1;stroke:none" />
          <path
             sodipodi:nodetypes="csscsssc"
             id="path2876-6"
             d="m 389.41381,585.16663 c 0,0 3.72792,-4.86799 6.06091,-6.81853 2.72469,-2.27803 5.73245,-4.40213 9.09137,-5.55584 3.52556,-1.21094 11.11168,-1.26269 11.11168,-1.26269 0,0 -0.47772,3.78551 -1.51523,5.3033 -1.49167,2.18218 -3.95997,3.59487 -6.31345,4.79823 -3.60385,1.84269 -7.61321,2.93979 -11.61675,3.53553 -2.24809,0.33453 -6.81853,0 -6.81853,0 z"
             style="fill:none;stroke:#000000;stroke-opacity:1" />
        </g>
      </g>
    </g>
  </g>
</svg>
