<?xml version="1.0" encoding="UTF-8" standalone="no"?>
<!-- Created with Inkscape (http://www.inkscape.org/) -->

<svg
   xmlns:dc="http://purl.org/dc/elements/1.1/"
   xmlns:cc="http://creativecommons.org/ns#"
   xmlns:rdf="http://www.w3.org/1999/02/22-rdf-syntax-ns#"
   xmlns:svg="http://www.w3.org/2000/svg"
   xmlns="http://www.w3.org/2000/svg"
   xmlns:sodipodi="http://sodipodi.sourceforge.net/DTD/sodipodi-0.dtd"
   xmlns:inkscape="http://www.inkscape.org/namespaces/inkscape"
   width="640px"
   height="480px"
   id="svg2816"
   version="1.1"
   inkscape:version="0.47 r22583"
   sodipodi:docname="bg10.svg"
   inkscape:export-filename="/media/FreeAgent Drive/T3/Projects/Games/tins2010-devil/bin/data/graphics/bg10.png"
   inkscape:export-xdpi="90"
   inkscape:export-ydpi="90">
  <defs
     id="defs2818">
    <inkscape:perspective
       sodipodi:type="inkscape:persp3d"
       inkscape:vp_x="0 : 240 : 1"
       inkscape:vp_y="0 : 1000 : 0"
       inkscape:vp_z="640 : 240 : 1"
       inkscape:persp3d-origin="320 : 160 : 1"
       id="perspective2824" />
  </defs>
  <sodipodi:namedview
     id="base"
     pagecolor="#000000"
     bordercolor="#666666"
     borderopacity="1.0"
     inkscape:pageopacity="0"
     inkscape:pageshadow="2"
     inkscape:zoom="0.77472527"
     inkscape:cx="320"
     inkscape:cy="240"
     inkscape:current-layer="layer1"
     inkscape:document-units="px"
     showgrid="false"
     inkscape:window-width="988"
     inkscape:window-height="732"
     inkscape:window-x="204"
     inkscape:window-y="85"
     inkscape:window-maximized="0" />
  <metadata
     id="metadata2821">
    <rdf:RDF>
      <cc:Work
         rdf:about="">
        <dc:format>image/svg+xml</dc:format>
        <dc:type
           rdf:resource="http://purl.org/dc/dcmitype/StillImage" />
        <dc:title></dc:title>
      </cc:Work>
    </rdf:RDF>
  </metadata>
  <g
     id="layer1"
     inkscape:label="Layer 1"
     inkscape:groupmode="layer">
    <rect
       style="fill:#00a0de;fill-opacity:1;stroke:none"
       id="rect3600"
       width="668.62415"
       height="507.27661"
       x="-9.0354614"
       y="-7.9148965" />
    <path
       style="fill:#00aaec;fill-opacity:1;stroke:none"
       d="m -40.014185,273.47518 c 0,0 47.6991698,-91.02106 78.737589,-131.65958 27.890289,-36.51668 61.073396,-68.977517 95.517736,-99.390071 30.18888,-26.655208 60.03928,-55.85528 96.80851,-72.283688 47.68834,-21.307042 101.54581,-26.708576 153.60283,-30.978724 121.43174,-9.960837 365.29079,12.907802 365.29079,12.907802 0,0 18.87367,231.629201 -12.9078,340.765961 -10.72881,36.84246 -33.06262,70.29799 -58.08511,99.39007 -20.55051,23.89279 -46.63679,43.01892 -73.57447,59.37589 -32.11406,19.50014 -67.15858,34.78106 -103.26241,45.1773 -36.37037,10.47299 -74.45395,16.20995 -112.29787,16.78014 -69.31743,1.04439 -139.38544,-7.2535 -206.52483,-24.52482 -47.66544,-12.26173 -95.989977,-28.02569 -136.822695,-55.50355 -36.350534,-24.46163 -91.64539,-94.22695 -91.64539,-94.22695 l -3.872341,-5.16312"
       id="path3912"
       sodipodi:nodetypes="csssscssssssscc" />
  </g>
</svg>
