<?xml version="1.0" encoding="UTF-8" standalone="no"?>
<!-- Created with Inkscape (http://www.inkscape.org/) -->

<svg
   xmlns:dc="http://purl.org/dc/elements/1.1/"
   xmlns:cc="http://creativecommons.org/ns#"
   xmlns:rdf="http://www.w3.org/1999/02/22-rdf-syntax-ns#"
   xmlns:svg="http://www.w3.org/2000/svg"
   xmlns="http://www.w3.org/2000/svg"
   xmlns:sodipodi="http://sodipodi.sourceforge.net/DTD/sodipodi-0.dtd"
   xmlns:inkscape="http://www.inkscape.org/namespaces/inkscape"
   width="744.09448819"
   height="1052.3622047"
   id="svg2"
   version="1.1"
   inkscape:version="0.47 r22583"
   sodipodi:docname="computer.svg"
   inkscape:export-filename="/media/FreeAgent Drive/T3/Projects/Games/the_devil-1.1/workspace/computer.png"
   inkscape:export-xdpi="95.194458"
   inkscape:export-ydpi="95.194458">
  <defs
     id="defs4">
    <inkscape:perspective
       sodipodi:type="inkscape:persp3d"
       inkscape:vp_x="0 : 526.18109 : 1"
       inkscape:vp_y="0 : 1000 : 0"
       inkscape:vp_z="744.09448 : 526.18109 : 1"
       inkscape:persp3d-origin="372.04724 : 350.78739 : 1"
       id="perspective10" />
    <inkscape:perspective
       id="perspective2902"
       inkscape:persp3d-origin="0.5 : 0.33333333 : 1"
       inkscape:vp_z="1 : 0.5 : 1"
       inkscape:vp_y="0 : 1000 : 0"
       inkscape:vp_x="0 : 0.5 : 1"
       sodipodi:type="inkscape:persp3d" />
    <inkscape:perspective
       id="perspective3690"
       inkscape:persp3d-origin="0.5 : 0.33333333 : 1"
       inkscape:vp_z="1 : 0.5 : 1"
       inkscape:vp_y="0 : 1000 : 0"
       inkscape:vp_x="0 : 0.5 : 1"
       sodipodi:type="inkscape:persp3d" />
    <inkscape:perspective
       id="perspective3800"
       inkscape:persp3d-origin="0.5 : 0.33333333 : 1"
       inkscape:vp_z="1 : 0.5 : 1"
       inkscape:vp_y="0 : 1000 : 0"
       inkscape:vp_x="0 : 0.5 : 1"
       sodipodi:type="inkscape:persp3d" />
    <inkscape:perspective
       id="perspective3867"
       inkscape:persp3d-origin="0.5 : 0.33333333 : 1"
       inkscape:vp_z="1 : 0.5 : 1"
       inkscape:vp_y="0 : 1000 : 0"
       inkscape:vp_x="0 : 0.5 : 1"
       sodipodi:type="inkscape:persp3d" />
    <inkscape:perspective
       id="perspective3934"
       inkscape:persp3d-origin="0.5 : 0.33333333 : 1"
       inkscape:vp_z="1 : 0.5 : 1"
       inkscape:vp_y="0 : 1000 : 0"
       inkscape:vp_x="0 : 0.5 : 1"
       sodipodi:type="inkscape:persp3d" />
  </defs>
  <sodipodi:namedview
     id="base"
     pagecolor="#000000"
     bordercolor="#666666"
     borderopacity="1.0"
     inkscape:pageopacity="0"
     inkscape:pageshadow="2"
     inkscape:zoom="0.98994949"
     inkscape:cx="331.79038"
     inkscape:cy="591.87461"
     inkscape:document-units="px"
     inkscape:current-layer="layer1"
     showgrid="false"
     inkscape:window-width="1680"
     inkscape:window-height="975"
     inkscape:window-x="0"
     inkscape:window-y="24"
     inkscape:window-maximized="1" />
  <metadata
     id="metadata7">
    <rdf:RDF>
      <cc:Work
         rdf:about="">
        <dc:format>image/svg+xml</dc:format>
        <dc:type
           rdf:resource="http://purl.org/dc/dcmitype/StillImage" />
        <dc:title></dc:title>
      </cc:Work>
    </rdf:RDF>
  </metadata>
  <g
     inkscape:label="Layer 1"
     inkscape:groupmode="layer"
     id="layer1">
    <path
       style="fill:#201609;fill-opacity:1;stroke:#000000;stroke-opacity:1"
       d="m 94.642857,489.1479 c 0,0 40.461403,-2.66673 60.714283,-3.57143 15.58696,-0.69627 31.18725,-1.0736 46.78572,-1.42857 31.78105,-0.72322 63.57815,-0.61974 95.35714,-1.42858 19.88734,-0.50617 39.75229,-1.78565 59.64286,-2.14285 13.09313,-0.23513 26.19266,-0.23943 39.28571,0 19.53361,0.3572 171.90036,0.8469 191.42857,1.42856 10.35529,0.30844 31.07143,0.71429 31.07143,0.71429 0,0 0.63595,22.62179 1.07143,33.92857 0.50451,13.09905 1.34081,26.18451 1.78571,39.28572 0.35968,10.59181 0.19999,21.20029 0.71429,31.78571 0.61989,12.7586 2.16803,25.45924 2.85714,38.21429 0.19278,3.56821 0.0445,7.15457 0.35714,10.71428 0.0737,0.83857 0.35715,2.5 0.35715,2.5 0,0 -23.32491,1.25528 -35,1.42857 -21.42754,0.31804 -175.71722,0.42685 -197.14286,10e-6 -20.71873,-0.41275 -41.42007,-1.74073 -62.14286,-1.78572 -19.52957,-0.0424 -39.04405,1.13234 -58.57142,1.42857 -19.99805,0.30337 -40.00071,0.15129 -60,0.35715 -24.40608,0.25122 -48.8088,0.76834 -73.21429,1.07143 -11.66637,0.14488 -35,0.35714 -35,0.35714 L 94.642857,489.1479 z"
       id="path3924"
       sodipodi:nodetypes="csssssscssssscsssssscc" />
    <g
       id="g3888">
      <g
         id="g3826">
        <g
           id="g3821">
          <path
             id="path3790"
             d="m 318.57143,453.25504 0.17857,-10.71429 38.21429,0 0,10.35715 -38.39286,0.35714 z"
             style="fill:#080808;fill-opacity:1;stroke:none;stroke-width:1;stroke-miterlimit:4;stroke-opacity:1;stroke-dasharray:none" />
          <path
             sodipodi:nodetypes="ccccc"
             id="path3790-5"
             d="m 318.6977,453.57071 0.0523,-11.02996 38.21429,0 0,10.86223 -38.26659,0.16773 z"
             style="fill:none;fill-opacity:1;stroke:#000000;stroke-opacity:1" />
          <path
             id="path3814"
             d="m 354.87922,453.15232 0,-10.48033 2.0203,-0.0631 0,10.6066 -2.0203,-0.0631 z"
             style="fill:#000000;stroke:none;stroke-width:1;stroke-miterlimit:4;stroke-opacity:1;stroke-dasharray:none;fill-opacity:0.31555554" />
        </g>
        <g
           id="g3764">
          <path
             sodipodi:nodetypes="csssscssssscssssscssssssc"
             id="path2908"
             d="m 177.85714,440.21932 c 0,0 0.13585,-46.19087 0,-69.28571 -0.11905,-20.23915 -0.9481,-40.47614 -0.71428,-60.71429 0.23669,-20.48728 1.96225,-40.94072 2.14285,-61.42857 0.12175,-13.81104 -1.28336,-27.62872 -0.71428,-41.42857 C 178.76861,202.58059 180,193.07647 180,193.07647 c 0,0 54.76248,0.17779 82.14286,0 18.33449,-0.11905 36.6661,-0.90413 55,-0.71429 21.20138,0.21954 42.36892,2.13889 63.57143,2.14286 14.29365,0.003 28.56534,-1.65839 42.85714,-1.42857 14.55312,0.23403 29.05046,1.86245 43.57143,2.85714 13.33605,0.91353 40,2.85714 40,2.85714 0,0 0.94269,24.76172 0.71428,37.14286 -0.39148,21.22028 -3.16538,42.35142 -3.57143,63.57143 -0.25513,13.33302 0.72596,26.66455 0.71429,40 -0.0106,12.14519 0.025,24.3059 -0.71429,36.42857 -0.56817,9.31712 -2.29858,18.53944 -2.85714,27.85714 -0.81222,13.5492 -0.71428,40.71429 -0.71428,40.71429 0,0 -19.51511,-1.1904 -29.28572,-1.42857 -16.66172,-0.40614 -33.33333,0 -50,0 -25.23809,0 -50.47619,0 -75.71428,0 -19.76191,0 -39.52834,0.42318 -59.28572,0 -16.67814,-0.35723 -33.32606,-1.62531 -50,-2.14286 -12.37728,-0.38419 -24.76019,-0.59524 -37.14286,-0.71429 -7.14253,-0.0687 -21.42857,0 -21.42857,0 z"
             style="fill:#080808;fill-opacity:1;stroke:none" />
          <path
             sodipodi:nodetypes="csssscssssscssssscssssssc"
             id="path2908-5"
             d="m 177.85714,440.21931 c 0,0 0.13585,-46.19087 0,-69.28571 -0.11905,-20.23915 -0.9481,-40.47614 -0.71428,-60.71429 0.23669,-20.48727 1.96225,-40.94071 2.14285,-61.42856 0.12175,-13.81104 -1.28336,-27.62872 -0.71428,-41.42857 C 178.76861,202.58059 180,193.07647 180,193.07647 c 0,0 54.76248,0.17779 82.14286,0 18.33449,-0.11905 36.6661,-0.90413 55,-0.71429 21.20138,0.21954 42.36892,2.13889 63.57143,2.14286 14.29365,0.003 28.56534,-1.65839 42.85714,-1.42857 14.55312,0.23403 29.05046,1.86245 43.57143,2.85714 13.33605,0.91353 40,2.85714 40,2.85714 0,0 0.94269,24.76172 0.71428,37.14286 -0.39148,21.22028 -3.16538,42.35142 -3.57143,63.57142 -0.25513,13.33302 0.72596,26.66455 0.71429,40 -0.0106,12.14519 0.025,24.3059 -0.71429,36.42857 -0.56817,9.31712 -2.29858,18.53944 -2.85714,27.85714 -0.81222,13.5492 -0.71428,40.71429 -0.71428,40.71429 0,0 -19.51511,-1.1904 -29.28572,-1.42857 -16.66172,-0.40614 -33.33333,0 -50,0 -25.23809,0 -50.47619,0 -75.71428,0 -19.76191,0 -39.52834,0.42318 -59.28572,0 -16.67814,-0.35723 -33.32606,-1.62531 -50,-2.14286 -12.37728,-0.38419 -24.76019,-0.59524 -37.14286,-0.71429 -7.14253,-0.0687 -21.42857,0 -21.42857,0 z"
             style="fill:none;stroke:#000000;stroke-opacity:1" />
          <path
             sodipodi:nodetypes="ccsssssssssssssssssssscsssssssssssssssssssssccssssssssssssssssssssssssscssssssssssssssssssssssc"
             id="path3704"
             d="m 177.94643,440.04075 2.67857,-2.5 c 0,0 13.57168,-0.0585 20.35714,0 6.90553,0.0595 13.81073,0.18162 20.71429,0.35715 7.08504,0.18014 14.16739,0.45569 21.25,0.71428 6.04233,0.22061 12.08597,0.41665 18.125,0.71429 5.03245,0.24803 10.05452,0.69735 15.08929,0.89285 1.60621,0.0624 3.21452,0.0487 4.82142,0.0893 4.64376,0.11742 9.28419,0.35759 13.92858,0.44643 4.79088,0.0916 9.58325,0.10018 14.375,0.0893 5.53602,-0.0126 11.07134,-0.12751 16.60714,-0.17857 3.869,-0.0357 7.73798,-0.0867 11.60714,-0.0893 4.70247,-0.003 9.40469,0.0744 14.10714,0.0893 4.4345,0.014 8.86908,0.0167 13.30358,0 3.95842,-0.0149 7.91656,-0.0857 11.875,-0.0893 5.20842,-0.005 10.41658,0.0885 15.625,0.0893 5.50603,8.5e-4 11.01184,-0.0744 16.51785,-0.0893 5.98212,-0.0162 11.96431,0.0165 17.94643,0 5.38697,-0.0149 10.77373,-0.0884 16.16072,-0.0893 5.74412,-9.9e-4 11.48821,0.0418 17.23214,0.0893 5.23825,0.0433 10.47976,-0.0239 15.71428,0.17857 3.15927,0.12217 6.30999,0.40978 9.46429,0.625 4.22683,0.2884 12.67857,0.89286 12.67857,0.89286 0,0 0.0956,-10.11938 0.17857,-15.17858 0.0928,-5.65525 0.14765,-11.31215 0.35715,-16.96428 0.12474,-3.36552 0.2637,-6.73246 0.53571,-10.08929 0.39897,-4.92371 1.078,-9.82071 1.60714,-14.73214 0.45205,-4.19583 0.99207,-8.38349 1.33929,-12.58929 0.2502,-3.03065 0.41851,-6.06844 0.53571,-9.10714 0.12505,-3.24218 0.13954,-6.48778 0.17857,-9.73214 0.0627,-5.20804 0.16119,-10.41708 0.0893,-15.625 -0.0493,-3.57307 -0.23875,-7.14284 -0.35714,-10.71429 -0.0898,-2.70832 -0.21192,-5.41577 -0.26786,-8.125 -0.0737,-3.57079 -0.11123,-7.1428 -0.0893,-10.71428 0.0177,-2.88747 0.0899,-5.77456 0.17858,-8.66072 0.0896,-2.91772 0.25818,-5.83258 0.35714,-8.75 0.11203,-3.30288 0.0988,-6.61026 0.26786,-9.91071 0.16183,-3.15959 0.439,-6.31255 0.71428,-9.46429 0.3409,-3.9031 0.8491,-7.79088 1.16072,-11.69643 0.35335,-4.42853 0.56228,-8.86752 0.80357,-13.30357 0.20067,-3.68934 0.4464,-7.37772 0.53571,-11.07143 0.0899,-3.71915 0.083,-7.4414 0,-11.16071 -0.0744,-3.33582 -0.32392,-6.6656 -0.44643,-10 -0.1137,-3.09444 -0.1357,-6.19201 -0.26785,-9.28572 -0.0674,-1.57847 -0.26786,-4.73214 -0.26786,-4.73214 l 1.60714,-1.60714 c 0,0 0.32677,6.96316 0.44643,10.44643 0.15741,4.58218 0.2805,9.16576 0.35714,13.75 0.0667,3.98765 0.16667,7.97683 0.0893,11.96428 -0.0624,3.21712 -0.29364,6.42876 -0.44643,9.64286 -0.11602,2.44062 -0.21355,4.88227 -0.35714,7.32143 -0.15252,2.59095 -0.35844,5.17848 -0.53572,7.76786 -0.20987,3.06537 -0.404,6.13183 -0.625,9.19642 -0.25334,3.51298 -0.5652,7.02169 -0.80357,10.53572 -0.2038,3.00435 -0.41403,6.00907 -0.53571,9.01786 -0.11187,2.76624 -0.12056,5.53568 -0.17857,8.30357 -0.0611,2.91663 -0.19345,5.83276 -0.17858,8.75 0.0149,2.918 0.18307,5.8332 0.26786,8.75 0.0943,3.24391 0.16777,6.48841 0.26786,9.73214 0.10745,3.48252 0.29761,6.96276 0.35714,10.44643 0.0585,3.42212 0.0219,6.84531 0,10.26786 -0.0298,4.64314 -0.0629,9.28677 -0.17857,13.92857 -0.0802,3.21549 -0.21887,6.42934 -0.35714,9.64286 -0.13065,3.03655 -0.26625,6.07313 -0.44643,9.10714 -0.15211,2.56123 -0.29043,5.12458 -0.53572,7.67857 -0.28092,2.92499 -0.73716,5.83062 -1.07142,8.75 -0.41537,3.62781 -0.88329,7.25191 -1.16072,10.89286 -0.19694,2.58453 -0.2976,5.17652 -0.35714,7.76785 -0.0602,2.61836 0.0141,5.23814 0,7.85715 -0.0149,2.76798 -0.0744,5.53559 -0.0893,8.30357 -0.0152,2.82734 0.0179,5.65482 0,8.48214 -0.0149,2.35133 -0.0893,7.05357 -0.0893,7.05357 0,0 -7.55938,-0.41936 -11.33929,-0.625 -4.43435,-0.24125 -8.86539,-0.55851 -13.30357,-0.71428 -3.59947,-0.12633 -7.20212,-0.13776 -10.80357,-0.17857 -4.85097,-0.055 -9.70229,-0.0869 -14.55357,-0.0893 -5.77389,-0.003 -11.54756,0.0744 -17.32143,0.0893 -4.82141,0.0124 -9.64286,0 -14.46429,0 -4.88095,0 -9.76191,-0.0113 -14.64285,0 -6.45838,0.0149 -12.9166,0.0853 -19.375,0.0893 -8.80958,0.005 -17.619,-0.0944 -26.42858,-0.0893 -6.57745,0.004 -13.1549,0.0373 -19.73214,0.0893 -7.91692,0.0626 -15.83283,0.26845 -23.75,0.26786 -5.20867,-3.9e-4 -10.41678,-0.10955 -15.625,-0.17857 -5.92277,-0.0785 -11.84757,-0.0794 -17.76786,-0.26786 -4.2886,-0.13652 -8.57051,-0.43643 -12.85714,-0.625 -3.77904,-0.16624 -7.56089,-0.26638 -11.33929,-0.44643 -4.25777,-0.2029 -8.51034,-0.50597 -12.76785,-0.71428 -4.96866,-0.2431 -9.93801,-0.48766 -14.91072,-0.625 -4.46298,-0.12326 -8.92827,-0.14882 -13.39285,-0.17858 -4.82132,-0.0321 -9.64318,0.0552 -14.46429,0 -3.89958,-0.0446 -7.79685,-0.22321 -11.69643,-0.26785 -3.06528,-0.0351 -6.13128,-0.0451 -9.19643,0 -1.01223,0.0149 -2.4559,0.91915 -3.03571,0.0893 -10e-6,-10e-6 2e-5,-5e-5 2e-5,-5e-5 z"
             style="fill:#000000;fill-opacity:0.31555553;stroke:none" />
          <path
             id="path3711"
             d="M 193.57143,208.07647 227.5,206.6479 l 31.07143,0 25,0 27.14286,0 31.42857,0.71428 27.85714,0 31.42857,0.35714 30.71429,0.35715 33.57143,0.35714 28.57143,1.42857 -0.35715,34.28572 -0.35714,31.07142 -1.42857,16.07143 -0.35714,28.21429 -1.42858,23.57143 -1.42857,25 0,19.64285 -0.35714,22.85715 -0.71429,16.42857 -35.35714,-1.07143 -47.85714,2.5 -48.21429,1.07143 -47.85714,0 -51.42857,-2.14286 -50.71429,-1.42857 -12.85714,0 -0.71429,-57.85714 0.71429,-47.85715 0,-44.64285 -0.35714,-40.71429 0.35714,-26.78571 z"
             style="fill:#ffffff;fill-opacity:1;stroke:#000000;stroke-opacity:1" />
          <flowRoot
             style="font-size:40px;font-style:normal;font-weight:normal;fill:#000000;fill-opacity:1;stroke:none;font-family:Bitstream Vera Sans"
             id="flowRoot3713"
             xml:space="preserve"><flowRegion
               id="flowRegion3715"><rect
                 y="206.64789"
                 x="192.5"
                 height="223.21428"
                 width="302.14285"
                 id="rect3717" /></flowRegion><flowPara
               style="font-size:10px;font-style:normal;font-variant:normal;font-weight:normal;font-stretch:normal;font-family:Courier 10 Pitch;-inkscape-font-specification:Courier 10 Pitch"
               id="flowPara3719" /><flowPara
               id="flowPara3721"
               style="font-size:10px;font-style:normal;font-variant:normal;font-weight:normal;font-stretch:normal;font-family:Courier 10 Pitch;-inkscape-font-specification:Courier 10 Pitch"> bool initialize(int argc, char * argv[])</flowPara><flowPara
               id="flowPara3723"
               style="font-size:10px;font-style:normal;font-variant:normal;font-weight:normal;font-stretch:normal;font-family:Courier 10 Pitch;-inkscape-font-specification:Courier 10 Pitch"> {</flowPara><flowPara
               id="flowPara3725"
               style="font-size:10px;font-style:normal;font-variant:normal;font-weight:normal;font-stretch:normal;font-family:Courier 10 Pitch;-inkscape-font-specification:Courier 10 Pitch">     const char * val;</flowPara><flowPara
               id="flowPara3727"
               style="font-size:10px;font-style:normal;font-variant:normal;font-weight:normal;font-stretch:normal;font-family:Courier 10 Pitch;-inkscape-font-specification:Courier 10 Pitch" /><flowPara
               id="flowPara3731"
               style="font-size:10px;font-style:normal;font-variant:normal;font-weight:normal;font-stretch:normal;font-family:Courier 10 Pitch;-inkscape-font-specification:Courier 10 Pitch">     process_arguments(argc, argv);</flowPara><flowPara
               id="flowPara3735"
               style="font-size:10px;font-style:normal;font-variant:normal;font-weight:normal;font-stretch:normal;font-family:Courier 10 Pitch;-inkscape-font-specification:Courier 10 Pitch">     if(!t3f_initialize(640, 480, 60.0, &quot;The Devi</flowPara><flowPara
               id="flowPara3737"
               style="font-size:10px;font-style:normal;font-variant:normal;font-weight:normal;font-stretch:normal;font-family:Courier 10 Pitch;-inkscape-font-specification:Courier 10 Pitch">     {</flowPara><flowPara
               id="flowPara3739"
               style="font-size:10px;font-style:normal;font-variant:normal;font-weight:normal;font-stretch:normal;font-family:Courier 10 Pitch;-inkscape-font-specification:Courier 10 Pitch">         return false;</flowPara><flowPara
               id="flowPara3741"
               style="font-size:10px;font-style:normal;font-variant:normal;font-weight:normal;font-stretch:normal;font-family:Courier 10 Pitch;-inkscape-font-specification:Courier 10 Pitch">     }</flowPara><flowPara
               id="flowPara3743"
               style="font-size:10px;font-style:normal;font-variant:normal;font-weight:normal;font-stretch:normal;font-family:Courier 10 Pitch;-inkscape-font-specification:Courier 10 Pitch">     al_inhibit_screensaver(true);</flowPara><flowPara
               id="flowPara3745"
               style="font-size:10px;font-style:normal;font-variant:normal;font-weight:normal;font-stretch:normal;font-family:Courier 10 Pitch;-inkscape-font-specification:Courier 10 Pitch">     animation[ANIMATION_PLAYER] = t3f_load_anima</flowPara><flowPara
               id="flowPara3747"
               style="font-size:10px;font-style:normal;font-variant:normal;font-weight:normal;font-stretch:normal;font-family:Courier 10 Pitch;-inkscape-font-specification:Courier 10 Pitch">     if(!animation[ANIMATION_PLAYER])</flowPara><flowPara
               id="flowPara3749"
               style="font-size:10px;font-style:normal;font-variant:normal;font-weight:normal;font-stretch:normal;font-family:Courier 10 Pitch;-inkscape-font-specification:Courier 10 Pitch">     {</flowPara><flowPara
               id="flowPara3751"
               style="font-size:10px;font-style:normal;font-variant:normal;font-weight:normal;font-stretch:normal;font-family:Courier 10 Pitch;-inkscape-font-specification:Courier 10 Pitch">         return false;</flowPara><flowPara
               id="flowPara3753"
               style="font-size:10px;font-style:normal;font-variant:normal;font-weight:normal;font-stretch:normal;font-family:Courier 10 Pitch;-inkscape-font-specification:Courier 10 Pitch">     }</flowPara><flowPara
               id="flowPara3757"
               style="font-size:10px;font-style:normal;font-variant:normal;font-weight:normal;font-stretch:normal;font-family:Courier 10 Pitch;-inkscape-font-specification:Courier 10 Pitch">     animation[ANIMATION_DEMON] = t3f_load_animat</flowPara></flowRoot>        </g>
      </g>
      <g
         transform="translate(-3.9285714,0.35714286)"
         id="g3883">
        <path
           style="fill:#080808;fill-opacity:1;stroke:none"
           d="m 277.98135,465.14789 10.2278,-11.99557 c 0,0 13.42659,0.0753 20.13992,0.0631 6.20836,-0.0113 12.41652,-0.0749 18.62468,-0.12627 4.31425,-0.0357 8.62833,-0.0902 12.94258,-0.12627 6.03981,-0.0505 12.07981,-0.075 18.11961,-0.12626 4.20903,-0.0357 8.41784,-0.0957 12.62691,-0.12627 4.62979,-0.0337 9.25983,-0.0272 13.8896,-0.0631 3.83028,-0.0297 3.11446,-0.10522 6.94479,-0.12627 0.96805,-0.005 2.90419,0 2.90419,0 l 8.27063,11.61676 c 0,0 -13.6791,0.1336 -22.79157,0.1894 -7.91282,0.0485 -15.82564,0.10522 -23.73858,0.12627 -6.01881,0.016 -12.03767,-0.0161 -18.05648,0 -7.84981,0.0211 -15.69969,0.0523 -23.54918,0.12627 -9.36539,0.0882 -18.73057,0.21086 -28.09487,0.37881 -2.82026,0.0506 -8.46003,0.1894 -8.46003,0.1894 z"
           id="path3857"
           sodipodi:nodetypes="ccsssssssccsssssc" />
        <path
           style="fill:none;stroke:#000000;stroke-opacity:1"
           d="m 277.98135,465.14789 10.2278,-11.99557 c 0,0 13.42659,0.0753 20.13992,0.0631 6.20836,-0.0113 12.41652,-0.0749 18.62468,-0.12627 4.31425,-0.0357 8.62833,-0.0902 12.94258,-0.12627 6.03981,-0.0505 12.07981,-0.075 18.11961,-0.12626 4.20903,-0.0357 8.41784,-0.0957 12.62691,-0.12627 4.62979,-0.0337 9.25983,-0.0272 13.8896,-0.0631 3.83028,-0.0297 3.11446,-0.10522 6.94479,-0.12627 0.96805,-0.005 2.90419,0 2.90419,0 l 8.27063,11.61676 c 0,0 -13.6791,0.1336 -22.79157,0.1894 -7.91282,0.0485 -15.82564,0.10522 -23.73858,0.12627 -6.01881,0.016 -12.03767,-0.0161 -18.05648,0 -7.84981,0.0211 -15.69969,0.0523 -23.54918,0.12627 -9.36539,0.0882 -18.73057,0.21086 -28.09487,0.37881 -2.82026,0.0506 -8.46003,0.1894 -8.46003,0.1894 z"
           id="path3857-1"
           sodipodi:nodetypes="ccsssssssccsssssc" />
        <path
           style="fill:#000000;fill-opacity:0.31555553;stroke:none"
           d="m 399.91072,464.01397 -8.25893,-11.29465 2.94643,-0.0446 7.63392,11.20536 -2.32142,0.13393 z"
           id="path3881" />
      </g>
    </g>
    <g
       id="g3954"
       transform="translate(-1.7857143,-3.5714286)">
      <path
         id="path3948"
         d="m 490.42906,692.74788 0,-67.68022 -3.03046,-47.98225 0,-51.51778 -1.01015,-38.3858 40.91118,-1.01015 42.42641,1.51523 32.32488,-0.50508 20.20305,0.50508 1.01015,202.53558 -132.83506,2.52539 z"
         style="fill:#452f13;fill-opacity:1;stroke:#000000;stroke-width:1;stroke-miterlimit:4;stroke-opacity:1;stroke-dasharray:none" />
      <path
         sodipodi:nodetypes="cssssscc"
         id="path3950"
         d="m 515.1778,617.49151 c 0,0 -5.90043,-0.30161 -8.08122,-2.0203 -3.43035,-2.70346 -4.79605,-7.43632 -6.06092,-11.61676 -1.37301,-4.53786 -1.63829,-9.4027 -1.51523,-14.14213 0.11064,-4.26107 0.71532,-8.56908 2.02031,-12.62691 1.15256,-3.58384 2.09792,-7.76634 5.05076,-10.10152 2.30625,-1.82383 8.5863,-2.02031 8.5863,-2.02031 l 0,52.52793 z"
         style="fill:#434343;fill-opacity:1;stroke:#000000;stroke-width:1;stroke-miterlimit:4;stroke-opacity:1;stroke-dasharray:none" />
    </g>
    <path
       style="fill:#452f13;fill-opacity:1;stroke:#000000;stroke-width:1;stroke-miterlimit:4;stroke-opacity:1;stroke-dasharray:none"
       d="m 91.071429,469.86218 51.785711,-2.85714 61.42857,-1.42857 40.71429,-0.71429 37.14286,0.71429 59.28571,-0.71429 55.71429,0.35714 42.5,-2.14285 61.78571,-0.35715 51.78572,0 34.64285,2.5 30,0 1.07143,16.78572 -105.35714,0 -60,0.35714 L 355,482.00504 l -70.71429,1.42857 -66.07142,0.71429 -44.28572,1.07142 -40.71428,3.21429 -40.357147,1.07143 -1.785714,-19.64286 z"
       id="path3952" />
  </g>
</svg>
