<?xml version="1.0" encoding="UTF-8" standalone="no"?>
<!-- Created with Inkscape (http://www.inkscape.org/) -->

<svg
   xmlns:dc="http://purl.org/dc/elements/1.1/"
   xmlns:cc="http://creativecommons.org/ns#"
   xmlns:rdf="http://www.w3.org/1999/02/22-rdf-syntax-ns#"
   xmlns:svg="http://www.w3.org/2000/svg"
   xmlns="http://www.w3.org/2000/svg"
   xmlns:sodipodi="http://sodipodi.sourceforge.net/DTD/sodipodi-0.dtd"
   xmlns:inkscape="http://www.inkscape.org/namespaces/inkscape"
   width="744.09448819"
   height="1052.3622047"
   id="svg2"
   version="1.1"
   inkscape:version="0.47 r22583"
   sodipodi:docname="couch.svg"
   inkscape:export-filename="/media/FreeAgent Drive/T3/Projects/Games/the_devil-1.1/workspace/couch.png"
   inkscape:export-xdpi="95.194458"
   inkscape:export-ydpi="95.194458">
  <defs
     id="defs4">
    <inkscape:perspective
       sodipodi:type="inkscape:persp3d"
       inkscape:vp_x="0 : 526.18109 : 1"
       inkscape:vp_y="0 : 1000 : 0"
       inkscape:vp_z="744.09448 : 526.18109 : 1"
       inkscape:persp3d-origin="372.04724 : 350.78739 : 1"
       id="perspective10" />
    <inkscape:perspective
       id="perspective3677"
       inkscape:persp3d-origin="0.5 : 0.33333333 : 1"
       inkscape:vp_z="1 : 0.5 : 1"
       inkscape:vp_y="0 : 1000 : 0"
       inkscape:vp_x="0 : 0.5 : 1"
       sodipodi:type="inkscape:persp3d" />
    <inkscape:perspective
       id="perspective3693"
       inkscape:persp3d-origin="0.5 : 0.33333333 : 1"
       inkscape:vp_z="1 : 0.5 : 1"
       inkscape:vp_y="0 : 1000 : 0"
       inkscape:vp_x="0 : 0.5 : 1"
       sodipodi:type="inkscape:persp3d" />
    <inkscape:perspective
       id="perspective3752"
       inkscape:persp3d-origin="0.5 : 0.33333333 : 1"
       inkscape:vp_z="1 : 0.5 : 1"
       inkscape:vp_y="0 : 1000 : 0"
       inkscape:vp_x="0 : 0.5 : 1"
       sodipodi:type="inkscape:persp3d" />
    <inkscape:perspective
       id="perspective3786"
       inkscape:persp3d-origin="0.5 : 0.33333333 : 1"
       inkscape:vp_z="1 : 0.5 : 1"
       inkscape:vp_y="0 : 1000 : 0"
       inkscape:vp_x="0 : 0.5 : 1"
       sodipodi:type="inkscape:persp3d" />
    <inkscape:perspective
       id="perspective3833"
       inkscape:persp3d-origin="0.5 : 0.33333333 : 1"
       inkscape:vp_z="1 : 0.5 : 1"
       inkscape:vp_y="0 : 1000 : 0"
       inkscape:vp_x="0 : 0.5 : 1"
       sodipodi:type="inkscape:persp3d" />
    <inkscape:perspective
       id="perspective3864"
       inkscape:persp3d-origin="0.5 : 0.33333333 : 1"
       inkscape:vp_z="1 : 0.5 : 1"
       inkscape:vp_y="0 : 1000 : 0"
       inkscape:vp_x="0 : 0.5 : 1"
       sodipodi:type="inkscape:persp3d" />
  </defs>
  <sodipodi:namedview
     id="base"
     pagecolor="#000000"
     bordercolor="#666666"
     borderopacity="1.0"
     inkscape:pageopacity="0"
     inkscape:pageshadow="2"
     inkscape:zoom="0.7"
     inkscape:cx="372.04724"
     inkscape:cy="412.25887"
     inkscape:document-units="px"
     inkscape:current-layer="layer1"
     showgrid="false"
     inkscape:window-width="1680"
     inkscape:window-height="975"
     inkscape:window-x="0"
     inkscape:window-y="24"
     inkscape:window-maximized="1" />
  <metadata
     id="metadata7">
    <rdf:RDF>
      <cc:Work
         rdf:about="">
        <dc:format>image/svg+xml</dc:format>
        <dc:type
           rdf:resource="http://purl.org/dc/dcmitype/StillImage" />
        <dc:title></dc:title>
      </cc:Work>
    </rdf:RDF>
  </metadata>
  <g
     inkscape:label="Layer 1"
     inkscape:groupmode="layer"
     id="layer1">
    <g
       id="g3931">
      <g
         id="g3810">
        <path
           style="fill:#396d09;fill-opacity:1;stroke:none"
           d="m 740.94689,261.91782 c 0,0 3.49845,33.96772 3.53554,51.0127 0.0283,12.99089 -2.31366,25.90167 -2.52539,38.89087 -0.25532,15.66343 1.17845,31.31021 1.51523,46.9721 0.33662,15.65465 0.66049,31.31459 0.50508,46.97209 -0.16383,16.50607 -1.26266,32.99252 -1.51523,49.49747 -0.15456,10.10034 0,30.30458 0,30.30458 0,0 -25.94177,1.84859 -38.89087,3.03046 -14.49766,1.32321 -28.91874,3.46582 -43.43656,4.54568 -18.99069,1.41257 -38.03054,2.58004 -57.07362,2.52539 -16.85684,-0.0484 -33.65118,-2.40167 -50.50763,-2.52539 -14.31902,-0.1051 -28.64363,0.56515 -42.93148,1.51523 -15.52865,1.03258 -30.92257,3.78717 -46.46702,4.54569 -16.81587,0.82056 -33.67652,0.40051 -50.50763,0 -17.69269,-0.42102 -35.39697,-1.04923 -53.033,-2.52538 -4.22439,-0.35358 -12.62691,-1.51523 -12.62691,-1.51523 0,0 0.48219,-42.09362 1.01015,-63.13453 0.49439,-19.70328 1.9428,-39.3846 2.02031,-59.09393 0.0503,-12.7996 -0.96725,-25.58618 -1.01016,-38.3858 -0.0576,-17.1758 1.34636,-34.34518 1.01016,-51.51778 -0.2806,-14.33248 -2.3033,-28.59797 -2.52538,-42.93148 -0.0939,-6.06252 0.50507,-18.18274 0.50507,-18.18274 0,0 23.16464,-3.71433 34.85026,-4.54569 13.60372,-0.96782 27.27334,-0.4209 40.91118,-0.50508 11.27982,-0.0696 22.56007,0 33.84011,0 14.14214,0 28.29161,-0.45549 42.42641,0 10.45452,0.33689 20.86021,1.68342 31.31473,2.02031 13.96653,0.45007 27.94755,0 41.92133,0 12.45855,0 24.91796,-0.14654 37.37564,0 14.31347,0.16837 28.62799,0.45013 42.93149,1.01015 12.2992,0.48154 24.57358,1.48514 36.87057,2.02031 10.43379,0.45409 20.87159,1.11634 31.31472,1.01015 6.40616,-0.0651 19.1929,-1.01015 19.1929,-1.01015 z"
           id="path3773"
           sodipodi:nodetypes="cssssscsssssssscssssscssssssssssc" />
        <path
           style="fill:none;stroke:#000000;stroke-opacity:1"
           d="m 740.94689,261.91782 c 0,0 3.49845,33.96772 3.53554,51.0127 0.0283,12.99089 -2.31366,25.90167 -2.52539,38.89087 -0.25532,15.66343 1.17845,31.31021 1.51523,46.9721 0.33662,15.65465 0.66049,31.31459 0.50508,46.97209 -0.16383,16.50607 -1.26266,32.99252 -1.51523,49.49747 -0.15456,10.10034 0,30.30458 0,30.30458 0,0 -25.94177,1.84859 -38.89087,3.03046 -14.49766,1.32321 -28.91874,3.46582 -43.43656,4.54568 -18.99069,1.41257 -38.03054,2.58004 -57.07362,2.52539 -16.85684,-0.0484 -33.65118,-2.40167 -50.50763,-2.52539 -14.31902,-0.1051 -28.64363,0.56515 -42.93148,1.51523 -15.52865,1.03258 -30.92257,3.78717 -46.46702,4.54569 -16.81587,0.82056 -33.67652,0.40051 -50.50763,0 -17.69269,-0.42102 -35.39697,-1.04923 -53.033,-2.52538 -4.22439,-0.35358 -12.62691,-1.51523 -12.62691,-1.51523 0,0 0.48219,-42.09362 1.01015,-63.13453 0.49439,-19.70328 1.9428,-39.3846 2.02031,-59.09393 0.0503,-12.7996 -0.96725,-25.58618 -1.01016,-38.3858 -0.0576,-17.1758 1.34636,-34.34518 1.01016,-51.51778 -0.2806,-14.33248 -2.3033,-28.59797 -2.52538,-42.93148 -0.0939,-6.06252 0.50507,-18.18274 0.50507,-18.18274 0,0 23.16464,-3.71433 34.85026,-4.54569 13.60372,-0.96782 27.27334,-0.4209 40.91118,-0.50508 11.27982,-0.0696 22.56007,0 33.84011,0 14.14214,0 28.29161,-0.45549 42.42641,0 10.45452,0.33689 20.86021,1.68342 31.31473,2.02031 13.96653,0.45007 27.94755,0 41.92133,0 12.45855,0 24.91796,-0.14654 37.37564,0 14.31347,0.16837 28.62799,0.45013 42.93149,1.01015 12.2992,0.48154 24.57358,1.48514 36.87057,2.02031 10.43379,0.45409 20.87159,1.11634 31.31472,1.01015 6.40616,-0.0651 19.1929,-1.01015 19.1929,-1.01015 z"
           id="path3773-1"
           sodipodi:nodetypes="cssssscsssssssscssssscssssssssssc" />
        <path
           style="fill:#000000;fill-opacity:0.31555553;stroke:none"
           d="m 346.9874,534.659 c 0,0 8.16005,-7.43467 13.13198,-9.59645 7.38846,-3.21248 15.71201,-3.85043 23.73859,-4.54568 20.46589,-1.77274 41.07761,1.19582 61.6193,1.01015 24.42553,-0.22078 48.8247,-1.66465 73.23606,-2.52538 18.68834,-0.65894 37.36533,-1.76017 56.06347,-2.02031 20.53847,-0.28575 41.08578,1.03878 61.6193,0.50508 13.99438,-0.36374 28.34173,0.87604 41.92133,-2.52538 6.64989,-1.66566 13.21093,-4.4633 18.68783,-8.5863 6.3901,-4.81046 11.58696,-11.29756 15.65736,-18.18274 5.39502,-9.12581 9.35876,-19.34417 11.11168,-29.7995 2.25557,-13.45344 -0.84178,-27.271 -1.01015,-40.91118 -0.17871,-14.47775 0.11311,-28.95815 0,-43.43656 -0.0842,-10.77595 -0.52653,-21.54863 -0.50508,-32.32488 0.0171,-8.58793 0.26196,-17.17438 0.50508,-25.75889 0.25754,-9.09396 -0.10623,-18.24527 1.01015,-27.27412 0.69693,-5.63654 0.55466,-11.8332 3.53553,-16.66752 2.829,-4.58803 12.62691,-10.10152 12.62691,-10.10152 0,0 2.27128,17.48398 3.03046,26.26396 0.75543,8.73661 1.64618,17.49573 1.51523,26.26397 -0.14385,9.63223 -2.23776,19.16034 -2.52539,28.78935 -0.36207,12.1211 0.73905,24.24202 1.01016,36.36549 0.22211,9.93211 0.42089,19.86526 0.50507,29.7995 0.12126,14.30998 0.13758,28.62165 0,42.93148 -0.0842,8.75587 -0.34913,17.50908 -0.50507,26.26397 -0.18292,10.26963 -0.25531,20.54142 -0.50508,30.80965 -0.12698,5.22029 -0.50508,15.65736 -0.50508,15.65736 0,0 -25.93627,2.26166 -38.89087,3.53554 -17.52246,1.72305 -34.97281,4.20554 -52.52793,5.55584 -13.94879,1.07291 -27.93174,2.12698 -41.92133,2.0203 -10.62765,-0.081 -21.20202,-1.55548 -31.81981,-2.0203 -13.96446,-0.61133 -27.94905,-1.40414 -41.92133,-1.01016 -10.46797,0.29517 -20.88144,1.62424 -31.31473,2.52539 -12.80176,1.10572 -25.555,2.84381 -38.38579,3.53553 -10.59256,0.57106 -21.21198,0.55347 -31.81981,0.50508 -13.47277,-0.0615 -26.94841,-0.37006 -40.4061,-1.01016 -9.60919,-0.45705 -19.2114,-1.12132 -28.78935,-2.0203 -5.73845,-0.5386 -17.17259,-2.02031 -17.17259,-2.02031 z"
           id="path3800"
           sodipodi:nodetypes="csssssssssssssssscsssssssscssssssssssc" />
      </g>
      <g
         id="g3805">
        <path
           style="fill:#396d09;fill-opacity:1;stroke:none"
           d="m -54.642857,263.79075 c 0,0 18.088558,-1.74269 27.142857,-2.5 15.822775,-1.32343 31.6465001,-2.68926 47.5,-3.57143 9.872132,-0.54933 19.757595,-1.27724 29.642857,-1.07142 9.192461,0.1914 18.312496,1.78544 27.5,2.14285 9.992443,0.38873 20.00601,-0.3466 30.000003,0 8.58691,0.2978 17.13026,1.41392 25.71428,1.78572 6.89932,0.29883 13.8098,0.22338 20.71429,0.35714 11.07191,0.2145 22.14579,1.06329 33.21428,0.71429 7.04549,-0.22215 14.04227,-1.25746 21.07143,-1.78572 7.25704,-0.54539 14.50851,-1.36345 21.78572,-1.42857 10.01093,-0.0896 19.99468,1.08165 30,1.42857 5.47419,0.18981 10.95394,0.18034 16.42857,0.35714 8.33664,0.26923 16.67512,0.55344 25,1.07143 5.84144,0.36346 11.65212,1.19028 17.5,1.42857 5.1148,0.20842 10.24044,0.15491 15.35714,0 3.93398,-0.1191 11.78572,-0.71428 11.78572,-0.71428 0,0 1.04973,13.3474 1.78571,20 0.69982,6.32572 2.03124,12.58154 2.5,18.92857 0.54371,7.36186 0.29761,14.76119 0.35714,22.14286 0.0586,7.26167 -0.21331,14.52694 0,21.78571 0.17865,6.0793 0.96186,12.13335 1.07143,18.21429 0.0944,5.2386 -0.24189,10.4761 -0.35714,15.71428 -0.1231,5.59515 -0.49028,11.1908 -0.35714,16.78572 0.16465,6.9192 1.39126,13.79322 1.42857,20.71428 0.0553,10.25524 -1.10648,20.48142 -1.78572,30.71429 -0.52976,7.98081 -1.71939,15.93048 -1.78571,23.92857 -0.0682,8.22779 1.05563,16.42324 1.42857,24.64286 0.32932,7.25834 0.5267,14.52233 0.71429,21.78571 0.16293,6.30854 0.35714,18.92857 0.35714,18.92857 0,0 -18.80877,0.35428 -28.21429,0.35715 -9.88167,0.003 -19.7654,-0.64577 -29.64285,-0.35715 -10.1399,0.29629 -20.22107,1.73629 -30.35715,2.14286 -12.25263,0.49147 -24.52374,0.46947 -36.78571,0.35714 -12.74257,-0.11674 -25.47969,-0.60613 -38.21429,-1.07143 -13.21886,-0.483 -26.43349,-1.08969 -39.64285,-1.78571 -13.81548,-0.72796 -27.61871,-1.67232 -41.42858,-2.5 -9.999754,-0.59933 -19.996346,-1.25536 -29.999996,-1.78571 -10.23479,-0.5426 -20.466653,-1.25141 -30.714285,-1.42858 -9.999214,-0.17287 -19.999291,0.35715 -30,0.35715 -10.0007086,0 -20.0127445,0.16141 -30,-0.35715 -9.073693,-0.47112 -18.066522,-2.08289 -27.142858,-2.5 -5.470417,-0.2514 -16.428571,0 -16.428571,0 0,0 0.297619,-32.61872 0.357143,-48.92857 0.0491,-13.45229 0.203754,-26.9063 0,-40.35714 -0.178592,-11.78977 -0.724481,-23.57112 -1.071429,-35.35714 -0.245304,-8.33312 -0.546766,-16.66495 -0.714286,-25 -0.20574,-10.23672 -0.630986,-20.47916 -0.357142,-30.71429 0.293552,-10.97172 1.270192,-21.91624 2.142857,-32.85714 0.503893,-6.31747 1.58668,-12.59416 1.785714,-18.92857 0.239397,-7.61901 -1.199587,-15.24984 -0.714286,-22.85715 0.191888,-3.00793 1.428572,-8.92857 1.428572,-8.92857 z"
           id="path3738"
           sodipodi:nodetypes="cssssssssssssssscsssssssssssscsssssssssssscssssssssc" />
        <path
           style="fill:none;stroke:#000000;stroke-opacity:1"
           d="m -54.642856,263.79075 c 0,0 18.088557,-1.74269 27.142856,-2.5 15.822775,-1.32343 31.646501,-2.68926 47.5,-3.57143 9.872132,-0.54933 19.757595,-1.27724 29.642862,-1.07142 9.19246,0.1914 18.31249,1.78544 27.5,2.14285 9.99244,0.38873 20.00601,-0.3466 29.999998,0 8.58691,0.2978 17.13026,1.41392 25.71428,1.78572 6.89932,0.29883 13.8098,0.22338 20.71429,0.35714 11.07191,0.2145 22.14579,1.06329 33.21428,0.71429 7.04549,-0.22215 14.04227,-1.25746 21.07143,-1.78572 7.25704,-0.54539 14.50851,-1.36345 21.78572,-1.42857 10.01093,-0.0896 19.99468,1.08165 30,1.42857 5.47419,0.18981 10.95394,0.18034 16.42857,0.35714 8.33664,0.26923 16.67512,0.55344 25,1.07143 5.84144,0.36346 11.65212,1.19028 17.5,1.42857 5.1148,0.20842 10.24044,0.15491 15.35714,0 3.93398,-0.1191 11.78572,-0.71428 11.78572,-0.71428 0,0 1.04973,13.3474 1.78571,20 0.69982,6.32572 2.03124,12.58154 2.5,18.92857 0.54371,7.36186 0.29761,14.76119 0.35714,22.14286 0.0586,7.26167 -0.21331,14.52694 0,21.78571 0.17865,6.0793 0.96186,12.13334 1.07143,18.21428 0.0944,5.2386 -0.24189,10.4761 -0.35714,15.71428 -0.1231,5.59515 -0.49028,11.1908 -0.35714,16.78572 0.16465,6.9192 1.39126,13.79322 1.42857,20.71428 0.0553,10.25524 -1.10648,20.48142 -1.78572,30.71429 -0.52976,7.98081 -1.71939,15.93048 -1.78571,23.92857 -0.0682,8.22779 1.05563,16.42324 1.42857,24.64286 0.32932,7.25834 0.5267,14.52233 0.71429,21.78571 0.16293,6.30854 0.35714,18.92857 0.35714,18.92857 0,0 -18.80877,0.35428 -28.21429,0.35715 -9.88167,0.003 -19.7654,-0.64577 -29.64285,-0.35715 -10.1399,0.29629 -20.22107,1.73629 -30.35715,2.14286 -12.25263,0.49147 -24.52374,0.46947 -36.78571,0.35714 -12.74257,-0.11674 -25.47969,-0.60613 -38.21429,-1.07143 -13.21886,-0.483 -26.43349,-1.08969 -39.64285,-1.78571 -13.81548,-0.72796 -27.61871,-1.67232 -41.42858,-2.5 -9.999758,-0.59933 -19.996348,-1.25536 -29.999998,-1.78571 -10.23479,-0.5426 -20.46665,-1.25141 -30.71428,-1.42858 -9.999217,-0.17287 -19.999294,0.35715 -30.000003,0.35715 -10.000708,0 -20.012744,0.16141 -30,-0.35715 -9.073693,-0.47112 -18.066522,-2.08289 -27.142858,-2.5 -5.470417,-0.2514 -16.42857,0 -16.42857,0 0,0 0.297619,-32.61872 0.357143,-48.92857 0.0491,-13.45229 0.203754,-26.9063 0,-40.35714 -0.178592,-11.78977 -0.724481,-23.57112 -1.071429,-35.35714 -0.245305,-8.33312 -0.546767,-16.66495 -0.714287,-25 -0.20574,-10.23672 -0.630986,-20.47916 -0.357142,-30.71428 0.293552,-10.97172 1.270193,-21.91624 2.142858,-32.85714 0.503893,-6.31747 1.58668,-12.59416 1.785714,-18.92857 0.239397,-7.61901 -1.199587,-15.24984 -0.714286,-22.85715 0.191888,-3.00793 1.428572,-8.92857 1.428572,-8.92857 z"
           id="path3738-4"
           sodipodi:nodetypes="cssssssssssssssscsssssssssssscsssssssssssscssssssssc" />
        <path
           style="fill:#000000;fill-opacity:0.31555553;stroke:none"
           d="m -57.326157,527.08286 c 0,0 9.396973,-6.98068 14.89975,-8.5863 8.978968,-2.61992 18.679152,-1.13999 28.031733,-1.26269 17.9318259,-0.23526 35.866827,0.42425 53.790623,1.01015 19.877285,0.64976 39.735652,1.78999 59.599001,2.77792 19.11178,0.95055 38.19883,2.4746 57.32616,3.03046 15.90341,0.46217 31.81958,0.24253 47.7297,0.25254 20.87665,0.0131 41.76777,0.53779 62.62946,-0.25254 15.26477,-0.57829 31.20969,1.52387 45.7094,-3.28299 3.41346,-1.13161 6.61423,-3.20147 9.09138,-5.80838 4.33692,-4.56411 7.23104,-10.48406 9.34391,-16.41498 2.54967,-7.15703 3.12859,-14.90695 3.78807,-22.4759 1.06682,-12.24409 0.21045,-24.58016 0.25254,-36.87056 0.0395,-11.53251 -0.20223,-23.06693 0,-34.59773 0.16838,-9.60088 1.00725,-19.18699 1.01015,-28.78935 0.003,-9.77061 -0.58501,-19.53306 -1.01015,-29.29442 -0.41814,-9.60063 -1.09118,-19.18898 -1.51523,-28.78935 -0.31222,-7.06868 -0.93816,-14.13993 -0.75761,-21.2132 0.14877,-5.8284 0.0887,-11.77205 1.51522,-17.42513 0.98714,-3.91184 2.39506,-7.87104 4.79823,-11.11168 1.70778,-2.30292 6.56599,-5.55584 6.56599,-5.55584 0,0 0.77962,12.14547 1.51523,18.18275 0.57748,4.73948 1.76092,9.39512 2.27284,14.14213 0.65085,6.03527 0.91229,12.11328 1.01016,18.18275 0.0584,3.62022 -0.23491,7.23849 -0.25254,10.85914 -0.0303,6.22977 -0.004,12.46326 0.25254,18.68782 0.2015,4.88985 0.79642,9.75788 1.01015,14.64721 0.19856,4.54213 0.32692,9.0912 0.25254,13.63706 -0.0538,3.28687 -0.42087,6.56276 -0.50508,9.84899 -0.10997,4.29174 -0.0631,8.58676 0,12.87944 0.0421,2.86303 0.0281,5.73177 0.25254,8.5863 0.25941,3.29969 1.07934,6.5442 1.26269,9.84899 0.27982,5.04371 0.0143,10.10788 -0.25254,15.15229 -0.25005,4.72619 -0.81079,9.43096 -1.26269,14.14213 -0.63023,6.57028 -1.50998,13.1173 -2.02031,19.69798 -0.24767,3.19366 -0.52516,6.39327 -0.50507,9.59645 0.0243,3.8804 0.49785,7.74498 0.75761,11.61675 0.32761,4.88302 0.74589,9.76035 1.01016,14.64721 0.23201,4.29018 0.36124,8.58541 0.50507,12.87945 0.20298,6.05985 0.42089,12.12007 0.50508,18.18274 0.0397,2.86182 0,8.5863 0,8.5863 0,0 -10.60593,0.25357 -15.9099,0.25254 -10.35544,-0.002 -20.70678,-0.52046 -31.0622,-0.50508 -4.37813,0.007 -8.76024,0.016 -13.13198,0.25254 -8.52334,0.46115 -16.98305,1.8109 -25.50635,2.27284 -8.6594,0.46932 -17.3394,0.46702 -26.01143,0.50508 -7.91323,0.0347 -15.82857,-0.024 -23.73858,-0.25254 -8.92921,-0.258 -17.84078,-0.97386 -26.76905,-1.26269 -9.59291,-0.31033 -19.19756,-0.16182 -28.78934,-0.50508 -12.46876,-0.44622 -24.92245,-1.25435 -37.37565,-2.0203 -9.76954,-0.60089 -19.52768,-1.37557 -29.294421,-2.02031 -9.342139,-0.61671 -18.684184,-1.23935 -28.031733,-1.76776 -8.415019,-0.47569 -16.825749,-1.18178 -25.253814,-1.26269 -5.473997,-0.0525 -10.941377,0.42088 -16.414979,0.50507 -6.733554,0.10357 -13.469167,0.0792 -20.203051,0 -7.1567326,-0.0842 -14.32807,0.0236 -21.465742,-0.50507 -4.73775,-0.35095 -9.412552,-1.32001 -14.142135,-1.76777 -5.206691,-0.49293 -10.432695,-0.77472 -15.657365,-1.01015 -3.280746,-0.14784 -9.848987,-0.25254 -9.848987,-0.25254 z"
           id="path3766"
           sodipodi:nodetypes="cssssssssssssssssssscssssssssssssssssssscsssssssssssssssssc" />
      </g>
      <g
         id="g3732">
        <path
           style="fill:#396d09;fill-opacity:1;stroke:none"
           d="m -110.10663,766.48901 c 0,0 -4.52125,-53.84306 -6.06091,-80.8122 -0.97954,-17.15786 -1.45452,-34.3413 -2.02031,-51.51778 -0.8317,-25.2491 -2.37183,-50.5011 -2.0203,-75.76144 0.25808,-18.5452 2.52519,-37.01828 3.03045,-55.55839 0.51369,-18.84918 1.64473,-37.78423 0,-56.56854 -1.01402,-11.58098 -3.96309,-22.91074 -6.06091,-34.34519 -1.29893,-7.08003 -4.412,-14.02459 -4.04061,-21.2132 0.18138,-3.51075 0.93917,-7.27579 3.03046,-10.10153 1.44445,-1.95173 3.70867,-3.4384 6.06091,-4.04061 7.53084,-1.92801 15.48404,1.40664 23.233511,2.0203 4.711307,0.37308 9.463114,0.34505 14.142135,1.01016 4.773081,0.67848 9.907208,0.72655 14.142136,3.03046 4.182962,2.27564 8.179783,5.74461 10.101525,10.10152 5.985232,13.56951 1.313277,29.63271 2.020306,44.44671 0.642892,13.47019 1.964234,26.92069 2.020305,40.4061 0.03363,8.08817 -0.735399,16.1601 -1.010153,24.24367 -0.434801,12.79231 -1.108279,25.58647 -1.010152,38.38579 0.06201,8.08799 1.086542,16.15579 1.010152,24.24366 -0.105138,11.13157 -2.020305,33.33504 -2.020305,33.33504 0,0 21.479788,3.49491 32.324881,4.04061 14.1282698,0.7109 28.2899248,-1.5329 42.426407,-1.01016 17.24314,0.63761 34.290807,4.06902 51.51778,5.05077 20.84538,1.18796 41.750942,0.84179 62.629462,1.01015 16.83533,0.13576 33.67229,-0.13576 50.50762,0 20.87852,0.16836 41.75311,0.66487 62.62946,1.01015 19.86647,0.32857 39.76009,-0.0863 59.599,1.01016 10.80572,0.59721 21.53371,3.84946 32.32488,3.03045 9.69038,-0.73546 18.62286,-6.02152 28.28427,-7.07106 11.72097,-1.27327 23.60167,0.0863 35.35534,1.01015 10.49241,0.82475 20.79036,3.94765 31.31473,4.04061 12.19595,0.10773 24.17763,-3.58361 36.36549,-4.04061 9.42748,-0.3535 18.85427,0.73212 28.28427,1.01015 14.47648,0.42682 28.9538,1.02741 43.43656,1.01015 13.13629,-0.0157 26.26397,-0.67343 39.39595,-1.01015 13.13198,-0.33672 26.26062,-1.1699 39.39595,-1.01015 13.48453,0.164 26.92478,1.68348 40.4061,2.0203 12.45466,0.31117 24.9171,0 37.37565,0 12.45855,0 37.37564,0 37.37564,0 0,0 -1.1288,-19.52453 -1.01015,-29.29442 0.20889,-17.20101 2.97737,-34.31558 3.03046,-51.51778 0.0396,-12.81292 -2.74108,-25.59311 -2.02031,-38.3858 0.6913,-12.26958 5.04731,-24.11833 6.06092,-36.36549 0.80541,-9.73153 0,-19.52961 0,-29.29442 0,-8.08122 -5.34817,-18.18535 0,-24.24366 7.18639,-8.14062 21.46611,-4.06964 32.32488,-4.04061 7.81008,0.0209 15.42961,2.71913 23.23351,3.03045 6.7374,0.26878 15.0267,-5.33106 20.20305,-1.01015 5.99574,5.00488 3.48037,15.43637 3.03046,23.23351 -0.47986,8.3161 -4.60358,16.0422 -6.06092,24.24366 -1.65891,9.33581 -2.31909,18.82894 -3.03046,28.28427 -1.16313,15.45995 -2.43128,30.96883 -2.0203,46.46702 0.27799,10.48332 2.94882,20.82804 3.03046,31.31473 0.0973,12.49905 -2.05796,24.9141 -3.03046,37.37564 -1.05085,13.46559 -2.52503,26.90903 -3.03046,40.4061 -0.47881,12.7863 0.164,25.59158 0,38.3858 -0.16837,13.13522 -0.49653,26.2697 -1.01015,39.39595 -0.50098,12.80318 -1.52733,25.58231 -2.02031,38.3858 -0.53132,13.7993 -1.01015,41.41625 -1.01015,41.41625 0,0 -35.69269,-0.15122 -53.53808,0 -19.86847,0.16836 -39.73007,1.11022 -59.599,1.01015 -24.92588,-0.12554 -49.82513,-1.98023 -74.75129,-2.0203 -28.29225,-0.0455 -56.56244,2.34875 -84.85282,2.0203 -28.65073,-0.33264 -57.21445,-3.553 -85.86296,-4.04061 -25.92568,-0.44127 -51.85468,1.3601 -77.78175,1.01016 -25.27171,-0.34109 -50.51533,-1.84327 -75.76144,-3.03046 -37.38889,-1.7582 -74.71037,-5.0504 -112.12693,-6.06092 -25.24461,-0.68179 -50.51943,0.77199 -75.76144,0 -16.522328,-0.50531 -32.969088,-2.79595 -49.497478,-3.03045 -20.548737,-0.29153 -41.07467,2.52384 -61.6193049,2.0203 -20.6024651,-0.50496 -41.0562191,-3.68107 -61.6193051,-5.05076 -13.120167,-0.87392 -39.395952,-2.02031 -39.395952,-2.02031 z"
           id="path3683"
           sodipodi:nodetypes="csssssssssssssssssscsssssssssssssssssscssssssssssssssssssscssssssssssssc" />
        <path
           style="fill:none;stroke:#000000;stroke-opacity:1"
           d="m -110.10663,766.48901 c 0,0 -4.52125,-53.84306 -6.06091,-80.8122 -0.97954,-17.15786 -1.45452,-34.3413 -2.02031,-51.51778 -0.8317,-25.2491 -2.37183,-50.5011 -2.0203,-75.76144 0.25808,-18.5452 2.52519,-37.01828 3.03045,-55.55839 0.51369,-18.84918 1.64473,-37.78423 0,-56.56854 -1.01402,-11.58098 -3.96309,-22.91074 -6.06091,-34.34519 -1.29893,-7.08003 -4.412,-14.02459 -4.04061,-21.2132 0.18138,-3.51075 0.93917,-7.27579 3.03046,-10.10153 1.44445,-1.95173 3.70867,-3.4384 6.06091,-4.04061 7.53084,-1.92801 15.48404,1.40664 23.233514,2.0203 4.711307,0.37308 9.463114,0.34505 14.142135,1.01016 4.773081,0.67848 9.907208,0.72655 14.142136,3.03046 4.182962,2.27564 8.179783,5.74461 10.101525,10.10152 5.985232,13.56951 1.313277,29.63271 2.020306,44.44671 0.642892,13.47019 1.964234,26.92069 2.020305,40.4061 0.03363,8.08817 -0.735399,16.1601 -1.010153,24.24367 -0.434801,12.79231 -1.108279,25.58647 -1.010152,38.38579 0.06201,8.08799 1.086542,16.15579 1.010152,24.24366 -0.105138,11.13157 -2.020305,33.33504 -2.020305,33.33504 0,0 21.479788,3.49491 32.324877,4.04061 14.12827,0.7109 28.28993,-1.5329 42.42641,-1.01016 17.24314,0.63761 34.29081,4.06902 51.51778,5.05077 20.84538,1.18796 41.75094,0.84179 62.62946,1.01015 16.83533,0.13576 33.67229,-0.13576 50.50762,0 20.87852,0.16836 41.75311,0.66487 62.62946,1.01015 19.86647,0.32857 39.76009,-0.0863 59.599,1.01016 10.80572,0.59721 21.53371,3.84946 32.32488,3.03045 9.69038,-0.73546 18.62286,-6.02152 28.28427,-7.07106 11.72097,-1.27327 23.60167,0.0863 35.35534,1.01015 10.49241,0.82475 20.79036,3.94765 31.31473,4.04061 12.19595,0.10773 24.17763,-3.58361 36.36549,-4.04061 9.42748,-0.3535 18.85427,0.73212 28.28427,1.01015 14.47648,0.42682 28.9538,1.02741 43.43656,1.01015 13.13629,-0.0157 26.26397,-0.67343 39.39595,-1.01015 13.13198,-0.33672 26.26062,-1.1699 39.39595,-1.01015 13.48453,0.164 26.92478,1.68348 40.4061,2.0203 12.45466,0.31117 24.9171,0 37.37565,0 12.45855,0 37.37564,0 37.37564,0 0,0 -1.1288,-19.52453 -1.01015,-29.29442 0.20889,-17.20101 2.97737,-34.31558 3.03046,-51.51778 0.0396,-12.81292 -2.74108,-25.59311 -2.02031,-38.3858 0.6913,-12.26958 5.04731,-24.11833 6.06092,-36.36549 0.80541,-9.73153 0,-19.52961 0,-29.29442 0,-8.08122 -5.34817,-18.18535 0,-24.24366 7.18639,-8.14062 21.46611,-4.06964 32.32488,-4.04061 7.81008,0.0209 15.42961,2.71913 23.23351,3.03045 6.7374,0.26878 15.0267,-5.33106 20.20305,-1.01015 5.99574,5.00488 3.48037,15.43637 3.03046,23.23351 -0.47986,8.3161 -4.60358,16.0422 -6.06092,24.24366 -1.65891,9.33581 -2.31909,18.82894 -3.03046,28.28427 -1.16313,15.45995 -2.43128,30.96883 -2.0203,46.46702 0.27799,10.48332 2.94882,20.82804 3.03046,31.31473 0.0973,12.49905 -2.05796,24.9141 -3.03046,37.37564 -1.05085,13.46559 -2.52503,26.90903 -3.03046,40.4061 -0.47881,12.7863 0.164,25.59158 0,38.3858 -0.16837,13.13522 -0.49653,26.2697 -1.01015,39.39595 -0.50098,12.80318 -1.52733,25.58231 -2.02031,38.3858 -0.53132,13.7993 -1.01015,41.41625 -1.01015,41.41625 0,0 -35.69269,-0.15122 -53.53808,0 -19.86847,0.16836 -39.73007,1.11022 -59.599,1.01015 -24.92588,-0.12554 -49.82513,-1.98023 -74.75129,-2.0203 -28.29225,-0.0455 -56.56244,2.34875 -84.85282,2.0203 -28.65073,-0.33264 -57.21445,-3.553 -85.86296,-4.04061 -25.92568,-0.44127 -51.85468,1.3601 -77.78175,1.01016 -25.27171,-0.34109 -50.51533,-1.84327 -75.76144,-3.03046 -37.38889,-1.7582 -74.71037,-5.0504 -112.12693,-6.06092 -25.24461,-0.68179 -50.51943,0.77199 -75.76144,0 -16.52232,-0.50531 -32.96908,-2.79595 -49.49747,-3.03045 -20.54874,-0.29153 -41.07467,2.52384 -61.61931,2.0203 -20.602465,-0.50496 -41.056219,-3.68107 -61.619305,-5.05076 -13.120167,-0.87392 -39.395955,-2.02031 -39.395955,-2.02031 z"
           id="path3683-3"
           sodipodi:nodetypes="csssssssssssssssssscsssssssssssssssssscssssssssssssssssssscssssssssssssc" />
        <path
           style="fill:#000000;fill-opacity:0.31555553;stroke:none"
           d="m -56.032829,597.82417 -5.0814,2.99982 c 0,0 0.841787,-37.03663 1.010153,-55.55839 0.130079,-14.3099 -0.0862,-28.62125 0,-42.93148 0.08418,-13.97454 0.62337,-27.94704 0.505076,-41.92133 -0.09838,-11.62122 -1.060943,-23.22874 -1.010153,-34.85026 0.03902,-8.92928 1.872156,-17.88138 1.010153,-26.76904 -0.28384,-2.92653 -1.153836,-5.77661 -2.020305,-8.5863 -0.691041,-2.24083 -2.525382,-6.56599 -2.525382,-6.56599 0,0 4.905314,4.31645 6.565992,7.07107 1.841882,3.05519 2.88619,6.59366 3.535534,10.10152 1.042362,5.63101 0.630014,11.44728 0.505076,17.17259 -0.150998,6.91952 -1.521525,13.78697 -1.515229,20.70813 0.0061,6.75326 1.075368,13.46413 1.515229,20.20305 0.395375,6.05737 0.928405,12.11304 1.010153,18.18275 0.07939,5.89443 -0.322702,11.78553 -0.505077,17.67767 -0.156344,5.05115 -0.33943,10.10144 -0.505076,15.15229 -0.171162,5.21903 -0.420886,10.4362 -0.505076,15.65736 -0.09772,6.06013 -0.108179,12.1228 0,18.18275 0.08419,4.7163 0.474473,9.42518 0.505076,14.14213 0.04807,7.40954 -0.125298,14.8234 -0.505076,22.22336 -0.216417,4.21686 -0.168019,8.48932 -1.010153,12.6269 -0.31855,1.5651 -0.979515,5.0814 -0.979515,5.0814 z"
           id="path3707"
           sodipodi:nodetypes="ccsssssscsssssssssssssc" />
        <path
           style="fill:#000000;fill-opacity:0.31555553;stroke:none"
           d="m -109.85409,766.23648 3.283,-3.283 c 0,0 13.802838,0.88645 20.708124,1.26269 10.518935,0.57313 21.051457,0.88737 31.567267,1.51523 11.794135,0.70418 23.546336,2.14465 35.355339,2.52538 12.284095,0.39604 24.5813054,-0.0797 36.870568,-0.25254 11.870805,-0.16693 23.73729,-0.93941 35.607877,-0.75761 12.979582,0.19878 25.920494,1.49273 38.890873,2.0203 11.443882,0.46548 22.892622,0.87586 34.345182,1.01015 14.14141,0.16582 28.28553,-0.45907 42.42641,-0.25253 16.76027,0.24479 33.5124,0.9622 50.25509,1.76776 11.03528,0.53095 22.05145,1.40773 33.0825,2.02031 16.83097,0.93467 33.66204,1.90756 50.50762,2.52538 18.0072,0.66043 36.02424,1.14607 54.04317,1.26269 16.16298,0.10461 32.3245,-0.37837 48.48732,-0.50508 15.99381,-0.12539 31.98814,-0.33346 47.98224,-0.25253 10.94447,0.0554 21.888,0.26385 32.82996,0.50507 17.59646,0.38792 35.17973,1.51714 52.78047,1.51523 20.37993,-0.002 40.73525,-1.57061 61.11423,-1.76777 17.59347,-0.17021 35.18851,0.21871 52.78047,0.50508 14.64914,0.23846 29.29068,0.95003 43.94164,1.01015 17.09014,0.0701 34.17543,-0.63134 51.26524,-0.75761 13.04745,-0.0964 26.0972,0.2038 39.14341,0 2.69473,-0.0421 8.08122,-0.25254 8.08122,-0.25254 0,0 0.25982,-16.33275 0.50508,-24.4962 0.38454,-12.79946 0.85968,-25.59736 1.51523,-38.3858 0.4793,-9.35019 1.42425,-18.67556 1.76776,-28.03173 0.29651,-8.07622 0.25006,-16.162 0.25254,-24.24366 0.003,-8.58671 -0.46025,-17.17469 -0.25254,-25.75889 0.21009,-8.68263 1.03038,-17.3398 1.51523,-26.01143 0.26354,-4.71344 0.48998,-9.42892 0.75762,-14.14213 0.4781,-8.41951 1.1206,-16.82998 1.51522,-25.25382 0.35078,-7.48801 0.74842,-14.97968 0.75762,-22.47589 0.007,-5.39011 -0.42089,-10.77299 -0.50508,-16.16244 -0.11965,-7.65939 -0.0473,-15.32079 0,-22.98097 0.0421,-6.81892 -0.13489,-13.64756 0.25254,-20.45559 0.28363,-4.98414 1.03412,-9.93079 1.51523,-14.89975 0.70876,-7.32027 1.02481,-14.684 2.0203,-21.97082 1.01914,-7.45994 2.11762,-14.94384 4.04061,-22.22336 0.91114,-3.44914 2.72045,-6.62843 3.53554,-10.10152 0.93038,-3.96434 1.49372,-8.04983 1.51523,-12.12183 0.0157,-2.96542 0.0658,-6.07545 -1.01016,-8.83884 -0.41542,-1.06694 -1.36589,-1.8384 -2.0203,-2.77792 -0.34695,-0.4981 -1.01015,-1.51523 -1.01015,-1.51523 0,0 3.48911,0.67618 4.79822,1.76777 1.65211,1.3776 2.65678,3.4979 3.283,5.55584 0.85911,2.82327 0.49843,5.88776 0.50507,8.83884 0.007,3.20323 -0.0916,6.42 -0.50507,9.59644 -0.4774,3.66721 -1.27895,7.29705 -2.27285,10.85914 -0.88724,3.17983 -2.49862,6.13716 -3.28299,9.34392 -1.1314,4.62554 -1.4368,9.41611 -2.02031,14.14213 -0.4978,4.03186 -0.93516,8.07258 -1.26269,12.12183 -0.3535,4.37034 -0.42343,8.76013 -0.75761,13.13199 -0.27068,3.5412 -0.80388,7.06106 -1.01015,10.6066 -0.22984,3.95065 -0.11403,7.91439 -0.25254,11.86929 -0.12094,3.45334 -0.4976,6.89861 -0.50508,10.35406 -0.008,3.7918 0.14113,7.58991 0.50508,11.36422 0.38394,3.9816 1.32508,7.89379 1.76776,11.86929 0.50444,4.53014 0.94517,9.07938 1.01016,13.63706 0.0529,3.70734 -0.24338,7.41321 -0.50508,11.11168 -0.31039,4.38655 -0.78496,8.76049 -1.26269,13.13198 -0.45145,4.131 -1.07166,8.24251 -1.51523,12.37437 -0.58653,5.46353 -1.0799,10.93733 -1.51523,16.41498 -0.30077,3.78455 -0.52201,7.57506 -0.75761,11.36422 -0.2721,4.37615 -0.6313,8.74919 -0.75762,13.13198 -0.12126,4.20722 -0.0314,8.41806 0,12.62691 0.0421,5.64049 0.21045,11.27956 0.25254,16.92005 0.0352,4.71392 0.0436,9.4283 0,14.14214 -0.0421,4.54627 -0.1142,9.0927 -0.25254,13.63706 -0.30251,9.93748 -0.88383,19.86464 -1.26269,29.7995 -0.18937,4.96583 -0.1998,9.9397 -0.50507,14.89975 -0.29073,4.72386 -1.01452,9.41585 -1.26269,14.14213 -0.27812,5.29667 -0.15846,10.60677 -0.25254,15.9099 -0.0762,4.2933 -0.16995,8.58627 -0.25254,12.87945 -0.0858,4.46148 -0.25254,13.38452 -0.25254,13.38452 0,0 -25.08621,-0.13781 -37.62818,0 -7.66171,0.0842 -15.31982,0.38015 -22.98097,0.50508 -7.91226,0.12903 -15.82572,0.16923 -23.73859,0.25253 -8.08121,0.0851 -16.16209,0.28967 -24.24366,0.25254 -8.58786,-0.0395 -17.17211,-0.36364 -25.75889,-0.50507 -6.31316,-0.10398 -12.62893,-0.0718 -18.94036,-0.25254 -7.66458,-0.2195 -15.31641,-0.78996 -22.98097,-1.01015 -6.22727,-0.1789 -12.45803,-0.27743 -18.68782,-0.25254 -7.83043,0.0313 -15.66023,0.23464 -23.48605,0.50507 -7.07486,0.24448 -14.13997,0.72255 -21.2132,1.01016 -7.49003,0.30456 -14.97969,0.74234 -22.47589,0.75761 -11.36918,0.0232 -22.73426,-0.51433 -34.09265,-1.01015 -4.38044,-0.19122 -8.75528,-0.4946 -13.13199,-0.75762 -12.12361,-0.72858 -24.22759,-1.84369 -36.36549,-2.27284 -10.17969,-0.35992 -20.3713,-0.32196 -30.55711,-0.25254 -11.53507,0.0786 -23.06369,0.58407 -34.59773,0.75762 -10.26907,0.15452 -20.54072,0.41574 -30.80965,0.25254 -14.74131,-0.23428 -29.46614,-1.09969 -44.19417,-1.76777 -11.61974,-0.52708 -23.23283,-1.19206 -34.85027,-1.76777 -10.43764,-0.51725 -20.88627,-0.83747 -31.31472,-1.51523 -8.2596,-0.53681 -16.49147,-1.44878 -24.74874,-2.0203 -7.40203,-0.51233 -14.80987,-0.95831 -22.22336,-1.26269 -6.6467,-0.2729 -13.29974,-0.36255 -19.95051,-0.50508 -4.79786,-0.10282 -9.59575,-0.23187 -14.39467,-0.25254 -9.42838,-0.0406 -18.85613,0.17446 -28.28428,0.25254 -11.02744,0.0913 -22.06057,0.61312 -33.08249,0.25254 -10.376194,-0.33946 -20.703467,-1.58188 -31.062193,-2.27284 -6.984035,-0.46586 -13.963015,-1.09943 -20.960665,-1.2627 -6.228148,-0.14532 -12.461288,0.0495 -18.687822,0.25254 -4.886334,0.15933 -9.763866,0.524 -14.647212,0.75762 -7.658961,0.3664 -15.3132955,1.03651 -22.9809705,1.01015 -9.9459405,-0.0342 -19.8820545,-0.76212 -29.7995005,-1.51523 -7.508555,-0.57018 -14.974142,-1.61921 -22.475894,-2.27284 -6.89504,-0.60077 -13.802394,-1.05333 -20.708127,-1.51523 -8.330437,-0.55719 -16.676736,-0.87595 -25.001276,-1.51523 -3.62467,-0.27835 -10.85914,-0.50507 -10.85914,-0.50507 z"
           id="path3709"
           sodipodi:nodetypes="ccssssssssssssssssssssscssssssssssssssssssscsssssssssssssssssssssssssssssscsssssssssssssssssssssssssssssssssssc" />
      </g>
      <g
         id="g3851">
        <path
           style="fill:#396d09;fill-opacity:1;stroke:none"
           d="m -56.071429,597.71932 c 0,0 1.190396,-18.32406 1.428572,-27.5 0.206965,-7.9735 -0.07524,-15.95273 0,-23.92857 0.05953,-6.31037 0.357143,-18.92857 0.357143,-18.92857 0,0 23.330673,1.02277 35,1.42857 20.7103177,0.7202 41.432722,1.06029 62.142857,1.78572 14.408219,0.50469 28.81398,1.09097 43.214286,1.78571 17.268071,0.8331 34.506421,2.30362 51.785711,2.85714 13.32703,0.42691 26.66872,0.0944 40,0.35715 19.52909,0.38484 39.04082,1.48806 58.57143,1.78571 12.37952,0.18867 24.7633,0.18565 37.14286,0 11.90878,-0.17859 23.80475,-0.9536 35.71428,-1.07143 11.6667,-0.11543 23.33288,0.29762 35,0.35715 2.14283,0.0109 6.42858,0 6.42858,0 0,0 0.55726,13.8072 0.71428,20.71428 0.24622,10.83119 -0.009,21.67219 0.35714,32.5 0.21335,6.31602 1.07143,18.92857 1.07143,18.92857 0,0 -9.15071,3.19005 -13.92857,3.57143 -10.36786,0.82759 -20.68965,-2.22776 -31.07143,-2.85714 -16.16779,-0.98015 -32.37964,-0.99922 -48.57143,-1.42857 -15.11795,-0.40088 -30.23493,-0.89285 -45.35714,-1.07143 -18.68917,-0.22071 -37.38095,0 -56.07143,0 -24.52381,0 -49.05838,0.72644 -73.571426,0 -14.066139,-0.41685 -28.097218,-1.63394 -42.142857,-2.5 C 27.259726,603.58734 12.401572,602.18913 -2.5,601.6479 c -13.681973,-0.49693 -27.521153,1.60074 -41.071429,-0.35715 -4.28886,-0.6197 -12.5,-3.57143 -12.5,-3.57143 z"
           id="path3815"
           sodipodi:nodetypes="csscssssssssscsscsssssssssc" />
        <path
           style="fill:none;stroke:#000000;stroke-opacity:1"
           d="m -56.071429,597.71932 c 0,0 1.190396,-18.32406 1.428572,-27.5 0.206965,-7.9735 -0.07524,-15.95273 0,-23.92857 0.05953,-6.31037 0.357143,-18.92857 0.357143,-18.92857 0,0 23.330673,1.02277 35,1.42857 20.710318,0.7202 41.432722,1.06029 62.142857,1.78572 14.408218,0.50469 28.813978,1.09097 43.214288,1.78571 17.268069,0.8331 34.506419,2.30362 51.785709,2.85714 13.32703,0.42691 26.66872,0.0944 40,0.35715 19.52909,0.38484 39.04082,1.48806 58.57143,1.78571 12.37952,0.18867 24.7633,0.18565 37.14286,0 11.90878,-0.17859 23.80475,-0.9536 35.71428,-1.07143 11.6667,-0.11543 23.33288,0.29762 35,0.35715 2.14283,0.0109 6.42858,0 6.42858,0 0,0 0.55726,13.8072 0.71428,20.71428 0.24622,10.83119 -0.009,21.67219 0.35714,32.5 0.21335,6.31602 1.07143,18.92857 1.07143,18.92857 0,0 -9.15071,3.19005 -13.92857,3.57143 -10.36786,0.82759 -20.68965,-2.22776 -31.07143,-2.85714 -16.16779,-0.98015 -32.37964,-0.99922 -48.57143,-1.42857 -15.11795,-0.40088 -30.23493,-0.89285 -45.35714,-1.07143 -18.68917,-0.22071 -37.38095,0 -56.07143,0 -24.52381,0 -49.05838,0.72644 -73.571429,0 -14.06614,-0.41685 -28.09722,-1.63394 -42.142854,-2.5 C 27.259726,603.58734 12.401572,602.18913 -2.5,601.6479 c -13.681973,-0.49693 -27.521153,1.60074 -41.071429,-0.35715 -4.28886,-0.6197 -12.5,-3.57143 -12.5,-3.57143 z"
           id="path3815-1"
           sodipodi:nodetypes="csscssssssssscsscsssssssssc" />
        <path
           style="fill:#000000;fill-opacity:0.31555553;stroke:none"
           d="m -55.810928,597.28846 c 0,0 6.359979,-1.40213 9.596449,-1.51523 5.826739,-0.20362 11.598277,1.31493 17.425131,1.51523 9.339911,0.32106 18.688319,-0.69906 28.03173359,-0.50508 12.73090041,0.26431 25.42177141,1.52199 38.13325841,2.27285 17.256234,1.01932 34.494242,2.43565 51.770318,3.03046 16.237868,0.55906 32.492478,0.56594 48.739858,0.50507 18.85906,-0.0707 37.70986,-1.1475 56.56855,-1.01015 15.58096,0.11348 31.14246,1.14978 46.71955,1.51523 11.61478,0.27249 23.23463,0.27199 34.85026,0.50507 9.85024,0.19766 19.712,0.17475 29.54697,0.75762 7.25795,0.43014 14.45062,1.81063 21.71828,2.0203 4.79918,0.13845 9.8672,1.09283 14.39467,-0.50507 1.19071,-0.42024 2.31934,-1.22944 3.03046,-2.27285 1.42619,-2.09259 1.66179,-4.81672 2.0203,-7.3236 0.79854,-5.58384 0.33124,-11.27996 0.25254,-16.92006 -0.0823,-5.89739 -0.52417,-11.78433 -0.75761,-17.67767 -0.18337,-4.62929 -0.52153,-9.2567 -0.50508,-13.88959 0.007,-1.93794 -0.42851,-3.99404 0.25254,-5.80838 0.75769,-2.01852 4.04061,-5.05076 4.04061,-5.05076 0,0 1.05208,10.59409 1.26269,15.9099 0.27327,6.8973 -0.0507,13.80561 0,20.70813 0.0421,5.72466 0.06,11.45101 0.25254,17.17259 0.16162,4.80215 0.6313,9.59147 0.75761,14.39467 0.031,1.17811 0,3.53554 0,3.53554 0,0 -5.62482,2.36587 -8.5863,3.03045 -3.22013,0.72262 -6.54888,1.03761 -9.84898,1.01016 -5.67989,-0.0472 -11.2661,-1.4762 -16.92006,-2.02031 -6.88933,-0.663 -13.79415,-1.20004 -20.70813,-1.51523 -13.96156,-0.63646 -27.94903,-0.43364 -41.92133,-0.75761 -8.92419,-0.20692 -17.844,-0.59149 -26.76904,-0.75762 -9.42683,-0.17547 -18.85705,-0.0991 -28.28427,-0.25253 -10.69235,-0.17401 -21.37886,-0.83493 -32.07234,-0.75762 -8.84502,0.0639 -17.67355,0.80901 -26.51651,1.01015 -11.36159,0.25843 -22.73013,0.46622 -34.09265,0.25254 -18.703464,-0.35173 -37.399206,-1.26492 -56.063463,-2.52538 -9.360432,-0.63214 -18.674074,-1.85344 -28.031733,-2.52538 -9.417362,-0.67623 -18.8432474,-1.41005 -28.2842711,-1.51523 -5.3897759,-0.0601 -10.7737669,0.38068 -16.1624409,0.50508 -5.639144,0.13019 -11.313692,0.8735 -16.920055,0.25254 -4.302182,-0.47651 -8.508822,-1.69734 -12.626907,-3.03046 -1.47239,-0.47665 -4.293148,-1.76777 -4.293148,-1.76777 z"
           id="path3847"
           sodipodi:nodetypes="csssssssssssssssssscsssscssssssssssssssssc" />
      </g>
      <g
         id="g3880">
        <path
           style="fill:#396d09;fill-opacity:1;stroke:none"
           d="m 349.64286,536.29075 c 0,0 22.60663,1.66423 33.92857,2.14286 16.65562,0.70411 33.33162,1.33696 50,1.07143 17.88025,-0.28483 35.73462,-1.57926 53.57143,-2.85714 11.92232,-0.85415 23.77344,-2.67804 35.71428,-3.21429 11.53599,-0.51807 23.09969,-0.3204 34.64286,0 15.01735,0.41683 29.97723,2.39592 45,2.5 14.29777,0.0991 28.5852,-0.92105 42.85714,-1.78571 10.49005,-0.63553 20.96386,-1.53317 31.42858,-2.5 9.05902,-0.83696 18.07936,-2.06999 27.14285,-2.85715 8.67817,-0.75369 17.37584,-1.27057 26.07143,-1.78571 2.37976,-0.14098 7.14286,-0.35714 7.14286,-0.35714 0,0 -0.78713,14.99689 -1.07143,22.5 -0.32016,8.44967 -0.44954,16.90555 -0.71429,25.35714 -0.21632,6.90548 -0.79817,13.80593 -0.71428,20.71428 0.0492,4.05432 0.71428,12.14286 0.71428,12.14286 0,0 -27.61853,0.35818 -41.42857,0.35714 -13.57195,-0.001 -27.14594,-0.0441 -40.71428,-0.35714 -12.7436,-0.29403 -25.46863,-1.24398 -38.21429,-1.42857 -14.16568,-0.20515 -28.3354,0.0873 -42.5,0.35714 -12.02693,0.22912 -24.04364,0.89284 -36.07143,1.07143 -14.99835,0.2227 -30.00286,-0.2928 -45,0 -15.24681,0.29768 -30.48248,1.04679 -45.71428,1.78572 -8.21841,0.3987 -16.41515,1.50618 -24.64286,1.42857 -10.86485,-0.10249 -21.64267,-2.08303 -32.5,-2.5 -10.11159,-0.38833 -20.24302,-0.31576 -30.35714,0 -1.90755,0.0596 -5.71429,0.35714 -5.71429,0.35714 0,0 -1.48793,-18.08057 -1.78571,-27.14286 -0.27368,-8.32884 0.22297,-16.66965 0,-25 -0.17864,-6.67384 -1.07143,-20 -1.07143,-20 z"
           id="path3849"
           sodipodi:nodetypes="csssssssssscssscsssssssssscssc" />
        <path
           style="fill:none;stroke:#000000;stroke-opacity:1"
           d="m 349.64286,536.29075 c 0,0 22.60663,1.66423 33.92857,2.14286 16.65562,0.70411 33.33162,1.33696 50,1.07143 17.88025,-0.28483 35.73462,-1.57926 53.57143,-2.85714 11.92232,-0.85415 23.77344,-2.67804 35.71428,-3.21429 11.53599,-0.51807 23.09969,-0.3204 34.64286,0 15.01735,0.41683 29.97723,2.39592 45,2.5 14.29777,0.0991 28.5852,-0.92105 42.85714,-1.78571 10.49005,-0.63553 20.96386,-1.53317 31.42858,-2.5 9.05902,-0.83696 18.07936,-2.06999 27.14285,-2.85715 8.67817,-0.75369 17.37584,-1.27057 26.07143,-1.78571 2.37976,-0.14098 7.14286,-0.35714 7.14286,-0.35714 0,0 -0.78713,14.99689 -1.07143,22.5 -0.32016,8.44967 -0.44954,16.90555 -0.71429,25.35714 -0.21632,6.90548 -0.79817,13.80593 -0.71428,20.71428 0.0492,4.05432 0.71428,12.14286 0.71428,12.14286 0,0 -27.61853,0.35818 -41.42857,0.35714 -13.57195,-0.001 -27.14594,-0.0441 -40.71428,-0.35714 -12.7436,-0.29403 -25.46863,-1.24398 -38.21429,-1.42857 -14.16568,-0.20515 -28.3354,0.0873 -42.5,0.35714 -12.02693,0.22912 -24.04364,0.89284 -36.07143,1.07143 -14.99835,0.2227 -30.00286,-0.2928 -45,0 -15.24681,0.29768 -30.48248,1.04679 -45.71428,1.78572 -8.21841,0.3987 -16.41515,1.50618 -24.64286,1.42857 -10.86485,-0.10249 -21.64267,-2.08303 -32.5,-2.5 -10.11159,-0.38833 -20.24302,-0.31576 -30.35714,0 -1.90755,0.0596 -5.71429,0.35714 -5.71429,0.35714 0,0 -1.48793,-18.08057 -1.78571,-27.14286 -0.27368,-8.32884 0.22297,-16.66965 0,-25 -0.17864,-6.67384 -1.07143,-20 -1.07143,-20 z"
           id="path3849-8"
           sodipodi:nodetypes="csssssssssscssscsssssssssscssc" />
        <path
           style="fill:#000000;fill-opacity:0.31555553;stroke:none"
           d="m 352.67857,608.25504 c 0,0 4.92649,-3.18438 7.67857,-4.10714 3.99899,-1.34085 8.28844,-1.73499 12.5,-1.96429 11.36483,-0.61876 22.7306,1.26597 34.10715,1.60714 13.86396,0.41577 27.74223,0.9185 41.60714,0.53572 7.87239,-0.21734 15.70579,-1.21546 23.57143,-1.60715 9.45725,-0.47095 18.92548,-0.7195 28.39286,-0.89285 11.48632,-0.21032 22.97658,-0.0664 34.46428,-0.17857 12.44116,-0.12152 24.88045,-0.39667 37.32143,-0.53572 14.8805,-0.16632 29.76197,-0.48437 44.64286,-0.35714 14.23015,0.12167 28.44843,0.94865 42.67857,1.07143 15.17847,0.13096 30.35669,-0.38103 45.53571,-0.35715 5.41699,0.009 10.85159,0.62692 16.25,0.17858 1.68722,-0.14012 3.59583,0.053 5,-0.89286 1.57515,-1.06103 2.49888,-2.99971 3.03572,-4.82143 1.49758,-5.08189 0.0958,-10.59555 0.17857,-15.89286 0.093,-5.95284 0.22998,-11.90493 0.35714,-17.85714 0.11191,-5.23825 0.0291,-10.48512 0.35714,-15.71429 0.25476,-4.06102 0.0543,-8.25349 1.25,-12.14285 0.51652,-1.68011 1.49528,-3.2006 2.5,-4.64286 0.77138,-1.1073 2.67858,-3.03571 2.67858,-3.03571 0,0 0.30469,7.50165 0.17857,11.25 -0.14462,4.29814 -0.83136,8.56328 -1.07143,12.85714 -0.23269,4.16187 -0.23809,8.33333 -0.35714,12.5 -0.11905,4.16667 -0.21752,8.33397 -0.35715,12.5 -0.15564,4.64368 -0.54734,9.2823 -0.53571,13.92857 0.0103,4.11101 0.51489,8.21046 0.53571,12.32143 0.009,1.78668 -0.17857,5.35714 -0.17857,5.35714 0,0 -25.11887,0.25837 -37.67857,0.35714 -9.5237,0.0749 -19.04838,0.31295 -28.57143,0.17858 -10.36227,-0.14622 -20.71422,-0.71631 -31.07143,-1.07143 -10.47612,-0.35919 -20.94682,-0.96664 -31.42857,-1.07143 -8.4528,-0.0845 -16.90644,0.15068 -25.35714,0.35714 -6.84734,0.16729 -13.68973,0.49881 -20.53572,0.71429 -8.45155,0.26602 -16.90143,0.69429 -25.35714,0.71428 -7.62112,0.018 -15.23601,-0.52313 -22.85714,-0.53571 -8.87083,-0.0146 -17.73871,0.32871 -26.60714,0.53571 -6.72673,0.15701 -13.45762,0.21602 -20.17858,0.53572 -6.07883,0.28915 -12.14027,0.87287 -18.21428,1.25 -5.35509,0.33249 -10.70952,0.6993 -16.07143,0.89285 -3.5696,0.12885 -7.1435,0.26883 -10.71429,0.17858 -6.2025,-0.15677 -12.38081,-0.83531 -18.57142,-1.25 -5.35703,-0.35885 -10.70703,-0.84842 -16.07143,-1.07143 -7.19715,-0.2992 -14.40461,-0.46633 -21.60715,-0.35715 -3.81327,0.0578 -11.42857,0.53572 -11.42857,0.53572 z"
           id="path3878"
           sodipodi:nodetypes="cssssssssssssssssssscsssssscssssssssssssssssc" />
      </g>
    </g>
  </g>
</svg>
