<?xml version="1.0" encoding="UTF-8" standalone="no"?>
<!-- Created with Inkscape (http://www.inkscape.org/) -->

<svg
   xmlns:dc="http://purl.org/dc/elements/1.1/"
   xmlns:cc="http://creativecommons.org/ns#"
   xmlns:rdf="http://www.w3.org/1999/02/22-rdf-syntax-ns#"
   xmlns:svg="http://www.w3.org/2000/svg"
   xmlns="http://www.w3.org/2000/svg"
   xmlns:sodipodi="http://sodipodi.sourceforge.net/DTD/sodipodi-0.dtd"
   xmlns:inkscape="http://www.inkscape.org/namespaces/inkscape"
   width="640px"
   height="480px"
   id="svg3772"
   version="1.1"
   inkscape:version="0.47 r22583"
   sodipodi:docname="lucifer_back.svg"
   inkscape:export-filename="/media/FreeAgent Drive/T3/Projects/Games/the_devil-1.1/workspace/lucifer_back.png"
   inkscape:export-xdpi="95.194458"
   inkscape:export-ydpi="95.194458">
  <defs
     id="defs3774">
    <inkscape:perspective
       sodipodi:type="inkscape:persp3d"
       inkscape:vp_x="0 : 240 : 1"
       inkscape:vp_y="0 : 1000 : 0"
       inkscape:vp_z="640 : 240 : 1"
       inkscape:persp3d-origin="320 : 160 : 1"
       id="perspective3780" />
    <inkscape:perspective
       id="perspective3877"
       inkscape:persp3d-origin="0.5 : 0.33333333 : 1"
       inkscape:vp_z="1 : 0.5 : 1"
       inkscape:vp_y="0 : 1000 : 0"
       inkscape:vp_x="0 : 0.5 : 1"
       sodipodi:type="inkscape:persp3d" />
    <inkscape:perspective
       id="perspective4975"
       inkscape:persp3d-origin="0.5 : 0.33333333 : 1"
       inkscape:vp_z="1 : 0.5 : 1"
       inkscape:vp_y="0 : 1000 : 0"
       inkscape:vp_x="0 : 0.5 : 1"
       sodipodi:type="inkscape:persp3d" />
    <inkscape:perspective
       id="perspective4999"
       inkscape:persp3d-origin="0.5 : 0.33333333 : 1"
       inkscape:vp_z="1 : 0.5 : 1"
       inkscape:vp_y="0 : 1000 : 0"
       inkscape:vp_x="0 : 0.5 : 1"
       sodipodi:type="inkscape:persp3d" />
    <inkscape:perspective
       id="perspective5028"
       inkscape:persp3d-origin="0.5 : 0.33333333 : 1"
       inkscape:vp_z="1 : 0.5 : 1"
       inkscape:vp_y="0 : 1000 : 0"
       inkscape:vp_x="0 : 0.5 : 1"
       sodipodi:type="inkscape:persp3d" />
    <inkscape:perspective
       id="perspective5057"
       inkscape:persp3d-origin="0.5 : 0.33333333 : 1"
       inkscape:vp_z="1 : 0.5 : 1"
       inkscape:vp_y="0 : 1000 : 0"
       inkscape:vp_x="0 : 0.5 : 1"
       sodipodi:type="inkscape:persp3d" />
    <inkscape:perspective
       id="perspective5109"
       inkscape:persp3d-origin="0.5 : 0.33333333 : 1"
       inkscape:vp_z="1 : 0.5 : 1"
       inkscape:vp_y="0 : 1000 : 0"
       inkscape:vp_x="0 : 0.5 : 1"
       sodipodi:type="inkscape:persp3d" />
    <inkscape:perspective
       id="perspective5133"
       inkscape:persp3d-origin="0.5 : 0.33333333 : 1"
       inkscape:vp_z="1 : 0.5 : 1"
       inkscape:vp_y="0 : 1000 : 0"
       inkscape:vp_x="0 : 0.5 : 1"
       sodipodi:type="inkscape:persp3d" />
    <inkscape:perspective
       id="perspective5155"
       inkscape:persp3d-origin="0.5 : 0.33333333 : 1"
       inkscape:vp_z="1 : 0.5 : 1"
       inkscape:vp_y="0 : 1000 : 0"
       inkscape:vp_x="0 : 0.5 : 1"
       sodipodi:type="inkscape:persp3d" />
    <inkscape:perspective
       id="perspective5177"
       inkscape:persp3d-origin="0.5 : 0.33333333 : 1"
       inkscape:vp_z="1 : 0.5 : 1"
       inkscape:vp_y="0 : 1000 : 0"
       inkscape:vp_x="0 : 0.5 : 1"
       sodipodi:type="inkscape:persp3d" />
    <inkscape:perspective
       id="perspective5201"
       inkscape:persp3d-origin="0.5 : 0.33333333 : 1"
       inkscape:vp_z="1 : 0.5 : 1"
       inkscape:vp_y="0 : 1000 : 0"
       inkscape:vp_x="0 : 0.5 : 1"
       sodipodi:type="inkscape:persp3d" />
    <inkscape:perspective
       id="perspective5245"
       inkscape:persp3d-origin="0.5 : 0.33333333 : 1"
       inkscape:vp_z="1 : 0.5 : 1"
       inkscape:vp_y="0 : 1000 : 0"
       inkscape:vp_x="0 : 0.5 : 1"
       sodipodi:type="inkscape:persp3d" />
    <inkscape:perspective
       id="perspective5445"
       inkscape:persp3d-origin="0.5 : 0.33333333 : 1"
       inkscape:vp_z="1 : 0.5 : 1"
       inkscape:vp_y="0 : 1000 : 0"
       inkscape:vp_x="0 : 0.5 : 1"
       sodipodi:type="inkscape:persp3d" />
    <inkscape:perspective
       id="perspective5467"
       inkscape:persp3d-origin="0.5 : 0.33333333 : 1"
       inkscape:vp_z="1 : 0.5 : 1"
       inkscape:vp_y="0 : 1000 : 0"
       inkscape:vp_x="0 : 0.5 : 1"
       sodipodi:type="inkscape:persp3d" />
    <inkscape:perspective
       id="perspective5491"
       inkscape:persp3d-origin="0.5 : 0.33333333 : 1"
       inkscape:vp_z="1 : 0.5 : 1"
       inkscape:vp_y="0 : 1000 : 0"
       inkscape:vp_x="0 : 0.5 : 1"
       sodipodi:type="inkscape:persp3d" />
    <inkscape:perspective
       id="perspective5595"
       inkscape:persp3d-origin="0.5 : 0.33333333 : 1"
       inkscape:vp_z="1 : 0.5 : 1"
       inkscape:vp_y="0 : 1000 : 0"
       inkscape:vp_x="0 : 0.5 : 1"
       sodipodi:type="inkscape:persp3d" />
    <inkscape:perspective
       id="perspective3676"
       inkscape:persp3d-origin="0.5 : 0.33333333 : 1"
       inkscape:vp_z="1 : 0.5 : 1"
       inkscape:vp_y="0 : 1000 : 0"
       inkscape:vp_x="0 : 0.5 : 1"
       sodipodi:type="inkscape:persp3d" />
    <inkscape:perspective
       id="perspective3704"
       inkscape:persp3d-origin="0.5 : 0.33333333 : 1"
       inkscape:vp_z="1 : 0.5 : 1"
       inkscape:vp_y="0 : 1000 : 0"
       inkscape:vp_x="0 : 0.5 : 1"
       sodipodi:type="inkscape:persp3d" />
    <inkscape:perspective
       id="perspective3728"
       inkscape:persp3d-origin="0.5 : 0.33333333 : 1"
       inkscape:vp_z="1 : 0.5 : 1"
       inkscape:vp_y="0 : 1000 : 0"
       inkscape:vp_x="0 : 0.5 : 1"
       sodipodi:type="inkscape:persp3d" />
    <inkscape:perspective
       id="perspective3752"
       inkscape:persp3d-origin="0.5 : 0.33333333 : 1"
       inkscape:vp_z="1 : 0.5 : 1"
       inkscape:vp_y="0 : 1000 : 0"
       inkscape:vp_x="0 : 0.5 : 1"
       sodipodi:type="inkscape:persp3d" />
    <inkscape:perspective
       id="perspective3776"
       inkscape:persp3d-origin="0.5 : 0.33333333 : 1"
       inkscape:vp_z="1 : 0.5 : 1"
       inkscape:vp_y="0 : 1000 : 0"
       inkscape:vp_x="0 : 0.5 : 1"
       sodipodi:type="inkscape:persp3d" />
    <inkscape:perspective
       id="perspective3800"
       inkscape:persp3d-origin="0.5 : 0.33333333 : 1"
       inkscape:vp_z="1 : 0.5 : 1"
       inkscape:vp_y="0 : 1000 : 0"
       inkscape:vp_x="0 : 0.5 : 1"
       sodipodi:type="inkscape:persp3d" />
    <inkscape:perspective
       id="perspective3824"
       inkscape:persp3d-origin="0.5 : 0.33333333 : 1"
       inkscape:vp_z="1 : 0.5 : 1"
       inkscape:vp_y="0 : 1000 : 0"
       inkscape:vp_x="0 : 0.5 : 1"
       sodipodi:type="inkscape:persp3d" />
    <inkscape:perspective
       id="perspective3851"
       inkscape:persp3d-origin="0.5 : 0.33333333 : 1"
       inkscape:vp_z="1 : 0.5 : 1"
       inkscape:vp_y="0 : 1000 : 0"
       inkscape:vp_x="0 : 0.5 : 1"
       sodipodi:type="inkscape:persp3d" />
    <inkscape:perspective
       id="perspective3919"
       inkscape:persp3d-origin="0.5 : 0.33333333 : 1"
       inkscape:vp_z="1 : 0.5 : 1"
       inkscape:vp_y="0 : 1000 : 0"
       inkscape:vp_x="0 : 0.5 : 1"
       sodipodi:type="inkscape:persp3d" />
    <inkscape:perspective
       id="perspective3949"
       inkscape:persp3d-origin="0.5 : 0.33333333 : 1"
       inkscape:vp_z="1 : 0.5 : 1"
       inkscape:vp_y="0 : 1000 : 0"
       inkscape:vp_x="0 : 0.5 : 1"
       sodipodi:type="inkscape:persp3d" />
    <inkscape:perspective
       id="perspective3973"
       inkscape:persp3d-origin="0.5 : 0.33333333 : 1"
       inkscape:vp_z="1 : 0.5 : 1"
       inkscape:vp_y="0 : 1000 : 0"
       inkscape:vp_x="0 : 0.5 : 1"
       sodipodi:type="inkscape:persp3d" />
    <inkscape:perspective
       id="perspective3997"
       inkscape:persp3d-origin="0.5 : 0.33333333 : 1"
       inkscape:vp_z="1 : 0.5 : 1"
       inkscape:vp_y="0 : 1000 : 0"
       inkscape:vp_x="0 : 0.5 : 1"
       sodipodi:type="inkscape:persp3d" />
    <inkscape:perspective
       id="perspective4083"
       inkscape:persp3d-origin="0.5 : 0.33333333 : 1"
       inkscape:vp_z="1 : 0.5 : 1"
       inkscape:vp_y="0 : 1000 : 0"
       inkscape:vp_x="0 : 0.5 : 1"
       sodipodi:type="inkscape:persp3d" />
    <inkscape:perspective
       id="perspective4334"
       inkscape:persp3d-origin="0.5 : 0.33333333 : 1"
       inkscape:vp_z="1 : 0.5 : 1"
       inkscape:vp_y="0 : 1000 : 0"
       inkscape:vp_x="0 : 0.5 : 1"
       sodipodi:type="inkscape:persp3d" />
    <inkscape:perspective
       id="perspective4360"
       inkscape:persp3d-origin="0.5 : 0.33333333 : 1"
       inkscape:vp_z="1 : 0.5 : 1"
       inkscape:vp_y="0 : 1000 : 0"
       inkscape:vp_x="0 : 0.5 : 1"
       sodipodi:type="inkscape:persp3d" />
    <inkscape:perspective
       id="perspective5162"
       inkscape:persp3d-origin="0.5 : 0.33333333 : 1"
       inkscape:vp_z="1 : 0.5 : 1"
       inkscape:vp_y="0 : 1000 : 0"
       inkscape:vp_x="0 : 0.5 : 1"
       sodipodi:type="inkscape:persp3d" />
  </defs>
  <sodipodi:namedview
     id="base"
     pagecolor="#000000"
     bordercolor="#666666"
     borderopacity="1.0"
     inkscape:pageopacity="0"
     inkscape:pageshadow="2"
     inkscape:zoom="1.5494505"
     inkscape:cx="344.11829"
     inkscape:cy="378.33316"
     inkscape:current-layer="layer1"
     inkscape:document-units="px"
     showgrid="false"
     inkscape:window-width="787"
     inkscape:window-height="745"
     inkscape:window-x="246"
     inkscape:window-y="88"
     inkscape:window-maximized="0"
     showguides="true"
     inkscape:guide-bbox="true" />
  <metadata
     id="metadata3777">
    <rdf:RDF>
      <cc:Work
         rdf:about="">
        <dc:format>image/svg+xml</dc:format>
        <dc:type
           rdf:resource="http://purl.org/dc/dcmitype/StillImage" />
        <dc:title></dc:title>
      </cc:Work>
    </rdf:RDF>
  </metadata>
  <g
     id="layer1"
     inkscape:label="Layer 1"
     inkscape:groupmode="layer">
    <g
       id="g5042"
       transform="translate(-1.2907802,-1.2907802)">
      <path
         sodipodi:nodetypes="cssssscssssssssss"
         id="path4395"
         d="M 260.12503,69.732631 C 253.53251,66.887357 247.87047,62.021933 242.78336,56.954559 238.08437,52.2738 234.15417,46.771383 230.91801,40.98197 c -2.79792,-5.005421 -4.95684,-10.419986 -6.38904,-15.97259 -1.22525,-4.750248 -1.95384,-9.699471 -1.82544,-14.60351 0.11325,-4.3252527 0.66746,-8.7637779 2.2818,-12.7780716 0.81856,-2.035479 3.65088,-5.4763164 3.65088,-5.4763164 0,0 1.94225,9.154196 4.10724,13.2344312 2.28272,4.3021107 5.87914,7.7800608 9.12719,11.4089928 4.01729,4.488384 8.24008,8.816899 12.77807,12.778071 3.59856,3.141153 7.58465,5.808862 11.40899,8.670835 2.87439,2.151071 6.21045,3.774516 8.67084,6.389035 2.11091,2.243138 4.07022,4.827997 5.01996,7.758115 0.89241,2.753261 1.35269,5.918845 0.45636,8.670834 -0.9712,2.981858 -3.28693,5.618097 -5.93268,7.301756 -2.64575,1.683658 -5.99282,2.179698 -9.12719,2.281798 -1.69985,0.05537 -3.45843,-0.238778 -5.01996,-0.912719 z"
         style="fill:#fff0d5;fill-opacity:1;stroke:none" />
      <path
         sodipodi:nodetypes="csssscsssssc"
         id="path5018"
         d="m 232.05891,43.491948 c 0,0 5.03333,5.762542 7.75811,8.442654 2.61183,2.569014 5.24143,5.16109 8.21448,7.301755 3.34568,2.408965 6.92698,4.555905 10.72445,6.160856 2.55021,1.077814 5.24443,1.897787 7.98629,2.281799 2.63637,0.369237 7.75812,0.68454 7.75812,0.68454 0,0 -2.57111,0.924864 -4.10724,1.369079 -2.42883,0.702365 -5.03112,1.298053 -7.52993,0.912719 -2.7249,-0.420199 -5.16751,-2.001235 -7.52994,-3.422698 -3.94977,-2.376556 -7.57604,-5.304602 -10.95263,-8.442654 -2.84089,-2.640199 -5.35941,-5.623296 -7.75812,-8.670835 -1.65721,-2.105465 -4.56359,-6.617215 -4.56359,-6.617215 z"
         style="fill:#000000;fill-opacity:0.31555553;stroke:none" />
      <path
         sodipodi:nodetypes="cssssscssssssssss"
         id="path4395-8"
         d="m 260.12503,69.732629 c -6.59252,-2.845274 -12.25456,-7.710698 -17.34167,-12.778072 -4.69899,-4.680759 -8.62919,-10.183176 -11.86535,-15.972589 -2.79792,-5.005421 -4.95684,-10.419986 -6.38904,-15.97259 -1.22525,-4.750248 -1.95384,-9.699471 -1.82544,-14.60351 0.11325,-4.325253 0.66746,-8.7637779 2.2818,-12.7780716 0.81856,-2.035479 3.65088,-5.4763164 3.65088,-5.4763164 0,0 1.94225,9.154196 4.10724,13.234431 2.28272,4.302111 5.87914,7.780061 9.12719,11.408993 4.01729,4.488384 8.24008,8.816899 12.77807,12.778071 3.59856,3.141153 7.58465,5.808862 11.40899,8.670835 2.87439,2.151071 6.21045,3.774516 8.67084,6.389035 2.11091,2.243138 4.07022,4.827997 5.01996,7.758115 0.89241,2.753261 1.35269,5.918845 0.45636,8.670834 -0.9712,2.981858 -3.28693,5.618097 -5.93268,7.301756 -2.64575,1.683658 -5.99282,2.179698 -9.12719,2.281798 -1.69985,0.05537 -3.45843,-0.238778 -5.01996,-0.912719 z"
         style="fill:none;stroke:#000000;stroke-opacity:1" />
    </g>
    <g
       id="g5092">
      <path
         sodipodi:nodetypes="csssssssscsssssssss"
         id="path4959"
         d="m 333.14258,63.799955 c -2.06961,-2.438197 -3.32382,-5.570134 -4.10724,-8.670835 -0.70898,-2.806099 -1.42188,-5.942352 -0.45636,-8.670834 1.36545,-3.858658 5.21822,-6.33862 8.21448,-9.127194 2.53928,-2.363275 5.66034,-4.041811 8.21447,-6.389036 3.96318,-3.642131 7.75227,-7.537595 10.95264,-11.865352 2.51308,-3.398358 4.00884,-7.459908 6.38903,-10.9526326 2.07373,-3.043019 5.07193,-5.4435862 6.8454,-8.67083424 1.55238,-2.82492216 2.43055,-5.99567346 3.19451,-9.12719396 0.25494,-1.0450022 0.45636,-3.1945182 0.45636,-3.1945182 0,0 3.53922,4.9381347 4.5636,7.7581152 1.57964,4.34852622 2.07743,9.0687609 2.2818,13.6907909 0.26284,5.9443939 -0.0356,11.9991649 -1.36908,17.7980279 -1.20913,5.258205 -3.69626,10.149763 -5.93268,15.05987 -1.77673,3.900864 -3.39883,7.951655 -5.93267,11.408993 -2.67057,3.643897 -6.17062,6.623528 -9.58356,9.583554 -2.29839,1.993383 -4.41548,4.514225 -7.30175,5.476316 -3.31921,1.106405 -7.15666,1.043215 -10.49627,0 -2.29582,-0.717161 -4.37619,-2.273539 -5.93268,-4.107237 z"
         style="fill:#fff0d5;fill-opacity:1;stroke:none" />
      <path
         sodipodi:nodetypes="csssscsssssssc"
         id="path5047"
         d="m 336.10892,66.538113 c 0,0 6.34673,-1.082447 9.12719,-2.281799 4.01077,-1.730046 7.42694,-4.665372 10.72446,-7.529935 3.69678,-3.211405 7.07192,-6.829542 10.03991,-10.724453 3.35232,-4.399274 6.2828,-9.158263 8.67083,-14.14715 1.95277,-4.079568 4.5636,-12.778072 4.5636,-12.778072 0,0 -0.63049,5.990077 -1.36908,8.899014 -0.77561,3.054747 -1.97767,5.991726 -3.19452,8.899014 -1.69437,4.048179 -3.48468,8.079709 -5.70449,11.865352 -1.73982,2.967083 -3.65945,5.86138 -5.93268,8.442655 -2.3129,2.62632 -5.02868,4.883303 -7.75811,7.073575 -1.95851,1.571633 -3.77937,3.539002 -6.16086,4.335417 -2.2373,0.748193 -4.76516,0.714501 -7.07358,0.22818 -2.0639,-0.434808 -5.93267,-2.281798 -5.93267,-2.281798 z"
         style="fill:#000000;fill-opacity:0.31555553;stroke:none" />
      <path
         sodipodi:nodetypes="csssssssscsssssssss"
         id="path4959-4"
         d="m 333.14258,63.79996 c -2.06961,-2.438197 -3.32382,-5.570134 -4.10724,-8.670835 -0.70898,-2.806099 -1.42188,-5.942352 -0.45636,-8.670834 1.36545,-3.858658 5.21822,-6.33862 8.21448,-9.127194 2.53928,-2.363275 5.66034,-4.041811 8.21447,-6.389036 3.96318,-3.642131 7.75227,-7.537595 10.95264,-11.865352 2.51308,-3.398358 4.00884,-7.459908 6.38903,-10.952633 2.07373,-3.043019 5.07193,-5.443586 6.8454,-8.670834 1.55238,-2.824922 2.43055,-5.9956733 3.19451,-9.1271938 0.25494,-1.0450022 0.45636,-3.1945182 0.45636,-3.1945182 0,0 3.53922,4.9381347 4.5636,7.7581152 1.57964,4.3485258 2.07743,9.0687608 2.2818,13.6907908 0.26284,5.944394 -0.0356,11.999165 -1.36908,17.798028 -1.20913,5.258205 -3.69626,10.149763 -5.93268,15.05987 -1.77673,3.900864 -3.39883,7.951655 -5.93267,11.408993 -2.67057,3.643897 -6.17062,6.623528 -9.58356,9.583554 -2.29839,1.993383 -4.41548,4.514225 -7.30175,5.476316 -3.31921,1.106405 -7.15666,1.043215 -10.49627,0 -2.29582,-0.717161 -4.37619,-2.273539 -5.93268,-4.107237 z"
         style="fill:none;stroke:#000000;stroke-opacity:1" />
    </g>
    <path
       style="fill:#e40000;fill-opacity:1;stroke:none"
       d="m 363.71868,113.54316 c 0.50089,-6.7177 0.40783,-13.609377 2.2818,-20.079825 1.45735,-5.031968 4.36692,-9.531765 6.84539,-14.147151 2.2587,-4.206142 4.45654,-8.487903 7.30176,-12.321711 1.47578,-1.988544 3.86685,-3.284843 5.01996,-5.476317 0.94506,-1.796069 1.05581,-3.927465 1.36907,-5.932676 0.28273,-1.809815 -0.20261,-3.767185 0.45636,-5.476316 1.17115,-3.037555 4.35534,-4.910252 5.93268,-7.758115 0.62973,-1.136967 1.36908,-3.650878 1.36908,-3.650878 0,0 0.88696,5.571178 1.82544,8.214475 0.34142,0.96164 1.11161,1.750721 1.36908,2.738158 1.65216,6.336375 2.53376,13.27906 0.91272,19.623467 -1.01397,3.968463 -4.02734,7.149749 -6.38904,10.496273 -1.80821,2.562236 -4.88342,4.34646 -5.93267,7.301755 -1.2724,3.583823 0.37474,7.624503 0,11.408993 -0.38216,3.859438 -1.05277,7.730568 -2.2818,11.408988 -1.33681,4.001 -4.17465,7.39643 -5.47632,11.409 -1.04959,3.23552 -0.88483,6.77105 -1.82544,10.03991 -0.67959,2.36174 -0.9501,5.15943 -2.73816,6.8454 -1.39998,1.32005 -3.55437,1.91821 -5.47631,1.82543 -1.49646,-0.0722 -3.24324,-0.60145 -4.10724,-1.82543 -2.28762,-3.24073 -0.83126,-7.89939 -0.91272,-11.86536 -0.0875,-4.26117 0.13945,-8.5278 0.45636,-12.77807 z"
       id="path4961"
       sodipodi:nodetypes="cssssssscssssssssssssss" />
    <path
       style="fill:#000000;fill-opacity:0.31372549;stroke:none"
       d="m 362.70922,135.20035 4.03369,2.42021 3.87234,0 2.74291,-2.09751 1.29078,-6.93795 0.80674,-7.58333 3.0656,-6.7766 3.0656,-6.29255 1.61348,-9.358155 0.48404,-3.710993 1.93617,-2.097518 0.48404,4.517731 -0.64539,7.099295 -1.93617,6.4539 -3.0656,5.96985 -1.93617,4.03369 -1.12943,4.35639 -0.64539,4.67907 -1.45213,5.64717 -1.77482,3.0656 -3.22695,1.45213 -4.35639,-0.3227 -2.58156,-2.25886 -0.64539,-2.25887 z"
       id="path5097" />
    <path
       style="fill:none;stroke:#000000;stroke-opacity:1"
       d="m 363.71868,113.54316 c 0.50089,-6.7177 0.40783,-13.609378 2.2818,-20.079826 1.45735,-5.031968 4.36692,-9.531765 6.84539,-14.147151 2.2587,-4.206142 4.45654,-8.487903 7.30176,-12.321711 1.47578,-1.988544 3.86685,-3.284843 5.01996,-5.476317 0.94506,-1.796069 1.05581,-3.927465 1.36907,-5.932676 0.28273,-1.809815 -0.20261,-3.767185 0.45636,-5.476316 1.17115,-3.037555 4.35534,-4.910252 5.93268,-7.758115 0.62973,-1.136967 1.36908,-3.650878 1.36908,-3.650878 0,0 0.88696,5.571178 1.82544,8.214475 0.34142,0.96164 1.11161,1.750721 1.36908,2.738158 1.65216,6.336375 2.53376,13.27906 0.91272,19.623467 -1.01397,3.968463 -4.02734,7.149749 -6.38904,10.496273 -1.80821,2.562236 -4.88342,4.34646 -5.93267,7.301755 -1.2724,3.583823 0.37474,7.624503 0,11.408993 -0.38216,3.859439 -1.05277,7.730569 -2.2818,11.408989 -1.33681,4.001 -4.17465,7.39643 -5.47632,11.409 -1.04959,3.23552 -0.88483,6.77105 -1.82544,10.03991 -0.67959,2.36174 -0.9501,5.15943 -2.73816,6.8454 -1.39998,1.32005 -3.55437,1.91821 -5.47631,1.82543 -1.49646,-0.0722 -3.24324,-0.60145 -4.10724,-1.82543 -2.28762,-3.24073 -0.83126,-7.89939 -0.91272,-11.86536 -0.0875,-4.26117 0.13945,-8.5278 0.45636,-12.77807 z"
       id="path4961-0"
       sodipodi:nodetypes="cssssssscssssssssssssss" />
    <g
       id="g5345">
      <g
         id="g5265">
        <path
           style="fill:#e40000;fill-opacity:1;stroke:none"
           d="m 226.35441,70.64535 c -2.84477,-3.231531 -4.94699,-7.088492 -6.84539,-10.952633 -1.9313,-3.931099 -3.43792,-8.088946 -4.5636,-12.321711 -0.95126,-3.576908 -1.82544,-10.952633 -1.82544,-10.952633 0,0 -3.71492,5.199296 -4.5636,8.214474 -0.99003,3.517369 -0.45636,7.298588 -0.45636,10.952633 0,3.654045 -0.0981,7.340894 0.45636,10.952633 0.62148,4.04853 1.63323,8.078637 3.19452,11.865352 1.40247,3.401509 4.53196,6.027521 5.47632,9.583554 0.39044,1.470238 -0.0945,3.045338 0,4.563597 0.22862,3.67218 0.74113,7.327327 1.36908,10.952634 0.47873,2.7638 0.75202,5.62303 1.82543,8.21447 0.75901,1.83242 2.58429,3.13277 3.19452,5.01996 0.79702,2.46485 0.46648,5.16762 0.45636,7.75811 -0.009,2.28685 -0.99312,4.62242 -0.45636,6.8454 0.41639,1.72445 2.12522,2.89884 2.73816,4.5636 0.31971,0.86832 -0.0461,1.96113 0.45636,2.73816 0.89342,1.38175 2.46245,2.7838 4.10724,2.73815 2.28092,-0.0633 4.45586,-2.06633 5.47631,-4.10723 1.22454,-2.44908 -0.48077,-5.51886 0,-8.21448 0.54082,-3.03234 2.2691,-5.73294 3.19452,-8.67083 0.89793,-2.85061 1.84143,-5.71478 2.2818,-8.67084 0.5832,-3.91484 0.5266,-7.90793 0.45636,-11.865349 -0.0731,-4.117841 0.33259,-8.396008 -0.91272,-12.321712 -1.07282,-3.381934 -3.14152,-6.455655 -5.47632,-9.127194 -1.28195,-1.466842 -3.0491,-2.42558 -4.56359,-3.650878 -1.68082,-1.359866 -3.59137,-2.484426 -5.01996,-4.107237 z"
           id="path4963"
           sodipodi:nodetypes="csscsssssssssssssssssssssss" />
        <path
           style="fill:#000000;fill-opacity:0.31372549;stroke:none"
           d="m 213.11998,80.685264 c 2.19824,4.385636 3.95434,9.191857 7.30175,12.778071 1.87126,2.004756 6.8454,4.563597 6.8454,4.563597 0,0 -4.81615,-7.942515 -7.30176,-11.865352 -2.23569,-3.5284 -4.36321,-7.136707 -6.84539,-10.496273 -1.41203,-1.911141 -4.5636,-5.476317 -4.5636,-5.476317 0,0 2.85404,7.085591 4.5636,10.496274 z"
           id="path5191"
           sodipodi:nodetypes="cscsscs" />
        <path
           style="fill:none;stroke:none"
           d="m 226.35441,70.645347 c -2.84477,-3.231531 -4.94699,-7.088492 -6.84539,-10.952633 -1.9313,-3.931099 -3.43792,-8.088946 -4.5636,-12.321711 -0.95126,-3.576908 -1.82544,-10.952633 -1.82544,-10.952633 0,0 -3.71492,5.199296 -4.5636,8.214474 -0.99003,3.517369 -0.45636,7.298588 -0.45636,10.952633 0,3.654045 -0.0981,7.340894 0.45636,10.952633 0.62148,4.04853 1.63323,8.078637 3.19452,11.865352 1.40247,3.401509 4.53196,6.027521 5.47632,9.583554 0.39044,1.470238 -0.0945,3.045338 0,4.563597 0.22862,3.672181 0.74113,7.327329 1.36908,10.952637 0.47873,2.7638 0.75202,5.62303 1.82543,8.21447 0.75901,1.83242 2.58429,3.13277 3.19452,5.01996 0.79702,2.46485 0.46648,5.16762 0.45636,7.75811 -0.009,2.28685 -0.99312,4.62242 -0.45636,6.8454 0.41639,1.72445 2.12522,2.89884 2.73816,4.5636 0.31971,0.86832 -0.0461,1.96113 0.45636,2.73816 0.89342,1.38175 2.46245,2.7838 4.10724,2.73815 2.28092,-0.0633 4.45586,-2.06633 5.47631,-4.10723 1.22454,-2.44908 -0.48077,-5.51886 0,-8.21448 0.54082,-3.03234 2.2691,-5.73294 3.19452,-8.67083 0.89793,-2.85061 1.84143,-5.71478 2.2818,-8.67084 0.5832,-3.91484 0.5266,-7.90793 0.45636,-11.865352 -0.0731,-4.117841 0.33259,-8.396008 -0.91272,-12.321712 -1.07282,-3.381934 -3.14152,-6.455655 -5.47632,-9.127194 -1.28195,-1.466842 -3.0491,-2.42558 -4.56359,-3.650878 -1.68082,-1.359866 -3.59137,-2.484426 -5.01996,-4.107237 z"
           id="path4963-2"
           sodipodi:nodetypes="csscsssssssssssssssssssssss" />
        <path
           style="fill:none;stroke:#000000;stroke-opacity:1"
           d="m 226.35441,70.645347 c -2.84477,-3.231531 -4.94699,-7.088492 -6.84539,-10.952633 -1.9313,-3.931099 -3.43792,-8.088946 -4.5636,-12.321711 -0.95126,-3.576908 -1.82544,-10.952633 -1.82544,-10.952633 0,0 -3.71492,5.199296 -4.5636,8.214474 -0.99003,3.517369 -0.45636,7.298588 -0.45636,10.952633 0,3.654045 -0.0981,7.340894 0.45636,10.952633 0.62148,4.04853 1.63323,8.078637 3.19452,11.865352 1.40247,3.401509 4.53196,6.027521 5.47632,9.583554 0.39044,1.470238 -0.0945,3.045338 0,4.563597 0.22862,3.67218 0.74113,7.327327 1.36908,10.952637 0.47873,2.7638 0.75202,5.62303 1.82543,8.21447 0.75901,1.83242 2.58429,3.13277 3.19452,5.01996 0.79702,2.46485 0.46648,5.16762 0.45636,7.75811 -0.009,2.28685 -0.99312,4.62242 -0.45636,6.8454 0.41639,1.72445 2.12522,2.89884 2.73816,4.5636 0.31971,0.86832 -0.0461,1.96113 0.45636,2.73816 0.89342,1.38175 2.46245,2.7838 4.10724,2.73815 2.28092,-0.0633 4.45586,-2.06633 5.47631,-4.10723 1.22454,-2.44908 -0.48077,-5.51886 0,-8.21448 0.54082,-3.03234 2.2691,-5.73294 3.19452,-8.67083 0.89793,-2.85061 1.84143,-5.71478 2.2818,-8.67084 0.5832,-3.91484 0.5266,-7.90793 0.45636,-11.865352 -0.0731,-4.117841 0.33259,-8.396008 -0.91272,-12.321712 -1.07282,-3.381934 -3.14152,-6.455655 -5.47632,-9.127194 -1.28195,-1.466842 -3.0491,-2.42558 -4.56359,-3.650878 -1.68082,-1.359866 -3.59137,-2.484426 -5.01996,-4.107237 z"
           id="path4963-28"
           sodipodi:nodetypes="csscsssssssssssssssssssssss" />
      </g>
      <path
         sodipodi:nodetypes="csssscsssssssc"
         id="path5343"
         d="m 223.61625,130.42847 c 0,0 2.47928,2.11378 3.4227,3.4227 0.69611,0.96581 0.6468,2.47759 1.59726,3.19452 0.98849,0.74562 2.46802,1.05047 3.65088,0.68454 1.0276,-0.3179 1.80382,-1.31818 2.2818,-2.2818 0.75044,-1.51291 1.24925,-5.26198 1.24925,-5.26198 0,0 0.74215,3.04871 0.75137,4.22944 0.01,1.25438 -0.45602,2.31727 -1.07407,3.40886 -0.63596,1.12323 -1.84213,2.12909 -2.98017,2.73815 -0.68388,0.366 -1.51875,0.51501 -2.2818,0.37568 -1.41175,-0.25777 -2.90753,-1.29624 -3.65088,-2.52381 -0.51368,-0.8483 0.11446,-2.03571 -0.22818,-2.96634 -0.35744,-0.97082 -1.33968,-1.59659 -1.82544,-2.50998 -0.41802,-0.78601 -0.91272,-2.50998 -0.91272,-2.50998 z"
         style="fill:#000000;fill-opacity:0.31372549;stroke:none" />
    </g>
    <path
       style="fill:#e30000;fill-opacity:1;stroke:none"
       d="M 300.21875 18.96875 C 296.37727 19.059123 292.55902 19.451541 288.875 20.4375 C 280.39646 22.70662 272.36546 26.837559 265.15625 31.84375 C 260.64944 34.973354 256.69344 38.953173 253.28125 43.25 C 248.10581 49.767221 243.9409 57.141176 240.5 64.71875 C 237.45688 71.420335 235.10646 78.502885 233.65625 85.71875 C 232.18269 93.050812 231.76935 100.5842 231.84375 108.0625 C 231.93349 117.08342 231.48284 126.52057 234.5625 135 C 236.50692 140.3537 241.10216 144.31715 244.15625 149.125 C 247.66737 154.65232 251.34621 160.13156 254.1875 166.03125 C 257.36262 172.6241 259.14458 179.79887 261.9375 186.5625 C 263.68723 190.79985 265.32639 195.10174 267.15625 199.3125 C 266.99758 200.78625 266.78782 202.33855 266.53125 203.4375 C 265.64949 207.21425 264.50554 211.01171 262.6875 214.4375 C 261.24535 217.15497 257.1875 221.84375 257.1875 221.84375 C 257.1875 221.84375 258.28453 224.93902 259.4375 226.03125 C 262.37183 228.81098 266.53 230.04214 270.40625 231.1875 C 276.54815 233.00232 283.09307 233.1753 289.46875 233.78125 C 297.2975 234.5253 305.13597 235.0655 313 235.0625 C 318.81747 235.06029 324.67108 234.86271 330.4375 234.09375 C 335.56087 233.41054 340.88075 232.9971 345.59375 230.875 C 348.39894 229.61192 353.03125 225.40625 353.03125 225.40625 C 353.03125 225.40625 352.16648 224.32981 351.75 223.78125 C 349.74627 221.14208 347.57885 218.59732 345.9375 215.71875 C 344.0765 212.45496 342.48626 208.97351 341.40625 205.375 C 341.36611 205.24124 341.32055 205.08325 341.28125 204.9375 C 342.46635 202.03597 343.48603 199.04849 344.5625 196.15625 C 346.42874 191.14208 347.37865 185.82043 348.65625 180.625 C 350.29532 173.95961 351.07737 167.08389 353.21875 160.5625 C 355.23779 154.4137 358.5314 148.7453 360.96875 142.75 C 363.72463 135.9712 366.74595 129.25656 368.75 122.21875 C 370.91516 114.61517 372.62704 106.81358 373.3125 98.9375 C 373.9721 91.358633 373.99838 83.644383 372.84375 76.125 C 371.85743 69.701721 370.17739 63.269519 367.375 57.40625 C 364.49984 51.390745 360.37305 45.974243 355.96875 40.96875 C 351.77105 36.198061 347.26408 31.483779 341.8125 28.21875 C 336.40484 24.980024 330.10315 23.388488 324 21.8125 C 318.47914 20.386873 312.8217 19.307332 307.125 19.0625 C 304.8389 18.964249 302.52364 18.914526 300.21875 18.96875 z "
       id="path5583" />
    <path
       style="fill:#000000;fill-opacity:0.31555553;stroke:none"
       d="m 370.125,65.65625 c 0,0 0.13132,6.668071 0,10 -0.16147,4.097008 -0.44906,8.214129 -0.96875,12.28125 -1.09384,8.560439 -2.45115,17.08544 -4.5,25.46875 -1.36497,5.58507 -3.38644,11.00869 -5.1875,16.46875 -1.85418,5.62109 -3.85109,11.18579 -5.78125,16.78125 -2.37382,6.88161 -5.05709,13.67661 -7.125,20.65625 -1.51183,5.10277 -2.49186,10.36085 -3.875,15.5 -1.17528,4.36681 -1.82052,8.93521 -3.3125,13.1875 l -1.61354,3.76894 c 0,0 -0.60785,2.07068 -1.73964,3.6716 -0.28049,0.39675 -2.54704,4.26808 -2.4569,4.74611 -0.006,1.04225 1.04084,-0.50532 2.15731,-0.60699 0.61366,-0.0559 1.50293,-0.68653 2.09673,1.66777 0.56882,1.45023 0.38177,1.04122 0.78025,2.43165 0.46141,1.45145 0.57902,1.31085 0.64385,1.50647 1.1063,3.33837 1.93698,5.0117 3.78819,8.00195 1.70679,2.75696 6.25,7.4375 6.25,7.4375 l 3.78125,-3.09375 c 0,0 -3.04211,-3.76344 -4.40625,-5.75 -1.75872,-2.56117 -3.55166,-5.12654 -4.875,-7.9375 -1.04168,-2.21266 -1.87608,-4.54488 -2.53125,-6.90625 0.37364,-1.04711 0.7298,-2.07435 1.125,-3.09375 1.58652,-4.09236 2.75813,-8.3491 3.875,-12.59375 1.14894,-4.36654 1.94511,-8.80707 2.90625,-13.21875 0.86678,-3.97854 1.4517,-8.02907 2.59375,-11.9375 1.1264,-3.85488 2.64284,-7.60535 4.1875,-11.3125 1.86952,-4.48679 4.29221,-8.71683 6.125,-13.21875 2.19355,-5.38807 4.20541,-10.87767 5.8125,-16.46875 1.76624,-6.14476 3.33485,-12.3823 4.1875,-18.71875 1.22068,-9.071386 2.33734,-18.314235 1.28125,-27.40625 -0.45176,-3.889276 -3.21875,-11.3125 -3.21875,-11.3125 z"
       id="path5585"
       sodipodi:nodetypes="csssssssccscsccssccsscsssssssssc" />
    <path
       style="fill:none;fill-opacity:1;stroke:#000000;stroke-opacity:1"
       d="m 300.21875,18.968747 c -3.84148,0.09037 -7.65973,0.482791 -11.34375,1.46875 -8.47854,2.26912 -16.50954,6.400059 -23.71875,11.40625 -4.50681,3.129604 -8.46281,7.109423 -11.875,11.40625 -5.17544,6.517221 -9.34035,13.891176 -12.78125,21.46875 -3.04312,6.701585 -5.39354,13.784135 -6.84375,21 -1.47356,7.332062 -1.8869,14.865453 -1.8125,22.343753 0.0897,9.02092 -0.36091,18.45807 2.71875,26.9375 1.94442,5.3537 6.53966,9.31715 9.59375,14.125 3.51112,5.52732 7.18996,11.00656 10.03125,16.90625 3.17512,6.59285 4.95708,13.76762 7.75,20.53125 1.74973,4.23735 3.38889,8.53924 5.21875,12.75 -0.15867,1.47375 -0.36843,3.02605 -0.625,4.125 -0.88176,3.77675 -2.02571,7.57421 -3.84375,11 -1.44215,2.71747 -5.5,7.40625 -5.5,7.40625 0,0 1.09703,3.09527 2.25,4.1875 2.93433,2.77973 7.0925,4.01089 10.96875,5.15625 6.1419,1.81482 12.68682,1.9878 19.0625,2.59375 7.82875,0.74405 15.66722,1.28425 23.53125,1.28125 5.81747,-0.002 11.67108,-0.19979 17.4375,-0.96875 5.12337,-0.68321 10.44325,-1.09665 15.15625,-3.21875 2.80519,-1.26308 7.4375,-5.46875 7.4375,-5.46875 0,0 -0.86477,-1.07644 -1.28125,-1.625 -2.00373,-2.63917 -4.17115,-5.18393 -5.8125,-8.0625 -1.861,-3.26379 -3.45124,-6.74524 -4.53125,-10.34375 -0.0401,-0.13376 -0.0857,-0.29175 -0.125,-0.4375 1.1851,-2.90153 2.20478,-5.88901 3.28125,-8.78125 1.86624,-5.01417 2.81615,-10.33582 4.09375,-15.53125 1.63907,-6.66539 2.42112,-13.54111 4.5625,-20.0625 2.01904,-6.1488 5.31265,-11.8172 7.75,-17.8125 2.75588,-6.7788 5.7772,-13.49344 7.78125,-20.53125 2.16516,-7.60358 3.87704,-15.40517 4.5625,-23.281253 0.6596,-7.578867 0.68588,-15.293117 -0.46875,-22.8125 -0.98632,-6.423279 -2.66636,-12.855481 -5.46875,-18.71875 -2.87516,-6.015505 -7.00195,-11.432007 -11.40625,-16.4375 -4.1977,-4.770689 -8.70467,-9.484971 -14.15625,-12.75 -5.40766,-3.238726 -11.70935,-4.830262 -17.8125,-6.40625 -5.52086,-1.425627 -11.1783,-2.505168 -16.875,-2.75 -2.2861,-0.09825 -4.60136,-0.147974 -6.90625,-0.09375 z"
       id="path5583-1" />
    <g
       id="g5086">
      <path
         sodipodi:nodetypes="cssccsscc"
         id="path4148-60"
         d="m 168.7783,358.50531 c 0,0 -1.82841,20.21021 -1.61348,30.33333 0.16744,7.88649 1.70709,15.6878 2.25887,23.55674 0.67784,9.66667 1.29078,29.04256 1.29078,29.04256 l 44.20922,0 c 0,0 1.66661,-17.41314 2.25886,-26.1383 0.59077,-8.70336 1.01586,-17.41925 1.29078,-26.1383 0.24749,-7.84908 0.3227,-23.55674 0.3227,-23.55674 l -50.01773,-7.09929 z"
         style="fill:#e40000;fill-opacity:1;stroke:none" />
      <path
         sodipodi:nodetypes="cssccsscc"
         id="path4148-6-3"
         d="m 168.7783,358.50531 c 0,0 -1.82841,20.21021 -1.61348,30.33333 0.16744,7.88649 1.70709,15.6878 2.25887,23.55674 0.67784,9.66667 1.29078,29.04256 1.29078,29.04256 l 44.20922,0 c 0,0 1.66661,-17.41314 2.25886,-26.1383 0.59077,-8.70336 1.01586,-17.41925 1.29078,-26.1383 0.24749,-7.84908 0.3227,-23.55674 0.3227,-23.55674 l -50.01773,-7.09929 z"
         style="fill:none;stroke:#000000;stroke-opacity:1" />
      <path
         sodipodi:nodetypes="cssccssscc"
         id="path4380"
         d="m 213.80452,364.99736 c 0,0 -0.85507,20.07669 -1.1409,30.11974 -0.22724,7.98451 -0.17467,15.97611 -0.45636,23.95888 -0.26053,7.38302 -1.1409,22.13345 -1.1409,22.13345 l 3.65088,0 c 0,0 1.66585,-15.96014 2.2818,-23.95889 0.59668,-7.74858 1.1408,-15.50617 1.36908,-23.27434 0.19884,-6.76642 0,-13.53867 0,-20.30801 0,-2.73816 0,-8.21447 0,-8.21447 l -4.5636,-0.45636 z"
         style="fill:#000000;fill-opacity:0.31555553;stroke:none" />
      <path
         sodipodi:nodetypes="cssccsscc"
         id="path4148"
         d="m 454.35461,359.63475 c 0,0 1.82841,20.21021 1.61348,30.33333 -0.16744,7.88649 -1.70709,15.6878 -2.25887,23.55674 -0.67784,9.66667 -1.29078,29.04256 -1.29078,29.04256 l -44.20922,0 c 0,0 -1.66661,-17.41314 -2.25886,-26.1383 -0.59077,-8.70336 -1.01586,-17.41925 -1.29078,-26.1383 -0.24749,-7.84908 -0.3227,-23.55674 -0.3227,-23.55674 l 50.01773,-7.09929 z"
         style="fill:#e40000;fill-opacity:1;stroke:none" />
      <path
         sodipodi:nodetypes="cssccsscc"
         id="path4148-6"
         d="m 454.35461,359.63475 c 0,0 1.82841,20.21021 1.61348,30.33333 -0.16744,7.88649 -1.70709,15.6878 -2.25887,23.55674 -0.67784,9.66667 -1.29078,29.04256 -1.29078,29.04256 l -44.20922,0 c 0,0 -1.66661,-17.41314 -2.25886,-26.1383 -0.59077,-8.70336 -1.01586,-17.41925 -1.29078,-26.1383 -0.24749,-7.84908 -0.3227,-23.55674 -0.3227,-23.55674 l 50.01773,-7.09929 z"
         style="fill:none;stroke:#000000;stroke-opacity:1" />
      <path
         sodipodi:nodetypes="cssssccssssscc"
         id="path4388"
         d="m 448.14523,360.66194 c 0,0 2.28094,14.86601 2.73815,22.36162 0.31952,5.2384 0.18488,10.49953 0,15.74441 -0.22832,6.47716 -1.10077,12.91966 -1.36907,19.39529 -0.25506,6.15604 0.0557,12.32779 -0.22818,18.48257 -0.0879,1.90555 -0.45636,5.70449 -0.45636,5.70449 l 3.65087,0 c 0,0 0.22217,-13.08473 0.45636,-19.62346 0.16899,-4.71821 0.24903,-9.44605 0.68454,-14.14715 0.36118,-3.89873 1.26539,-7.73584 1.59726,-11.63718 0.38703,-4.5497 0.52833,-9.12523 0.45636,-13.69079 -0.0925,-5.86822 -0.41514,-11.74595 -1.1409,-17.56985 -0.25827,-2.0725 -0.68454,-5.93267 -0.68454,-5.93267 l -5.70449,0.91272 z"
         style="fill:#000000;fill-opacity:0.31555553;stroke:none" />
      <g
         id="g3690">
        <path
           style="fill:#202020;fill-opacity:1;stroke:none"
           d="m 161.09919,353.50354 c 0,0 -1.69045,-15.91803 -1.29078,-23.87943 0.49121,-9.78495 3.08776,-19.35019 4.51773,-29.04255 1.36326,-9.24019 1.10192,-18.83189 3.87234,-27.75177 1.71221,-5.51277 4.13264,-10.98654 7.74468,-15.48937 2.77511,-3.4595 6.41074,-6.30722 10.32624,-8.39007 4.56622,-2.429 9.08858,-4.17363 13.87589,-6.13121 5.16576,-2.11233 5.40689,-1.55931 10.32624,-4.19503 4.32832,-2.31905 15.35452,-5.85164 20.00709,-7.42198 4.7075,-1.58888 9.70888,-4.40537 13.55319,-6.4539 1.44591,-0.77048 12.18805,-4.19504 12.18805,-4.19504 0,0 1.32157,3.3258 2.58156,4.51773 1.74729,1.65291 4.22121,2.33241 6.4539,3.22695 2.71618,1.08826 5.53168,1.95579 8.39007,2.58156 3.18019,0.69622 6.44316,0.95067 9.68085,1.29078 2.78961,0.29304 5.59743,0.38291 8.39008,0.64539 3.87907,0.36459 7.72681,1.07532 11.61702,1.29078 5.58482,0.30932 11.19635,0.32733 16.78014,0 3.67612,-0.2155 7.32972,-0.74602 10.97163,-1.29078 4.75752,-0.71164 9.76796,-0.70805 14.19858,-2.58156 1.7045,-0.72075 3.31551,-1.82002 4.51773,-3.22695 1.25001,-1.46286 2.58156,-5.16312 2.58156,-5.16312 0,0 8.87637,5.46395 13.55319,7.74468 4.59618,2.2414 9.42837,3.9663 14.19859,5.80851 4.69791,1.81428 9.49362,3.3672 14.19858,5.16312 4.32937,1.65255 8.49854,3.73737 12.9078,5.16312 4.21989,1.36452 8.76886,1.63365 12.9078,3.22695 3.41305,1.31387 6.92564,2.75812 9.68085,5.16312 3.59856,3.14115 6.08747,7.43198 8.39007,11.61702 2.79231,5.0751 4.55891,10.66094 6.4539,16.13476 3.74132,10.80705 7.20506,21.74975 9.68085,32.91489 1.55442,7.01004 1.96129,14.22998 3.22696,21.29787 1.12299,6.27114 3.87234,18.71631 3.87234,18.71631 0,0 -5.39643,3.81349 -8.39008,5.16313 -4.71505,2.12571 -9.78277,3.45254 -14.84397,4.51773 -5.30071,1.1156 -10.73794,1.47086 -16.13475,1.93617 -4.078,0.3516 -8.1744,0.8501 -12.26241,0.64539 -2.82605,-0.14151 -8.39007,-1.29078 -8.39007,-1.29078 0,0 0.90294,26.24454 1.29078,39.36879 0.24156,8.1742 0.53782,16.34776 0.64539,24.52482 0.12169,9.24979 -0.1926,18.50319 0,27.75178 0.10759,5.16648 0.64539,15.48936 0.64539,15.48936 0,0 -9.85811,1.73523 -14.84397,1.93617 -13.12814,0.5291 -26.23397,-1.61338 -39.3688,-1.93617 -11.61351,-0.28541 -23.23619,0.22328 -34.85106,0 -11.19297,-0.21517 -34.24124,-0.80292 -45.42564,-1.29078 -8.82243,-0.38483 -17.70137,-0.17168 -26.46099,-1.29078 -5.23146,-0.66835 -15.48936,-3.22695 -15.48936,-3.22695 0,0 -1.6132,-15.46923 -1.93617,-23.23404 -0.27716,-6.66327 0.47276,-13.35484 0,-20.0071 -0.53918,-7.58686 -2.58248,-15.01001 -3.22695,-22.58865 -0.65648,-7.7198 -0.53781,-15.48712 -0.64539,-23.23404 -0.0418,-3.01153 0,-9.03546 0,-9.03546 0,0 -12.5218,1.41774 -18.71631,0.64539 -6.89105,-0.8592 -13.44085,-3.54817 -20.0071,-5.80851 -5.47712,-1.88542 -11.00821,-3.75718 -16.13475,-6.4539 -2.05944,-1.08333 -5.80851,-3.87235 -5.80851,-3.87235 z"
           id="path2894"
           sodipodi:nodetypes="cssssssssscsssssssssscsssssssssscsssscssscssssscsssscsssc" />
        <path
           style="fill:none;stroke:#000000;stroke-opacity:1"
           d="m 161.09919,353.50354 c 0,0 -1.69045,-15.91803 -1.29078,-23.87943 0.49121,-9.78495 3.08776,-19.35019 4.51773,-29.04255 1.36326,-9.24019 1.10192,-18.83189 3.87234,-27.75177 1.71221,-5.51277 4.13264,-10.98654 7.74468,-15.48937 2.77511,-3.4595 6.41074,-6.30722 10.32624,-8.39007 4.56622,-2.429 9.08858,-4.17363 13.87589,-6.13121 5.16576,-2.11233 5.40689,-1.55931 10.32624,-4.19503 4.32832,-2.31905 15.35452,-5.85164 20.00709,-7.42198 4.7075,-1.58888 9.70888,-4.40537 13.55319,-6.4539 1.44591,-0.77048 12.18805,-4.19504 12.18805,-4.19504 0,0 1.32157,3.3258 2.58156,4.51773 1.74729,1.65291 4.22121,2.33241 6.4539,3.22695 2.71618,1.08826 5.53168,1.95579 8.39007,2.58156 3.18019,0.69622 6.44316,0.95067 9.68085,1.29078 2.78961,0.29304 5.59743,0.38291 8.39008,0.64539 3.87907,0.36459 7.72681,1.07532 11.61702,1.29078 5.58482,0.30932 11.19635,0.32733 16.78014,0 3.67612,-0.2155 7.32972,-0.74602 10.97163,-1.29078 4.75752,-0.71164 9.76796,-0.70805 14.19858,-2.58156 1.7045,-0.72075 3.31551,-1.82002 4.51773,-3.22695 1.25001,-1.46286 2.58156,-5.16312 2.58156,-5.16312 0,0 8.87637,5.46395 13.55319,7.74468 4.59618,2.2414 9.42837,3.9663 14.19859,5.80851 4.69791,1.81428 9.49362,3.3672 14.19858,5.16312 4.32937,1.65255 8.49854,3.73737 12.9078,5.16312 4.21989,1.36452 8.76886,1.63365 12.9078,3.22695 3.41305,1.31387 6.92564,2.75812 9.68085,5.16312 3.59856,3.14115 6.08747,7.43198 8.39007,11.61702 2.79231,5.0751 4.55891,10.66094 6.4539,16.13476 3.74132,10.80705 7.20506,21.74975 9.68085,32.91489 1.55442,7.01004 1.96129,14.22998 3.22696,21.29787 1.12299,6.27114 3.87234,18.71631 3.87234,18.71631 0,0 -5.39643,3.81349 -8.39008,5.16313 -4.71505,2.12571 -9.78277,3.45254 -14.84397,4.51773 -5.30071,1.1156 -10.73794,1.47086 -16.13475,1.93617 -4.078,0.3516 -8.1744,0.8501 -12.26241,0.64539 -2.82605,-0.14151 -8.39007,-1.29078 -8.39007,-1.29078 0,0 0.90294,26.24454 1.29078,39.36879 0.24156,8.1742 0.53782,16.34776 0.64539,24.52482 0.12169,9.24979 -0.1926,18.50319 0,27.75178 0.10759,5.16648 0.64539,15.48936 0.64539,15.48936 0,0 -9.85811,1.73523 -14.84397,1.93617 -13.12814,0.5291 -26.23397,-1.61338 -39.3688,-1.93617 -11.61351,-0.28541 -23.23619,0.22328 -34.85106,0 -11.19297,-0.21517 -34.24124,-0.80292 -45.42564,-1.29078 -8.82243,-0.38483 -17.70137,-0.17168 -26.46099,-1.29078 -5.23146,-0.66835 -15.48936,-3.22695 -15.48936,-3.22695 0,0 -1.6132,-15.46923 -1.93617,-23.23404 -0.27716,-6.66327 0.47276,-13.35484 0,-20.0071 -0.53918,-7.58686 -2.58248,-15.01001 -3.22695,-22.58865 -0.65648,-7.7198 -0.53781,-15.48712 -0.64539,-23.23404 -0.0418,-3.01153 0,-9.03546 0,-9.03546 0,0 -12.5218,1.41774 -18.71631,0.64539 -6.89105,-0.8592 -13.44085,-3.54817 -20.0071,-5.80851 -5.47712,-1.88542 -11.00821,-3.75718 -16.13475,-6.4539 -2.05944,-1.08333 -5.80851,-3.87235 -5.80851,-3.87235 z"
           id="path2894-9"
           sodipodi:nodetypes="cssssssssscsssssssssscsssssssssscsssscssscssssscsssscsssc" />
      </g>
      <path
         sodipodi:nodetypes="csssscssscc"
         id="path4097"
         d="m 396.87456,473.5461 c 0,0 -0.42576,-20.54422 -0.60505,-30.65603 -0.26889,-15.16581 -0.62499,-30.33182 -0.64539,-45.5 -0.0126,-9.35877 -0.15512,-18.7279 0.32269,-28.07447 0.30329,-5.93273 0.56567,-11.9009 1.61348,-17.74823 0.72718,-4.05806 3.22695,-11.93971 3.22695,-11.93971 0,0 1.21916,42.59804 1.93617,63.89362 0.29339,8.7138 0.85307,17.42031 0.96808,26.13829 0.13338,10.11081 -0.64733,20.22687 -0.32269,30.33334 0.13852,4.31246 0.96808,12.9078 0.96808,12.9078 l -7.46232,0.64539 z"
         style="fill:#000000;fill-opacity:0.31555553;stroke:none" />
      <path
         sodipodi:nodetypes="cssscsssssscc"
         id="path4099"
         d="m 455.80675,358.10195 c 0,0 -4.74616,-25.28039 -7.26065,-37.5133 -2.43835,-11.86249 -4.68441,-23.77899 -7.74468,-35.49645 -1.67666,-6.41978 -3.65432,-12.76333 -5.80851,-19.03901 -1.2712,-3.70332 -4.19503,-10.97163 -4.19503,-10.97163 0,0 4.18954,4.95324 5.80851,7.74468 2.58641,4.45952 4.30568,9.37735 6.1312,14.19858 2.20426,5.82151 3.87842,11.83017 5.80851,17.74823 1.40276,4.30116 3.05029,8.5309 4.19504,12.9078 1.52661,5.8369 2.54072,11.79995 3.54965,17.74823 0.78097,4.60434 1.18295,9.26692 1.93617,13.87588 0.84725,5.18432 2.90425,15.48936 2.90425,15.48936 l -5.32446,3.30763 z"
         style="fill:#000000;fill-opacity:0.31555553;stroke:none" />
      <path
         sodipodi:nodetypes="cssccc"
         id="path4101"
         d="m 218.25403,368.64823 c 0,0 0.43343,-8.91445 0.91272,-13.34852 0.33466,-3.09601 0.53934,-6.23981 1.36908,-9.24128 0.31802,-1.15041 1.36907,-3.30861 1.36907,-3.30861 l -0.79862,26.12659 -2.85225,-0.22818 z"
         style="fill:#000000;fill-opacity:0.31555553;stroke:none" />
      <path
         sodipodi:nodetypes="cc"
         id="path4073"
         d="m 221.69149,368.80388 0.64539,-26.27197"
         style="fill:none;stroke:#000000;stroke-width:1;stroke-miterlimit:4;stroke-opacity:1;stroke-dasharray:none" />
      <path
         sodipodi:nodetypes="cc"
         id="path4073-5"
         d="m 401.47427,365.35973 -0.49551,-25.9297"
         style="fill:none;stroke:#000000;stroke-width:1;stroke-miterlimit:4;stroke-opacity:1;stroke-dasharray:none" />
    </g>
  </g>
</svg>
