<?xml version="1.0" encoding="UTF-8" standalone="no"?>
<!-- Created with Inkscape (http://www.inkscape.org/) -->

<svg
   xmlns:dc="http://purl.org/dc/elements/1.1/"
   xmlns:cc="http://creativecommons.org/ns#"
   xmlns:rdf="http://www.w3.org/1999/02/22-rdf-syntax-ns#"
   xmlns:svg="http://www.w3.org/2000/svg"
   xmlns="http://www.w3.org/2000/svg"
   xmlns:sodipodi="http://sodipodi.sourceforge.net/DTD/sodipodi-0.dtd"
   xmlns:inkscape="http://www.inkscape.org/namespaces/inkscape"
   width="640px"
   height="480px"
   id="svg3772"
   version="1.1"
   inkscape:version="0.47 r22583"
   sodipodi:docname="minion.svg"
   inkscape:export-filename="/media/FreeAgent Drive/T3/Projects/Games/the_devil-1.1/workspace/minion_front.png"
   inkscape:export-xdpi="95.194458"
   inkscape:export-ydpi="95.194458">
  <defs
     id="defs3774">
    <inkscape:perspective
       sodipodi:type="inkscape:persp3d"
       inkscape:vp_x="0 : 240 : 1"
       inkscape:vp_y="0 : 1000 : 0"
       inkscape:vp_z="640 : 240 : 1"
       inkscape:persp3d-origin="320 : 160 : 1"
       id="perspective3780" />
    <inkscape:perspective
       id="perspective3877"
       inkscape:persp3d-origin="0.5 : 0.33333333 : 1"
       inkscape:vp_z="1 : 0.5 : 1"
       inkscape:vp_y="0 : 1000 : 0"
       inkscape:vp_x="0 : 0.5 : 1"
       sodipodi:type="inkscape:persp3d" />
    <inkscape:perspective
       id="perspective4975"
       inkscape:persp3d-origin="0.5 : 0.33333333 : 1"
       inkscape:vp_z="1 : 0.5 : 1"
       inkscape:vp_y="0 : 1000 : 0"
       inkscape:vp_x="0 : 0.5 : 1"
       sodipodi:type="inkscape:persp3d" />
    <inkscape:perspective
       id="perspective4999"
       inkscape:persp3d-origin="0.5 : 0.33333333 : 1"
       inkscape:vp_z="1 : 0.5 : 1"
       inkscape:vp_y="0 : 1000 : 0"
       inkscape:vp_x="0 : 0.5 : 1"
       sodipodi:type="inkscape:persp3d" />
    <inkscape:perspective
       id="perspective5028"
       inkscape:persp3d-origin="0.5 : 0.33333333 : 1"
       inkscape:vp_z="1 : 0.5 : 1"
       inkscape:vp_y="0 : 1000 : 0"
       inkscape:vp_x="0 : 0.5 : 1"
       sodipodi:type="inkscape:persp3d" />
    <inkscape:perspective
       id="perspective5057"
       inkscape:persp3d-origin="0.5 : 0.33333333 : 1"
       inkscape:vp_z="1 : 0.5 : 1"
       inkscape:vp_y="0 : 1000 : 0"
       inkscape:vp_x="0 : 0.5 : 1"
       sodipodi:type="inkscape:persp3d" />
    <inkscape:perspective
       id="perspective5109"
       inkscape:persp3d-origin="0.5 : 0.33333333 : 1"
       inkscape:vp_z="1 : 0.5 : 1"
       inkscape:vp_y="0 : 1000 : 0"
       inkscape:vp_x="0 : 0.5 : 1"
       sodipodi:type="inkscape:persp3d" />
    <inkscape:perspective
       id="perspective5133"
       inkscape:persp3d-origin="0.5 : 0.33333333 : 1"
       inkscape:vp_z="1 : 0.5 : 1"
       inkscape:vp_y="0 : 1000 : 0"
       inkscape:vp_x="0 : 0.5 : 1"
       sodipodi:type="inkscape:persp3d" />
    <inkscape:perspective
       id="perspective5155"
       inkscape:persp3d-origin="0.5 : 0.33333333 : 1"
       inkscape:vp_z="1 : 0.5 : 1"
       inkscape:vp_y="0 : 1000 : 0"
       inkscape:vp_x="0 : 0.5 : 1"
       sodipodi:type="inkscape:persp3d" />
    <inkscape:perspective
       id="perspective5177"
       inkscape:persp3d-origin="0.5 : 0.33333333 : 1"
       inkscape:vp_z="1 : 0.5 : 1"
       inkscape:vp_y="0 : 1000 : 0"
       inkscape:vp_x="0 : 0.5 : 1"
       sodipodi:type="inkscape:persp3d" />
    <inkscape:perspective
       id="perspective5201"
       inkscape:persp3d-origin="0.5 : 0.33333333 : 1"
       inkscape:vp_z="1 : 0.5 : 1"
       inkscape:vp_y="0 : 1000 : 0"
       inkscape:vp_x="0 : 0.5 : 1"
       sodipodi:type="inkscape:persp3d" />
    <inkscape:perspective
       id="perspective5245"
       inkscape:persp3d-origin="0.5 : 0.33333333 : 1"
       inkscape:vp_z="1 : 0.5 : 1"
       inkscape:vp_y="0 : 1000 : 0"
       inkscape:vp_x="0 : 0.5 : 1"
       sodipodi:type="inkscape:persp3d" />
    <inkscape:perspective
       id="perspective5445"
       inkscape:persp3d-origin="0.5 : 0.33333333 : 1"
       inkscape:vp_z="1 : 0.5 : 1"
       inkscape:vp_y="0 : 1000 : 0"
       inkscape:vp_x="0 : 0.5 : 1"
       sodipodi:type="inkscape:persp3d" />
    <inkscape:perspective
       id="perspective5467"
       inkscape:persp3d-origin="0.5 : 0.33333333 : 1"
       inkscape:vp_z="1 : 0.5 : 1"
       inkscape:vp_y="0 : 1000 : 0"
       inkscape:vp_x="0 : 0.5 : 1"
       sodipodi:type="inkscape:persp3d" />
    <inkscape:perspective
       id="perspective5491"
       inkscape:persp3d-origin="0.5 : 0.33333333 : 1"
       inkscape:vp_z="1 : 0.5 : 1"
       inkscape:vp_y="0 : 1000 : 0"
       inkscape:vp_x="0 : 0.5 : 1"
       sodipodi:type="inkscape:persp3d" />
    <inkscape:perspective
       id="perspective5595"
       inkscape:persp3d-origin="0.5 : 0.33333333 : 1"
       inkscape:vp_z="1 : 0.5 : 1"
       inkscape:vp_y="0 : 1000 : 0"
       inkscape:vp_x="0 : 0.5 : 1"
       sodipodi:type="inkscape:persp3d" />
    <inkscape:perspective
       id="perspective3676"
       inkscape:persp3d-origin="0.5 : 0.33333333 : 1"
       inkscape:vp_z="1 : 0.5 : 1"
       inkscape:vp_y="0 : 1000 : 0"
       inkscape:vp_x="0 : 0.5 : 1"
       sodipodi:type="inkscape:persp3d" />
    <inkscape:perspective
       id="perspective3704"
       inkscape:persp3d-origin="0.5 : 0.33333333 : 1"
       inkscape:vp_z="1 : 0.5 : 1"
       inkscape:vp_y="0 : 1000 : 0"
       inkscape:vp_x="0 : 0.5 : 1"
       sodipodi:type="inkscape:persp3d" />
    <inkscape:perspective
       id="perspective3728"
       inkscape:persp3d-origin="0.5 : 0.33333333 : 1"
       inkscape:vp_z="1 : 0.5 : 1"
       inkscape:vp_y="0 : 1000 : 0"
       inkscape:vp_x="0 : 0.5 : 1"
       sodipodi:type="inkscape:persp3d" />
    <inkscape:perspective
       id="perspective3752"
       inkscape:persp3d-origin="0.5 : 0.33333333 : 1"
       inkscape:vp_z="1 : 0.5 : 1"
       inkscape:vp_y="0 : 1000 : 0"
       inkscape:vp_x="0 : 0.5 : 1"
       sodipodi:type="inkscape:persp3d" />
    <inkscape:perspective
       id="perspective3776"
       inkscape:persp3d-origin="0.5 : 0.33333333 : 1"
       inkscape:vp_z="1 : 0.5 : 1"
       inkscape:vp_y="0 : 1000 : 0"
       inkscape:vp_x="0 : 0.5 : 1"
       sodipodi:type="inkscape:persp3d" />
    <inkscape:perspective
       id="perspective3800"
       inkscape:persp3d-origin="0.5 : 0.33333333 : 1"
       inkscape:vp_z="1 : 0.5 : 1"
       inkscape:vp_y="0 : 1000 : 0"
       inkscape:vp_x="0 : 0.5 : 1"
       sodipodi:type="inkscape:persp3d" />
    <inkscape:perspective
       id="perspective3824"
       inkscape:persp3d-origin="0.5 : 0.33333333 : 1"
       inkscape:vp_z="1 : 0.5 : 1"
       inkscape:vp_y="0 : 1000 : 0"
       inkscape:vp_x="0 : 0.5 : 1"
       sodipodi:type="inkscape:persp3d" />
    <inkscape:perspective
       id="perspective3851"
       inkscape:persp3d-origin="0.5 : 0.33333333 : 1"
       inkscape:vp_z="1 : 0.5 : 1"
       inkscape:vp_y="0 : 1000 : 0"
       inkscape:vp_x="0 : 0.5 : 1"
       sodipodi:type="inkscape:persp3d" />
    <inkscape:perspective
       id="perspective3919"
       inkscape:persp3d-origin="0.5 : 0.33333333 : 1"
       inkscape:vp_z="1 : 0.5 : 1"
       inkscape:vp_y="0 : 1000 : 0"
       inkscape:vp_x="0 : 0.5 : 1"
       sodipodi:type="inkscape:persp3d" />
    <inkscape:perspective
       id="perspective3949"
       inkscape:persp3d-origin="0.5 : 0.33333333 : 1"
       inkscape:vp_z="1 : 0.5 : 1"
       inkscape:vp_y="0 : 1000 : 0"
       inkscape:vp_x="0 : 0.5 : 1"
       sodipodi:type="inkscape:persp3d" />
    <inkscape:perspective
       id="perspective3973"
       inkscape:persp3d-origin="0.5 : 0.33333333 : 1"
       inkscape:vp_z="1 : 0.5 : 1"
       inkscape:vp_y="0 : 1000 : 0"
       inkscape:vp_x="0 : 0.5 : 1"
       sodipodi:type="inkscape:persp3d" />
    <inkscape:perspective
       id="perspective3997"
       inkscape:persp3d-origin="0.5 : 0.33333333 : 1"
       inkscape:vp_z="1 : 0.5 : 1"
       inkscape:vp_y="0 : 1000 : 0"
       inkscape:vp_x="0 : 0.5 : 1"
       sodipodi:type="inkscape:persp3d" />
    <inkscape:perspective
       id="perspective4083"
       inkscape:persp3d-origin="0.5 : 0.33333333 : 1"
       inkscape:vp_z="1 : 0.5 : 1"
       inkscape:vp_y="0 : 1000 : 0"
       inkscape:vp_x="0 : 0.5 : 1"
       sodipodi:type="inkscape:persp3d" />
    <inkscape:perspective
       id="perspective4334"
       inkscape:persp3d-origin="0.5 : 0.33333333 : 1"
       inkscape:vp_z="1 : 0.5 : 1"
       inkscape:vp_y="0 : 1000 : 0"
       inkscape:vp_x="0 : 0.5 : 1"
       sodipodi:type="inkscape:persp3d" />
    <inkscape:perspective
       id="perspective4360"
       inkscape:persp3d-origin="0.5 : 0.33333333 : 1"
       inkscape:vp_z="1 : 0.5 : 1"
       inkscape:vp_y="0 : 1000 : 0"
       inkscape:vp_x="0 : 0.5 : 1"
       sodipodi:type="inkscape:persp3d" />
    <inkscape:perspective
       id="perspective3019"
       inkscape:persp3d-origin="0.5 : 0.33333333 : 1"
       inkscape:vp_z="1 : 0.5 : 1"
       inkscape:vp_y="0 : 1000 : 0"
       inkscape:vp_x="0 : 0.5 : 1"
       sodipodi:type="inkscape:persp3d" />
    <inkscape:perspective
       id="perspective4465"
       inkscape:persp3d-origin="0.5 : 0.33333333 : 1"
       inkscape:vp_z="1 : 0.5 : 1"
       inkscape:vp_y="0 : 1000 : 0"
       inkscape:vp_x="0 : 0.5 : 1"
       sodipodi:type="inkscape:persp3d" />
    <inkscape:perspective
       id="perspective4489"
       inkscape:persp3d-origin="0.5 : 0.33333333 : 1"
       inkscape:vp_z="1 : 0.5 : 1"
       inkscape:vp_y="0 : 1000 : 0"
       inkscape:vp_x="0 : 0.5 : 1"
       sodipodi:type="inkscape:persp3d" />
    <inkscape:perspective
       id="perspective4511"
       inkscape:persp3d-origin="0.5 : 0.33333333 : 1"
       inkscape:vp_z="1 : 0.5 : 1"
       inkscape:vp_y="0 : 1000 : 0"
       inkscape:vp_x="0 : 0.5 : 1"
       sodipodi:type="inkscape:persp3d" />
  </defs>
  <sodipodi:namedview
     id="base"
     pagecolor="#000000"
     bordercolor="#666666"
     borderopacity="1.0"
     inkscape:pageopacity="0"
     inkscape:pageshadow="2"
     inkscape:zoom="0.77472527"
     inkscape:cx="408.27425"
     inkscape:cy="231.12747"
     inkscape:current-layer="layer1"
     inkscape:document-units="px"
     showgrid="false"
     inkscape:window-width="787"
     inkscape:window-height="745"
     inkscape:window-x="246"
     inkscape:window-y="88"
     inkscape:window-maximized="0"
     showguides="true"
     inkscape:guide-bbox="true" />
  <metadata
     id="metadata3777">
    <rdf:RDF>
      <cc:Work
         rdf:about="">
        <dc:format>image/svg+xml</dc:format>
        <dc:type
           rdf:resource="http://purl.org/dc/dcmitype/StillImage" />
        <dc:title></dc:title>
      </cc:Work>
    </rdf:RDF>
  </metadata>
  <g
     id="layer1"
     inkscape:label="Layer 1"
     inkscape:groupmode="layer">
    <g
       id="g4419">
      <path
         sodipodi:nodetypes="cssccssscssssssc"
         id="path5583"
         d="m 260.71453,223.86418 c 0,0 3.73646,-4.01232 5.06905,-6.32996 1.67993,-2.92175 2.76339,-6.13628 3.57816,-9.35734 0.56899,-2.24943 0.89455,-6.88039 0.89455,-6.88039 l 66.79232,0.55043 c 0,0 0.6501,5.39552 1.4909,7.98125 0.99796,3.06905 2.4549,6.02333 4.17452,8.80691 1.51666,2.45504 3.51573,4.62954 5.36724,6.8804 0.38484,0.46785 1.19272,1.37608 1.19272,1.37608 0,0 -4.26605,3.60143 -6.85813,4.67867 -4.35496,1.80987 -9.28032,2.16947 -14.01447,2.75216 -5.32835,0.65582 -10.7262,0.82376 -16.10172,0.82565 -7.2666,0.003 -14.53314,-0.46629 -21.76714,-1.10087 -5.89133,-0.51679 -11.91733,-0.65392 -17.59263,-2.20172 -3.58177,-0.97684 -7.42671,-2.03272 -10.13812,-4.40346 -1.06538,-0.93152 -2.08725,-3.57781 -2.08725,-3.57781 z"
         style="fill:#c53f00;fill-opacity:1;stroke:none" />
      <path
         sodipodi:nodetypes="ccsssccsssc"
         id="path5585"
         d="m 349.29208,227.00556 -3.47273,2.65485 c 0,0 -4.21181,-3.99534 -5.78893,-6.34666 -1.71058,-2.55028 -2.85409,-5.40929 -3.87635,-8.25647 -1.09206,-3.04163 -1.75769,-6.20587 -2.38544,-9.35734 -0.27197,-1.36537 -0.59636,-4.12824 -0.59636,-4.12824 l 3.89443,0.27522 c 0,0 0.38389,4.0731 0.89453,6.05475 0.65671,2.54846 1.5621,5.06078 2.77097,7.43082 1.2228,2.39737 2.86567,4.59876 4.49079,6.7831 1.2605,1.69427 4.06909,4.88997 4.06909,4.88997 z"
         style="fill:#000000;fill-opacity:0.31555553;stroke:none" />
      <path
         sodipodi:nodetypes="cssccssscssssssc"
         id="path5583-9"
         d="m 260.71453,223.86418 c 0,0 3.73646,-4.01232 5.06905,-6.32996 1.67993,-2.92175 2.76339,-6.13628 3.57816,-9.35734 0.56899,-2.24943 0.89455,-6.88039 0.89455,-6.88039 l 66.79232,0.55043 c 0,0 0.6501,5.39552 1.4909,7.98125 0.99796,3.06905 2.4549,6.02333 4.17452,8.80691 1.51666,2.45504 3.51573,4.62954 5.36724,6.8804 0.38484,0.46785 1.19272,1.37608 1.19272,1.37608 0,0 -4.26605,3.60143 -6.85813,4.67867 -4.35496,1.80987 -9.28032,2.16947 -14.01447,2.75216 -5.32835,0.65582 -10.7262,0.82376 -16.10172,0.82565 -7.2666,0.003 -14.53314,-0.46629 -21.76714,-1.10087 -5.89133,-0.51679 -11.91733,-0.65392 -17.59263,-2.20172 -3.58177,-0.97684 -7.42671,-2.03272 -10.13812,-4.40346 -1.06538,-0.93152 -2.08725,-3.57781 -2.08725,-3.57781 z"
         style="fill:none;stroke:#000000;stroke-width:1;stroke-opacity:1;stroke-miterlimit:4;stroke-dasharray:none" />
      <path
         sodipodi:nodetypes="csssssssssssssssssssssssssss"
         id="path3883"
         d="m 274.39242,212.84376 c -3.89158,-5.97149 -6.39557,-12.63051 -9.27718,-19.07149 -2.58074,-5.76848 -4.23483,-11.8918 -7.16874,-17.51462 -2.62544,-5.03165 -6.0328,-9.68686 -9.27718,-14.40092 -2.82207,-4.10046 -7.05879,-7.49964 -8.85549,-12.06564 -2.8457,-7.23182 -2.44722,-15.26998 -2.53015,-22.96362 -0.0687,-6.37799 0.32515,-12.81822 1.68677,-19.07149 1.34003,-6.15417 3.51341,-12.188282 6.32534,-17.90384 3.1795,-6.462661 7.02507,-12.734737 11.80733,-18.293057 3.15297,-3.664621 6.79952,-7.061214 10.96395,-9.730349 6.66153,-4.269614 14.09346,-7.795093 21.92789,-9.73035 5.44664,-1.345426 11.23448,-1.391096 16.86761,-1.167642 5.26393,0.208809 10.5011,1.119414 15.60254,2.335284 5.6395,1.344107 11.44907,2.686794 16.44592,5.448996 5.03742,2.784634 9.1936,6.82923 13.0724,10.897991 4.06971,4.269018 7.88552,8.88128 10.54226,14.011703 2.58949,5.000587 4.14888,10.479573 5.06027,15.957774 1.06692,6.41303 1.03118,12.99693 0.42169,19.4607 -0.63338,6.71724 -2.21622,13.36507 -4.21689,19.84991 -1.85181,6.00232 -4.62222,11.73322 -7.16874,17.51463 -2.25219,5.11319 -5.30308,9.93524 -7.16873,15.17934 -1.9787,5.56188 -2.70236,11.44073 -4.21691,17.12542 -1.18054,4.43101 -2.07075,8.95686 -3.79521,13.23328 -2.23668,5.54665 -4.08431,11.6091 -8.4338,15.95776 -2.43647,2.436 -5.83848,4.10178 -9.27718,5.05979 -7.68093,2.13988 -16.04639,1.84111 -24.03636,1.16764 -6.62066,-0.55805 -13.80864,-0.95851 -19.39774,-4.28135 -2.6947,-1.60206 -4.2515,-4.47066 -5.90367,-7.00585 z"
         style="fill:#c53f00;fill-opacity:1;stroke:none" />
      <path
         sodipodi:nodetypes="csssssssssssscsssssssssssssssc"
         id="path4989"
         d="m 272.34354,210.10339 c 0,0 8.16262,5.49499 12.82175,7.15562 4.34599,1.54901 9.07193,2.13864 13.71628,2.47693 5.55231,0.40444 11.25702,0.54754 16.69808,-0.55043 3.78689,-0.76417 7.63025,-1.98543 10.73448,-4.12823 3.79145,-2.61718 6.75461,-6.30909 8.9454,-10.18299 2.48908,-4.40141 3.0747,-9.51691 4.4727,-14.31122 1.27806,-4.38301 2.18118,-8.85838 3.57816,-13.21036 1.91081,-5.9527 4.36648,-11.74472 6.55996,-17.61381 1.78353,-4.77218 3.65392,-9.51719 5.36724,-14.31123 1.66423,-4.65671 3.50961,-9.27269 4.77088,-14.03601 1.8932,-7.14984 3.16378,-14.44114 4.17452,-21.74205 0.48021,-3.46871 0.74534,-6.964 0.89455,-10.458202 0.12134,-2.841691 0,-8.53169 0,-8.53169 0,0 2.56436,6.31552 2.9818,9.632552 0.97585,7.75428 -0.0648,15.65667 -1.19272,23.39335 -0.78788,5.40415 -2.24429,10.72186 -3.87635,15.96252 -1.485,4.76844 -3.34033,9.4407 -5.36724,14.03601 -1.69355,3.83954 -3.93792,7.45721 -5.66541,11.28384 -1.42732,3.16171 -2.83552,6.34486 -3.87635,9.63256 -1.05529,3.33337 -1.58451,6.78982 -2.38544,10.18298 -0.88812,3.76258 -1.62196,7.55978 -2.68361,11.28385 -1.03203,3.62012 -2.11217,7.24319 -3.57816,10.73342 -1.43034,3.40536 -2.45205,7.16828 -5.06907,9.90777 -2.57121,2.69155 -6.23984,4.42486 -9.83994,5.77953 -3.57414,1.3449 -7.48209,1.9331 -11.33084,2.20173 -5.26127,0.36722 -10.56705,-0.22877 -15.80355,-0.82565 -4.7205,-0.53805 -9.67057,-0.68872 -14.01445,-2.47694 -2.85036,-1.17339 -5.4198,-3.04478 -7.45451,-5.2291 -1.62383,-1.74324 -3.57816,-6.05475 -3.57816,-6.05475 z"
         style="fill:#000000;fill-opacity:0.31555553;stroke:none" />
      <path
         sodipodi:nodetypes="csssssssssssssssssssssssssss"
         id="path3883-0"
         d="m 274.39242,212.84376 c -3.89158,-5.97149 -6.39557,-12.63051 -9.27718,-19.07149 -2.58074,-5.76848 -4.23483,-11.8918 -7.16874,-17.51462 -2.62544,-5.03165 -6.0328,-9.68686 -9.27718,-14.40092 -2.82207,-4.10046 -7.05879,-7.49964 -8.85549,-12.06564 -2.8457,-7.23182 -2.44722,-15.26998 -2.53015,-22.96362 -0.0687,-6.37799 0.32515,-12.81822 1.68677,-19.07149 1.34003,-6.15417 3.51341,-12.188284 6.32534,-17.903843 3.1795,-6.46266 7.02507,-12.734736 11.80733,-18.293057 3.15297,-3.66462 6.79952,-7.061214 10.96395,-9.730349 6.66153,-4.269613 14.09346,-7.795093 21.92789,-9.73035 5.44664,-1.345426 11.23448,-1.391096 16.86761,-1.167642 5.26393,0.20881 10.5011,1.119414 15.60254,2.335284 5.6395,1.344108 11.44907,2.686795 16.44592,5.448996 5.03742,2.784634 9.1936,6.82923 13.0724,10.897992 4.06971,4.269018 7.88552,8.881279 10.54226,14.011703 2.58949,5.000586 4.14888,10.479573 5.06027,15.957773 1.06692,6.413033 1.03118,12.996933 0.42169,19.460703 -0.63338,6.71724 -2.21622,13.36507 -4.21689,19.84991 -1.85181,6.00232 -4.62222,11.73322 -7.16874,17.51463 -2.25219,5.11319 -5.30308,9.93524 -7.16873,15.17934 -1.9787,5.56188 -2.70236,11.44073 -4.21691,17.12542 -1.18054,4.43101 -2.07075,8.95686 -3.79521,13.23328 -2.23668,5.54665 -4.08431,11.6091 -8.4338,15.95776 -2.43647,2.436 -5.83848,4.10178 -9.27718,5.05979 -7.68093,2.13988 -16.04639,1.84111 -24.03636,1.16764 -6.62066,-0.55805 -13.80864,-0.95851 -19.39774,-4.28135 -2.6947,-1.60206 -4.2515,-4.47066 -5.90367,-7.00585 z"
         style="fill:none;stroke:#000000;stroke-width:1;stroke-opacity:1;stroke-miterlimit:4;stroke-dasharray:none" />
      <path
         sodipodi:nodetypes="cssssssscssssssssssssss"
         id="path4961"
         d="m 359.02861,137.11418 c 0.41371,-4.39897 0.33684,-8.91187 1.88465,-13.14893 1.2037,-3.29509 3.60686,-6.24171 5.65395,-9.26401 1.86557,-2.75432 3.68088,-5.55816 6.03089,-8.06866 1.21892,-1.30216 3.19382,-2.15102 4.14623,-3.58607 0.78057,-1.17613 0.87205,-2.57183 1.13079,-3.884911 0.23352,-1.185126 -0.16735,-2.466875 0.37693,-3.58607 0.96731,-1.98909 3.59729,-3.215393 4.90009,-5.080266 0.52013,-0.744523 1.13079,-2.390714 1.13079,-2.390714 0,0 0.73259,3.648189 1.50773,5.379106 0.28199,0.629713 0.91813,1.146429 1.13079,1.793035 1.3646,4.149264 2.09276,8.69556 0.75386,12.85008 -0.83749,2.59868 -3.32638,4.68189 -5.27703,6.87331 -1.49349,1.67783 -4.03346,2.8462 -4.90009,4.78142 -1.05094,2.34681 0.30952,4.99278 0,7.47098 -0.31564,2.52729 -0.86953,5.06223 -1.88465,7.47098 -1.10414,2.61999 -3.44805,4.84342 -4.52317,7.47098 -0.8669,2.11873 -0.73082,4.43391 -1.50772,6.57446 -0.56131,1.54655 -0.78473,3.37857 -2.26158,4.4826 -1.15631,0.86441 -2.93573,1.2561 -4.52316,1.19535 -1.236,-0.0473 -2.67875,-0.39385 -3.39237,-1.19535 -1.88946,-2.12214 -0.68658,-5.17278 -0.75386,-7.76983 -0.0723,-2.79035 0.11517,-5.58428 0.37693,-8.36749 z"
         style="fill:#c53f00;fill-opacity:1;stroke:none" />
      <path
         id="path5097"
         d="m 358.19484,151.29601 3.33163,1.58483 3.19836,0 2.2655,-1.37352 1.06612,-4.54319 0.66633,-4.96581 2.53203,-4.43754 2.53203,-4.12057 1.33266,-6.12802 0.39979,-2.43008 1.59918,-1.37353 0.39979,2.95836 -0.53306,4.64885 -1.59918,4.22622 -2.53203,3.90926 -1.59918,2.64139 -0.93285,2.8527 -0.53306,3.06401 -1.19939,3.69795 -1.46591,2.00746 -2.6653,0.9509 -3.59816,-0.21131 -2.13224,-1.47918 -0.53306,-1.47918 z"
         style="fill:#000000;fill-opacity:0.31372549;stroke:none" />
      <path
         sodipodi:nodetypes="cscsssssscssssssssss"
         id="path5099"
         d="m 367.1236,129.74227 c 0.62034,0.2199 1.36117,0.13109 1.99897,0.31696 0.42927,0.1251 1.19939,0.52828 1.19939,0.52828 0,0 -0.3631,-1.67293 0,-2.43008 0.38019,-0.79281 1.52887,-1.20139 2.13224,-1.9018 1.37816,-1.59982 2.28618,-3.42604 3.33163,-5.17712 0.66381,-1.11187 1.19689,-2.27101 1.8657,-3.38098 1.12193,-1.86197 2.79449,-3.53141 3.59815,-5.4941 0.83218,-2.03234 0.98054,-4.20964 1.19939,-6.33933 0.26335,-2.56271 0.13327,-7.712862 0.13327,-7.712862 0,0 -0.15149,3.103042 -0.7996,4.543192 -0.40194,0.89314 -1.5084,1.52509 -1.8657,2.43008 -0.66469,1.68354 0.0439,3.55412 -0.3998,5.28278 -0.42309,1.64824 -1.25543,3.22284 -2.13224,4.7545 -0.52603,0.91891 -1.07357,1.85151 -1.86571,2.64139 -0.82196,0.81963 -2.00211,1.36938 -2.93183,2.11311 -1.17377,0.93897 -2.44333,1.83958 -3.33162,2.95836 -0.92292,1.16239 -1.35013,2.53005 -1.99898,3.8036 -0.41091,0.80652 -1.49958,1.59344 -1.19938,2.43008 0.12155,0.33874 0.6606,0.49019 1.06612,0.63394 z"
         style="fill:#000000;fill-opacity:0.31372549;stroke:none" />
      <path
         sodipodi:nodetypes="cssssssscssssssssssssss"
         id="path4961-0"
         d="m 359.02861,137.11418 c 0.41371,-4.39897 0.33684,-8.91187 1.88465,-13.14893 1.2037,-3.2951 3.60686,-6.24171 5.65395,-9.26401 1.86557,-2.75432 3.68088,-5.55816 6.03089,-8.06866 1.21892,-1.30216 3.19382,-2.15102 4.14623,-3.58607 0.78057,-1.17613 0.87205,-2.57183 1.13079,-3.884911 0.23352,-1.185126 -0.16735,-2.466876 0.37693,-3.586071 0.96731,-1.989089 3.59729,-3.215392 4.90009,-5.080266 0.52013,-0.744523 1.13079,-2.390714 1.13079,-2.390714 0,0 0.73259,3.648189 1.50773,5.379106 0.28199,0.629713 0.91813,1.146429 1.13079,1.793035 1.3646,4.149265 2.09276,8.695561 0.75386,12.850081 -0.83749,2.59868 -3.32638,4.68189 -5.27703,6.87331 -1.49349,1.67783 -4.03346,2.8462 -4.90009,4.78142 -1.05094,2.34681 0.30952,4.99278 0,7.47098 -0.31564,2.52729 -0.86953,5.06223 -1.88465,7.47098 -1.10414,2.61999 -3.44805,4.84342 -4.52317,7.47098 -0.8669,2.11873 -0.73082,4.43391 -1.50772,6.57446 -0.56131,1.54655 -0.78473,3.37857 -2.26158,4.4826 -1.15631,0.86441 -2.93573,1.2561 -4.52316,1.19535 -1.236,-0.0473 -2.67875,-0.39385 -3.39237,-1.19535 -1.88946,-2.12214 -0.68658,-5.17278 -0.75386,-7.76983 -0.0723,-2.79035 0.11517,-5.58428 0.37693,-8.36749 z"
         style="fill:none;stroke:#000000;stroke-width:1;stroke-opacity:1;stroke-miterlimit:4;stroke-dasharray:none" />
      <path
         sodipodi:nodetypes="csscsssssssssssssssssssssss"
         id="path4963"
         d="m 234.35098,109.02329 c -2.26041,-2.11611 -3.93081,-4.64177 -5.43925,-7.17214 -1.53458,-2.57421 -2.73172,-5.296904 -3.62617,-8.068656 -0.75586,-2.342276 -1.45047,-7.172141 -1.45047,-7.172141 0,0 -2.95182,3.404669 -3.62617,5.379105 -0.78666,2.303288 -0.36262,4.779354 -0.36262,7.172141 0,2.392791 -0.0779,4.807061 0.36262,7.172141 0.49382,2.65111 1.29774,5.29015 2.53832,7.76982 1.11438,2.22742 3.60103,3.94702 4.35141,6.27562 0.31024,0.96276 -0.0751,1.99419 0,2.98839 0.18166,2.40467 0.58889,4.79818 1.08785,7.17215 0.38039,1.80982 0.59754,3.68214 1.45046,5.3791 0.6031,1.19993 2.05344,2.05144 2.53832,3.28723 0.6333,1.61406 0.37066,3.38393 0.36262,5.08026 -0.007,1.49751 -0.78912,3.02691 -0.36262,4.48259 0.33086,1.12923 1.68867,1.89826 2.1757,2.9884 0.25404,0.5686 -0.0366,1.28421 0.36262,1.79303 0.7099,0.90482 1.95663,1.82293 3.26355,1.79303 1.81239,-0.0414 3.54057,-1.3531 4.3514,-2.68954 0.973,-1.60374 -0.38201,-3.61393 0,-5.37911 0.42973,-1.98568 1.803,-3.75412 2.53832,-5.67794 0.71348,-1.86668 1.46317,-3.74223 1.81309,-5.67795 0.4634,-2.56357 0.41843,-5.17837 0.36261,-7.76982 -0.0581,-2.6965 0.26428,-5.49798 -0.72523,-8.06866 -0.85245,-2.2146 -2.49621,-4.22737 -4.35141,-5.97678 -1.01862,-0.96054 -2.42277,-1.58835 -3.62616,-2.39072 -1.33556,-0.89048 -2.85365,-1.62688 -3.98879,-2.68955 z"
         style="fill:#c53f00;fill-opacity:1;stroke:none" />
      <path
         sodipodi:nodetypes="cscsscs"
         id="path5191"
         d="m 223.83509,115.59775 c 1.74669,2.87186 3.14206,6.01913 5.80187,8.3675 1.48688,1.31278 5.43926,2.98839 5.43926,2.98839 0,0 -3.82685,-5.20101 -5.80188,-7.76981 -1.77645,-2.31052 -3.46694,-4.67335 -5.43925,-6.87331 -1.12198,-1.25147 -3.62617,-3.58607 -3.62617,-3.58607 0,0 2.26778,4.63988 3.62617,6.8733 z"
         style="fill:#000000;fill-opacity:0.31372549;stroke:none" />
      <path
         sodipodi:nodetypes="csscsssssssssssssssssssssss"
         id="path4963-2"
         d="m 234.35098,109.02329 c -2.26041,-2.11611 -3.93081,-4.64177 -5.43925,-7.17214 -1.53458,-2.574212 -2.73172,-5.296905 -3.62617,-8.068658 -0.75586,-2.342276 -1.45047,-7.172141 -1.45047,-7.172141 0,0 -2.95182,3.404669 -3.62617,5.379105 -0.78666,2.303288 -0.36262,4.779354 -0.36262,7.172141 0,2.392783 -0.0779,4.807053 0.36262,7.172143 0.49382,2.65111 1.29774,5.29015 2.53832,7.76982 1.11438,2.22742 3.60103,3.94701 4.35141,6.27562 0.31024,0.96276 -0.0751,1.99419 0,2.98839 0.18166,2.40467 0.58889,4.79818 1.08785,7.17215 0.38039,1.80982 0.59754,3.68214 1.45046,5.3791 0.6031,1.19993 2.05344,2.05144 2.53832,3.28723 0.6333,1.61406 0.37066,3.38393 0.36262,5.08026 -0.007,1.49751 -0.78912,3.02691 -0.36262,4.48259 0.33086,1.12923 1.68867,1.89826 2.1757,2.9884 0.25404,0.5686 -0.0366,1.28421 0.36262,1.79303 0.7099,0.90482 1.95663,1.82293 3.26355,1.79303 1.81239,-0.0414 3.54057,-1.3531 4.3514,-2.68954 0.973,-1.60374 -0.38201,-3.61393 0,-5.37911 0.42973,-1.98568 1.803,-3.75412 2.53832,-5.67794 0.71348,-1.86668 1.46317,-3.74223 1.81309,-5.67795 0.4634,-2.56357 0.41843,-5.17837 0.36261,-7.76982 -0.0581,-2.6965 0.26428,-5.49798 -0.72523,-8.06866 -0.85245,-2.2146 -2.49621,-4.22737 -4.35141,-5.97678 -1.01862,-0.96054 -2.42277,-1.58835 -3.62616,-2.39072 -1.33556,-0.89048 -2.85365,-1.62688 -3.98879,-2.68955 z"
         style="fill:none;stroke:none" />
      <path
         sodipodi:nodetypes="csscsssssssssssssssssssssss"
         id="path4963-28"
         d="m 234.35098,109.02329 c -2.26041,-2.11611 -3.93081,-4.64177 -5.43925,-7.17214 -1.53458,-2.574212 -2.73172,-5.296905 -3.62617,-8.068658 -0.75586,-2.342276 -1.45047,-7.172141 -1.45047,-7.172141 0,0 -2.95182,3.404669 -3.62617,5.379105 -0.78666,2.303288 -0.36262,4.779354 -0.36262,7.172141 0,2.392783 -0.0779,4.807053 0.36262,7.172143 0.49382,2.65111 1.29774,5.29015 2.53832,7.76982 1.11438,2.22742 3.60103,3.94701 4.35141,6.27562 0.31024,0.96276 -0.0751,1.99419 0,2.98839 0.18166,2.40466 0.58889,4.79817 1.08785,7.17215 0.38039,1.80982 0.59754,3.68214 1.45046,5.3791 0.6031,1.19993 2.05344,2.05144 2.53832,3.28723 0.6333,1.61406 0.37066,3.38393 0.36262,5.08026 -0.007,1.49751 -0.78912,3.02691 -0.36262,4.48259 0.33086,1.12923 1.68867,1.89826 2.1757,2.9884 0.25404,0.5686 -0.0366,1.28421 0.36262,1.79303 0.7099,0.90482 1.95663,1.82293 3.26355,1.79303 1.81239,-0.0414 3.54057,-1.3531 4.3514,-2.68954 0.973,-1.60374 -0.38201,-3.61393 0,-5.37911 0.42973,-1.98568 1.803,-3.75412 2.53832,-5.67794 0.71348,-1.86668 1.46317,-3.74223 1.81309,-5.67795 0.4634,-2.56357 0.41843,-5.17837 0.36261,-7.76982 -0.0581,-2.6965 0.26428,-5.49798 -0.72523,-8.06866 -0.85245,-2.2146 -2.49621,-4.22737 -4.35141,-5.97678 -1.01862,-0.96054 -2.42277,-1.58835 -3.62616,-2.39072 -1.33556,-0.89048 -2.85365,-1.62688 -3.98879,-2.68955 z"
         style="fill:none;stroke:#000000;stroke-width:1;stroke-opacity:1;stroke-miterlimit:4;stroke-dasharray:none" />
      <path
         sodipodi:nodetypes="csssscsssssssc"
         id="path5343"
         d="m 232.17528,148.17123 c 0,0 1.97,1.38417 2.71963,2.24129 0.55312,0.63245 0.51394,1.62241 1.26916,2.09188 0.78544,0.48825 1.96105,0.68788 2.90093,0.44826 0.81652,-0.20818 1.43329,-0.86319 1.81309,-1.4942 0.59629,-0.9907 0.99264,-3.44572 0.99264,-3.44572 0,0 0.5897,1.9964 0.59702,2.76958 0.008,0.82141 -0.36234,1.51742 -0.85344,2.23223 -0.50532,0.73553 -1.46373,1.3942 -2.368,1.79303 -0.5434,0.23967 -1.20677,0.33725 -1.81308,0.24601 -1.12176,-0.1688 -2.31028,-0.84882 -2.90094,-1.65267 -0.40816,-0.5555 0.091,-1.33305 -0.18131,-1.94246 -0.28401,-0.63573 -1.06449,-1.0455 -1.45047,-1.64362 -0.33215,-0.5147 -0.72523,-1.64361 -0.72523,-1.64361 z"
         style="fill:#000000;fill-opacity:0.31372549;stroke:none" />
      <path
         sodipodi:nodetypes="cc"
         id="path5387"
         d="m 282.37882,195.30933 c 14.9812,2.12123 30.15527,1.96251 45.29506,0.36586"
         style="fill:none;stroke:#000000;stroke-width:1;stroke-opacity:1;stroke-miterlimit:4;stroke-dasharray:none" />
      <path
         sodipodi:nodetypes="cssssc"
         id="path5433"
         d="m 335.7068,174.87576 c 0,0 -1.22886,-3.7479 -2.53453,-5.22909 -1.3928,-1.58003 -3.65765,-2.2897 -5.36724,-3.57781 -1.3078,-0.98538 -2.69492,-1.93205 -3.72725,-3.16498 -1.61778,-1.93213 -2.6841,-4.22354 -3.72725,-6.46757 -0.68162,-1.4663 -1.63999,-4.54107 -1.63999,-4.54107"
         style="fill:none;stroke:#000000;stroke-width:1;stroke-opacity:1;stroke-miterlimit:4;stroke-dasharray:none" />
      <path
         sodipodi:nodetypes="cssssssc"
         id="path5435"
         d="m 298.42876,183.06889 c 0,0 -0.30818,-3.61163 -1.05422,-5.25439 -0.33165,-0.73027 -0.96987,-1.30668 -1.47592,-1.94607 -1.0945,-1.38291 -2.49915,-2.57623 -3.37351,-4.08675 -1.22541,-2.11696 -2.19119,-4.43156 -2.53015,-6.81124 -0.2663,-1.86959 0.0762,-3.78509 0.42169,-5.64361 0.22201,-1.1944 0.54132,-2.38737 1.05423,-3.50292 0.54151,-1.17775 2.10845,-3.30832 2.10845,-3.30832"
         style="fill:none;stroke:#000000;stroke-width:1;stroke-miterlimit:4;stroke-opacity:1;stroke-dasharray:none" />
      <path
         sodipodi:nodetypes="cssssssc"
         id="path5435-4"
         d="m 313.18889,183.02161 c 0,0 0.30819,-3.61162 1.05423,-5.25438 0.33164,-0.73027 0.96986,-1.30668 1.47592,-1.94607 1.0945,-1.38292 2.49915,-2.57623 3.37351,-4.08675 1.2254,-2.11696 2.19118,-4.43157 2.53014,-6.81124 0.26631,-1.86959 -0.0762,-3.78509 -0.42169,-5.64361 -0.222,-1.19441 -0.54131,-2.38737 -1.05422,-3.50293 -0.54151,-1.17775 -2.10846,-3.30831 -2.10846,-3.30831"
         style="fill:none;stroke:#000000;stroke-width:1;stroke-miterlimit:4;stroke-opacity:1;stroke-dasharray:none" />
      <path
         sodipodi:nodetypes="cssssc"
         id="path5433-8"
         d="m 276.01485,175.09845 c 0,0 1.22886,-3.74791 2.53454,-5.2291 1.3928,-1.58003 3.65765,-2.2897 5.36724,-3.57781 1.30779,-0.98538 2.69491,-1.93205 3.72725,-3.16498 1.61778,-1.93213 2.68409,-4.22353 3.72725,-6.46757 0.68162,-1.4663 1.63999,-4.54106 1.63999,-4.54106"
         style="fill:none;stroke:#000000;stroke-width:1;stroke-opacity:1;stroke-miterlimit:4;stroke-dasharray:none" />
      <path
         id="path5481"
         d="m 299.92519,168.27058 -0.44726,-7.29322"
         style="fill:none;stroke:#000000;stroke-width:1;stroke-miterlimit:4;stroke-opacity:1;stroke-dasharray:none" />
      <path
         id="path5481-8"
         d="m 312.5233,168.33939 0.44727,-7.29322"
         style="fill:none;stroke:#000000;stroke-width:1;stroke-miterlimit:4;stroke-opacity:1;stroke-dasharray:none" />
      <path
         sodipodi:nodetypes="cssscssssc"
         id="path5505"
         d="m 278.08351,170.05949 c 0,0 1.3932,-1.6443 2.1618,-2.40814 1.21984,-1.2123 2.60716,-2.27186 3.87635,-3.4402 1.46821,-1.35154 3.00667,-2.64986 4.3236,-4.12824 0.8843,-0.9927 2.38544,-3.16498 2.38544,-3.16498 0,0 -0.74588,2.39724 -1.3418,3.509 -0.7243,1.35126 -1.59155,2.66313 -2.68363,3.78422 -0.94448,0.96958 -2.1369,1.71084 -3.27997,2.47695 -1.26607,0.84854 -2.66568,1.51564 -3.95089,2.33933 -0.51026,0.32702 -1.4909,1.03206 -1.4909,1.03206 z"
         style="fill:#000000;fill-opacity:0.31372549;stroke:none" />
      <path
         sodipodi:nodetypes="csscsssssc"
         id="path5507"
         d="m 282.40712,167.78896 c 0,0 2.06275,-1.53235 3.05634,-2.33934 0.76551,-0.62174 1.59386,-1.19568 2.23636,-1.92651 0.87803,-0.99875 2.1618,-3.30259 2.1618,-3.30259 0,0 -0.0301,1.42276 -0.0746,2.13293 -0.0346,0.55142 0.0917,1.14568 -0.1491,1.65129 -0.35391,0.74286 -1.10517,1.27892 -1.78908,1.7889 -0.98783,0.73662 -2.07386,1.42197 -3.27997,1.7889 -0.68804,0.20932 -2.19913,-0.46135 -2.16181,0.20642 0,1e-5 2e-5,0 2e-5,0 z"
         style="fill:#000000;fill-opacity:0.31372549;stroke:none" />
      <path
         sodipodi:nodetypes="cssssss"
         id="path5509"
         d="m 298.95611,160.97736 c -0.69197,0.54104 -0.37247,1.64276 -0.44727,2.47695 -0.11067,1.23425 -0.46897,2.55504 0,3.71541 0.17239,0.42653 0.50552,1.18755 0.96909,1.03206 1.37808,-0.46223 0.18828,-2.71017 0.0746,-4.05943 -0.09,-1.06761 0.29151,-2.47571 -0.59636,-3.16499 -1e-5,-1e-5 -2e-5,-1e-5 -3e-5,0 z"
         style="fill:#000000;fill-opacity:0.31372549;stroke:none" />
      <path
         sodipodi:nodetypes="cssscc"
         id="path5511"
         d="m 312.5233,161.04617 c 0,0 -0.56884,1.45029 -0.74545,2.20173 -0.25482,1.08421 -0.52712,2.19561 -0.44727,3.30259 0.0324,0.44959 0.0732,0.95145 0.37273,1.30727 0.15696,0.18646 0.6709,0.34402 0.6709,0.34402 l 0.14909,-7.15561 z"
         style="fill:#000000;fill-opacity:0.31372549;stroke:none" />
      <path
         sodipodi:nodetypes="cssssscssssssc"
         id="path5513"
         d="m 312.6724,182.85702 c 0,0 -0.27662,-2.15477 -0.22365,-3.23378 0.0512,-1.0434 0.11383,-2.12196 0.52182,-3.09618 0.53671,-1.28157 1.59055,-2.32493 2.45998,-3.4402 0.84773,-1.08743 1.94529,-2.0116 2.68363,-3.16498 1.03069,-1.61009 1.85185,-3.35619 2.38544,-5.1603 0.45534,-1.53956 0.6709,-4.74747 0.6709,-4.74747 0,0 0.5253,2.23619 0.52182,3.37139 -0.006,1.7158 -0.27499,3.45107 -0.82,5.09149 -0.40403,1.21611 -1.081,2.34894 -1.78908,3.4402 -0.6486,0.99961 -1.47071,1.89457 -2.23634,2.82097 -0.75081,0.90847 -1.74319,1.66799 -2.3109,2.68335 -0.53377,0.95464 -0.61374,2.07321 -0.96909,3.09618 -0.27353,0.78743 -0.89453,2.33933 -0.89453,2.33933 z"
         style="fill:#000000;fill-opacity:0.31372549;stroke:none" />
      <path
         sodipodi:nodetypes="cssscsscssc"
         id="path5515"
         d="m 320.88377,167.79224 c 0,0 0.63538,-2.31974 1.58134,-3.01641 0.36647,-0.26989 0.90562,-0.34803 1.3705,-0.29191 0.67023,0.0809 1.16418,0.64495 1.79217,0.87574 0.60992,0.22414 1.89761,0.4865 1.89761,0.4865 0,0 -2.25151,-1.55485 -3.16267,-2.52988 -0.89776,-0.9607 -1.50039,-2.12663 -2.21387,-3.21102 -0.40047,-0.60864 -1.15965,-1.84876 -1.15965,-1.84876 0,0 0.55175,2.90807 0.63253,4.37866 0.0569,1.03707 0.068,2.08771 -0.10542,3.11371 -0.11831,0.69991 -0.63254,2.04337 -0.63254,2.04337 z"
         style="fill:#000000;fill-opacity:0.31372549;stroke:none" />
      <path
         sodipodi:nodetypes="cssssscssssssssss"
         id="path4395"
         d="m 254.86358,95.073656 c -5.83565,-2.518617 -10.84765,-6.825457 -15.35072,-11.311062 -4.15952,-4.143375 -7.6385,-9.014077 -10.50313,-14.138826 -2.4767,-4.430764 -4.38776,-9.2237 -5.65553,-14.138827 -1.08459,-4.204887 -1.72953,-8.585905 -1.61587,-12.926927 0.10025,-3.828684 0.59083,-7.757636 2.01983,-11.311062 0.72459,-1.801792 3.23174,-4.847597 3.23174,-4.847597 0,0 1.71926,8.103231 3.6357,11.715027 2.02065,3.808199 5.20417,6.886857 8.07932,10.099163 3.55608,3.973087 7.29407,7.804658 11.31106,11.311061 3.18542,2.780527 6.71388,5.141965 10.09916,7.675363 2.54439,1.904114 5.49745,3.341176 7.67537,5.65553 1.86856,1.985611 3.60293,4.27371 4.44364,6.867431 0.78995,2.437167 1.19739,5.239321 0.40396,7.675363 -0.8597,2.63952 -2.90957,4.973101 -5.25157,6.463464 -2.34199,1.490362 -5.3048,1.929454 -8.07932,2.019832 -1.5047,0.04901 -3.06138,-0.211365 -4.44364,-0.807933 z"
         style="fill:#fff0d5;fill-opacity:1;stroke:none" />
      <path
         sodipodi:nodetypes="csssscsssssc"
         id="path5018"
         d="m 230.01965,71.845583 c 0,0 4.45547,5.100963 6.86742,7.47338 2.31198,2.274074 4.63968,4.568561 7.2714,6.463463 2.96158,2.1324 6.13172,4.032856 9.49321,5.453548 2.25743,0.954074 4.64234,1.679908 7.06941,2.019833 2.3337,0.326846 6.86744,0.60595 6.86744,0.60595 0,0 -2.27593,0.818683 -3.6357,1.211899 -2.14999,0.621729 -4.45352,1.149028 -6.66544,0.807933 -2.41207,-0.371957 -4.57425,-1.77148 -6.66546,-3.029749 -3.49631,-2.103711 -6.70625,-4.695597 -9.69519,-7.473379 -2.51474,-2.337086 -4.74411,-4.977704 -6.86743,-7.675364 -1.46695,-1.863743 -4.03966,-5.857514 -4.03966,-5.857514 z"
         style="fill:#000000;fill-opacity:0.31555553;stroke:none" />
      <path
         sodipodi:nodetypes="cssssscssssssssss"
         id="path4395-8"
         d="m 254.86358,95.073655 c -5.83565,-2.518618 -10.84765,-6.825458 -15.35072,-11.311062 -4.15952,-4.143376 -7.6385,-9.014078 -10.50313,-14.138827 -2.4767,-4.430764 -4.38776,-9.2237 -5.65553,-14.138827 -1.08459,-4.204887 -1.72953,-8.585905 -1.61587,-12.926927 0.10025,-3.828684 0.59083,-7.757636 2.01983,-11.311061 0.72459,-1.801792 3.23174,-4.847598 3.23174,-4.847598 0,0 1.71926,8.103231 3.6357,11.715028 2.02065,3.808199 5.20417,6.886856 8.07932,10.099162 3.55608,3.973087 7.29407,7.804659 11.31106,11.311061 3.18542,2.780527 6.71388,5.141965 10.09916,7.675364 2.54439,1.904113 5.49745,3.341175 7.67537,5.65553 1.86856,1.98561 3.60293,4.27371 4.44364,6.86743 0.78995,2.437168 1.19739,5.239321 0.40396,7.675363 -0.8597,2.63952 -2.90957,4.973101 -5.25157,6.463464 -2.34199,1.490363 -5.3048,1.929454 -8.07932,2.019832 -1.5047,0.04901 -3.06138,-0.211365 -4.44364,-0.807932 z"
         style="fill:none;stroke:#000000;stroke-width:1;stroke-opacity:1;stroke-miterlimit:4;stroke-dasharray:none" />
      <path
         sodipodi:nodetypes="csssssssscsssssssss"
         id="path4959"
         d="m 339.58825,90.193744 c -1.74938,-2.06093 -2.80952,-4.708256 -3.47172,-7.329179 -0.59928,-2.371906 -1.20187,-5.02288 -0.38575,-7.329178 1.15417,-3.2616 4.4108,-5.357833 6.94344,-7.714925 2.14637,-1.997601 4.7845,-3.416414 6.94343,-5.400448 3.34995,-3.078577 6.55274,-6.371288 9.25791,-10.029402 2.12423,-2.872523 3.38855,-6.305621 5.40045,-9.25791 1.75285,-2.572166 4.28714,-4.601289 5.78619,-7.329178 1.31218,-2.387816 2.05447,-5.067951 2.70022,-7.714925 0.21549,-0.883307 0.38575,-2.700224 0.38575,-2.700224 0,0 2.99159,4.174047 3.85746,6.557686 1.33522,3.67567 1.75599,7.665534 1.92873,11.572388 0.22217,5.024605 -0.0301,10.14251 -1.15724,15.044103 -1.02203,4.444592 -3.12433,8.579269 -5.0147,12.729626 -1.50181,3.297275 -2.87292,6.721279 -5.0147,9.643656 -2.25734,3.08007 -5.21582,5.598656 -8.10067,8.100671 -1.94276,1.684943 -3.73227,3.81573 -6.17194,4.628955 -2.80562,0.935209 -6.04929,0.881796 -8.87216,0 -1.94058,-0.606193 -3.69905,-1.92175 -5.0147,-3.471716 z"
         style="fill:#fff0d5;fill-opacity:1;stroke:none" />
      <path
         sodipodi:nodetypes="csssscsssssssc"
         id="path5047"
         d="m 342.0956,92.508221 c 0,0 5.36469,-0.914957 7.71492,-1.928731 3.39018,-1.462353 6.27775,-3.94349 9.06504,-6.364813 3.12477,-2.714498 5.97767,-5.772793 8.48642,-9.065037 2.83361,-3.718565 5.31065,-7.741186 7.32917,-11.958133 1.65062,-3.448328 3.85747,-10.800895 3.85747,-10.800895 0,0 -0.53294,5.06322 -1.15724,7.522052 -0.6556,2.582079 -1.67166,5.064614 -2.70023,7.522051 -1.43219,3.421796 -2.94549,6.82952 -4.82182,10.029402 -1.47061,2.507981 -3.09322,4.954437 -5.0147,7.136306 -1.95503,2.219944 -4.25059,4.1277 -6.55769,5.979067 -1.65546,1.328451 -3.19458,2.991405 -5.20757,3.664589 -1.89112,0.632423 -4.02784,0.603945 -5.97908,0.192873 -1.74454,-0.367529 -5.01469,-1.928731 -5.01469,-1.928731 z"
         style="fill:#000000;fill-opacity:0.31555553;stroke:none" />
      <path
         sodipodi:nodetypes="csssssssscsssssssss"
         id="path4959-4"
         d="m 339.58825,90.193748 c -1.74938,-2.06093 -2.80952,-4.708256 -3.47172,-7.329179 -0.59928,-2.371906 -1.20187,-5.02288 -0.38575,-7.329178 1.15417,-3.2616 4.4108,-5.357833 6.94344,-7.714925 2.14637,-1.997601 4.7845,-3.416413 6.94343,-5.400448 3.34995,-3.078576 6.55274,-6.371287 9.25791,-10.029402 2.12423,-2.872523 3.38855,-6.305621 5.40045,-9.25791 1.75285,-2.572166 4.28714,-4.601289 5.78619,-7.329178 1.31218,-2.387816 2.05447,-5.067951 2.70022,-7.714925 0.21549,-0.883307 0.38575,-2.700224 0.38575,-2.700224 0,0 2.99159,4.174048 3.85746,6.557687 1.33522,3.675669 1.75599,7.665533 1.92873,11.572387 0.22217,5.024606 -0.0301,10.14251 -1.15724,15.044103 -1.02203,4.444592 -3.12433,8.57927 -5.0147,12.729626 -1.50181,3.297275 -2.87292,6.721279 -5.0147,9.643656 -2.25734,3.08007 -5.21582,5.598656 -8.10067,8.100672 -1.94276,1.684942 -3.73227,3.81573 -6.17194,4.628954 -2.80562,0.935209 -6.04929,0.881796 -8.87216,0 -1.94058,-0.606193 -3.69905,-1.921749 -5.0147,-3.471716 z"
         style="fill:none;stroke:#000000;stroke-width:1;stroke-opacity:1;stroke-miterlimit:4;stroke-dasharray:none" />
    </g>
    <path
       style="fill:#c53f00;fill-opacity:1;stroke:none"
       d="m 168.7783,358.50531 c 0,0 -1.82841,20.21021 -1.61348,30.33333 0.16744,7.88649 1.70709,15.6878 2.25887,23.55674 0.67784,9.66667 1.29078,29.04256 1.29078,29.04256 l 44.20922,0 c 0,0 1.66661,-17.41314 2.25886,-26.1383 0.59077,-8.70336 1.01586,-17.41925 1.29078,-26.1383 0.24749,-7.84908 0.3227,-23.55674 0.3227,-23.55674 l -50.01773,-7.09929 z"
       id="path4148-60"
       sodipodi:nodetypes="cssccsscc" />
    <path
       style="fill:none;stroke:#000000;stroke-opacity:1"
       d="m 168.7783,358.50531 c 0,0 -1.82841,20.21021 -1.61348,30.33333 0.16744,7.88649 1.70709,15.6878 2.25887,23.55674 0.67784,9.66667 1.29078,29.04256 1.29078,29.04256 l 44.20922,0 c 0,0 1.66661,-17.41314 2.25886,-26.1383 0.59077,-8.70336 1.01586,-17.41925 1.29078,-26.1383 0.24749,-7.84908 0.3227,-23.55674 0.3227,-23.55674 l -50.01773,-7.09929 z"
       id="path4148-6-3"
       sodipodi:nodetypes="cssccsscc" />
    <path
       style="fill:#000000;fill-opacity:0.31555553;stroke:none"
       d="m 213.80452,364.99736 c 0,0 -0.85507,20.07669 -1.1409,30.11974 -0.22724,7.98451 -0.17467,15.97611 -0.45636,23.95888 -0.26053,7.38302 -1.1409,22.13345 -1.1409,22.13345 l 3.65088,0 c 0,0 1.66585,-15.96014 2.2818,-23.95889 0.59668,-7.74858 1.1408,-15.50617 1.36908,-23.27434 0.19884,-6.76642 0,-13.53867 0,-20.30801 0,-2.73816 0,-8.21447 0,-8.21447 l -4.5636,-0.45636 z"
       id="path4380"
       sodipodi:nodetypes="cssccssscc" />
    <path
       style="fill:#c53f00;fill-opacity:1;stroke:none"
       d="m 454.35461,359.63475 c 0,0 1.82841,20.21021 1.61348,30.33333 -0.16744,7.88649 -1.70709,15.6878 -2.25887,23.55674 -0.67784,9.66667 -1.29078,29.04256 -1.29078,29.04256 l -44.20922,0 c 0,0 -1.66661,-17.41314 -2.25886,-26.1383 -0.59077,-8.70336 -1.01586,-17.41925 -1.29078,-26.1383 -0.24749,-7.84908 -0.3227,-23.55674 -0.3227,-23.55674 l 50.01773,-7.09929 z"
       id="path4148"
       sodipodi:nodetypes="cssccsscc" />
    <path
       style="fill:none;stroke:#000000;stroke-opacity:1"
       d="m 454.35461,359.63475 c 0,0 1.82841,20.21021 1.61348,30.33333 -0.16744,7.88649 -1.70709,15.6878 -2.25887,23.55674 -0.67784,9.66667 -1.29078,29.04256 -1.29078,29.04256 l -44.20922,0 c 0,0 -1.66661,-17.41314 -2.25886,-26.1383 -0.59077,-8.70336 -1.01586,-17.41925 -1.29078,-26.1383 -0.24749,-7.84908 -0.3227,-23.55674 -0.3227,-23.55674 l 50.01773,-7.09929 z"
       id="path4148-6"
       sodipodi:nodetypes="cssccsscc" />
    <path
       style="fill:#000000;fill-opacity:0.31555553;stroke:none"
       d="m 448.14523,360.66194 c 0,0 2.28094,14.86601 2.73815,22.36162 0.31952,5.2384 0.18488,10.49953 0,15.74441 -0.22832,6.47716 -1.10077,12.91966 -1.36907,19.39529 -0.25506,6.15604 0.0557,12.32779 -0.22818,18.48257 -0.0879,1.90555 -0.45636,5.70449 -0.45636,5.70449 l 3.65087,0 c 0,0 0.22217,-13.08473 0.45636,-19.62346 0.16899,-4.71821 0.24903,-9.44605 0.68454,-14.14715 0.36118,-3.89873 1.26539,-7.73584 1.59726,-11.63718 0.38703,-4.5497 0.52833,-9.12523 0.45636,-13.69079 -0.0925,-5.86822 -0.41514,-11.74595 -1.1409,-17.56985 -0.25827,-2.0725 -0.68454,-5.93267 -0.68454,-5.93267 l -5.70449,0.91272 z"
       id="path4388"
       sodipodi:nodetypes="cssssccssssscc" />
    <path
       style="fill:#131d93;fill-opacity:1;stroke:none"
       d="m 161.09919,353.50354 c 0,0 -1.69045,-15.91803 -1.29078,-23.87943 0.49121,-9.78495 3.08776,-19.35019 4.51773,-29.04255 1.36326,-9.24019 1.10192,-18.83189 3.87234,-27.75177 1.71221,-5.51277 5.50172,-9.1611 9.11376,-13.66393 2.77511,-3.4595 9.83344,-6.99176 13.74894,-9.07461 4.56622,-2.429 9.54494,-3.48909 14.33225,-5.44667 5.16576,-2.11233 5.40689,-1.55931 10.32624,-4.19503 4.32832,-2.31905 15.35452,-5.85164 20.00709,-7.42198 4.7075,-1.58888 9.70888,-4.40537 13.55319,-6.4539 1.44591,-0.77048 12.18805,-4.19504 12.18805,-4.19504 0,0 1.32157,3.3258 2.58156,4.51773 1.74729,1.65291 4.22121,2.33241 6.4539,3.22695 2.71618,1.08826 0.28354,0.13035 3.14193,0.75612 3.18019,0.69622 6.44316,0.95067 9.68085,1.29078 2.78961,0.29304 5.59743,0.38291 8.39008,0.64539 3.87907,0.36459 7.72681,1.07532 11.61702,1.29078 5.58482,0.30932 11.19635,0.32733 16.78014,0 3.67612,-0.2155 7.32972,-0.74602 10.97163,-1.29078 4.75752,-0.71164 4.97618,-0.47987 9.4068,-2.35338 1.7045,-0.72075 3.54369,-1.59184 4.74591,-2.99877 1.25001,-1.46286 2.80974,-3.56586 2.80974,-3.56586 0,0 8.87637,5.46395 13.55319,7.74468 4.59618,2.2414 9.42837,3.9663 14.19859,5.80851 4.69791,1.81428 9.49362,3.3672 14.19858,5.16312 4.32937,1.65255 8.49854,3.73737 12.9078,5.16312 4.21989,1.36452 8.76886,1.63365 12.9078,3.22695 3.41305,1.31387 11.03288,3.44266 13.78809,5.84766 3.59856,3.14115 6.31565,4.69382 8.61825,8.87886 2.79231,5.0751 4.55891,10.66094 6.4539,16.13476 3.74132,10.80705 7.20506,21.74975 9.68085,32.91489 1.55442,7.01004 1.96129,14.22998 3.22696,21.29787 1.12299,6.27114 3.87234,18.71631 3.87234,18.71631 0,0 -5.39643,3.81349 -8.39008,5.16313 -4.71505,2.12571 -9.78277,3.45254 -14.84397,4.51773 -5.30071,1.1156 -10.73794,1.47086 -16.13475,1.93617 -4.078,0.3516 -8.1744,0.8501 -12.26241,0.64539 -2.82605,-0.14151 -8.39007,-1.29078 -8.39007,-1.29078 0,0 0.90294,26.24454 1.29078,39.36879 0.24156,8.1742 0.53782,16.34776 0.64539,24.52482 0.12169,9.24979 -0.1926,18.50319 0,27.75178 0.10759,5.16648 0.64539,15.48936 0.64539,15.48936 0,0 -9.85811,1.73523 -14.84397,1.93617 -13.12814,0.5291 -26.23397,-1.61338 -39.3688,-1.93617 -11.61351,-0.28541 -23.23619,0.22328 -34.85106,0 -11.19297,-0.21517 -34.24124,-0.80292 -45.42564,-1.29078 -8.82243,-0.38483 -17.70137,-0.17168 -26.46099,-1.29078 -5.23146,-0.66835 -15.48936,-3.22695 -15.48936,-3.22695 0,0 -1.6132,-15.46923 -1.93617,-23.23404 -0.27716,-6.66327 0.47276,-13.35484 0,-20.0071 -0.53918,-7.58686 -2.58248,-15.01001 -3.22695,-22.58865 -0.65648,-7.7198 -0.53781,-15.48712 -0.64539,-23.23404 -0.0418,-3.01153 0,-9.03546 0,-9.03546 0,0 -12.5218,1.41774 -18.71631,0.64539 -6.89105,-0.8592 -13.44085,-3.54817 -20.0071,-5.80851 -5.47712,-1.88542 -11.00821,-3.75718 -16.13475,-6.4539 -2.05944,-1.08333 -5.80851,-3.87235 -5.80851,-3.87235 z"
       id="path2894"
       sodipodi:nodetypes="cssssssssscsssssssssscsssssssssscsssscssscssssscsssscsssc" />
    <path
       style="fill:#000000;fill-opacity:0.31555553;stroke:none"
       d="m 396.87456,473.5461 c 0,0 -0.42576,-20.54422 -0.60505,-30.65603 -0.26889,-15.16581 -0.62499,-30.33182 -0.64539,-45.5 -0.0126,-9.35877 -0.15512,-18.7279 0.32269,-28.07447 0.30329,-5.93273 0.56567,-11.9009 1.61348,-17.74823 0.72718,-4.05806 3.22695,-11.93971 3.22695,-11.93971 0,0 1.21916,42.59804 1.93617,63.89362 0.29339,8.7138 0.85307,17.42031 0.96808,26.13829 0.13338,10.11081 -0.64733,20.22687 -0.32269,30.33334 0.13852,4.31246 0.96808,12.9078 0.96808,12.9078 l -7.46232,0.64539 z"
       id="path4097"
       sodipodi:nodetypes="csssscssscc" />
    <path
       style="fill:#000000;fill-opacity:0.31555553;stroke:none"
       d="m 455.80675,358.10195 c 0,0 -4.74616,-25.28039 -7.26065,-37.5133 -2.43835,-11.86249 -4.68441,-23.77899 -7.74468,-35.49645 -1.67666,-6.41978 -3.65432,-12.76333 -5.80851,-19.03901 -1.2712,-3.70332 -3.73867,-7.77711 -3.73867,-7.77711 0,0 3.73318,1.75872 5.35215,4.55016 2.58641,4.45952 4.30568,9.37735 6.1312,14.19858 2.20426,5.82151 3.87842,11.83017 5.80851,17.74823 1.40276,4.30116 3.05029,8.5309 4.19504,12.9078 1.52661,5.8369 2.54072,11.79995 3.54965,17.74823 0.78097,4.60434 1.18295,9.26692 1.93617,13.87588 0.84725,5.18432 2.90425,15.48936 2.90425,15.48936 l -5.32446,3.30763 z"
       id="path4099"
       sodipodi:nodetypes="cssscsssssscc" />
    <path
       style="fill:#000000;fill-opacity:0.31555553;stroke:none"
       d="m 218.25403,368.64823 c 0,0 0.43343,-8.91445 0.91272,-13.34852 0.33466,-3.09601 0.53934,-6.23981 1.36908,-9.24128 0.31802,-1.15041 1.36907,-3.30861 1.36907,-3.30861 l -0.79862,26.12659 -2.85225,-0.22818 z"
       id="path4101"
       sodipodi:nodetypes="cssccc" />
    <path
       style="fill:none;stroke:#000000;stroke-width:1;stroke-miterlimit:4;stroke-opacity:1;stroke-dasharray:none"
       d="m 221.69149,368.80388 0.64539,-26.27197"
       id="path4073"
       sodipodi:nodetypes="cc" />
    <path
       style="fill:none;stroke:#000000;stroke-width:1;stroke-miterlimit:4;stroke-opacity:1;stroke-dasharray:none"
       d="m 401.47427,365.35973 -0.49551,-25.9297"
       id="path4073-5"
       sodipodi:nodetypes="cc" />
    <path
       style="fill:#ffffff;fill-opacity:1;stroke:#000000;stroke-opacity:1"
       d="m 314.62766,125.68085 c 0,0 6.56069,-7.07918 10.64894,-9.51951 4.07571,-2.43284 8.70567,-4.0855 13.39184,-4.84042 3.8776,-0.62466 7.94438,-0.52967 11.77837,0.32269 1.31671,0.29273 3.711,1.61348 3.711,1.61348 0,0 -4.94329,6.01994 -7.74469,8.71276 -1.95607,1.88025 -3.84227,3.99792 -6.29255,5.16312 -2.92432,1.39063 -6.2891,1.71254 -9.5195,1.93617 -3.44056,0.23818 -6.99096,0.23218 -10.32624,-0.64539 -2.0238,-0.5325 -5.64717,-2.7429 -5.64717,-2.7429 z"
       id="path4455"
       sodipodi:nodetypes="cssscssssc" />
    <path
       style="fill:#ffffff;fill-opacity:1;stroke:#000000;stroke-opacity:1"
       d="m 293.89452,125.49316 c 0,0 -6.56069,-7.07918 -10.64894,-9.51951 -4.07571,-2.43284 -8.70567,-4.0855 -13.39184,-4.84042 -3.8776,-0.62466 -7.94438,-0.52967 -11.77837,0.32269 -1.31671,0.29273 -3.711,1.61348 -3.711,1.61348 0,0 4.94329,6.01994 7.74469,8.71276 1.95607,1.88025 3.84227,3.99792 6.29255,5.16312 2.92432,1.39063 6.2891,1.71254 9.5195,1.93617 3.44056,0.23818 6.99096,0.23218 10.32624,-0.64539 2.0238,-0.5325 5.64717,-2.7429 5.64717,-2.7429 z"
       id="path4455-0"
       sodipodi:nodetypes="cssscssssc" />
    <path
       style="fill:#000000;fill-opacity:0.31555554;stroke:none;stroke-width:1;stroke-miterlimit:4;stroke-opacity:1;stroke-dasharray:none"
       d="m 253.6219,112.85862 c 0,0 2.08695,-2.20313 3.4227,-2.85225 2.13336,-1.03673 4.59297,-1.32305 6.95949,-1.48317 3.04398,-0.20596 6.14516,0.0397 9.12719,0.68454 2.81053,0.6077 5.55992,1.61934 8.10039,2.96634 2.07011,1.0976 3.94942,2.55489 5.70449,4.10724 1.55216,1.37288 2.9248,2.94712 4.22133,4.5636 1.12867,1.4072 3.08043,4.4495 3.08043,4.4495 0,0 -4.13498,-4.41327 -6.50313,-6.27494 -2.51318,-1.97568 -5.19689,-3.79646 -8.10038,-5.13405 -2.34904,-1.08216 -4.89543,-1.7017 -7.41585,-2.2818 -2.17526,-0.50066 -4.38706,-0.93276 -6.61721,-1.02681 -1.63781,-0.0691 -3.28685,0.0855 -4.90587,0.34227 -1.54865,0.24566 -3.05515,0.71282 -4.5636,1.1409 -0.84464,0.2397 -2.50998,0.79863 -2.50998,0.79863 z"
       id="path4479"
       sodipodi:nodetypes="csssssscssssssc" />
    <path
       style="fill:#000000;fill-opacity:0.31555553;stroke:none"
       d="m 354.85665,113.14485 c 0,0 -2.08695,-2.20313 -3.4227,-2.85225 -2.13336,-1.03673 -4.59297,-1.32305 -6.95949,-1.48317 -3.04398,-0.20596 -6.14516,0.0397 -9.12719,0.68454 -2.81053,0.6077 -5.55992,1.61934 -8.10039,2.96634 -2.07011,1.0976 -3.94942,2.55489 -5.70449,4.10724 -1.55216,1.37288 -2.9248,2.94712 -4.22133,4.5636 -1.12867,1.4072 -3.08043,4.4495 -3.08043,4.4495 0,0 4.13498,-4.41327 6.50313,-6.27494 2.51318,-1.97568 5.19689,-3.79646 8.10038,-5.13405 2.34904,-1.08216 4.89543,-1.7017 7.41585,-2.2818 2.17526,-0.50066 4.38706,-0.93276 6.61721,-1.02681 1.63781,-0.0691 3.28685,0.0855 4.90587,0.34227 1.54865,0.24566 3.05515,0.71282 4.5636,1.1409 0.84464,0.2397 2.50998,0.79863 2.50998,0.79863 z"
       id="path4479-0"
       sodipodi:nodetypes="csssssscssssssc" />
    <path
       style="fill:none;fill-opacity:1;stroke:#000000;stroke-opacity:1"
       d="m 161.09919,353.50354 c 0,0 -1.69045,-15.91803 -1.29078,-23.87943 0.49121,-9.78495 3.08776,-19.35019 4.51773,-29.04255 1.36326,-9.24019 1.10192,-18.83189 3.87234,-27.75177 1.71221,-5.51277 5.50172,-9.1611 9.11376,-13.66393 2.77511,-3.4595 9.83344,-6.99176 13.74894,-9.07461 4.56622,-2.429 9.54494,-3.48909 14.33225,-5.44667 5.16576,-2.11233 5.40689,-1.55931 10.32624,-4.19503 4.32832,-2.31905 15.35452,-5.85164 20.00709,-7.42198 4.7075,-1.58888 9.70888,-4.40537 13.55319,-6.4539 1.44591,-0.77048 12.18805,-4.19504 12.18805,-4.19504 0,0 1.32157,3.3258 2.58156,4.51773 1.74729,1.65291 4.22121,2.33241 6.4539,3.22695 2.71618,1.08826 0.28354,0.13035 3.14193,0.75612 3.18019,0.69622 6.44316,0.95067 9.68085,1.29078 2.78961,0.29304 5.59743,0.38291 8.39008,0.64539 3.87907,0.36459 7.72681,1.07532 11.61702,1.29078 5.58482,0.30932 11.19635,0.32733 16.78014,0 3.67612,-0.2155 7.32972,-0.74602 10.97163,-1.29078 4.75752,-0.71164 4.97618,-0.47987 9.4068,-2.35338 1.7045,-0.72075 3.54369,-1.59184 4.74591,-2.99877 1.25001,-1.46286 2.80974,-3.56586 2.80974,-3.56586 0,0 8.87637,5.46395 13.55319,7.74468 4.59618,2.2414 9.42837,3.9663 14.19859,5.80851 4.69791,1.81428 9.49362,3.3672 14.19858,5.16312 4.32937,1.65255 8.49854,3.73737 12.9078,5.16312 4.21989,1.36452 8.76886,1.63365 12.9078,3.22695 3.41305,1.31387 11.03288,3.44266 13.78809,5.84766 3.59856,3.14115 6.31565,4.69382 8.61825,8.87886 2.79231,5.0751 4.55891,10.66094 6.4539,16.13476 3.74132,10.80705 7.20506,21.74975 9.68085,32.91489 1.55442,7.01004 1.96129,14.22998 3.22696,21.29787 1.12299,6.27114 3.87234,18.71631 3.87234,18.71631 0,0 -5.39643,3.81349 -8.39008,5.16313 -4.71505,2.12571 -9.78277,3.45254 -14.84397,4.51773 -5.30071,1.1156 -10.73794,1.47086 -16.13475,1.93617 -4.078,0.3516 -8.1744,0.8501 -12.26241,0.64539 -2.82605,-0.14151 -8.39007,-1.29078 -8.39007,-1.29078 0,0 0.90294,26.24454 1.29078,39.36879 0.24156,8.1742 0.53782,16.34776 0.64539,24.52482 0.12169,9.24979 -0.1926,18.50319 0,27.75178 0.10759,5.16648 0.64539,15.48936 0.64539,15.48936 0,0 -9.85811,1.73523 -14.84397,1.93617 -13.12814,0.5291 -26.23397,-1.61338 -39.3688,-1.93617 -11.61351,-0.28541 -23.23619,0.22328 -34.85106,0 -11.19297,-0.21517 -34.24124,-0.80292 -45.42564,-1.29078 -8.82243,-0.38483 -17.70137,-0.17168 -26.46099,-1.29078 -5.23146,-0.66835 -15.48936,-3.22695 -15.48936,-3.22695 0,0 -1.6132,-15.46923 -1.93617,-23.23404 -0.27716,-6.66327 0.47276,-13.35484 0,-20.0071 -0.53918,-7.58686 -2.58248,-15.01001 -3.22695,-22.58865 -0.65648,-7.7198 -0.53781,-15.48712 -0.64539,-23.23404 -0.0418,-3.01153 0,-9.03546 0,-9.03546 0,0 -12.5218,1.41774 -18.71631,0.64539 -6.89105,-0.8592 -13.44085,-3.54817 -20.0071,-5.80851 -5.47712,-1.88542 -11.00821,-3.75718 -16.13475,-6.4539 -2.05944,-1.08333 -5.80851,-3.87235 -5.80851,-3.87235 z"
       id="path2894-9"
       sodipodi:nodetypes="cssssssssscsssssssssscsssssssssscsssscssscssssscsssscsssc" />
  </g>
</svg>
