<?xml version="1.0" encoding="UTF-8" standalone="no"?>
<!-- Created with Inkscape (http://www.inkscape.org/) -->

<svg
   xmlns:dc="http://purl.org/dc/elements/1.1/"
   xmlns:cc="http://creativecommons.org/ns#"
   xmlns:rdf="http://www.w3.org/1999/02/22-rdf-syntax-ns#"
   xmlns:svg="http://www.w3.org/2000/svg"
   xmlns="http://www.w3.org/2000/svg"
   xmlns:sodipodi="http://sodipodi.sourceforge.net/DTD/sodipodi-0.dtd"
   xmlns:inkscape="http://www.inkscape.org/namespaces/inkscape"
   width="640px"
   height="480px"
   id="svg3772"
   version="1.1"
   inkscape:version="0.47 r22583"
   sodipodi:docname="minion_back.svg"
   inkscape:export-filename="/media/FreeAgent Drive/T3/Projects/Games/the_devil-1.1/workspace/minion_back.png"
   inkscape:export-xdpi="95.194458"
   inkscape:export-ydpi="95.194458">
  <defs
     id="defs3774">
    <inkscape:perspective
       sodipodi:type="inkscape:persp3d"
       inkscape:vp_x="0 : 240 : 1"
       inkscape:vp_y="0 : 1000 : 0"
       inkscape:vp_z="640 : 240 : 1"
       inkscape:persp3d-origin="320 : 160 : 1"
       id="perspective3780" />
    <inkscape:perspective
       id="perspective3877"
       inkscape:persp3d-origin="0.5 : 0.33333333 : 1"
       inkscape:vp_z="1 : 0.5 : 1"
       inkscape:vp_y="0 : 1000 : 0"
       inkscape:vp_x="0 : 0.5 : 1"
       sodipodi:type="inkscape:persp3d" />
    <inkscape:perspective
       id="perspective4975"
       inkscape:persp3d-origin="0.5 : 0.33333333 : 1"
       inkscape:vp_z="1 : 0.5 : 1"
       inkscape:vp_y="0 : 1000 : 0"
       inkscape:vp_x="0 : 0.5 : 1"
       sodipodi:type="inkscape:persp3d" />
    <inkscape:perspective
       id="perspective4999"
       inkscape:persp3d-origin="0.5 : 0.33333333 : 1"
       inkscape:vp_z="1 : 0.5 : 1"
       inkscape:vp_y="0 : 1000 : 0"
       inkscape:vp_x="0 : 0.5 : 1"
       sodipodi:type="inkscape:persp3d" />
    <inkscape:perspective
       id="perspective5028"
       inkscape:persp3d-origin="0.5 : 0.33333333 : 1"
       inkscape:vp_z="1 : 0.5 : 1"
       inkscape:vp_y="0 : 1000 : 0"
       inkscape:vp_x="0 : 0.5 : 1"
       sodipodi:type="inkscape:persp3d" />
    <inkscape:perspective
       id="perspective5057"
       inkscape:persp3d-origin="0.5 : 0.33333333 : 1"
       inkscape:vp_z="1 : 0.5 : 1"
       inkscape:vp_y="0 : 1000 : 0"
       inkscape:vp_x="0 : 0.5 : 1"
       sodipodi:type="inkscape:persp3d" />
    <inkscape:perspective
       id="perspective5109"
       inkscape:persp3d-origin="0.5 : 0.33333333 : 1"
       inkscape:vp_z="1 : 0.5 : 1"
       inkscape:vp_y="0 : 1000 : 0"
       inkscape:vp_x="0 : 0.5 : 1"
       sodipodi:type="inkscape:persp3d" />
    <inkscape:perspective
       id="perspective5133"
       inkscape:persp3d-origin="0.5 : 0.33333333 : 1"
       inkscape:vp_z="1 : 0.5 : 1"
       inkscape:vp_y="0 : 1000 : 0"
       inkscape:vp_x="0 : 0.5 : 1"
       sodipodi:type="inkscape:persp3d" />
    <inkscape:perspective
       id="perspective5155"
       inkscape:persp3d-origin="0.5 : 0.33333333 : 1"
       inkscape:vp_z="1 : 0.5 : 1"
       inkscape:vp_y="0 : 1000 : 0"
       inkscape:vp_x="0 : 0.5 : 1"
       sodipodi:type="inkscape:persp3d" />
    <inkscape:perspective
       id="perspective5177"
       inkscape:persp3d-origin="0.5 : 0.33333333 : 1"
       inkscape:vp_z="1 : 0.5 : 1"
       inkscape:vp_y="0 : 1000 : 0"
       inkscape:vp_x="0 : 0.5 : 1"
       sodipodi:type="inkscape:persp3d" />
    <inkscape:perspective
       id="perspective5201"
       inkscape:persp3d-origin="0.5 : 0.33333333 : 1"
       inkscape:vp_z="1 : 0.5 : 1"
       inkscape:vp_y="0 : 1000 : 0"
       inkscape:vp_x="0 : 0.5 : 1"
       sodipodi:type="inkscape:persp3d" />
    <inkscape:perspective
       id="perspective5245"
       inkscape:persp3d-origin="0.5 : 0.33333333 : 1"
       inkscape:vp_z="1 : 0.5 : 1"
       inkscape:vp_y="0 : 1000 : 0"
       inkscape:vp_x="0 : 0.5 : 1"
       sodipodi:type="inkscape:persp3d" />
    <inkscape:perspective
       id="perspective5445"
       inkscape:persp3d-origin="0.5 : 0.33333333 : 1"
       inkscape:vp_z="1 : 0.5 : 1"
       inkscape:vp_y="0 : 1000 : 0"
       inkscape:vp_x="0 : 0.5 : 1"
       sodipodi:type="inkscape:persp3d" />
    <inkscape:perspective
       id="perspective5467"
       inkscape:persp3d-origin="0.5 : 0.33333333 : 1"
       inkscape:vp_z="1 : 0.5 : 1"
       inkscape:vp_y="0 : 1000 : 0"
       inkscape:vp_x="0 : 0.5 : 1"
       sodipodi:type="inkscape:persp3d" />
    <inkscape:perspective
       id="perspective5491"
       inkscape:persp3d-origin="0.5 : 0.33333333 : 1"
       inkscape:vp_z="1 : 0.5 : 1"
       inkscape:vp_y="0 : 1000 : 0"
       inkscape:vp_x="0 : 0.5 : 1"
       sodipodi:type="inkscape:persp3d" />
    <inkscape:perspective
       id="perspective5595"
       inkscape:persp3d-origin="0.5 : 0.33333333 : 1"
       inkscape:vp_z="1 : 0.5 : 1"
       inkscape:vp_y="0 : 1000 : 0"
       inkscape:vp_x="0 : 0.5 : 1"
       sodipodi:type="inkscape:persp3d" />
    <inkscape:perspective
       id="perspective3676"
       inkscape:persp3d-origin="0.5 : 0.33333333 : 1"
       inkscape:vp_z="1 : 0.5 : 1"
       inkscape:vp_y="0 : 1000 : 0"
       inkscape:vp_x="0 : 0.5 : 1"
       sodipodi:type="inkscape:persp3d" />
    <inkscape:perspective
       id="perspective3704"
       inkscape:persp3d-origin="0.5 : 0.33333333 : 1"
       inkscape:vp_z="1 : 0.5 : 1"
       inkscape:vp_y="0 : 1000 : 0"
       inkscape:vp_x="0 : 0.5 : 1"
       sodipodi:type="inkscape:persp3d" />
    <inkscape:perspective
       id="perspective3728"
       inkscape:persp3d-origin="0.5 : 0.33333333 : 1"
       inkscape:vp_z="1 : 0.5 : 1"
       inkscape:vp_y="0 : 1000 : 0"
       inkscape:vp_x="0 : 0.5 : 1"
       sodipodi:type="inkscape:persp3d" />
    <inkscape:perspective
       id="perspective3752"
       inkscape:persp3d-origin="0.5 : 0.33333333 : 1"
       inkscape:vp_z="1 : 0.5 : 1"
       inkscape:vp_y="0 : 1000 : 0"
       inkscape:vp_x="0 : 0.5 : 1"
       sodipodi:type="inkscape:persp3d" />
    <inkscape:perspective
       id="perspective3776"
       inkscape:persp3d-origin="0.5 : 0.33333333 : 1"
       inkscape:vp_z="1 : 0.5 : 1"
       inkscape:vp_y="0 : 1000 : 0"
       inkscape:vp_x="0 : 0.5 : 1"
       sodipodi:type="inkscape:persp3d" />
    <inkscape:perspective
       id="perspective3800"
       inkscape:persp3d-origin="0.5 : 0.33333333 : 1"
       inkscape:vp_z="1 : 0.5 : 1"
       inkscape:vp_y="0 : 1000 : 0"
       inkscape:vp_x="0 : 0.5 : 1"
       sodipodi:type="inkscape:persp3d" />
    <inkscape:perspective
       id="perspective3824"
       inkscape:persp3d-origin="0.5 : 0.33333333 : 1"
       inkscape:vp_z="1 : 0.5 : 1"
       inkscape:vp_y="0 : 1000 : 0"
       inkscape:vp_x="0 : 0.5 : 1"
       sodipodi:type="inkscape:persp3d" />
    <inkscape:perspective
       id="perspective3851"
       inkscape:persp3d-origin="0.5 : 0.33333333 : 1"
       inkscape:vp_z="1 : 0.5 : 1"
       inkscape:vp_y="0 : 1000 : 0"
       inkscape:vp_x="0 : 0.5 : 1"
       sodipodi:type="inkscape:persp3d" />
    <inkscape:perspective
       id="perspective3919"
       inkscape:persp3d-origin="0.5 : 0.33333333 : 1"
       inkscape:vp_z="1 : 0.5 : 1"
       inkscape:vp_y="0 : 1000 : 0"
       inkscape:vp_x="0 : 0.5 : 1"
       sodipodi:type="inkscape:persp3d" />
    <inkscape:perspective
       id="perspective3949"
       inkscape:persp3d-origin="0.5 : 0.33333333 : 1"
       inkscape:vp_z="1 : 0.5 : 1"
       inkscape:vp_y="0 : 1000 : 0"
       inkscape:vp_x="0 : 0.5 : 1"
       sodipodi:type="inkscape:persp3d" />
    <inkscape:perspective
       id="perspective3973"
       inkscape:persp3d-origin="0.5 : 0.33333333 : 1"
       inkscape:vp_z="1 : 0.5 : 1"
       inkscape:vp_y="0 : 1000 : 0"
       inkscape:vp_x="0 : 0.5 : 1"
       sodipodi:type="inkscape:persp3d" />
    <inkscape:perspective
       id="perspective3997"
       inkscape:persp3d-origin="0.5 : 0.33333333 : 1"
       inkscape:vp_z="1 : 0.5 : 1"
       inkscape:vp_y="0 : 1000 : 0"
       inkscape:vp_x="0 : 0.5 : 1"
       sodipodi:type="inkscape:persp3d" />
    <inkscape:perspective
       id="perspective4083"
       inkscape:persp3d-origin="0.5 : 0.33333333 : 1"
       inkscape:vp_z="1 : 0.5 : 1"
       inkscape:vp_y="0 : 1000 : 0"
       inkscape:vp_x="0 : 0.5 : 1"
       sodipodi:type="inkscape:persp3d" />
    <inkscape:perspective
       id="perspective4334"
       inkscape:persp3d-origin="0.5 : 0.33333333 : 1"
       inkscape:vp_z="1 : 0.5 : 1"
       inkscape:vp_y="0 : 1000 : 0"
       inkscape:vp_x="0 : 0.5 : 1"
       sodipodi:type="inkscape:persp3d" />
    <inkscape:perspective
       id="perspective4360"
       inkscape:persp3d-origin="0.5 : 0.33333333 : 1"
       inkscape:vp_z="1 : 0.5 : 1"
       inkscape:vp_y="0 : 1000 : 0"
       inkscape:vp_x="0 : 0.5 : 1"
       sodipodi:type="inkscape:persp3d" />
    <inkscape:perspective
       id="perspective3019"
       inkscape:persp3d-origin="0.5 : 0.33333333 : 1"
       inkscape:vp_z="1 : 0.5 : 1"
       inkscape:vp_y="0 : 1000 : 0"
       inkscape:vp_x="0 : 0.5 : 1"
       sodipodi:type="inkscape:persp3d" />
    <inkscape:perspective
       id="perspective4465"
       inkscape:persp3d-origin="0.5 : 0.33333333 : 1"
       inkscape:vp_z="1 : 0.5 : 1"
       inkscape:vp_y="0 : 1000 : 0"
       inkscape:vp_x="0 : 0.5 : 1"
       sodipodi:type="inkscape:persp3d" />
    <inkscape:perspective
       id="perspective4489"
       inkscape:persp3d-origin="0.5 : 0.33333333 : 1"
       inkscape:vp_z="1 : 0.5 : 1"
       inkscape:vp_y="0 : 1000 : 0"
       inkscape:vp_x="0 : 0.5 : 1"
       sodipodi:type="inkscape:persp3d" />
    <inkscape:perspective
       id="perspective4511"
       inkscape:persp3d-origin="0.5 : 0.33333333 : 1"
       inkscape:vp_z="1 : 0.5 : 1"
       inkscape:vp_y="0 : 1000 : 0"
       inkscape:vp_x="0 : 0.5 : 1"
       sodipodi:type="inkscape:persp3d" />
    <inkscape:perspective
       id="perspective4597"
       inkscape:persp3d-origin="0.5 : 0.33333333 : 1"
       inkscape:vp_z="1 : 0.5 : 1"
       inkscape:vp_y="0 : 1000 : 0"
       inkscape:vp_x="0 : 0.5 : 1"
       sodipodi:type="inkscape:persp3d" />
  </defs>
  <sodipodi:namedview
     id="base"
     pagecolor="#000000"
     bordercolor="#666666"
     borderopacity="1.0"
     inkscape:pageopacity="0"
     inkscape:pageshadow="2"
     inkscape:zoom="1.095627"
     inkscape:cx="308.15855"
     inkscape:cy="235.33559"
     inkscape:current-layer="layer1"
     inkscape:document-units="px"
     showgrid="false"
     inkscape:window-width="787"
     inkscape:window-height="745"
     inkscape:window-x="511"
     inkscape:window-y="110"
     inkscape:window-maximized="0"
     showguides="true"
     inkscape:guide-bbox="true" />
  <metadata
     id="metadata3777">
    <rdf:RDF>
      <cc:Work
         rdf:about="">
        <dc:format>image/svg+xml</dc:format>
        <dc:type
           rdf:resource="http://purl.org/dc/dcmitype/StillImage" />
        <dc:title></dc:title>
      </cc:Work>
    </rdf:RDF>
  </metadata>
  <g
     id="layer1"
     inkscape:label="Layer 1"
     inkscape:groupmode="layer">
    <path
       style="fill:#c53f00;fill-opacity:1;stroke:none"
       d="m 359.02861,137.11418 c 0.41371,-4.39897 0.33684,-8.91187 1.88465,-13.14893 1.2037,-3.29509 3.60686,-6.24171 5.65395,-9.26401 1.86557,-2.75432 3.68088,-5.55816 6.03089,-8.06866 1.21892,-1.30216 3.19382,-2.15102 4.14623,-3.58607 0.78057,-1.17613 0.87205,-2.57183 1.13079,-3.884911 0.23352,-1.185126 -0.16735,-2.466875 0.37693,-3.58607 0.96731,-1.98909 3.59729,-3.215393 4.90009,-5.080266 0.52013,-0.744523 1.13079,-2.390714 1.13079,-2.390714 0,0 0.73259,3.648189 1.50773,5.379106 0.28199,0.629713 0.91813,1.146429 1.13079,1.793035 1.3646,4.149264 2.09276,8.69556 0.75386,12.85008 -0.83749,2.59868 -3.32638,4.68189 -5.27703,6.87331 -1.49349,1.67783 -4.03346,2.8462 -4.90009,4.78142 -1.05094,2.34681 0.30952,4.99278 0,7.47098 -0.31564,2.52729 -0.86953,5.06223 -1.88465,7.47098 -1.10414,2.61999 -3.44805,4.84342 -4.52317,7.47098 -0.8669,2.11873 -0.73082,4.43391 -1.50772,6.57446 -0.56131,1.54655 -0.78473,3.37857 -2.26158,4.4826 -1.15631,0.86441 -2.93573,1.2561 -4.52316,1.19535 -1.236,-0.0473 -2.67875,-0.39385 -3.39237,-1.19535 -1.88946,-2.12214 -0.68658,-5.17278 -0.75386,-7.76983 -0.0723,-2.79035 0.11517,-5.58428 0.37693,-8.36749 z"
       id="path4961"
       sodipodi:nodetypes="cssssssscssssssssssssss" />
    <path
       style="fill:#000000;fill-opacity:0.31372549;stroke:none"
       d="m 358.19484,151.29601 3.33163,1.58483 3.19836,0 2.2655,-1.37352 1.06612,-4.54319 0.66633,-4.96581 2.53203,-4.43754 2.53203,-4.12057 1.33266,-6.12802 0.39979,-2.43008 1.59918,-1.37353 0.39979,2.95836 -0.53306,4.64885 -1.59918,4.22622 -2.53203,3.90926 -1.59918,2.64139 -0.93285,2.8527 -0.53306,3.06401 -1.19939,3.69795 -1.46591,2.00746 -2.6653,0.9509 -3.59816,-0.21131 -2.13224,-1.47918 -0.53306,-1.47918 z"
       id="path5097" />
    <path
       style="fill:none;stroke:#000000;stroke-width:1;stroke-miterlimit:4;stroke-opacity:1;stroke-dasharray:none"
       d="m 359.02861,137.11418 c 0.41371,-4.39897 0.33684,-8.91187 1.88465,-13.14893 1.2037,-3.2951 3.60686,-6.24171 5.65395,-9.26401 1.86557,-2.75432 3.68088,-5.55816 6.03089,-8.06866 1.21892,-1.30216 3.19382,-2.15102 4.14623,-3.58607 0.78057,-1.17613 0.87205,-2.57183 1.13079,-3.884911 0.23352,-1.185126 -0.16735,-2.466876 0.37693,-3.586071 0.96731,-1.989089 3.59729,-3.215392 4.90009,-5.080266 0.52013,-0.744523 1.13079,-2.390714 1.13079,-2.390714 0,0 0.73259,3.648189 1.50773,5.379106 0.28199,0.629713 0.91813,1.146429 1.13079,1.793035 1.3646,4.149265 2.09276,8.695561 0.75386,12.850081 -0.83749,2.59868 -3.32638,4.68189 -5.27703,6.87331 -1.49349,1.67783 -4.03346,2.8462 -4.90009,4.78142 -1.05094,2.34681 0.30952,4.99278 0,7.47098 -0.31564,2.52729 -0.86953,5.06223 -1.88465,7.47098 -1.10414,2.61999 -3.44805,4.84342 -4.52317,7.47098 -0.8669,2.11873 -0.73082,4.43391 -1.50772,6.57446 -0.56131,1.54655 -0.78473,3.37857 -2.26158,4.4826 -1.15631,0.86441 -2.93573,1.2561 -4.52316,1.19535 -1.236,-0.0473 -2.67875,-0.39385 -3.39237,-1.19535 -1.88946,-2.12214 -0.68658,-5.17278 -0.75386,-7.76983 -0.0723,-2.79035 0.11517,-5.58428 0.37693,-8.36749 z"
       id="path4961-0"
       sodipodi:nodetypes="cssssssscssssssssssssss" />
    <g
       id="g4559">
      <path
         sodipodi:nodetypes="csscsssssssssssssssssssssss"
         id="path4963"
         d="m 234.35098,109.02329 c -2.26041,-2.11611 -3.93081,-4.64177 -5.43925,-7.17214 -1.53458,-2.57421 -2.73172,-5.296904 -3.62617,-8.068656 -0.75586,-2.342276 -1.45047,-7.172141 -1.45047,-7.172141 0,0 -2.95182,3.404669 -3.62617,5.379105 -0.78666,2.303288 -0.36262,4.779354 -0.36262,7.172141 0,2.392791 -0.0779,4.807061 0.36262,7.172141 0.49382,2.65111 1.29774,5.29015 2.53832,7.76982 1.11438,2.22742 3.60103,3.94702 4.35141,6.27562 0.31024,0.96276 -0.0751,1.99419 0,2.98839 0.18166,2.40467 0.58889,4.79818 1.08785,7.17215 0.38039,1.80982 0.59754,3.68214 1.45046,5.3791 0.6031,1.19993 2.05344,2.05144 2.53832,3.28723 0.6333,1.61406 0.37066,3.38393 0.36262,5.08026 -0.007,1.49751 -0.78912,3.02691 -0.36262,4.48259 0.33086,1.12923 1.68867,1.89826 2.1757,2.9884 0.25404,0.5686 -0.0366,1.28421 0.36262,1.79303 0.7099,0.90482 1.95663,1.82293 3.26355,1.79303 1.81239,-0.0414 3.54057,-1.3531 4.3514,-2.68954 0.973,-1.60374 -0.38201,-3.61393 0,-5.37911 0.42973,-1.98568 1.803,-3.75412 2.53832,-5.67794 0.71348,-1.86668 1.46317,-3.74223 1.81309,-5.67795 0.4634,-2.56357 0.41843,-5.17837 0.36261,-7.76982 -0.0581,-2.6965 0.26428,-5.49798 -0.72523,-8.06866 -0.85245,-2.2146 -2.49621,-4.22737 -4.35141,-5.97678 -1.01862,-0.96054 -2.42277,-1.58835 -3.62616,-2.39072 -1.33556,-0.89048 -2.85365,-1.62688 -3.98879,-2.68955 z"
         style="fill:#c53f00;fill-opacity:1;stroke:none" />
      <path
         sodipodi:nodetypes="cscsscs"
         id="path5191"
         d="m 223.83509,115.59775 c 1.74669,2.87186 3.14206,6.01913 5.80187,8.3675 1.48688,1.31278 5.43926,2.98839 5.43926,2.98839 0,0 -3.82685,-5.20101 -5.80188,-7.76981 -1.77645,-2.31052 -3.46694,-4.67335 -5.43925,-6.87331 -1.12198,-1.25147 -3.62617,-3.58607 -3.62617,-3.58607 0,0 2.26778,4.63988 3.62617,6.8733 z"
         style="fill:#000000;fill-opacity:0.31372549;stroke:none" />
      <path
         sodipodi:nodetypes="csscsssssssssssssssssssssss"
         id="path4963-2"
         d="m 234.35098,109.02329 c -2.26041,-2.11611 -3.93081,-4.64177 -5.43925,-7.17214 -1.53458,-2.574212 -2.73172,-5.296905 -3.62617,-8.068658 -0.75586,-2.342276 -1.45047,-7.172141 -1.45047,-7.172141 0,0 -2.95182,3.404669 -3.62617,5.379105 -0.78666,2.303288 -0.36262,4.779354 -0.36262,7.172141 0,2.392783 -0.0779,4.807053 0.36262,7.172143 0.49382,2.65111 1.29774,5.29015 2.53832,7.76982 1.11438,2.22742 3.60103,3.94701 4.35141,6.27562 0.31024,0.96276 -0.0751,1.99419 0,2.98839 0.18166,2.40467 0.58889,4.79818 1.08785,7.17215 0.38039,1.80982 0.59754,3.68214 1.45046,5.3791 0.6031,1.19993 2.05344,2.05144 2.53832,3.28723 0.6333,1.61406 0.37066,3.38393 0.36262,5.08026 -0.007,1.49751 -0.78912,3.02691 -0.36262,4.48259 0.33086,1.12923 1.68867,1.89826 2.1757,2.9884 0.25404,0.5686 -0.0366,1.28421 0.36262,1.79303 0.7099,0.90482 1.95663,1.82293 3.26355,1.79303 1.81239,-0.0414 3.54057,-1.3531 4.3514,-2.68954 0.973,-1.60374 -0.38201,-3.61393 0,-5.37911 0.42973,-1.98568 1.803,-3.75412 2.53832,-5.67794 0.71348,-1.86668 1.46317,-3.74223 1.81309,-5.67795 0.4634,-2.56357 0.41843,-5.17837 0.36261,-7.76982 -0.0581,-2.6965 0.26428,-5.49798 -0.72523,-8.06866 -0.85245,-2.2146 -2.49621,-4.22737 -4.35141,-5.97678 -1.01862,-0.96054 -2.42277,-1.58835 -3.62616,-2.39072 -1.33556,-0.89048 -2.85365,-1.62688 -3.98879,-2.68955 z"
         style="fill:none;stroke:none" />
      <path
         sodipodi:nodetypes="csscsssssssssssssssssssssss"
         id="path4963-28"
         d="m 234.35098,109.02329 c -2.26041,-2.11611 -3.93081,-4.64177 -5.43925,-7.17214 -1.53458,-2.574212 -2.73172,-5.296905 -3.62617,-8.068658 -0.75586,-2.342276 -1.45047,-7.172141 -1.45047,-7.172141 0,0 -2.95182,3.404669 -3.62617,5.379105 -0.78666,2.303288 -0.36262,4.779354 -0.36262,7.172141 0,2.392783 -0.0779,4.807053 0.36262,7.172143 0.49382,2.65111 1.29774,5.29015 2.53832,7.76982 1.11438,2.22742 3.60103,3.94701 4.35141,6.27562 0.31024,0.96276 -0.0751,1.99419 0,2.98839 0.18166,2.40466 0.58889,4.79817 1.08785,7.17215 0.38039,1.80982 0.59754,3.68214 1.45046,5.3791 0.6031,1.19993 2.05344,2.05144 2.53832,3.28723 0.6333,1.61406 0.37066,3.38393 0.36262,5.08026 -0.007,1.49751 -0.78912,3.02691 -0.36262,4.48259 0.33086,1.12923 1.68867,1.89826 2.1757,2.9884 0.25404,0.5686 -0.0366,1.28421 0.36262,1.79303 0.7099,0.90482 1.95663,1.82293 3.26355,1.79303 1.81239,-0.0414 3.54057,-1.3531 4.3514,-2.68954 0.973,-1.60374 -0.38201,-3.61393 0,-5.37911 0.42973,-1.98568 1.803,-3.75412 2.53832,-5.67794 0.71348,-1.86668 1.46317,-3.74223 1.81309,-5.67795 0.4634,-2.56357 0.41843,-5.17837 0.36261,-7.76982 -0.0581,-2.6965 0.26428,-5.49798 -0.72523,-8.06866 -0.85245,-2.2146 -2.49621,-4.22737 -4.35141,-5.97678 -1.01862,-0.96054 -2.42277,-1.58835 -3.62616,-2.39072 -1.33556,-0.89048 -2.85365,-1.62688 -3.98879,-2.68955 z"
         style="fill:none;stroke:#000000;stroke-width:1;stroke-miterlimit:4;stroke-opacity:1;stroke-dasharray:none" />
      <path
         sodipodi:nodetypes="csssscsssssssc"
         id="path5343"
         d="m 232.17528,148.17123 c 0,0 1.97,1.38417 2.71963,2.24129 0.55312,0.63245 0.51394,1.62241 1.26916,2.09188 0.78544,0.48825 1.96105,0.68788 2.90093,0.44826 0.81652,-0.20818 1.43329,-0.86319 1.81309,-1.4942 0.59629,-0.9907 0.99264,-3.44572 0.99264,-3.44572 0,0 0.5897,1.9964 0.59702,2.76958 0.008,0.82141 -0.36234,1.51742 -0.85344,2.23223 -0.50532,0.73553 -1.46373,1.3942 -2.368,1.79303 -0.5434,0.23967 -1.20677,0.33725 -1.81308,0.24601 -1.12176,-0.1688 -2.31028,-0.84882 -2.90094,-1.65267 -0.40816,-0.5555 0.091,-1.33305 -0.18131,-1.94246 -0.28401,-0.63573 -1.06449,-1.0455 -1.45047,-1.64362 -0.33215,-0.5147 -0.72523,-1.64361 -0.72523,-1.64361 z"
         style="fill:#000000;fill-opacity:0.31372549;stroke:none" />
    </g>
    <path
       style="fill:#fff0d5;fill-opacity:1;stroke:none"
       d="m 254.86358,95.073656 c -5.83565,-2.518617 -10.84765,-6.825457 -15.35072,-11.311062 -4.15952,-4.143375 -7.6385,-9.014077 -10.50313,-14.138826 -2.4767,-4.430764 -4.38776,-9.2237 -5.65553,-14.138827 -1.08459,-4.204887 -1.72953,-8.585905 -1.61587,-12.926927 0.10025,-3.828684 0.59083,-7.757636 2.01983,-11.311062 0.72459,-1.801792 3.23174,-4.847597 3.23174,-4.847597 0,0 1.71926,8.103231 3.6357,11.715027 2.02065,3.808199 5.20417,6.886857 8.07932,10.099163 3.55608,3.973087 7.29407,7.804658 11.31106,11.311061 3.18542,2.780527 6.71388,5.141965 10.09916,7.675363 2.54439,1.904114 5.49745,3.341176 7.67537,5.65553 1.86856,1.985611 3.60293,4.27371 4.44364,6.867431 0.78995,2.437167 1.19739,5.239321 0.40396,7.675363 -0.8597,2.63952 -2.90957,4.973101 -5.25157,6.463464 -2.34199,1.490362 -5.3048,1.929454 -8.07932,2.019832 -1.5047,0.04901 -3.06138,-0.211365 -4.44364,-0.807933 z"
       id="path4395"
       sodipodi:nodetypes="cssssscssssssssss" />
    <path
       style="fill:#000000;fill-opacity:0.31555553;stroke:none"
       d="m 230.01965,71.845583 c 0,0 4.45547,5.100963 6.86742,7.47338 2.31198,2.274074 4.63968,4.568561 7.2714,6.463463 2.96158,2.1324 6.13172,4.032856 9.49321,5.453548 2.25743,0.954074 4.64234,1.679908 7.06941,2.019833 2.3337,0.326846 6.86744,0.60595 6.86744,0.60595 0,0 -2.27593,0.818683 -3.6357,1.211899 -2.14999,0.621729 -4.45352,1.149028 -6.66544,0.807933 -2.41207,-0.371957 -4.57425,-1.77148 -6.66546,-3.029749 -3.49631,-2.103711 -6.70625,-4.695597 -9.69519,-7.473379 -2.51474,-2.337086 -4.74411,-4.977704 -6.86743,-7.675364 -1.46695,-1.863743 -4.03966,-5.857514 -4.03966,-5.857514 z"
       id="path5018"
       sodipodi:nodetypes="csssscsssssc" />
    <path
       style="fill:none;stroke:#000000;stroke-width:1;stroke-miterlimit:4;stroke-opacity:1;stroke-dasharray:none"
       d="m 254.86358,95.073655 c -5.83565,-2.518618 -10.84765,-6.825458 -15.35072,-11.311062 -4.15952,-4.143376 -7.6385,-9.014078 -10.50313,-14.138827 -2.4767,-4.430764 -4.38776,-9.2237 -5.65553,-14.138827 -1.08459,-4.204887 -1.72953,-8.585905 -1.61587,-12.926927 0.10025,-3.828684 0.59083,-7.757636 2.01983,-11.311061 0.72459,-1.801792 3.23174,-4.847598 3.23174,-4.847598 0,0 1.71926,8.103231 3.6357,11.715028 2.02065,3.808199 5.20417,6.886856 8.07932,10.099162 3.55608,3.973087 7.29407,7.804659 11.31106,11.311061 3.18542,2.780527 6.71388,5.141965 10.09916,7.675364 2.54439,1.904113 5.49745,3.341175 7.67537,5.65553 1.86856,1.98561 3.60293,4.27371 4.44364,6.86743 0.78995,2.437168 1.19739,5.239321 0.40396,7.675363 -0.8597,2.63952 -2.90957,4.973101 -5.25157,6.463464 -2.34199,1.490363 -5.3048,1.929454 -8.07932,2.019832 -1.5047,0.04901 -3.06138,-0.211365 -4.44364,-0.807932 z"
       id="path4395-8"
       sodipodi:nodetypes="cssssscssssssssss" />
    <path
       style="fill:#fff0d5;fill-opacity:1;stroke:none"
       d="m 339.58825,90.193744 c -1.74938,-2.06093 -2.80952,-4.708256 -3.47172,-7.329179 -0.59928,-2.371906 -1.20187,-5.02288 -0.38575,-7.329178 1.15417,-3.2616 4.4108,-5.357833 6.94344,-7.714925 2.14637,-1.997601 4.7845,-3.416414 6.94343,-5.400448 3.34995,-3.078577 6.55274,-6.371288 9.25791,-10.029402 2.12423,-2.872523 3.38855,-6.305621 5.40045,-9.25791 1.75285,-2.572166 4.28714,-4.601289 5.78619,-7.329178 1.31218,-2.387816 2.05447,-5.067951 2.70022,-7.714925 0.21549,-0.883307 0.38575,-2.700224 0.38575,-2.700224 0,0 2.99159,4.174047 3.85746,6.557686 1.33522,3.67567 1.75599,7.665534 1.92873,11.572388 0.22217,5.024605 -0.0301,10.14251 -1.15724,15.044103 -1.02203,4.444592 -3.12433,8.579269 -5.0147,12.729626 -1.50181,3.297275 -2.87292,6.721279 -5.0147,9.643656 -2.25734,3.08007 -5.21582,5.598656 -8.10067,8.100671 -1.94276,1.684943 -3.73227,3.81573 -6.17194,4.628955 -2.80562,0.935209 -6.04929,0.881796 -8.87216,0 -1.94058,-0.606193 -3.69905,-1.92175 -5.0147,-3.471716 z"
       id="path4959"
       sodipodi:nodetypes="csssssssscsssssssss" />
    <path
       style="fill:#000000;fill-opacity:0.31555553;stroke:none"
       d="m 342.0956,92.508221 c 0,0 5.36469,-0.914957 7.71492,-1.928731 3.39018,-1.462353 6.27775,-3.94349 9.06504,-6.364813 3.12477,-2.714498 5.97767,-5.772793 8.48642,-9.065037 2.83361,-3.718565 5.31065,-7.741186 7.32917,-11.958133 1.65062,-3.448328 3.85747,-10.800895 3.85747,-10.800895 0,0 -0.53294,5.06322 -1.15724,7.522052 -0.6556,2.582079 -1.67166,5.064614 -2.70023,7.522051 -1.43219,3.421796 -2.94549,6.82952 -4.82182,10.029402 -1.47061,2.507981 -3.09322,4.954437 -5.0147,7.136306 -1.95503,2.219944 -4.25059,4.1277 -6.55769,5.979067 -1.65546,1.328451 -3.19458,2.991405 -5.20757,3.664589 -1.89112,0.632423 -4.02784,0.603945 -5.97908,0.192873 -1.74454,-0.367529 -5.01469,-1.928731 -5.01469,-1.928731 z"
       id="path5047"
       sodipodi:nodetypes="csssscsssssssc" />
    <path
       style="fill:none;stroke:#000000;stroke-width:1;stroke-miterlimit:4;stroke-opacity:1;stroke-dasharray:none"
       d="m 339.58825,90.193748 c -1.74938,-2.06093 -2.80952,-4.708256 -3.47172,-7.329179 -0.59928,-2.371906 -1.20187,-5.02288 -0.38575,-7.329178 1.15417,-3.2616 4.4108,-5.357833 6.94344,-7.714925 2.14637,-1.997601 4.7845,-3.416413 6.94343,-5.400448 3.34995,-3.078576 6.55274,-6.371287 9.25791,-10.029402 2.12423,-2.872523 3.38855,-6.305621 5.40045,-9.25791 1.75285,-2.572166 4.28714,-4.601289 5.78619,-7.329178 1.31218,-2.387816 2.05447,-5.067951 2.70022,-7.714925 0.21549,-0.883307 0.38575,-2.700224 0.38575,-2.700224 0,0 2.99159,4.174048 3.85746,6.557687 1.33522,3.675669 1.75599,7.665533 1.92873,11.572387 0.22217,5.024606 -0.0301,10.14251 -1.15724,15.044103 -1.02203,4.444592 -3.12433,8.57927 -5.0147,12.729626 -1.50181,3.297275 -2.87292,6.721279 -5.0147,9.643656 -2.25734,3.08007 -5.21582,5.598656 -8.10067,8.100672 -1.94276,1.684942 -3.73227,3.81573 -6.17194,4.628954 -2.80562,0.935209 -6.04929,0.881796 -8.87216,0 -1.94058,-0.606193 -3.69905,-1.921749 -5.0147,-3.471716 z"
       id="path4959-4"
       sodipodi:nodetypes="csssssssscsssssssss" />
    <path
       style="fill:#c53f00;fill-opacity:1;stroke:none"
       d="M 300.5 50.84375 C 296.95036 50.920826 293.40415 51.252859 290 52.09375 C 282.16557 54.029007 274.72403 57.574136 268.0625 61.84375 C 263.89807 64.512885 260.24672 67.897879 257.09375 71.5625 C 252.31149 77.12082 248.46075 83.381089 245.28125 89.84375 C 242.46932 95.559308 240.30878 101.59583 238.96875 107.75 C 237.60713 114.00327 237.21255 120.43451 237.28125 126.8125 C 237.36418 134.50614 236.9668 142.54943 239.8125 149.78125 C 241.6092 154.34725 245.83418 157.74329 248.65625 161.84375 C 251.90063 166.55781 255.31206 171.21835 257.9375 176.25 C 260.87141 181.87282 262.54426 188.01277 265.125 193.78125 C 266.74399 197.40001 268.24386 201.06044 269.9375 204.65625 C 269.79089 205.91316 269.61208 207.25024 269.375 208.1875 C 268.56023 211.40856 267.46118 214.6095 265.78125 217.53125 C 264.44866 219.84889 260.71875 223.875 260.71875 223.875 C 260.71875 223.875 261.74712 226.50598 262.8125 227.4375 C 265.52391 229.80824 269.35573 230.86691 272.9375 231.84375 C 278.6128 233.39155 284.63992 233.54571 290.53125 234.0625 C 297.76525 234.69708 305.0459 235.15925 312.3125 235.15625 C 317.68802 235.15436 323.0779 234.96832 328.40625 234.3125 C 333.1404 233.72981 338.05129 233.37237 342.40625 231.5625 C 344.99833 230.48526 349.28125 226.90625 349.28125 226.90625 C 349.28125 226.90625 348.47859 225.96785 348.09375 225.5 C 346.24224 223.24914 344.23541 221.08004 342.71875 218.625 C 340.99913 215.84142 339.52921 212.9128 338.53125 209.84375 C 338.49556 209.73398 338.47247 209.58802 338.4375 209.46875 C 339.53542 206.98964 340.44086 204.40904 341.4375 201.9375 C 343.16196 197.66108 344.06946 193.14976 345.25 188.71875 C 346.76455 183.03406 347.49005 177.15563 349.46875 171.59375 C 351.3344 166.34965 354.37281 161.51944 356.625 156.40625 C 359.17152 150.62484 361.92944 144.90857 363.78125 138.90625 C 365.78192 132.42141 367.36662 125.74849 368 119.03125 C 368.60949 112.56748 368.66067 106.00678 367.59375 99.59375 C 366.68236 94.115549 365.12074 88.625587 362.53125 83.625 C 359.87451 78.494577 356.03846 73.894018 351.96875 69.625 C 348.08995 65.556239 343.94367 61.503384 338.90625 58.71875 C 333.9094 55.956548 328.10825 54.625357 322.46875 53.28125 C 317.36731 52.06538 312.13893 51.146309 306.875 50.9375 C 304.76258 50.853705 302.62978 50.797504 300.5 50.84375 z "
       id="path5583" />
    <path
       style="fill:#000000;fill-opacity:0.31555553;stroke:none"
       d="m 365.0625,90.65625 c 0,0 0.12134,5.689559 0,8.53125 -0.14921,3.4942 -0.39479,7.00004 -0.875,10.46875 -1.01074,7.30091 -2.2943,14.60016 -4.1875,21.75 -1.26127,4.76332 -3.08577,9.37454 -4.75,14.03125 -1.71332,4.79404 -3.59147,9.54032 -5.375,14.3125 -2.19348,5.86909 -4.65169,11.64105 -6.5625,17.59375 -1.39698,4.35198 -2.31569,8.83574 -3.59375,13.21875 -1.0839,3.71714 -1.68952,7.62922 -3.0625,11.25 -1.00165,2.89583 -1.61772,4.95576 -2.96727,6.69101 -1.19096,1.88242 -3.14078,3.53177 -3.04039,4.76225 0.63802,1.10523 2.21125,-0.55857 3.29433,-0.49217 0.87335,0.0536 1.34255,0.58134 1.8289,1.903 0.39867,1.53361 1.01012,2.50387 1.06897,2.66771 1.02226,2.84718 1.47988,3.41792 3.19046,5.9682 1.57712,2.35132 5.78125,6.34375 5.78125,6.34375 L 349.28125,227 c 0,0 -2.802,-3.18073 -4.0625,-4.875 -1.62512,-2.18434 -3.2772,-4.38388 -4.5,-6.78125 -0.96566,-1.89322 -1.70621,-3.88555 -2.3125,-5.90625 -0.003,-0.01 0.003,-0.0216 0,-0.0312 0.33782,-0.87446 0.67367,-1.74241 1.03125,-2.59375 1.46599,-3.49023 2.53047,-7.12988 3.5625,-10.75 1.06165,-3.72407 1.79938,-7.51867 2.6875,-11.28125 0.80093,-3.39316 1.35096,-6.85413 2.40625,-10.1875 1.04083,-3.2877 2.44768,-6.46329 3.875,-9.625 1.72749,-3.82663 3.9627,-7.44171 5.65625,-11.28125 2.02691,-4.59531 3.89,-9.26281 5.375,-14.03125 1.63206,-5.24066 3.08712,-10.5646 3.875,-15.96875 1.12792,-7.73668 2.16335,-15.65197 1.1875,-23.40625 -0.41744,-3.317032 -3,-9.625 -3,-9.625 l 0,-5e-5 z"
       id="path5585"
       sodipodi:nodetypes="cssssssscccscssccssssssssssssscc" />
    <path
       style="fill:none;fill-opacity:1;stroke:#000000;stroke-opacity:1"
       d="m 300.5,50.843747 c -3.54964,0.07708 -7.09585,0.409109 -10.5,1.25 -7.83443,1.935257 -15.27597,5.480386 -21.9375,9.75 -4.16443,2.669135 -7.81578,6.054129 -10.96875,9.71875 -4.78226,5.55832 -8.633,11.818589 -11.8125,18.28125 -2.81193,5.715558 -4.97247,11.752083 -6.3125,17.906253 -1.36162,6.25327 -1.7562,12.68451 -1.6875,19.0625 0.0829,7.69364 -0.31445,15.73693 2.53125,22.96875 1.7967,4.566 6.02168,7.96204 8.84375,12.0625 3.24438,4.71406 6.65581,9.3746 9.28125,14.40625 2.93391,5.62282 4.60676,11.76277 7.1875,17.53125 1.61899,3.61876 3.11886,7.27919 4.8125,10.875 -0.14661,1.25691 -0.32542,2.59399 -0.5625,3.53125 -0.81477,3.22106 -1.91382,6.422 -3.59375,9.34375 -1.33259,2.31764 -5.0625,6.34375 -5.0625,6.34375 0,0 1.02837,2.63098 2.09375,3.5625 2.71141,2.37074 6.54323,3.42941 10.125,4.40625 5.6753,1.5478 11.70242,1.70196 17.59375,2.21875 7.234,0.63458 14.51465,1.09675 21.78125,1.09375 5.37552,-0.002 10.7654,-0.18793 16.09375,-0.84375 4.73415,-0.58269 9.64504,-0.94013 14,-2.75 2.59208,-1.07724 6.875,-4.65625 6.875,-4.65625 0,0 -0.80266,-0.9384 -1.1875,-1.40625 -1.85151,-2.25086 -3.85834,-4.41996 -5.375,-6.875 -1.71962,-2.78358 -3.18954,-5.7122 -4.1875,-8.78125 -0.0357,-0.10977 -0.0588,-0.25573 -0.0937,-0.375 1.09792,-2.47911 2.00336,-5.05971 3,-7.53125 1.72446,-4.27642 2.63196,-8.78774 3.8125,-13.21875 1.51455,-5.68469 2.24005,-11.56312 4.21875,-17.125 1.86565,-5.2441 4.90406,-10.07431 7.15625,-15.1875 2.54652,-5.78141 5.30444,-11.49768 7.15625,-17.5 2.00067,-6.48484 3.58537,-13.15776 4.21875,-19.875 0.60949,-6.46377 0.66067,-13.02447 -0.40625,-19.437503 -0.91139,-5.478201 -2.47301,-10.968163 -5.0625,-15.96875 -2.65674,-5.130423 -6.49279,-9.730982 -10.5625,-14 -3.8788,-4.068761 -8.02508,-8.121616 -13.0625,-10.90625 -4.99685,-2.762202 -10.798,-4.093393 -16.4375,-5.4375 -5.10144,-1.21587 -10.32982,-2.134941 -15.59375,-2.34375 -2.11242,-0.0838 -4.24522,-0.139996 -6.375,-0.09375 z"
       id="path5583-8" />
    <g
       id="g4611">
      <path
         sodipodi:nodetypes="cssccsscc"
         id="path4148-60"
         d="m 168.7783,358.50531 c 0,0 -1.82841,20.21021 -1.61348,30.33333 0.16744,7.88649 1.70709,15.6878 2.25887,23.55674 0.67784,9.66667 1.29078,29.04256 1.29078,29.04256 l 44.20922,0 c 0,0 1.66661,-17.41314 2.25886,-26.1383 0.59077,-8.70336 1.01586,-17.41925 1.29078,-26.1383 0.24749,-7.84908 0.3227,-23.55674 0.3227,-23.55674 l -50.01773,-7.09929 z"
         style="fill:#c53f00;fill-opacity:1;stroke:none" />
      <path
         sodipodi:nodetypes="cssccsscc"
         id="path4148-6-3"
         d="m 168.7783,358.50531 c 0,0 -1.82841,20.21021 -1.61348,30.33333 0.16744,7.88649 1.70709,15.6878 2.25887,23.55674 0.67784,9.66667 1.29078,29.04256 1.29078,29.04256 l 44.20922,0 c 0,0 1.66661,-17.41314 2.25886,-26.1383 0.59077,-8.70336 1.01586,-17.41925 1.29078,-26.1383 0.24749,-7.84908 0.3227,-23.55674 0.3227,-23.55674 l -50.01773,-7.09929 z"
         style="fill:none;stroke:#000000;stroke-opacity:1" />
      <path
         sodipodi:nodetypes="cssccssscc"
         id="path4380"
         d="m 213.80452,364.99736 c 0,0 -0.85507,20.07669 -1.1409,30.11974 -0.22724,7.98451 -0.17467,15.97611 -0.45636,23.95888 -0.26053,7.38302 -1.1409,22.13345 -1.1409,22.13345 l 3.65088,0 c 0,0 1.66585,-15.96014 2.2818,-23.95889 0.59668,-7.74858 1.1408,-15.50617 1.36908,-23.27434 0.19884,-6.76642 0,-13.53867 0,-20.30801 0,-2.73816 0,-8.21447 0,-8.21447 l -4.5636,-0.45636 z"
         style="fill:#000000;fill-opacity:0.31555553;stroke:none" />
      <path
         sodipodi:nodetypes="cssccsscc"
         id="path4148"
         d="m 454.35461,359.63475 c 0,0 1.82841,20.21021 1.61348,30.33333 -0.16744,7.88649 -1.70709,15.6878 -2.25887,23.55674 -0.67784,9.66667 -1.29078,29.04256 -1.29078,29.04256 l -44.20922,0 c 0,0 -1.66661,-17.41314 -2.25886,-26.1383 -0.59077,-8.70336 -1.01586,-17.41925 -1.29078,-26.1383 -0.24749,-7.84908 -0.3227,-23.55674 -0.3227,-23.55674 l 50.01773,-7.09929 z"
         style="fill:#c53f00;fill-opacity:1;stroke:none" />
      <path
         sodipodi:nodetypes="cssccsscc"
         id="path4148-6"
         d="m 454.35461,359.63475 c 0,0 1.82841,20.21021 1.61348,30.33333 -0.16744,7.88649 -1.70709,15.6878 -2.25887,23.55674 -0.67784,9.66667 -1.29078,29.04256 -1.29078,29.04256 l -44.20922,0 c 0,0 -1.66661,-17.41314 -2.25886,-26.1383 -0.59077,-8.70336 -1.01586,-17.41925 -1.29078,-26.1383 -0.24749,-7.84908 -0.3227,-23.55674 -0.3227,-23.55674 l 50.01773,-7.09929 z"
         style="fill:none;stroke:#000000;stroke-opacity:1" />
      <path
         sodipodi:nodetypes="cssssccssssscc"
         id="path4388"
         d="m 448.14523,360.66194 c 0,0 2.28094,14.86601 2.73815,22.36162 0.31952,5.2384 0.18488,10.49953 0,15.74441 -0.22832,6.47716 -1.10077,12.91966 -1.36907,19.39529 -0.25506,6.15604 0.0557,12.32779 -0.22818,18.48257 -0.0879,1.90555 -0.45636,5.70449 -0.45636,5.70449 l 3.65087,0 c 0,0 0.22217,-13.08473 0.45636,-19.62346 0.16899,-4.71821 0.24903,-9.44605 0.68454,-14.14715 0.36118,-3.89873 1.26539,-7.73584 1.59726,-11.63718 0.38703,-4.5497 0.52833,-9.12523 0.45636,-13.69079 -0.0925,-5.86822 -0.41514,-11.74595 -1.1409,-17.56985 -0.25827,-2.0725 -0.68454,-5.93267 -0.68454,-5.93267 l -5.70449,0.91272 z"
         style="fill:#000000;fill-opacity:0.31555553;stroke:none" />
      <path
         sodipodi:nodetypes="cssssssssscsssssssssscsssssssssscsssscssscssssscsssscsssc"
         id="path2894"
         d="m 161.09919,353.50354 c 0,0 -1.69045,-15.91803 -1.29078,-23.87943 0.49121,-9.78495 3.08776,-19.35019 4.51773,-29.04255 1.36326,-9.24019 1.10192,-18.83189 3.87234,-27.75177 1.71221,-5.51277 5.50172,-9.1611 9.11376,-13.66393 2.77511,-3.4595 9.83344,-6.99176 13.74894,-9.07461 4.56622,-2.429 9.54494,-3.48909 14.33225,-5.44667 5.16576,-2.11233 5.40689,-1.55931 10.32624,-4.19503 4.32832,-2.31905 15.35452,-5.85164 20.00709,-7.42198 4.7075,-1.58888 9.70888,-4.40537 13.55319,-6.4539 1.44591,-0.77048 12.18805,-4.19504 12.18805,-4.19504 0,0 1.32157,3.3258 2.58156,4.51773 1.74729,1.65291 4.22121,2.33241 6.4539,3.22695 2.71618,1.08826 0.28354,0.13035 3.14193,0.75612 3.18019,0.69622 6.44316,0.95067 9.68085,1.29078 2.78961,0.29304 5.59743,0.38291 8.39008,0.64539 3.87907,0.36459 7.72681,1.07532 11.61702,1.29078 5.58482,0.30932 11.19635,0.32733 16.78014,0 3.67612,-0.2155 7.32972,-0.74602 10.97163,-1.29078 4.75752,-0.71164 4.97618,-0.47987 9.4068,-2.35338 1.7045,-0.72075 3.54369,-1.59184 4.74591,-2.99877 1.25001,-1.46286 2.80974,-3.56586 2.80974,-3.56586 0,0 8.87637,5.46395 13.55319,7.74468 4.59618,2.2414 9.42837,3.9663 14.19859,5.80851 4.69791,1.81428 9.49362,3.3672 14.19858,5.16312 4.32937,1.65255 8.49854,3.73737 12.9078,5.16312 4.21989,1.36452 8.76886,1.63365 12.9078,3.22695 3.41305,1.31387 11.03288,3.44266 13.78809,5.84766 3.59856,3.14115 6.31565,4.69382 8.61825,8.87886 2.79231,5.0751 4.55891,10.66094 6.4539,16.13476 3.74132,10.80705 7.20506,21.74975 9.68085,32.91489 1.55442,7.01004 1.96129,14.22998 3.22696,21.29787 1.12299,6.27114 3.87234,18.71631 3.87234,18.71631 0,0 -5.39643,3.81349 -8.39008,5.16313 -4.71505,2.12571 -9.78277,3.45254 -14.84397,4.51773 -5.30071,1.1156 -10.73794,1.47086 -16.13475,1.93617 -4.078,0.3516 -8.1744,0.8501 -12.26241,0.64539 -2.82605,-0.14151 -8.39007,-1.29078 -8.39007,-1.29078 0,0 0.90294,26.24454 1.29078,39.36879 0.24156,8.1742 0.53782,16.34776 0.64539,24.52482 0.12169,9.24979 -0.1926,18.50319 0,27.75178 0.10759,5.16648 0.64539,15.48936 0.64539,15.48936 0,0 -9.85811,1.73523 -14.84397,1.93617 -13.12814,0.5291 -26.23397,-1.61338 -39.3688,-1.93617 -11.61351,-0.28541 -23.23619,0.22328 -34.85106,0 -11.19297,-0.21517 -34.24124,-0.80292 -45.42564,-1.29078 -8.82243,-0.38483 -17.70137,-0.17168 -26.46099,-1.29078 -5.23146,-0.66835 -15.48936,-3.22695 -15.48936,-3.22695 0,0 -1.6132,-15.46923 -1.93617,-23.23404 -0.27716,-6.66327 0.47276,-13.35484 0,-20.0071 -0.53918,-7.58686 -2.58248,-15.01001 -3.22695,-22.58865 -0.65648,-7.7198 -0.53781,-15.48712 -0.64539,-23.23404 -0.0418,-3.01153 0,-9.03546 0,-9.03546 0,0 -12.5218,1.41774 -18.71631,0.64539 -6.89105,-0.8592 -13.44085,-3.54817 -20.0071,-5.80851 -5.47712,-1.88542 -11.00821,-3.75718 -16.13475,-6.4539 -2.05944,-1.08333 -5.80851,-3.87235 -5.80851,-3.87235 z"
         style="fill:#131d93;fill-opacity:1;stroke:none" />
      <path
         sodipodi:nodetypes="csssscssscc"
         id="path4097"
         d="m 396.87456,473.5461 c 0,0 -0.42576,-20.54422 -0.60505,-30.65603 -0.26889,-15.16581 -0.62499,-30.33182 -0.64539,-45.5 -0.0126,-9.35877 -0.15512,-18.7279 0.32269,-28.07447 0.30329,-5.93273 0.56567,-11.9009 1.61348,-17.74823 0.72718,-4.05806 3.22695,-11.93971 3.22695,-11.93971 0,0 1.21916,42.59804 1.93617,63.89362 0.29339,8.7138 0.85307,17.42031 0.96808,26.13829 0.13338,10.11081 -0.64733,20.22687 -0.32269,30.33334 0.13852,4.31246 0.96808,12.9078 0.96808,12.9078 l -7.46232,0.64539 z"
         style="fill:#000000;fill-opacity:0.31555553;stroke:none" />
      <path
         sodipodi:nodetypes="cssscsssssscc"
         id="path4099"
         d="m 455.80675,358.10195 c 0,0 -4.74616,-25.28039 -7.26065,-37.5133 -2.43835,-11.86249 -4.68441,-23.77899 -7.74468,-35.49645 -1.67666,-6.41978 -3.65432,-12.76333 -5.80851,-19.03901 -1.2712,-3.70332 -3.73867,-7.77711 -3.73867,-7.77711 0,0 3.73318,1.75872 5.35215,4.55016 2.58641,4.45952 4.30568,9.37735 6.1312,14.19858 2.20426,5.82151 3.87842,11.83017 5.80851,17.74823 1.40276,4.30116 3.05029,8.5309 4.19504,12.9078 1.52661,5.8369 2.54072,11.79995 3.54965,17.74823 0.78097,4.60434 1.18295,9.26692 1.93617,13.87588 0.84725,5.18432 2.90425,15.48936 2.90425,15.48936 l -5.32446,3.30763 z"
         style="fill:#000000;fill-opacity:0.31555553;stroke:none" />
      <path
         sodipodi:nodetypes="cssccc"
         id="path4101"
         d="m 218.25403,368.64823 c 0,0 0.43343,-8.91445 0.91272,-13.34852 0.33466,-3.09601 0.53934,-6.23981 1.36908,-9.24128 0.31802,-1.15041 1.36907,-3.30861 1.36907,-3.30861 l -0.79862,26.12659 -2.85225,-0.22818 z"
         style="fill:#000000;fill-opacity:0.31555553;stroke:none" />
      <path
         sodipodi:nodetypes="cc"
         id="path4073"
         d="m 221.69149,368.80388 0.64539,-26.27197"
         style="fill:none;stroke:#000000;stroke-width:1;stroke-miterlimit:4;stroke-opacity:1;stroke-dasharray:none" />
      <path
         sodipodi:nodetypes="cc"
         id="path4073-5"
         d="m 401.47427,365.35973 -0.49551,-25.9297"
         style="fill:none;stroke:#000000;stroke-width:1;stroke-miterlimit:4;stroke-opacity:1;stroke-dasharray:none" />
      <path
         sodipodi:nodetypes="cssssssssscsssssssssscsssssssssscsssscssscssssscsssscsssc"
         id="path2894-9"
         d="m 161.09919,353.50354 c 0,0 -1.69045,-15.91803 -1.29078,-23.87943 0.49121,-9.78495 3.08776,-19.35019 4.51773,-29.04255 1.36326,-9.24019 1.10192,-18.83189 3.87234,-27.75177 1.71221,-5.51277 5.50172,-9.1611 9.11376,-13.66393 2.77511,-3.4595 9.83344,-6.99176 13.74894,-9.07461 4.56622,-2.429 9.54494,-3.48909 14.33225,-5.44667 5.16576,-2.11233 5.40689,-1.55931 10.32624,-4.19503 4.32832,-2.31905 15.35452,-5.85164 20.00709,-7.42198 4.7075,-1.58888 9.70888,-4.40537 13.55319,-6.4539 1.44591,-0.77048 12.18805,-4.19504 12.18805,-4.19504 0,0 1.32157,3.3258 2.58156,4.51773 1.74729,1.65291 4.22121,2.33241 6.4539,3.22695 2.71618,1.08826 0.28354,0.13035 3.14193,0.75612 3.18019,0.69622 6.44316,0.95067 9.68085,1.29078 2.78961,0.29304 5.59743,0.38291 8.39008,0.64539 3.87907,0.36459 7.72681,1.07532 11.61702,1.29078 5.58482,0.30932 11.19635,0.32733 16.78014,0 3.67612,-0.2155 7.32972,-0.74602 10.97163,-1.29078 4.75752,-0.71164 4.97618,-0.47987 9.4068,-2.35338 1.7045,-0.72075 3.54369,-1.59184 4.74591,-2.99877 1.25001,-1.46286 2.80974,-3.56586 2.80974,-3.56586 0,0 8.87637,5.46395 13.55319,7.74468 4.59618,2.2414 9.42837,3.9663 14.19859,5.80851 4.69791,1.81428 9.49362,3.3672 14.19858,5.16312 4.32937,1.65255 8.49854,3.73737 12.9078,5.16312 4.21989,1.36452 8.76886,1.63365 12.9078,3.22695 3.41305,1.31387 11.03288,3.44266 13.78809,5.84766 3.59856,3.14115 6.31565,4.69382 8.61825,8.87886 2.79231,5.0751 4.55891,10.66094 6.4539,16.13476 3.74132,10.80705 7.20506,21.74975 9.68085,32.91489 1.55442,7.01004 1.96129,14.22998 3.22696,21.29787 1.12299,6.27114 3.87234,18.71631 3.87234,18.71631 0,0 -5.39643,3.81349 -8.39008,5.16313 -4.71505,2.12571 -9.78277,3.45254 -14.84397,4.51773 -5.30071,1.1156 -10.73794,1.47086 -16.13475,1.93617 -4.078,0.3516 -8.1744,0.8501 -12.26241,0.64539 -2.82605,-0.14151 -8.39007,-1.29078 -8.39007,-1.29078 0,0 0.90294,26.24454 1.29078,39.36879 0.24156,8.1742 0.53782,16.34776 0.64539,24.52482 0.12169,9.24979 -0.1926,18.50319 0,27.75178 0.10759,5.16648 0.64539,15.48936 0.64539,15.48936 0,0 -9.85811,1.73523 -14.84397,1.93617 -13.12814,0.5291 -26.23397,-1.61338 -39.3688,-1.93617 -11.61351,-0.28541 -23.23619,0.22328 -34.85106,0 -11.19297,-0.21517 -34.24124,-0.80292 -45.42564,-1.29078 -8.82243,-0.38483 -17.70137,-0.17168 -26.46099,-1.29078 -5.23146,-0.66835 -15.48936,-3.22695 -15.48936,-3.22695 0,0 -1.6132,-15.46923 -1.93617,-23.23404 -0.27716,-6.66327 0.47276,-13.35484 0,-20.0071 -0.53918,-7.58686 -2.58248,-15.01001 -3.22695,-22.58865 -0.65648,-7.7198 -0.53781,-15.48712 -0.64539,-23.23404 -0.0418,-3.01153 0,-9.03546 0,-9.03546 0,0 -12.5218,1.41774 -18.71631,0.64539 -6.89105,-0.8592 -13.44085,-3.54817 -20.0071,-5.80851 -5.47712,-1.88542 -11.00821,-3.75718 -16.13475,-6.4539 -2.05944,-1.08333 -5.80851,-3.87235 -5.80851,-3.87235 z"
         style="fill:none;fill-opacity:1;stroke:#000000;stroke-opacity:1" />
    </g>
  </g>
</svg>
