<?xml version="1.0" encoding="UTF-8" standalone="no"?>
<!-- Created with Inkscape (http://www.inkscape.org/) -->

<svg
   xmlns:dc="http://purl.org/dc/elements/1.1/"
   xmlns:cc="http://creativecommons.org/ns#"
   xmlns:rdf="http://www.w3.org/1999/02/22-rdf-syntax-ns#"
   xmlns:svg="http://www.w3.org/2000/svg"
   xmlns="http://www.w3.org/2000/svg"
   xmlns:sodipodi="http://sodipodi.sourceforge.net/DTD/sodipodi-0.dtd"
   xmlns:inkscape="http://www.inkscape.org/namespaces/inkscape"
   width="744.09448819"
   height="1052.3622047"
   id="svg2"
   version="1.1"
   inkscape:version="0.47 r22583"
   sodipodi:docname="title_logo.svg"
   inkscape:export-filename="/media/FreeAgent Drive/T3/Projects/Games/the_devil-1.1/bin/data/graphics/title_logo.png"
   inkscape:export-xdpi="93.881981"
   inkscape:export-ydpi="93.881981">
  <defs
     id="defs4">
    <inkscape:perspective
       sodipodi:type="inkscape:persp3d"
       inkscape:vp_x="0 : 526.18109 : 1"
       inkscape:vp_y="0 : 1000 : 0"
       inkscape:vp_z="744.09448 : 526.18109 : 1"
       inkscape:persp3d-origin="372.04724 : 350.78739 : 1"
       id="perspective10" />
    <inkscape:perspective
       id="perspective2905"
       inkscape:persp3d-origin="0.5 : 0.33333333 : 1"
       inkscape:vp_z="1 : 0.5 : 1"
       inkscape:vp_y="0 : 1000 : 0"
       inkscape:vp_x="0 : 0.5 : 1"
       sodipodi:type="inkscape:persp3d" />
    <inkscape:perspective
       id="perspective3015"
       inkscape:persp3d-origin="0.5 : 0.33333333 : 1"
       inkscape:vp_z="1 : 0.5 : 1"
       inkscape:vp_y="0 : 1000 : 0"
       inkscape:vp_x="0 : 0.5 : 1"
       sodipodi:type="inkscape:persp3d" />
    <inkscape:perspective
       id="perspective4390"
       inkscape:persp3d-origin="0.5 : 0.33333333 : 1"
       inkscape:vp_z="1 : 0.5 : 1"
       inkscape:vp_y="0 : 1000 : 0"
       inkscape:vp_x="0 : 0.5 : 1"
       sodipodi:type="inkscape:persp3d" />
    <inkscape:perspective
       id="perspective3658"
       inkscape:persp3d-origin="0.5 : 0.33333333 : 1"
       inkscape:vp_z="1 : 0.5 : 1"
       inkscape:vp_y="0 : 1000 : 0"
       inkscape:vp_x="0 : 0.5 : 1"
       sodipodi:type="inkscape:persp3d" />
    <inkscape:perspective
       id="perspective3737"
       inkscape:persp3d-origin="0.5 : 0.33333333 : 1"
       inkscape:vp_z="1 : 0.5 : 1"
       inkscape:vp_y="0 : 1000 : 0"
       inkscape:vp_x="0 : 0.5 : 1"
       sodipodi:type="inkscape:persp3d" />
    <inkscape:perspective
       id="perspective3759"
       inkscape:persp3d-origin="0.5 : 0.33333333 : 1"
       inkscape:vp_z="1 : 0.5 : 1"
       inkscape:vp_y="0 : 1000 : 0"
       inkscape:vp_x="0 : 0.5 : 1"
       sodipodi:type="inkscape:persp3d" />
    <inkscape:perspective
       id="perspective3781"
       inkscape:persp3d-origin="0.5 : 0.33333333 : 1"
       inkscape:vp_z="1 : 0.5 : 1"
       inkscape:vp_y="0 : 1000 : 0"
       inkscape:vp_x="0 : 0.5 : 1"
       sodipodi:type="inkscape:persp3d" />
    <inkscape:perspective
       id="perspective3803"
       inkscape:persp3d-origin="0.5 : 0.33333333 : 1"
       inkscape:vp_z="1 : 0.5 : 1"
       inkscape:vp_y="0 : 1000 : 0"
       inkscape:vp_x="0 : 0.5 : 1"
       sodipodi:type="inkscape:persp3d" />
    <inkscape:perspective
       id="perspective3825"
       inkscape:persp3d-origin="0.5 : 0.33333333 : 1"
       inkscape:vp_z="1 : 0.5 : 1"
       inkscape:vp_y="0 : 1000 : 0"
       inkscape:vp_x="0 : 0.5 : 1"
       sodipodi:type="inkscape:persp3d" />
    <inkscape:perspective
       id="perspective3847"
       inkscape:persp3d-origin="0.5 : 0.33333333 : 1"
       inkscape:vp_z="1 : 0.5 : 1"
       inkscape:vp_y="0 : 1000 : 0"
       inkscape:vp_x="0 : 0.5 : 1"
       sodipodi:type="inkscape:persp3d" />
    <inkscape:perspective
       id="perspective3869"
       inkscape:persp3d-origin="0.5 : 0.33333333 : 1"
       inkscape:vp_z="1 : 0.5 : 1"
       inkscape:vp_y="0 : 1000 : 0"
       inkscape:vp_x="0 : 0.5 : 1"
       sodipodi:type="inkscape:persp3d" />
    <inkscape:perspective
       id="perspective3891"
       inkscape:persp3d-origin="0.5 : 0.33333333 : 1"
       inkscape:vp_z="1 : 0.5 : 1"
       inkscape:vp_y="0 : 1000 : 0"
       inkscape:vp_x="0 : 0.5 : 1"
       sodipodi:type="inkscape:persp3d" />
    <inkscape:perspective
       id="perspective3957"
       inkscape:persp3d-origin="0.5 : 0.33333333 : 1"
       inkscape:vp_z="1 : 0.5 : 1"
       inkscape:vp_y="0 : 1000 : 0"
       inkscape:vp_x="0 : 0.5 : 1"
       sodipodi:type="inkscape:persp3d" />
  </defs>
  <sodipodi:namedview
     id="base"
     pagecolor="#000000"
     bordercolor="#666666"
     borderopacity="1.0"
     inkscape:pageopacity="0"
     inkscape:pageshadow="2"
     inkscape:zoom="1.979899"
     inkscape:cx="355.87335"
     inkscape:cy="487.11594"
     inkscape:document-units="px"
     inkscape:current-layer="layer1"
     showgrid="false"
     inkscape:window-width="1680"
     inkscape:window-height="975"
     inkscape:window-x="0"
     inkscape:window-y="24"
     inkscape:window-maximized="1" />
  <metadata
     id="metadata7">
    <rdf:RDF>
      <cc:Work
         rdf:about="">
        <dc:format>image/svg+xml</dc:format>
        <dc:type
           rdf:resource="http://purl.org/dc/dcmitype/StillImage" />
        <dc:title></dc:title>
      </cc:Work>
    </rdf:RDF>
  </metadata>
  <g
     inkscape:label="Layer 1"
     inkscape:groupmode="layer"
     id="layer1">
    <g
       id="g4036"
       inkscape:export-filename="/media/FreeAgent Drive/T3/Projects/Games/the_devil-1.1/bin/data/graphics/title_logo.png"
       inkscape:export-xdpi="93.881981"
       inkscape:export-ydpi="93.881981">
      <g
         id="g3991">
        <g
           id="g3971">
          <path
             sodipodi:nodetypes="cssscscscssscscscsssccc"
             id="path3672"
             d="m 285.35714,449.50504 c 0,0 16.90933,1.0055 24.64286,0.71429 3.94198,-0.14844 7.84499,-0.89267 11.78571,-1.07143 6.42197,-0.29131 12.91928,-0.89165 19.28572,0 1.71661,0.24042 5,1.42857 5,1.42857 0,0 -0.0206,11.70316 -0.71429,17.5 -0.21637,1.80818 -1.07143,5.35714 -1.07143,5.35714 0,0 -0.65903,1.76237 -1.42857,2.14286 -3.31507,1.63908 -11.07143,-0.71429 -11.07143,-0.71429 0,0 -0.48126,10.97257 -1.07142,16.42857 -0.4273,3.95037 -1.34279,7.83707 -1.78572,11.78572 -0.54555,4.8635 -0.41169,9.79353 -1.07143,14.64286 -0.24549,1.80445 -1.07143,5.35714 -1.07143,5.35714 0,0 -1.62653,2.30974 -2.85714,2.85714 -2.94416,1.30962 -9.65397,0.49934 -9.65397,0.49934 0,0 -7.61426,1.89625 -11.06031,0.57209 -1.10009,-0.42272 -2.5,-2.5 -2.5,-2.5 0,0 0.25946,-7.40136 0.71428,-11.07143 0.56572,-4.565 1.99363,-8.99946 2.5,-13.57143 0.68196,-6.1574 0.59522,-12.37752 0.71429,-18.57143 0.0549,-2.85661 -0.35714,-6.42856 -0.35714,-6.42856 l -18.21429,-10e-6 -0.71429,-25.35714 z"
             style="fill:#a9ddd0;fill-opacity:1;stroke:none" />
          <path
             sodipodi:nodetypes="ccscccc"
             id="path3693"
             d="m 304.19643,474.7729 1.96428,-1.69643 c 0,0 -6.66549,0.25654 -10,0.26785 -2.97677,0.0101 -8.92857,-0.17857 -8.92857,-0.17857 l -1.16071,1.69643 18.125,-0.0893 0,2e-5 z"
             style="fill:#000000;fill-opacity:0.31555553;stroke:none" />
          <path
             sodipodi:nodetypes="cssssssssssscssssssccsscsscssssssssssssssss"
             id="path3695"
             d="m 300.625,524.32647 c 0,0 3.2259,1.12974 4.91071,1.25 2.50793,0.17901 4.99284,-0.61414 7.5,-0.80357 2.02002,-0.15262 4.06375,0.002 6.07143,-0.26786 1.33092,-0.17912 2.82041,-0.1343 3.92857,-0.89286 1.18522,-0.81131 1.94893,-2.21139 2.41072,-3.57143 0.7861,-2.31519 0.2967,-4.88101 0.44643,-7.32143 0.14791,-2.41077 0.23286,-4.8263 0.44643,-7.23214 0.1828,-2.05923 0.59503,-4.09683 0.71428,-6.16071 0.0944,-1.63418 -0.0943,-3.27653 0,-4.91072 0.16396,-2.84154 0.67683,-5.65229 0.98214,-8.48214 0.22458,-2.08164 0.42605,-4.16575 0.625,-6.25 0.21865,-2.29071 0.625,-6.875 0.625,-6.875 0,0 3.80629,0.44871 5.71429,0.625 1.57516,0.14554 3.15047,0.33193 4.73214,0.35714 0.68508,0.0109 1.49548,0.30818 2.05357,-0.0893 1.12091,-0.79834 1.19934,-2.50051 1.51786,-3.83929 0.53261,-2.23863 0.50752,-4.57688 0.625,-6.875 0.13221,-2.58608 -0.002,-5.18 0.0893,-7.76786 0.0356,-1.01303 0.17857,-3.03571 0.17857,-3.03571 l 1.69643,-1.51786 c 0,0 0.33253,9.54244 -0.0893,14.28572 -0.21672,2.43684 -0.60176,4.87313 -1.25,7.23214 -0.28706,1.04462 -1.16071,3.03571 -1.16071,3.03571 0,0 -1.48139,0.92769 -2.32143,1.07143 -1.88571,0.32266 -3.82482,-0.23584 -5.71429,-0.53571 -1.20516,-0.19127 -3.57143,-0.80357 -3.57143,-0.80357 0,0 -0.31006,5.95558 -0.53571,8.92857 -0.22167,2.92054 -0.45872,5.84143 -0.80357,8.75 -0.19475,1.64262 -0.47828,3.2735 -0.71429,4.91071 -0.27024,1.87466 -0.60299,3.74162 -0.80357,5.625 -0.22434,2.10642 -0.31407,4.2251 -0.44643,6.33929 -0.13595,2.17163 -0.0977,4.35751 -0.35714,6.51786 -0.213,1.77346 -0.70755,3.50287 -0.98214,5.26785 -0.11066,0.71129 0.0541,1.49901 -0.26786,2.14286 -0.53654,1.07308 -1.53537,1.92673 -2.58929,2.5 -1.15421,0.62782 -2.53125,0.76868 -3.83928,0.89286 -1.51222,0.14356 -3.04247,-0.0236 -4.55357,-0.17857 -0.54027,-0.0554 -1.06406,-0.27185 -1.60715,-0.26786 -1.33096,0.01 -2.6199,0.47152 -3.92857,0.71428 -1.10193,0.20441 -2.1829,0.63584 -3.30357,0.625 -1.30743,-0.0127 -2.65197,-0.25602 -3.83928,-0.80357 -0.75141,-0.34653 -1.96429,-1.51785 -1.96429,-1.51785"
             style="fill:#000000;fill-opacity:0.31555553;stroke:none" />
          <path
             sodipodi:nodetypes="cssscscscssscscscsssccc"
             id="path3672-9"
             d="m 285.35714,449.50504 c 0,0 16.90933,1.0055 24.64286,0.71429 3.94198,-0.14844 7.84499,-0.89267 11.78571,-1.07143 6.42197,-0.29131 12.91928,-0.89165 19.28572,0 1.71661,0.24042 5,1.42857 5,1.42857 0,0 -0.0206,11.70316 -0.71429,17.5 -0.21637,1.80818 -1.07143,5.35714 -1.07143,5.35714 0,0 -0.65903,1.76237 -1.42857,2.14286 -3.31507,1.63908 -11.07143,-0.71429 -11.07143,-0.71429 0,0 -0.48126,10.97257 -1.07142,16.42857 -0.4273,3.95037 -1.34279,7.83707 -1.78572,11.78572 -0.54555,4.8635 -0.41169,9.79353 -1.07143,14.64286 -0.24549,1.80445 -1.07143,5.35714 -1.07143,5.35714 0,0 -1.62653,2.30974 -2.85714,2.85714 -2.94416,1.30962 -9.65397,0.49934 -9.65397,0.49934 0,0 -7.61426,1.89625 -11.06031,0.57209 -1.10009,-0.42272 -2.5,-2.5 -2.5,-2.5 0,0 0.25946,-7.40136 0.71428,-11.07143 0.56572,-4.565 1.99363,-8.99946 2.5,-13.57143 0.68196,-6.1574 0.59522,-12.37752 0.71429,-18.57143 0.0549,-2.85661 -0.35714,-6.42856 -0.35714,-6.42856 l -18.21429,-10e-6 -0.71429,-25.35714 z"
             style="fill:none;stroke:#000000;stroke-opacity:1" />
        </g>
        <g
           id="g3977">
          <path
             sodipodi:nodetypes="cscscscscscscsscscsscscsccss"
             id="path3674"
             d="m 348.92857,481.6479 c 0,0 0.5879,-13.84437 1.42857,-20.71429 0.49924,-4.07973 2.14286,-12.14286 2.14286,-12.14286 0,0 9.63174,-1.00809 14.28571,0 1.40586,0.30452 3.92858,1.78572 3.92858,1.78572 0,0 -2.67745,16.37641 -3.21429,24.64286 -0.13115,2.01955 0,6.07142 0,6.07142 0,0 5.26866,0.39899 7.85714,0 2.34432,-0.36136 6.78572,-2.14285 6.78572,-2.14285 0,0 0.64029,-12.14767 1.07143,-18.21429 0.20324,-2.85983 0.71428,-8.57143 0.71428,-8.57143 0,0 4.03406,-0.75452 6.07143,-0.71428 2.28948,0.0452 6.78571,1.07143 6.78571,1.07143 0,0 -0.22805,21.42868 -0.35714,32.14285 -0.11045,9.16677 -0.29762,18.33275 -0.35714,27.5 -0.0317,4.88085 0,14.64286 0,14.64286 0,0 -4.4959,-1.04906 -6.78572,-1.07143 -3.4849,-0.034 -10.35714,1.42857 -10.35714,1.42857 0,0 -1.07666,-8.31806 -1.07143,-12.5 0.005,-4.06334 1.39002,-8.09202 1.07143,-12.14285 -0.11545,-1.46801 -1.07143,-4.28572 -1.07143,-4.28572 0,0 -4.78031,-1.09379 -7.14285,-0.71428 -2.31529,0.37192 -6.42858,2.85714 -6.42858,2.85714 0,0 0.61842,13.64086 -0.35714,20.35714 -0.31969,2.2009 -1.78571,6.42857 -1.78571,6.42857 l -13.21429,0.35715 c 0,0 -0.29762,-23.57098 -0.35714,-35.35715 -0.0144,-2.85711 0,-8.57143 0,-8.57143"
             style="fill:#a9ddd0;fill-opacity:1;stroke:none" />
          <path
             sodipodi:nodetypes="ccscssssscssssccssscssssscss"
             id="path3697"
             d="m 348.83929,527.54075 2.05357,-1.875 c 0,0 4.04723,0.22274 6.07143,0.17857 1.22321,-0.0267 3.66071,-0.26785 3.66071,-0.26785 0,0 0.86187,-2.28595 1.07143,-3.48215 0.31878,-1.81968 0.17052,-3.69088 0.26786,-5.53571 0.10995,-2.08383 0.29759,-4.16412 0.35714,-6.25 0.0416,-1.45774 0.0265,-2.91691 0,-4.375 -0.0298,-1.63771 -0.1488,-3.273 -0.17857,-4.91071 -0.0157,-0.86295 0,-2.58929 0,-2.58929 0,0 1.70908,-0.81447 2.58928,-1.16071 1.37508,-0.5409 2.74468,-1.15317 4.19643,-1.42858 1.87344,-0.35541 3.81191,-0.39847 5.71429,-0.26785 1.29866,0.0892 2.64138,0.20485 3.83928,0.71428 0.4712,0.20039 1.25,0.89286 1.25,0.89286 l -1.875,1.25 c 0,0 -3.55188,-0.84312 -5.35714,-0.80357 -1.24295,0.0272 -2.47982,0.32547 -3.66071,0.71428 -1.25184,0.41217 -2.38673,1.11896 -3.57143,1.69643 -0.35893,0.17496 -1.07143,0.53572 -1.07143,0.53572 0,0 0.23785,3.50989 0.26786,5.26785 0.0305,1.7857 -0.0554,3.57151 -0.0893,5.35715 -0.0265,1.39887 -0.0434,2.79806 -0.0893,4.19643 -0.044,1.33988 -0.0409,2.68434 -0.17857,4.01785 -0.13318,1.28975 -0.31055,2.58139 -0.625,3.83929 -0.33553,1.34222 -1.33928,3.92857 -1.33928,3.92857 0,0 -4.82019,0.22321 -7.23215,0.26786 -0.32732,0.006 -0.98214,0 -0.98214,0"
             style="fill:#000000;fill-opacity:0.31555553;stroke:none" />
          <path
             sodipodi:nodetypes="ccsssccsssss"
             id="path3699"
             d="m 370.44643,450.57647 -3.83929,1.78571 c 0,0 -1.41872,6.40825 -1.96428,9.64286 -0.48443,2.87215 -0.88969,5.76063 -1.16072,8.66071 -0.26069,2.78942 -0.39615,5.59174 -0.44643,8.39286 -0.031,1.72617 0.0893,5.17857 0.0893,5.17857 l 4.28571,-3.03571 c 0,0 -0.025,-5.60202 0.17858,-8.39286 0.15711,-2.15381 0.53405,-4.28592 0.80357,-6.42857 0.29579,-2.35142 0.54013,-4.71001 0.89285,-7.05357 0.28328,-1.88217 0.75874,-3.73479 0.98215,-5.625 0.056,-0.47382 0.0893,-1.42857 0.0893,-1.42857"
             style="fill:#000000;fill-opacity:0.31555553;stroke:none" />
          <path
             sodipodi:nodetypes="ccssssssssccsssssscssscc"
             id="path3701"
             d="m 379.01786,527.18361 2.23214,-2.32143 c 0,0 3.32503,-0.54417 5,-0.71428 0.97891,-0.0994 1.96267,-0.19783 2.94643,-0.17858 1.19619,0.0234 2.52363,0.93466 3.57143,0.35715 0.64111,-0.35336 0.81692,-1.25113 0.98214,-1.96429 0.80608,-3.4794 -0.11796,-7.14284 -0.0893,-10.71428 0.0392,-4.88225 0.32852,-9.76054 0.35715,-14.64286 0.0276,-4.70268 -0.28113,-9.4055 -0.17857,-14.10714 0.0923,-4.23189 0.59519,-8.44736 0.71428,-12.67858 0.15072,-5.35502 0,-16.07142 0,-16.07142 l 2.14286,-1.51786 c 0,0 -0.0361,9.40497 -0.0893,14.10714 -0.062,5.47657 -0.18381,10.9523 -0.26785,16.42857 -0.0635,4.13685 -0.12948,8.27368 -0.17858,12.41072 -0.0378,3.18444 -0.0602,6.36904 -0.0893,9.55357 -0.0305,3.33333 -0.0744,6.66657 -0.0893,10 -0.0152,3.39282 0.0941,6.78702 0,10.17857 -0.0149,0.53633 -0.0893,1.60714 -0.0893,1.60714 0,0 -3.01594,-0.72503 -4.55357,-0.89285 -1.24297,-0.13566 -2.50192,-0.16467 -3.75,-0.0893 -1.65112,0.0997 -3.27392,0.47548 -4.91072,0.71429 -1.22031,0.17804 -3.66071,0.53571 -3.66071,0.53571 l 7e-5,1e-5 z"
             style="fill:#000000;fill-opacity:0.31555553;stroke:none" />
          <path
             sodipodi:nodetypes="ccscscscscscscsscscsscscsccss"
             id="path3674-0"
             d="m 348.57143,483.79075 c 0,0 0.35714,-2.14285 0.35714,-2.14285 0,0 0.5879,-13.84437 1.42857,-20.71429 0.49924,-4.07973 2.14286,-12.14286 2.14286,-12.14286 0,0 9.63174,-1.00809 14.28571,0 1.40586,0.30452 3.92858,1.78572 3.92858,1.78572 0,0 -2.67745,16.37641 -3.21429,24.64286 -0.13115,2.01955 0,6.07142 0,6.07142 0,0 5.26866,0.39899 7.85714,0 2.34432,-0.36136 6.78572,-2.14285 6.78572,-2.14285 0,0 0.64029,-12.14767 1.07143,-18.21429 0.20324,-2.85983 0.71428,-8.57143 0.71428,-8.57143 0,0 4.03406,-0.75452 6.07143,-0.71428 2.28948,0.0452 6.78571,1.07143 6.78571,1.07143 0,0 -0.22805,21.42868 -0.35714,32.14285 -0.11045,9.16677 -0.29762,18.33275 -0.35714,27.5 -0.0317,4.88085 0,14.64286 0,14.64286 0,0 -4.4959,-1.04906 -6.78572,-1.07143 -3.4849,-0.034 -10.35714,1.42857 -10.35714,1.42857 0,0 -1.07666,-8.31806 -1.07143,-12.5 0.005,-4.06334 1.39002,-8.09202 1.07143,-12.14285 -0.11545,-1.46801 -1.07143,-4.28572 -1.07143,-4.28572 0,0 -4.78031,-1.09379 -7.14285,-0.71428 -2.31529,0.37192 -6.42858,2.85714 -6.42858,2.85714 0,0 0.61842,13.64086 -0.35714,20.35714 -0.31969,2.2009 -1.78571,6.42857 -1.78571,6.42857 l -13.21429,0.35715 c 0,0 -0.29762,-23.57098 -0.35714,-35.35715 -0.0144,-2.85711 0,-8.57143 0,-8.57143 z"
             style="fill:none;stroke:#000000;stroke-opacity:1" />
        </g>
        <g
           id="g3984">
          <path
             sodipodi:nodetypes="cssscssccscccscscccssccss"
             id="path3676"
             d="m 401.07143,524.50504 c 0,0 -0.53541,-15.23925 -0.35714,-22.85714 0.13395,-5.72387 0.66987,-11.43152 1.07142,-17.14286 0.53599,-7.62344 1.61103,-15.21687 1.78572,-22.85714 0.0844,-3.69143 -0.35714,-11.07143 -0.35714,-11.07143 0,0 4.50169,-0.90714 6.78571,-1.07143 9.14381,-0.65773 18.68128,-2.14727 27.5,0.35714 2.00327,0.5689 5.35714,3.21429 5.35714,3.21429 l 1.78572,20.35714 c 0,0 -8.5466,1.41039 -12.85715,1.78572 -3.32288,0.28933 -9.99999,0.35714 -9.99999,0.35714 l 0.35714,3.92857 12.5,1.78571 c 0,0 0.39275,4.7592 0.35714,7.14286 -0.0446,2.98537 -0.71429,8.92857 -0.71429,8.92857 0,0 -5.95059,0.29761 -8.92857,0.35715 -1.19024,0.0238 -3.57142,0 -3.57142,0 l 0.71428,4.64285 16.78571,0.35715 c 0,0 3.15541,6.25926 3.92858,9.64285 0.85028,3.72105 0.75383,7.61182 0.71428,11.42857 -0.0148,1.43345 -0.35714,4.28572 -0.35714,4.28572 l -7.5,-1.78572 c 0,0 -18.84408,2.59399 -27.85714,0.35715 -1.44775,-0.3593 -3.92858,-2.14286 -3.92858,-2.14286"
             style="fill:#a9ddd0;fill-opacity:1;stroke:none" />
          <path
             sodipodi:nodetypes="cssssssscsssccsssscssssssscc"
             id="path3703"
             d="m 401.07143,524.41575 c 0,0 1.85864,-1.72643 3.03571,-2.05357 1.09116,-0.30327 2.2927,-0.0902 3.39286,0.17857 0.69868,0.17069 1.26724,0.71564 1.96429,0.89286 1.61939,0.41172 3.33101,0.27706 5,0.35714 3.62787,0.17408 7.2616,0.3441 10.89285,0.26786 2.23661,-0.047 4.46336,-0.31219 6.69643,-0.44643 1.66605,-0.10016 3.33257,-0.34159 5,-0.26786 0.84097,0.0372 2.5,0.35715 2.5,0.35715 0,0 1.01303,-0.77648 1.25,-1.33929 0.75151,-1.78482 0.52186,-3.88372 0.26786,-5.80357 -0.29505,-2.2301 -1.22195,-4.3384 -2.05357,-6.42857 -0.63482,-1.59554 -2.23215,-4.64286 -2.23215,-4.64286 l 2.32143,-2.76786 c 0,0 1.92151,3.63074 2.67857,5.53572 0.65701,1.65324 1.28251,3.34015 1.60715,5.08928 0.26662,1.43653 0.18732,2.91616 0.26785,4.375 0.10018,1.81491 0.34252,3.63029 0.26786,5.44643 -0.0653,1.58974 -0.625,4.73215 -0.625,4.73215 0,0 -3.82272,-0.83987 -5.71428,-1.33929 -0.50991,-0.13463 -0.99099,-0.42306 -1.51786,-0.44643 -1.51608,-0.0672 -2.96163,0.68069 -4.46429,0.89286 -1.7743,0.25052 -3.56831,0.34147 -5.35714,0.44643 -2.61607,0.1535 -5.23697,0.31342 -7.85714,0.26785 -2.59504,-0.0451 -5.20326,-0.13682 -7.76786,-0.53571 -1.36234,-0.21189 -2.78351,-0.36793 -4.01786,-0.98214 -0.92801,-0.46178 -2.41071,-1.96429 -2.41071,-1.96429 l -2.67857,0.35714"
             style="fill:#000000;fill-opacity:0.31555553;stroke:none" />
          <path
             sodipodi:nodetypes="ccsscscsccssscsscs"
             id="path3705"
             d="M 422.41071,502.2729 420,504.41575 c 0,0 -1.13795,-3.04992 -1.42857,-4.64285 -0.2569,-1.40812 -0.55309,-2.88307 -0.26786,-4.28572 0.11935,-0.58693 0.80357,-1.60714 0.80357,-1.60714 0,0 4.57658,0.5057 6.875,0.53571 1.72835,0.0226 5.17857,-0.26785 5.17857,-0.26785 0,0 0.26427,-4.64524 0.44643,-6.96429 0.10065,-1.28134 0.35715,-3.83929 0.35715,-3.83929 l 2.41071,-2.05357 c 0,0 0.37194,3.08989 0.44643,4.64286 0.0656,1.36747 0.0446,2.73882 0,4.10714 -0.0447,1.37123 -0.14302,2.74088 -0.26786,4.10715 -0.0927,1.01466 -0.35714,3.03571 -0.35714,3.03571 0,0 -2.79564,0.26421 -4.19643,0.35714 -1.24867,0.0828 -2.49894,0.1488 -3.75,0.17857 -1.51743,0.0361 -4.55357,0 -4.55357,0 l 0.53571,4.01786"
             style="fill:#000000;fill-opacity:0.31555553;stroke:none" />
          <path
             sodipodi:nodetypes="ccscsssssssccscssccc"
             id="path3707"
             d="m 422.05357,479.32648 -2.85714,1.96427 c 0,0 -0.19892,-2.61782 -0.26786,-3.92857 -0.0845,-1.60603 -0.17857,-4.82143 -0.17857,-4.82143 0,0 3.1549,0.0213 4.73214,0 2.20299,-0.0298 4.40968,-0.0199 6.60715,-0.17857 2.03247,-0.14672 4.05072,-0.45112 6.07142,-0.71428 1.25212,-0.16307 2.63126,0.0498 3.75,-0.53572 0.50378,-0.26366 0.97434,-0.71281 1.16072,-1.25 0.6068,-1.74895 -0.27723,-3.69223 -0.44643,-5.53571 -0.18595,-2.02599 -0.3881,-4.05076 -0.625,-6.07143 -0.13282,-1.13294 -0.44643,-3.39286 -0.44643,-3.39286 l 3.03572,-1.78571 c 0,0 0.7844,7.79658 1.16071,11.69643 0.27562,2.8564 0.80357,8.57142 0.80357,8.57142 0,0 -3.98567,0.66989 -5.98214,0.98215 -2.19984,0.34407 -4.38936,0.78439 -6.60714,0.98214 -1.95742,0.17454 -5.89286,0.17857 -5.89286,0.17857 l -4.28572,0.0893 0.26786,3.75 z"
             style="fill:#000000;fill-opacity:0.31555553;stroke:none" />
          <path
             sodipodi:nodetypes="ccssscssccscccscscccssccss"
             id="path3676-2"
             d="m 404.28571,524.50504 c 0,0 -3.21428,0 -3.21428,0 0,0 -0.53541,-15.23925 -0.35714,-22.85714 0.13395,-5.72387 0.66987,-11.43152 1.07142,-17.14286 0.53599,-7.62344 1.61103,-15.21687 1.78572,-22.85714 0.0844,-3.69143 -0.35714,-11.07143 -0.35714,-11.07143 0,0 4.50169,-0.90714 6.78571,-1.07143 9.14381,-0.65773 18.68128,-2.14727 27.5,0.35714 2.00327,0.5689 5.35714,3.21429 5.35714,3.21429 l 1.78572,20.35714 c 0,0 -8.5466,1.41039 -12.85715,1.78572 -3.32288,0.28933 -9.99999,0.35714 -9.99999,0.35714 l 0.35714,3.92857 12.5,1.78571 c 0,0 0.39275,4.7592 0.35714,7.14286 -0.0446,2.98537 -0.71429,8.92857 -0.71429,8.92857 0,0 -5.95059,0.29761 -8.92857,0.35715 -1.19024,0.0238 -3.57142,0 -3.57142,0 l 0.71428,4.64285 16.78571,0.35715 c 0,0 3.15541,6.25926 3.92858,9.64285 0.85028,3.72105 0.75383,7.61182 0.71428,11.42857 -0.0148,1.43345 -0.35714,4.28572 -0.35714,4.28572 l -7.5,-1.78572 c 0,0 -18.84408,2.59399 -27.85714,0.35715 -1.44775,-0.3593 -3.92858,-2.14286 -3.92858,-2.14286 z"
             style="fill:none;stroke:#000000;stroke-opacity:1" />
        </g>
      </g>
      <g
         id="g4010">
        <path
           style="fill:#a9ddd0;fill-opacity:1;stroke:none"
           d="m 215.34375,533.78125 c -4.24429,0.2038 -12.5,2.5 -12.5,2.5 0,0 0.46279,9.29081 0.375,13.9375 -0.17352,9.18424 -1.00666,18.34684 -1.78125,27.5 -0.77719,9.1838 -2.875,27.5 -2.875,27.5 0,0 1.12092,1.05527 1.78125,1.4375 1.99228,1.15321 4.20554,1.93661 6.4375,2.5 4.65141,1.1741 9.49536,2.11192 14.28125,1.78125 3.69041,-0.25498 7.43767,-1.16659 10.71875,-2.875 4.26934,-2.22298 7.73306,-5.80508 11.0625,-9.28125 3.52502,-3.68037 6.98292,-7.59246 9.3125,-12.125 2.05013,-3.98883 3.4645,-8.41197 3.90625,-12.875 0.71854,-7.25941 0.54001,-14.99059 -2.125,-21.78125 -1.58312,-4.03392 -4.49461,-7.63234 -7.875,-10.34375 -3.78482,-3.03581 -8.53837,-4.81505 -13.21875,-6.09375 -5.65618,-1.5453 -11.64327,-2.06247 -17.5,-1.78125 z m 11.09375,20.375 c 3.04905,0.0264 6.31089,1.16262 8.5625,3.21875 2.82792,2.5824 3.95524,6.65941 5,10.34375 0.94558,3.33458 2.06607,7.02616 1.0625,10.34375 -1.02838,3.39959 -3.94939,6.07507 -6.78125,8.21875 -2.59565,1.96487 -5.78778,3.11448 -8.9375,3.9375 -1.15426,0.30161 -2.41796,0.68037 -3.5625,0.34375 C 221.05551,590.34905 220,589.15625 220,589.15625 l 1.4375,-33.21875 c 0,0 3.2308,-1.79659 5,-1.78125 z"
           id="path3680"
           sodipodi:nodetypes="ccsscssssssssssscssssssccs" />
        <path
           style="fill:#000000;fill-opacity:0.31555553;stroke:none"
           d="m 198.36871,605.11714 c 0,0 3.70908,0.0904 5.55584,0.25254 3.89009,0.3415 7.71313,1.40963 11.61675,1.51523 2.78486,0.0753 5.63555,0.062 8.33376,-0.63135 4.03163,-1.03606 7.87814,-2.90223 11.36421,-5.17703 2.64625,-1.72678 4.93977,-3.98064 7.07107,-6.31345 2.33365,-2.55429 4.56424,-5.27822 6.18719,-8.33376 1.54859,-2.91554 2.22828,-6.21563 3.28299,-9.34391 0.91854,-2.72439 2.20426,-5.36745 2.65165,-8.20749 0.49777,-3.15985 0.34658,-6.41646 10e-6,-9.59645 -0.31754,-2.91366 -1.01891,-5.7891 -1.89405,-8.5863 -0.52978,-1.69333 -2.0203,-4.92449 -2.0203,-4.92449 0,0 2.23272,3.43006 3.03046,5.3033 0.87667,2.0586 1.44087,4.2486 1.89404,6.43972 0.42083,2.03474 0.61155,4.11453 0.75761,6.18719 0.15684,2.22563 0.24681,4.46437 0.12627,6.69226 -0.10775,1.99136 -0.3587,3.98068 -0.75762,5.93465 -0.46375,2.27152 -1.08845,4.51835 -1.89403,6.69226 -0.66089,1.78345 -1.46899,3.51801 -2.39911,5.17703 -0.89056,1.58846 -1.94517,3.08333 -3.03046,4.54568 -1.10483,1.48867 -2.26935,2.93906 -3.53554,4.29315 -1.38286,1.47886 -2.92407,2.80185 -4.41941,4.16688 -1.78383,1.62838 -3.47214,3.38326 -5.42957,4.79823 -1.42164,1.02767 -2.92404,1.98275 -4.54569,2.65165 -2.01016,0.82916 -4.169,1.2815 -6.31345,1.64149 -2.12346,0.35646 -4.2866,0.51842 -6.43973,0.50508 -2.32443,-0.0144 -4.66023,-0.20239 -6.94479,-0.63134 -2.53994,-0.4769 -5.02779,-1.24536 -7.44988,-2.14658 -0.85291,-0.31735 -1.69234,-0.68597 -2.47942,-1.14277 -0.53489,-0.31043 -1.5102,-1.07777 -1.5102,-1.07777"
           id="path3709"
           sodipodi:nodetypes="csssssssssscssssssssssssssssss" />
        <path
           style="fill:#000000;fill-opacity:0.31555553;stroke:none"
           d="m 221.60221,590.46993 c 0,0 -2.09876,0.14676 -3.03045,-0.25254 -0.46585,-0.19965 -1.13642,-1.01015 -1.13642,-1.01015 0,0 0.46686,-11.02938 0.75761,-16.54125 0.14881,-2.82111 0.42086,-5.63625 0.50508,-8.46003 0.10414,-3.49189 0,-10.48033 0,-10.48033 0,0 2.89788,-1.0832 4.41941,-1.26269 1.92461,-0.22704 3.91979,-0.18206 5.80839,0.25254 1.34109,0.30861 2.68061,0.82461 3.78806,1.6415 1.24913,0.9214 3.03046,3.53553 3.03046,3.53553 0,0 -2.92633,-2.46015 -4.67196,-3.15673 -1.42673,-0.56933 -3.01714,-0.91007 -4.54568,-0.75761 -1.88236,0.18776 -5.3033,2.02031 -5.3033,2.02031 0,0 -0.2258,7.9138 -0.37881,11.86929 -0.10749,2.77871 -0.25935,5.55554 -0.37881,8.33376 -0.13391,3.11432 -0.26195,6.22891 -0.3788,9.34391 -0.0458,1.22047 -0.12627,3.6618 -0.12627,3.6618 l 1.64149,1.26269 z"
           id="path3711"
           sodipodi:nodetypes="cscsscssscsscssscc" />
        <path
           style="fill:none;stroke:#000000;stroke-opacity:1"
           d="m 215.34375,533.78125 c -4.24429,0.2038 -12.5,2.5 -12.5,2.5 0,0 0.46279,9.29081 0.375,13.9375 -0.17352,9.18424 -1.00666,18.34684 -1.78125,27.5 -0.77719,9.1838 -2.875,27.5 -2.875,27.5 0,0 1.12092,1.05527 1.78125,1.4375 1.99228,1.15321 4.20554,1.93661 6.4375,2.5 4.65141,1.1741 9.49536,2.11192 14.28125,1.78125 3.69041,-0.25498 7.43767,-1.16659 10.71875,-2.875 4.26934,-2.22298 7.73306,-5.80508 11.0625,-9.28125 3.52502,-3.68037 6.98292,-7.59246 9.3125,-12.125 2.05013,-3.98883 3.4645,-8.41197 3.90625,-12.875 0.71854,-7.25941 0.54001,-14.99059 -2.125,-21.78125 -1.58312,-4.03392 -4.49461,-7.63234 -7.875,-10.34375 -3.78482,-3.03581 -8.53837,-4.81505 -13.21875,-6.09375 -5.65618,-1.5453 -11.64327,-2.06247 -17.5,-1.78125 z m 11.09375,20.375 c 3.04905,0.0264 6.31089,1.16262 8.5625,3.21875 2.82792,2.5824 3.95524,6.65941 5,10.34375 0.94558,3.33458 2.06607,7.02616 1.0625,10.34375 -1.02838,3.39959 -3.94939,6.07507 -6.78125,8.21875 -2.59565,1.96487 -5.78778,3.11448 -8.9375,3.9375 -1.15426,0.30161 -2.41796,0.68037 -3.5625,0.34375 C 221.05551,590.34905 220,589.15625 220,589.15625 l 1.4375,-33.21875 c 0,0 3.2308,-1.79659 5,-1.78125 z"
           id="path3680-7"
           sodipodi:nodetypes="ccsscssssssssssscssssssccs" />
      </g>
      <g
         id="g4016">
        <path
           style="fill:#a9ddd0;fill-opacity:1;stroke:none"
           d="m 269.28571,610.57647 c 0,0 0.25683,-8.80906 0.35715,-13.21429 0.14638,-6.42801 0.1972,-12.85803 0.35714,-19.28571 0.18962,-7.62041 0.41815,-15.24013 0.71429,-22.85714 0.19909,-5.12072 0.71428,-15.35715 0.71428,-15.35715 0,0 9.26709,-1.77808 13.92857,-2.5 5.45752,-0.8452 10.90912,-1.95709 16.42857,-2.14285 3.8148,-0.12839 7.65662,0.12993 11.42858,0.71428 3.39542,0.52602 10,2.5 10,2.5 0,0 -0.42834,7.89372 -1.07143,11.78572 -0.57898,3.50402 -2.5,10.35714 -2.5,10.35714 0,0 -7.59971,1.14746 -11.42857,1.42857 -5.34408,0.39235 -16.07143,0.35714 -16.07143,0.35714 l -1.07143,5.35715 c 0,0 5.57839,-1.4927 8.21428,-0.71429 1.30178,0.38443 3.21429,2.5 3.21429,2.5 0,0 1.41339,5.32192 0.71429,7.85714 -0.43044,1.56096 -2.85715,3.92857 -2.85715,3.92857 0,0 -5.65133,0.94342 -8.21428,2.14286 -0.92754,0.43408 -2.5,1.78572 -2.5,1.78572 0,0 0.0759,0.82115 0.35714,1.07142 2.18018,1.9402 5.67502,1.42738 8.57143,1.78572 5.79402,0.71684 17.5,0.71428 17.5,0.71428 0,0 0.92385,5.21798 1.07143,7.85715 0.27924,4.99362 -0.35715,15 -0.35715,15 0,0 -3.48363,1.60395 -5.35714,1.78571 -3.70368,0.35932 -7.35801,-1.18998 -11.07143,-1.42857 -6.53414,-0.41982 -13.16802,0.9736 -19.64285,0 -1.60122,-0.24077 -4.64286,-1.42857 -4.64286,-1.42857"
           id="path3685"
           sodipodi:nodetypes="cssscssscscsccscscscsscscssss" />
        <path
           style="fill:#000000;fill-opacity:0.31555553;stroke:none"
           d="m 269.33192,610.42044 3.78807,-2.52538 c 0,0 3.29579,0.0314 4.9245,0.25254 1.53808,0.20884 3.0014,0.85364 4.54568,1.01015 2.51286,0.25467 5.05042,-0.12229 7.57615,-0.12627 3.11492,-0.005 6.2371,-0.0983 9.34391,0.12627 1.60899,0.11632 3.19783,0.42848 4.79822,0.63135 1.72466,0.21862 3.44006,0.70318 5.17704,0.63134 1.24539,-0.0515 3.6618,-0.75761 3.6618,-0.75761 0,0 1.04376,-1.25694 1.26269,-2.02031 0.59177,-2.06339 0,-4.29315 0,-6.43972 0,-2.27284 0.2078,-4.55521 0,-6.81853 -0.10567,-1.1509 -0.63135,-3.40926 -0.63135,-3.40926 l 2.14658,-2.27285 c 0,0 0.93047,3.50717 1.13642,5.3033 0.27814,2.42567 0.21588,4.88369 0.12627,7.32361 -0.0683,1.85833 -0.44662,3.69718 -0.50508,5.55584 -0.0477,1.51507 0.12627,4.54569 0.12627,4.54569 0,0 -2.17104,0.89082 -3.28299,1.26269 -0.87179,0.29155 -1.73453,0.69496 -2.65165,0.75761 -1.78156,0.12169 -3.53512,-0.50795 -5.3033,-0.75761 -1.80944,-0.25549 -3.6082,-0.60936 -5.42957,-0.75762 -1.76244,-0.14347 -3.53616,-0.18916 -5.30331,-0.12627 -1.77464,0.0632 -3.52954,0.42081 -5.3033,0.50508 -1.72373,0.0819 -3.4535,0.086 -5.17703,0 -1.68988,-0.0843 -3.41438,-0.0749 -5.05076,-0.50508 -1.11181,-0.2923 -2.0357,-1.1343 -3.15673,-1.38896 -1.27302,-0.28919 -3.91434,-0.12627 -3.91434,-0.12627"
           id="path3713"
           sodipodi:nodetypes="ccsssssscsssccssscssssssssss" />
        <path
           style="fill:#000000;fill-opacity:0.31555553;stroke:none"
           d="m 289.53497,585.41917 -3.28299,1.13642 c 0,0 1.38255,-2.50731 2.28887,-3.60484 0.91617,-1.10946 1.8463,-2.33282 3.1407,-2.96115 1.79925,-0.87339 4.13896,-0.003 5.93464,-0.88389 1.25617,-0.6161 2.3973,-1.65652 3.03046,-2.90418 0.86472,-1.70394 0.78876,-3.77157 0.75762,-5.68211 -0.0125,-0.76796 -0.37881,-2.27284 -0.37881,-2.27284 0,0 1.18491,0.69423 1.51523,1.26269 0.60146,1.03509 0.48967,2.34679 0.63134,3.53553 0.16467,1.38173 0.60272,2.82015 0.25254,4.16688 -0.31439,1.20909 -1.20907,2.20666 -2.0203,3.15673 -0.32911,0.38544 -0.6772,0.79571 -1.13643,1.01015 -1.04093,0.48606 -2.28312,0.27791 -3.40926,0.50507 -1.66114,0.33507 -3.44117,0.4433 -4.92449,1.2627 -0.96425,0.53266 -2.39912,2.27284 -2.39912,2.27284 z"
           id="path3715"
           sodipodi:nodetypes="ccssssscsssssssc" />
        <path
           style="fill:#000000;fill-opacity:0.31555553;stroke:none"
           d="m 291.17647,567.48896 -3.53553,1.76777 c 0,0 0.6398,-3.44348 0.88388,-5.17703 0.21256,-1.50966 0.50508,-4.54569 0.50508,-4.54569 0,0 2.83142,-0.85326 4.29315,-1.01015 2.42762,-0.26057 4.88226,0.15944 7.3236,0.12627 1.89573,-0.0258 3.78952,-0.14041 5.68211,-0.25254 2.27508,-0.13479 4.56381,-0.17283 6.81853,-0.50508 1.1517,-0.16971 3.40926,-0.75761 3.40926,-0.75761 0,0 1.06673,-1.96701 1.38896,-3.03046 0.61803,-2.03967 0.69452,-4.2057 1.01016,-6.31345 0.27064,-1.80724 0.51058,-3.61895 0.75761,-5.42957 0.0861,-0.63109 0.25254,-1.89404 0.25254,-1.89404 l 3.03046,-2.02031 c 0,0 -0.15742,4.88919 -0.37881,7.32361 -0.17683,1.9445 -0.36601,3.89553 -0.75762,5.80838 -0.28062,1.3707 -0.78572,2.68615 -1.13642,4.04061 -0.412,1.59118 -1.13642,4.79822 -1.13642,4.79822 0,0 -4.11018,0.84827 -6.18718,1.13642 -2.2194,0.30791 -4.45533,0.50221 -6.69226,0.63135 -1.97538,0.11404 -3.95642,0.0846 -5.93465,0.12627 -2.02029,0.0425 -4.04035,0.1533 -6.06091,0.12627 -0.88481,-0.0118 -2.65166,-0.12627 -2.65166,-0.12627 l -0.88388,5.17703 z"
           id="path3717"
           sodipodi:nodetypes="ccscsssscsssccssscsssscc" />
        <path
           style="fill:none;stroke:#000000;stroke-opacity:1"
           d="m 276.07143,610.57647 c 0,0 -6.78572,0 -6.78572,0 0,0 0.25683,-8.80906 0.35715,-13.21429 0.14638,-6.42801 0.1972,-12.85803 0.35714,-19.28571 0.18962,-7.62041 0.41815,-15.24013 0.71429,-22.85714 0.19909,-5.12072 0.71428,-15.35715 0.71428,-15.35715 0,0 9.26709,-1.77808 13.92857,-2.5 5.45752,-0.8452 10.90912,-1.95709 16.42857,-2.14285 3.8148,-0.12839 7.65662,0.12993 11.42858,0.71428 3.39542,0.52602 10,2.5 10,2.5 0,0 -0.42834,7.89372 -1.07143,11.78572 -0.57898,3.50402 -2.5,10.35714 -2.5,10.35714 0,0 -7.59971,1.14746 -11.42857,1.42857 -5.34408,0.39235 -16.07143,0.35714 -16.07143,0.35714 l -1.07143,5.35715 c 0,0 5.57839,-1.4927 8.21428,-0.71429 1.30178,0.38443 3.21429,2.5 3.21429,2.5 0,0 1.41339,5.32192 0.71429,7.85714 -0.43044,1.56096 -2.85715,3.92857 -2.85715,3.92857 0,0 -5.65133,0.94342 -8.21428,2.14286 -0.92754,0.43408 -2.5,1.78572 -2.5,1.78572 0,0 0.0759,0.82115 0.35714,1.07142 2.18018,1.9402 5.67502,1.42738 8.57143,1.78572 5.79402,0.71684 17.5,0.71428 17.5,0.71428 0,0 0.92385,5.21798 1.07143,7.85715 0.27924,4.99362 -0.35715,15 -0.35715,15 0,0 -3.48363,1.60395 -5.35714,1.78571 -3.70368,0.35932 -7.35801,-1.18998 -11.07143,-1.42857 -6.53414,-0.41982 -13.16802,0.9736 -19.64285,0 -1.60122,-0.24077 -4.64286,-1.42857 -4.64286,-1.42857 z"
           id="path3685-8"
           sodipodi:nodetypes="ccssscssscscsccscscscsscscssss" />
      </g>
      <g
         id="g4023">
        <path
           style="fill:#a9ddd0;fill-opacity:1;stroke:none"
           d="m 422.5,537.00504 c 0,0 9.07192,0.189 13.57143,0.71429 3.96604,0.46301 7.80019,1.89898 11.78571,2.14285 6.18919,0.37871 12.37323,-0.89278 18.57143,-1.07143 3.80794,-0.10975 11.42857,0 11.42857,0 0,0 2.55251,5.08701 2.85715,7.85715 0.30185,2.74474 -1.07143,8.21428 -1.07143,8.21428 0,0 -6.31549,2.44816 -9.64286,2.85715 -2.72021,0.33436 -8.21429,-0.35715 -8.21429,-0.35715 0,0 0.70888,14.99622 0.71429,22.5 0.003,3.93038 -0.35714,11.78572 -0.35714,11.78572 0,0 5.47692,0.96064 8.21428,0.71428 1.35189,-0.12167 3.92857,-1.07143 3.92857,-1.07143 0,0 4.21288,3.627 5.35715,6.07143 1.3277,2.83628 1.76384,6.17206 1.42857,9.28572 -0.17752,1.64861 -1.78572,4.64285 -1.78572,4.64285 0,0 -8.33206,0.29762 -12.5,0.35715 -4.76142,0.068 -9.52409,-0.0518 -14.28571,0 -5.47716,0.0595 -10.96941,-0.0905 -16.42857,0.35714 -5.03387,0.41277 -15,2.14286 -15,2.14286 0,0 -1.07002,-5.93593 -1.42857,-8.92857 -0.35518,-2.9645 -0.71429,-8.92858 -0.71429,-8.92858 0,0 3.07494,-2.74537 5,-3.21428 3.71753,-0.90553 7.95594,2.67793 11.42857,1.07143 1.31887,-0.61013 2.5,-3.57143 2.5,-3.57143 0,0 -0.37133,-12.86189 -0.71428,-19.28572 -0.27357,-5.12419 -1.07143,-15.35714 -1.07143,-15.35714 l -15.71429,1.07143 c 0,0 -0.25481,-9.08762 0.35715,-13.57143 0.0664,-0.48634 0.35714,-1.42857 0.35714,-1.42857"
           id="path3687"
           sodipodi:nodetypes="cssscscscscscsscssscscsscsccss" />
        <path
           style="fill:#000000;fill-opacity:0.31555553;stroke:none"
           d="m 421.10734,613.95598 3.66181,-3.283 c 0,0 4.08751,-1.19905 6.18718,-1.51523 2.83508,-0.42692 5.71956,-0.46299 8.5863,-0.50507 4.29454,-0.063 8.58544,0.28584 12.87944,0.3788 3.03004,0.0656 6.06069,0.10522 9.09137,0.12627 3.7038,0.0257 7.40998,0.12749 11.11168,0 1.22278,-0.0421 2.53748,0.22999 3.66181,-0.25254 0.62963,-0.27022 1.51522,-1.38895 1.51522,-1.38895 0,0 0.66305,-3.80527 0.37881,-5.68211 -0.26335,-1.7389 -1.18427,-3.31535 -1.89403,-4.9245 -0.56973,-1.29166 -1.44393,-2.45002 -1.89404,-3.78807 -0.21846,-0.64941 -0.37881,-2.0203 -0.37881,-2.0203 0,0 1.63068,1.56931 2.39911,2.39911 0.79098,0.85416 1.64123,1.67375 2.27285,2.65165 0.80706,1.24952 1.50314,2.60539 1.89403,4.04061 0.35549,1.30523 0.37881,2.68783 0.37881,4.04061 0,1.35278 -0.0418,2.73049 -0.37881,4.04061 -0.263,1.02232 -1.26269,2.90419 -1.26269,2.90419 0,0 -4.12449,0.17607 -6.18718,0.25254 -2.52505,0.0936 -5.04971,0.21044 -7.57615,0.25253 -2.6092,0.0435 -5.21922,0.0233 -7.82868,0 -2.35731,-0.021 -4.71367,-0.12422 -7.07107,-0.12626 -2.6099,-0.002 -5.22101,0.0184 -7.82868,0.12626 -3.16103,0.13078 -6.32362,0.30218 -9.47018,0.63135 -2.36803,0.24772 -4.71071,0.69766 -7.07107,1.01015 -1.72342,0.22816 -5.17703,0.63135 -5.17703,0.63135 z"
           id="path3719"
           sodipodi:nodetypes="ccsssssscssscssssscsssssssc" />
        <path
           style="fill:#000000;fill-opacity:0.31555553;stroke:none"
           d="m 462.01852,591.48008 -2.65165,2.39912 c 0,0 0.0437,-6.48259 0.12627,-9.72272 0.0848,-3.3264 0.33977,-6.64801 0.37881,-9.97526 0.0341,-2.90429 -0.0315,-5.80962 -0.12627,-8.71256 -0.0812,-2.48518 -0.31565,-4.96418 -0.37881,-7.44988 -0.031,-1.22021 0,-3.6618 0,-3.6618 0,0 0.76591,-0.75286 1.26269,-0.88389 0.85852,-0.22645 1.76797,0.16628 2.65165,0.25254 1.68398,0.16439 3.359,0.5329 5.05076,0.50508 1.91054,-0.0314 3.85947,-0.18392 5.68211,-0.75762 1.31081,-0.4126 3.66181,-1.89403 3.66181,-1.89403 0,0 0.74225,-3.3577 0.63134,-5.05076 -0.1308,-1.99664 -1.51523,-5.80838 -1.51523,-5.80838 l 1.01015,-2.02031 c 0,0 1.09823,2.15217 1.51523,3.283 0.48408,1.31272 0.9236,2.65777 1.13642,4.04061 0.20497,1.33185 0.23809,2.69773 0.12627,4.04061 -0.12466,1.49713 -0.88388,4.41942 -0.88388,4.41942 0,0 -2.23822,1.09664 -3.40926,1.51523 -1.64421,0.58772 -3.32711,1.10996 -5.05077,1.38896 -1.58104,0.25592 -3.1966,0.25367 -4.79822,0.25253 -1.55959,-10e-4 -4.67196,-0.25253 -4.67196,-0.25253 0,0 0.0569,4.54635 0.12627,6.81852 0.0604,1.97908 0.19104,3.9556 0.25254,5.93465 0.0667,2.14595 0.10522,4.29284 0.12627,6.43972 0.0144,1.47307 0.0157,2.94636 0,4.41942 -0.0211,1.97855 -0.0777,3.95658 -0.12627,5.93465 -0.0372,1.51536 -0.12627,4.54568 -0.12627,4.54568 z"
           id="path3721"
           sodipodi:nodetypes="ccsssscsssscsccssscssscsssssc" />
        <path
           style="fill:#000000;fill-opacity:0.31555553;stroke:none"
           d="m 420.22346,556.75609 3.40926,-2.90419 c 0,0 3.02916,-0.26921 4.54569,-0.37881 2.06088,-0.14894 4.1263,-0.22986 6.18718,-0.3788 1.51653,-0.1096 4.54569,-0.37881 4.54569,-0.37881 l -2.77792,3.15673 c 0,0 -5.81382,0.26018 -8.71256,0.50507 -1.51914,0.12834 -4.54569,0.50508 -4.54569,0.50508"
           id="path3723"
           sodipodi:nodetypes="ccaaccss" />
        <path
           style="fill:none;stroke:#000000;stroke-opacity:1"
           d="m 421.07143,542.00504 c 0,0 1.42857,-5 1.42857,-5 0,0 9.07192,0.189 13.57143,0.71429 3.96604,0.46301 7.80019,1.89898 11.78571,2.14285 6.18919,0.37871 12.37323,-0.89278 18.57143,-1.07143 3.80794,-0.10975 11.42857,0 11.42857,0 0,0 2.55251,5.08701 2.85715,7.85715 0.30185,2.74474 -1.07143,8.21428 -1.07143,8.21428 0,0 -6.31549,2.44816 -9.64286,2.85715 -2.72021,0.33436 -8.21429,-0.35715 -8.21429,-0.35715 0,0 0.70888,14.99622 0.71429,22.5 0.003,3.93038 -0.35714,11.78572 -0.35714,11.78572 0,0 5.47692,0.96064 8.21428,0.71428 1.35189,-0.12167 3.92857,-1.07143 3.92857,-1.07143 0,0 4.21288,3.627 5.35715,6.07143 1.3277,2.83628 1.76384,6.17206 1.42857,9.28572 -0.17752,1.64861 -1.78572,4.64285 -1.78572,4.64285 0,0 -8.33206,0.29762 -12.5,0.35715 -4.76142,0.068 -9.52409,-0.0518 -14.28571,0 -5.47716,0.0595 -10.96941,-0.0905 -16.42857,0.35714 -5.03387,0.41277 -15,2.14286 -15,2.14286 0,0 -1.07002,-5.93593 -1.42857,-8.92857 -0.35518,-2.9645 -0.71429,-8.92858 -0.71429,-8.92858 0,0 3.07494,-2.74537 5,-3.21428 3.71753,-0.90553 7.95594,2.67793 11.42857,1.07143 1.31887,-0.61013 2.5,-3.57143 2.5,-3.57143 0,0 -0.37133,-12.86189 -0.71428,-19.28572 -0.27357,-5.12419 -1.07143,-15.35714 -1.07143,-15.35714 l -15.71429,1.07143 c 0,0 -0.25481,-9.08762 0.35715,-13.57143 0.0664,-0.48634 0.35714,-1.42857 0.35714,-1.42857 z"
           id="path3687-4"
           sodipodi:nodetypes="ccssscscscscscsscssscscsscsccss" />
      </g>
      <g
         id="g4030">
        <path
           style="fill:#a9ddd0;fill-opacity:1;stroke:none"
           d="m 490,540.21933 c 0,0 2.64245,-2.35961 4.28571,-2.85715 4.78546,-1.44892 15,0 15,0 0,0 1.50331,6.62573 1.78572,10 1.02273,12.21976 -2.42607,24.69903 -0.35714,36.78572 0.4702,2.74688 2.85714,7.85714 2.85714,7.85714 0,0 10.19143,-1.96889 15.35714,-2.14286 3.33993,-0.11248 6.65841,0.67465 10,0.71429 2.50266,0.0297 5.01608,-0.66422 7.5,-0.35714 5.30747,0.65615 15.35714,4.64285 15.35714,4.64285 0,0 1.41639,7.67674 0.71429,11.42857 -0.31353,1.67542 -2.14286,4.64286 -2.14286,4.64286 0,0 -16.42203,1.77401 -24.64285,1.42857 -4.20526,-0.1767 -8.29132,-1.83464 -12.5,-1.78571 -2.89636,0.0337 -5.68695,1.16435 -8.57143,1.42857 -6.75847,0.61908 -20.35715,0.35714 -20.35715,0.35714 0,0 -0.92778,-7.12792 -1.07142,-10.71428 -0.24303,-6.06773 0.44682,-12.14236 0.35714,-18.21429 -0.10737,-7.26989 -0.16331,-14.57197 -1.07143,-21.78571 -0.74361,-5.90695 -3.57143,-17.5 -3.57143,-17.5"
           id="path3689"
           sodipodi:nodetypes="cscsscssscscssscssss" />
        <path
           style="fill:#000000;fill-opacity:0.31555553;stroke:none"
           d="m 494.21713,612.06194 3.91434,-2.90419 c 0,0 5.48227,0.24076 8.20749,0 3.10878,-0.27465 6.11729,-1.28413 9.21765,-1.64149 3.14042,-0.36198 6.31207,-0.6451 9.47018,-0.50508 2.67594,0.11864 5.28776,0.88977 7.95495,1.13642 3.94319,0.36464 7.90936,0.53076 11.86929,0.50508 3.03507,-0.0197 6.07101,-0.20601 9.09137,-0.50508 1.48085,-0.14663 4.41942,-0.63134 4.41942,-0.63134 0,0 1.04994,-2.73123 1.26269,-4.16688 0.31466,-2.12339 0,-6.43973 0,-6.43973 l 2.02031,-2.14657 c 0,0 0.70887,4.11121 0.88388,6.18718 0.1344,1.59431 0.41802,3.22509 0.12627,4.79823 -0.34065,1.83682 -2.14658,5.17703 -2.14658,5.17703 0,0 -7.23971,0.58577 -10.85914,0.88388 -2.52558,0.20802 -5.04338,0.54786 -7.57614,0.63135 -2.44024,0.0804 -4.89342,0.10919 -7.32361,-0.12627 -1.91476,-0.18552 -3.77931,-0.72708 -5.6821,-1.01015 -2.09651,-0.31189 -4.19499,-0.82638 -6.31346,-0.75762 -2.52475,0.082 -4.94256,1.0816 -7.44987,1.38896 -2.80404,0.34374 -5.63625,0.42086 -8.46003,0.50508 -3.28154,0.0979 -6.57353,0.2223 -9.84899,0 -0.9324,-0.0633 -2.77792,-0.37881 -2.77792,-0.37881 z"
           id="path3725"
           sodipodi:nodetypes="ccsssssscsccsscssssssssc" />
        <path
           style="fill:#000000;fill-opacity:0.31555553;stroke:none"
           d="m 513.41003,591.98516 -2.77792,3.15673 c 0,0 -1.35025,-3.48729 -1.76777,-5.3033 -0.79894,-3.47506 -1.19291,-7.04628 -1.38895,-10.60661 -0.22913,-4.16142 0.13186,-8.33465 0.25253,-12.50063 0.0646,-2.23141 0.21044,-4.46032 0.25254,-6.69226 0.0635,-3.36658 0.1222,-6.73657 0,-10.10153 -0.0842,-2.31952 -0.37792,-4.62724 -0.50507,-6.9448 -0.0623,-1.13549 -0.12627,-3.40926 -0.12627,-3.40926 l 1.76776,-2.27285 c 0,0 0.75125,3.1844 1.01016,4.79823 0.30187,1.88163 0.48277,3.78222 0.63134,5.68211 0.14453,1.84821 0.21044,3.70245 0.25254,5.55583 0.0392,1.72523 0.0662,3.45263 0,5.17704 -0.0842,2.19351 -0.35243,4.37617 -0.50508,6.56599 -0.14076,2.01935 -0.29265,4.0385 -0.3788,6.06091 -0.0788,1.85075 -0.12676,3.70342 -0.12627,5.55584 4.8e-4,1.81035 -0.12867,3.63726 0.12627,5.42957 0.30048,2.11248 1.03023,4.14287 1.64149,6.18719 0.22877,0.76513 0.75762,2.27284 0.75762,2.27284"
           id="path3727"
           sodipodi:nodetypes="ccssssssccssssssssss" />
        <path
           style="fill:none;stroke:#000000;stroke-opacity:1"
           d="m 488.92857,544.1479 c 0,0 1.07143,-3.92857 1.07143,-3.92857 0,0 2.64245,-2.35961 4.28571,-2.85715 4.78546,-1.44892 15,0 15,0 0,0 1.50331,6.62573 1.78572,10 1.02273,12.21976 -2.42607,24.69903 -0.35714,36.78572 0.4702,2.74688 2.85714,7.85714 2.85714,7.85714 0,0 10.19143,-1.96889 15.35714,-2.14286 3.33993,-0.11248 6.65841,0.67465 10,0.71429 2.50266,0.0297 5.01608,-0.66422 7.5,-0.35714 5.30747,0.65615 15.35714,4.64285 15.35714,4.64285 0,0 1.41639,7.67674 0.71429,11.42857 -0.31353,1.67542 -2.14286,4.64286 -2.14286,4.64286 0,0 -16.42203,1.77401 -24.64285,1.42857 -4.20526,-0.1767 -8.29132,-1.83464 -12.5,-1.78571 -2.89636,0.0337 -5.68695,1.16435 -8.57143,1.42857 -6.75847,0.61908 -20.35715,0.35714 -20.35715,0.35714 0,0 -0.92778,-7.12792 -1.07142,-10.71428 -0.24303,-6.06773 0.44682,-12.14236 0.35714,-18.21429 -0.10737,-7.26989 -0.16331,-14.57197 -1.07143,-21.78571 -0.74361,-5.90695 -3.57143,-17.5 -3.57143,-17.5 z"
           id="path3689-3"
           sodipodi:nodetypes="ccscsscssscscssscssss" />
      </g>
    </g>
    <g
       id="g4404"
       transform="translate(-0.25253814,0.75761441)"
       inkscape:export-filename="/media/FreeAgent Drive/T3/Projects/Games/the_devil-1.1/bin/data/graphics/title_logo.png"
       inkscape:export-xdpi="93.881981"
       inkscape:export-ydpi="93.881981">
      <path
         sodipodi:nodetypes="cssssssscssssscsssssscssssssssssss"
         id="path3021"
         d="m 370.47345,611.68313 c 0,0 -9.91279,-18.53203 -14.39468,-28.03173 -3.99001,-8.45713 -7.57758,-17.10133 -11.11168,-25.75889 -3.27316,-8.01832 -7.51982,-15.77727 -9.34391,-24.24366 -0.94118,-4.36841 -0.94826,-8.91994 -0.75761,-13.38452 0.20316,-4.75757 0.68893,-9.57014 2.0203,-14.14214 1.08493,-3.72573 2.56289,-7.43464 4.79823,-10.6066 1.95475,-2.7738 4.41207,-5.32808 7.3236,-7.07107 2.12424,-1.27168 7.07107,-2.27284 7.07107,-2.27284 0,0 -2.5308,5.61588 -3.28299,8.5863 -0.79201,3.12767 -1.33341,6.37084 -1.26269,9.59645 0.0956,4.35843 1.1416,8.66929 2.27284,12.87944 1.20932,4.50074 3.28802,8.72308 4.79822,13.13198 1.43205,4.18076 2.44028,8.50763 4.04061,12.62691 2.11418,5.44194 7.32361,15.9099 7.32361,15.9099 0,0 3.42404,-5.69149 5.05076,-8.58629 3.22877,-5.74571 6.37496,-11.54095 9.34391,-17.42513 2.39169,-4.74011 4.907,-9.44141 6.81853,-14.39468 1.04506,-2.70801 2.1358,-5.45736 2.52538,-8.33376 0.45206,-3.33775 0.36645,-6.79066 -0.25253,-10.10152 -0.64101,-3.42871 -2.1898,-6.63093 -3.53554,-9.84899 -0.90062,-2.15363 -3.03045,-6.31345 -3.03045,-6.31345 0,0 4.99297,0.72006 7.07106,2.0203 2.77945,1.73907 4.77893,4.57477 6.56599,7.32361 2.46445,3.79079 4.05192,8.11035 5.55584,12.37437 1.21565,3.44668 2.35429,6.97645 2.77792,10.6066 0.40993,3.5127 0.13781,7.09167 -0.25253,10.6066 -0.42639,3.83949 -1.03476,7.7049 -2.27285,11.36422 -1.41169,4.17242 -3.78262,7.95799 -5.80838,11.86929 -2.33893,4.51596 -4.96539,8.87859 -7.3236,13.38452 -2.09475,4.00252 -4.07082,8.06626 -6.06092,12.12183 -2.22252,4.52923 -4.47747,9.0445 -6.56599,13.63706 -2.12312,4.66864 -3.99835,9.44643 -6.06091,14.14214 -0.74246,1.69032 -2.27285,5.05075 -2.27285,5.05075"
         style="fill:#fff0d5;fill-opacity:1;stroke:none" />
      <path
         sodipodi:nodetypes="cssssssscssssssscs"
         id="path4378"
         d="m 371.4836,602.59176 c 1.21682,-5.43205 3.65325,-10.52479 5.80838,-15.65736 1.83693,-4.37475 4.05658,-8.57882 6.06091,-12.87945 2.03656,-4.36979 3.85964,-8.84281 6.06092,-13.13198 2.96058,-5.76864 7.3453,-10.83939 9.59645,-16.92006 1.36988,-3.70023 1.28057,-7.79789 2.27284,-11.61675 1.02427,-3.94203 3.05329,-7.61065 3.78807,-11.61675 0.63855,-3.48147 0.79157,-7.07868 0.50508,-10.60661 -0.3274,-4.03172 -2.52538,-11.86929 -2.52538,-11.86929 0,0 3.7255,8.93912 4.79822,13.63706 0.67876,2.9726 1.04025,6.04241 1.01015,9.09137 -0.0511,5.17866 -0.5555,10.43738 -2.0203,15.40483 -1.55491,5.27302 -4.63011,9.97387 -7.07107,14.89975 -3.74457,7.55659 -7.84211,14.93428 -11.61675,22.47589 -2.6793,5.35314 -5.28516,10.74347 -7.82869,16.16244 -2.59309,5.52456 -5.12908,11.07674 -7.57614,16.66752 -0.69584,1.58979 -2.02031,4.79823 -2.02031,4.79823 0,0 0.11124,-5.95327 0.75762,-8.83884 z"
         style="fill:#000000;fill-opacity:0.31555553;stroke:none" />
      <path
         sodipodi:nodetypes="ccsssssscssssssssc"
         id="path4380"
         d="m 369.46329,558.65013 0,3.53553 c 0,0 -4.42394,-9.06922 -6.56599,-13.63706 -1.80729,-3.85396 -3.78778,-7.639 -5.3033,-11.61675 -1.72533,-4.52844 -2.9119,-9.24463 -4.29315,-13.8896 -1.04806,-3.52448 -2.29044,-7.00482 -3.03045,-10.6066 -0.8027,-3.90693 -1.82519,-7.89282 -1.51523,-11.8693 0.21117,-2.70909 1.08286,-5.38579 2.27284,-7.82868 1.13563,-2.33133 4.54569,-6.31345 4.54569,-6.31345 0,0 -1.9645,5.01229 -2.77792,7.57614 -0.68544,2.16047 -1.5431,4.31055 -1.76777,6.56599 -0.2592,2.60211 0.1201,5.2422 0.50508,7.82869 0.43287,2.90822 1.20465,5.76143 2.0203,8.58629 0.79018,2.73666 1.8325,5.39424 2.77792,8.08122 0.74238,2.10991 1.54033,4.20011 2.27284,6.31346 1.13333,3.26974 2.09271,6.59955 3.283,9.84898 0.93554,2.55397 1.95512,5.07783 3.03046,7.57615 1.42953,3.32121 4.54568,9.84899 4.54568,9.84899 z"
         style="fill:#000000;fill-opacity:0.31372549;stroke:none" />
      <path
         sodipodi:nodetypes="cssssssscssssscsssssscssssssssssss"
         id="path3021-5"
         d="m 370.47346,611.68313 c 0,0 -9.91279,-18.53203 -14.39468,-28.03173 -3.99001,-8.45713 -7.57758,-17.10133 -11.11168,-25.75889 -3.27317,-8.01832 -7.51983,-15.77727 -9.34392,-24.24366 -0.94118,-4.36841 -0.94826,-8.91994 -0.75761,-13.38452 0.20316,-4.75757 0.68893,-9.57014 2.0203,-14.14214 1.08493,-3.72573 2.56289,-7.43464 4.79823,-10.6066 1.95475,-2.7738 4.41208,-5.32808 7.32361,-7.07107 2.12424,-1.27168 7.07107,-2.27284 7.07107,-2.27284 0,0 -2.5308,5.61588 -3.28299,8.5863 -0.79201,3.12767 -1.33341,6.37084 -1.26269,9.59645 0.0956,4.35843 1.1416,8.66929 2.27284,12.87944 1.20932,4.50074 3.28802,8.72308 4.79822,13.13198 1.43205,4.18076 2.44028,8.50763 4.04061,12.62691 2.11418,5.44194 7.32361,15.9099 7.32361,15.9099 0,0 3.42404,-5.69149 5.05076,-8.58629 3.22877,-5.74571 6.37496,-11.54095 9.34391,-17.42513 2.39169,-4.74011 4.907,-9.44141 6.81853,-14.39468 1.04506,-2.70801 2.1358,-5.45736 2.52538,-8.33376 0.45206,-3.33775 0.36645,-6.79066 -0.25253,-10.10152 -0.64101,-3.42871 -2.1898,-6.63093 -3.53554,-9.84899 -0.90062,-2.15363 -3.03045,-6.31345 -3.03045,-6.31345 0,0 4.99297,0.72006 7.07106,2.0203 2.77945,1.73907 4.77893,4.57477 6.56599,7.32361 2.46445,3.79079 4.05192,8.11035 5.55584,12.37437 1.21565,3.44668 2.35429,6.97645 2.77792,10.6066 0.40993,3.5127 0.13781,7.09167 -0.25253,10.6066 -0.42639,3.83949 -1.03476,7.7049 -2.27285,11.36422 -1.41169,4.17242 -3.78262,7.95799 -5.80838,11.86929 -2.33893,4.51596 -4.96539,8.87859 -7.3236,13.38452 -2.09475,4.00252 -4.07082,8.06626 -6.06092,12.12183 -2.22252,4.52923 -4.47747,9.0445 -6.56599,13.63706 -2.12312,4.66864 -3.99835,9.44643 -6.06091,14.14214 -0.74246,1.69032 -4.04062,8.58628 -4.04062,8.58628"
         style="fill:none;stroke:#000000;stroke-opacity:1" />
    </g>
    <g
       id="g3764">
      <g
         id="g3756">
        <path
           style="fill:#ff0000;fill-opacity:1;stroke:none"
           d="m 350.27039,585.84991 c 0,0 -3.72792,-4.86799 -6.06091,-6.81853 -2.72469,-2.27803 -5.73245,-4.40213 -9.09137,-5.55584 -3.52556,-1.21094 -11.11168,-1.26269 -11.11168,-1.26269 0,0 0.47772,3.78551 1.51523,5.3033 1.49167,2.18218 3.95997,3.59487 6.31345,4.79823 3.60385,1.84269 7.61321,2.93979 11.61675,3.53553 2.24809,0.33453 6.81853,0 6.81853,0 z"
           id="path2876-0"
           sodipodi:nodetypes="csscsssc" />
        <path
           style="fill:none;stroke:#000000;stroke-opacity:1"
           d="m 350.27039,585.84991 c 0,0 -3.72792,-4.86799 -6.06091,-6.81853 -2.72469,-2.27803 -5.73245,-4.40213 -9.09137,-5.55584 -3.52556,-1.21094 -11.11168,-1.26269 -11.11168,-1.26269 0,0 0.47772,3.78551 1.51523,5.3033 1.49167,2.18218 3.95997,3.59487 6.31345,4.79823 3.60385,1.84269 7.61321,2.93979 11.61675,3.53553 2.24809,0.33453 6.81853,0 6.81853,0 z"
           id="path2876-0-3"
           sodipodi:nodetypes="csscsssc" />
      </g>
      <g
         id="g3760">
        <path
           style="fill:#ff0000;fill-opacity:1;stroke:none"
           d="m 389.41381,585.16663 c 0,0 3.72792,-4.86799 6.06091,-6.81853 2.72469,-2.27803 5.73245,-4.40213 9.09137,-5.55584 3.52556,-1.21094 11.11168,-1.26269 11.11168,-1.26269 0,0 -0.47772,3.78551 -1.51523,5.3033 -1.49167,2.18218 -3.95997,3.59487 -6.31345,4.79823 -3.60385,1.84269 -7.61321,2.93979 -11.61675,3.53553 -2.24809,0.33453 -6.81853,0 -6.81853,0 z"
           id="path2876"
           sodipodi:nodetypes="csscsssc" />
        <path
           style="fill:none;stroke:#000000;stroke-opacity:1"
           d="m 389.41381,585.16663 c 0,0 3.72792,-4.86799 6.06091,-6.81853 2.72469,-2.27803 5.73245,-4.40213 9.09137,-5.55584 3.52556,-1.21094 11.11168,-1.26269 11.11168,-1.26269 0,0 -0.47772,3.78551 -1.51523,5.3033 -1.49167,2.18218 -3.95997,3.59487 -6.31345,4.79823 -3.60385,1.84269 -7.61321,2.93979 -11.61675,3.53553 -2.24809,0.33453 -6.81853,0 -6.81853,0 z"
           id="path2876-6"
           sodipodi:nodetypes="csscsssc" />
      </g>
    </g>
  </g>
</svg>
