<?xml version="1.0" encoding="UTF-8" standalone="no"?>
<!-- Created with Inkscape (http://www.inkscape.org/) -->

<svg
   xmlns:dc="http://purl.org/dc/elements/1.1/"
   xmlns:cc="http://creativecommons.org/ns#"
   xmlns:rdf="http://www.w3.org/1999/02/22-rdf-syntax-ns#"
   xmlns:svg="http://www.w3.org/2000/svg"
   xmlns="http://www.w3.org/2000/svg"
   xmlns:sodipodi="http://sodipodi.sourceforge.net/DTD/sodipodi-0.dtd"
   xmlns:inkscape="http://www.inkscape.org/namespaces/inkscape"
   width="744.09448819"
   height="1052.3622047"
   id="svg2"
   version="1.1"
   inkscape:version="0.47 r22583"
   sodipodi:docname="tv.svg"
   inkscape:export-filename="/media/FreeAgent Drive/T3/Projects/Games/the_devil-1.1/workspace/tv.png"
   inkscape:export-xdpi="95.194458"
   inkscape:export-ydpi="95.194458">
  <defs
     id="defs4">
    <inkscape:perspective
       sodipodi:type="inkscape:persp3d"
       inkscape:vp_x="0 : 526.18109 : 1"
       inkscape:vp_y="0 : 1000 : 0"
       inkscape:vp_z="744.09448 : 526.18109 : 1"
       inkscape:persp3d-origin="372.04724 : 350.78739 : 1"
       id="perspective10" />
    <inkscape:perspective
       id="perspective2881"
       inkscape:persp3d-origin="0.5 : 0.33333333 : 1"
       inkscape:vp_z="1 : 0.5 : 1"
       inkscape:vp_y="0 : 1000 : 0"
       inkscape:vp_x="0 : 0.5 : 1"
       sodipodi:type="inkscape:persp3d" />
    <inkscape:perspective
       id="perspective3669"
       inkscape:persp3d-origin="0.5 : 0.33333333 : 1"
       inkscape:vp_z="1 : 0.5 : 1"
       inkscape:vp_y="0 : 1000 : 0"
       inkscape:vp_x="0 : 0.5 : 1"
       sodipodi:type="inkscape:persp3d" />
    <inkscape:perspective
       id="perspective3791"
       inkscape:persp3d-origin="0.5 : 0.33333333 : 1"
       inkscape:vp_z="1 : 0.5 : 1"
       inkscape:vp_y="0 : 1000 : 0"
       inkscape:vp_x="0 : 0.5 : 1"
       sodipodi:type="inkscape:persp3d" />
    <inkscape:perspective
       id="perspective4067"
       inkscape:persp3d-origin="0.5 : 0.33333333 : 1"
       inkscape:vp_z="1 : 0.5 : 1"
       inkscape:vp_y="0 : 1000 : 0"
       inkscape:vp_x="0 : 0.5 : 1"
       sodipodi:type="inkscape:persp3d" />
    <inkscape:perspective
       id="perspective4091"
       inkscape:persp3d-origin="0.5 : 0.33333333 : 1"
       inkscape:vp_z="1 : 0.5 : 1"
       inkscape:vp_y="0 : 1000 : 0"
       inkscape:vp_x="0 : 0.5 : 1"
       sodipodi:type="inkscape:persp3d" />
  </defs>
  <sodipodi:namedview
     id="base"
     pagecolor="#000000"
     bordercolor="#666666"
     borderopacity="1.0"
     inkscape:pageopacity="0"
     inkscape:pageshadow="2"
     inkscape:zoom="5.6"
     inkscape:cx="592.35352"
     inkscape:cy="574.90272"
     inkscape:document-units="px"
     inkscape:current-layer="layer1"
     showgrid="false"
     inkscape:window-width="1680"
     inkscape:window-height="975"
     inkscape:window-x="0"
     inkscape:window-y="24"
     inkscape:window-maximized="1" />
  <metadata
     id="metadata7">
    <rdf:RDF>
      <cc:Work
         rdf:about="">
        <dc:format>image/svg+xml</dc:format>
        <dc:type
           rdf:resource="http://purl.org/dc/dcmitype/StillImage" />
        <dc:title></dc:title>
      </cc:Work>
    </rdf:RDF>
  </metadata>
  <g
     inkscape:label="Layer 1"
     inkscape:groupmode="layer"
     id="layer1">
    <g
       id="g4111">
      <path
         sodipodi:nodetypes="cssssscssssssssssscssssssscssssssssssc"
         id="path3846"
         d="m 74.751288,508.39504 c 0,0 0.03892,-33.3407 0.505077,-50.00255 0.513754,-18.36322 2.007723,-36.69021 2.525381,-55.05332 0.450721,-15.98861 0.270026,-31.989 0.505076,-47.98224 0.262299,-17.84728 0.498769,-35.69621 1.010153,-53.53809 0.376512,-13.1363 1.176213,-26.25863 1.515229,-39.39595 0.330108,-12.79212 0.505076,-38.3858 0.505076,-38.3858 0,0 29.29244,0.7752 43.94164,1.01016 18.51785,0.29701 37.03993,0.24943 55.55839,0.50507 18.18413,0.25102 36.36405,0.76273 54.54823,1.01016 19.3602,0.26343 38.72179,0.51967 58.08377,0.50507 16.50001,-0.0124 32.99768,-0.42089 49.49748,-0.50507 14.81538,-0.0756 29.63291,0.22902 44.44671,0 16.33666,-0.25257 32.65558,-1.75715 48.9924,-1.51523 16.69627,0.24724 33.30461,3.10394 50.00255,3.03046 12.15091,-0.0535 24.22177,-2.10424 36.36549,-2.52539 12.45106,-0.43181 24.918,0.15007 37.37565,0 13.97682,-0.16837 27.9435,-1.00428 41.92133,-1.01015 7.24138,-0.003 21.71828,0.50508 21.71828,0.50508 0,0 -0.30642,34.34551 -0.50508,51.51778 -0.14608,12.62718 -0.35075,25.25363 -0.50508,37.88072 -0.18519,15.15209 -0.11803,30.30858 -0.50507,45.45686 -0.21518,8.42192 -0.88908,16.83002 -1.01015,25.25382 -0.21535,14.98332 0.29808,29.96834 0.50507,44.95178 0.14188,10.27029 0.28025,20.54085 0.50508,30.80966 0.26913,12.29185 0.84178,24.57691 1.01015,36.87056 0.0876,6.39703 0,19.1929 0,19.1929 0,0 -28.94244,1.91469 -43.43656,2.02031 -15.83336,0.11538 -31.64673,-1.19004 -47.47717,-1.51523 -18.348,-0.3769 -36.70736,-0.0388 -55.05331,-0.50508 -16.17124,-0.41097 -32.31798,-1.54042 -48.48732,-2.0203 -19.01915,-0.56446 -38.04685,-0.84179 -57.07362,-1.01015 -15.65675,-0.13854 -31.31667,0.24648 -46.9721,0 -21.38951,-0.33676 -42.76507,-1.28771 -64.14468,-2.02031 -18.18454,-0.62312 -36.36306,-1.41612 -54.54824,-2.0203 -17.17055,-0.57047 -34.34087,-1.18862 -51.51778,-1.51523 -19.52681,-0.37129 -39.05907,-0.65336 -58.588848,-0.50508 -7.072868,0.0537 -21.213204,0.50508 -21.213204,0.50508 z"
         style="fill:#2c2c2c;fill-opacity:1;stroke:none" />
      <path
         sodipodi:nodetypes="cssssscssssssssssscssssssscssssssssssc"
         id="path3846-6"
         d="m 74.751288,508.39504 c 0,0 0.03892,-33.3407 0.505077,-50.00255 0.513754,-18.36322 2.007723,-36.69021 2.525381,-55.05332 0.450721,-15.98861 0.270026,-31.989 0.505076,-47.98224 0.262299,-17.84728 0.498769,-35.69621 1.010153,-53.53809 0.376512,-13.1363 1.176213,-26.25863 1.515229,-39.39595 0.330108,-12.79212 0.505076,-38.3858 0.505076,-38.3858 0,0 29.29244,0.7752 43.94164,1.01016 18.51785,0.29701 37.03993,0.24943 55.55839,0.50507 18.18413,0.25102 36.36405,0.76273 54.54823,1.01016 19.3602,0.26343 38.72179,0.51967 58.08377,0.50507 16.50001,-0.0124 32.99768,-0.42089 49.49748,-0.50507 14.81538,-0.0756 29.63291,0.22902 44.44671,0 16.33666,-0.25257 32.65558,-1.75715 48.9924,-1.51523 16.69627,0.24724 33.30461,3.10394 50.00255,3.03046 12.15091,-0.0535 24.22177,-2.10424 36.36549,-2.52539 12.45106,-0.43181 24.918,0.15007 37.37565,0 13.97682,-0.16837 27.9435,-1.00428 41.92133,-1.01015 7.24138,-0.003 21.71828,0.50508 21.71828,0.50508 0,0 -0.30642,34.34551 -0.50508,51.51778 -0.14608,12.62718 -0.35075,25.25363 -0.50508,37.88072 -0.18519,15.15209 -0.11803,30.30858 -0.50507,45.45686 -0.21518,8.42192 -0.88908,16.83002 -1.01015,25.25382 -0.21535,14.98332 0.29808,29.96834 0.50507,44.95178 0.14188,10.27029 0.28025,20.54085 0.50508,30.80966 0.26913,12.29185 0.84178,24.57691 1.01015,36.87056 0.0876,6.39703 0,19.1929 0,19.1929 0,0 -28.94244,1.91469 -43.43656,2.02031 -15.83336,0.11538 -31.64673,-1.19004 -47.47717,-1.51523 -18.348,-0.3769 -36.70736,-0.0388 -55.05331,-0.50508 -16.17124,-0.41097 -32.31798,-1.54042 -48.48732,-2.0203 -19.01915,-0.56446 -38.04685,-0.84179 -57.07362,-1.01015 -15.65675,-0.13854 -31.31667,0.24648 -46.9721,0 -21.38951,-0.33676 -42.76507,-1.28771 -64.14468,-2.02031 -18.18454,-0.62312 -36.36306,-1.41612 -54.54824,-2.0203 -17.17055,-0.57047 -34.34087,-1.18862 -51.51778,-1.51523 -19.52681,-0.37129 -39.05907,-0.65336 -58.588848,-0.50508 -7.072868,0.0537 -21.213204,0.50508 -21.213204,0.50508 z"
         style="fill:none;fill-opacity:1;stroke:#000000;stroke-opacity:1" />
      <path
         sodipodi:nodetypes="ccsssssssssssssscssssssssccsssssssssscsssssssssssssc"
         id="path4081"
         d="m 75.508903,508.1425 25.758887,-23.23351 c 0,0 24.58534,0.7158 36.87057,1.26269 12.29645,0.54739 24.57955,1.36224 36.87057,2.02031 12.87859,0.68953 25.75071,1.52757 38.63833,2.0203 10.43367,0.39891 20.87345,0.77732 31.31473,0.75761 12.04234,-0.0227 24.07104,-1.11281 36.11296,-1.01015 9.35304,0.0797 18.68255,0.98242 28.03173,1.26269 11.27623,0.33804 22.55913,0.4209 33.84011,0.50508 12.20567,0.0911 24.4121,-0.0436 36.61803,0 11.78534,0.0421 23.57134,0.43482 35.35534,0.25254 8.84419,-0.13681 17.67275,-1.17283 26.5165,-1.01016 6.75212,0.12419 13.45452,1.26251 20.20305,1.51523 16.067,0.60167 32.15722,-0.14978 48.23479,0 13.55464,0.12628 27.10451,0.58461 40.65864,0.75762 12.20531,0.1558 24.41549,0.55551 36.61803,0.25254 4.46727,-0.11092 13.38452,-0.75762 13.38452,-0.75762 0,0 0.13053,-28.4529 0.25254,-42.67894 0.0643,-7.49216 0.319,-14.98376 0.25254,-22.4759 -0.10309,-11.62118 -0.84178,-23.22985 -1.01016,-34.85026 -0.1183,-8.16454 0.0329,-16.33087 0,-24.4962 -0.0421,-10.4385 -0.21045,-20.87623 -0.25254,-31.31473 -0.0299,-7.40772 0.10099,-14.81626 0,-22.22335 -0.12628,-9.26232 -0.72395,-18.51608 -0.75761,-27.7792 -0.0306,-8.41956 0.48372,-16.83422 0.50508,-25.25381 0.0143,-5.64063 -0.25254,-16.92006 -0.25254,-16.92006 l 23.99112,-19.95051 c 0,0 0.21728,22.39382 10e-6,33.58757 -0.16839,8.67538 -0.767,17.33783 -1.01016,26.01143 -0.27369,9.76242 -0.55005,19.52827 -0.50508,29.29442 0.0366,7.95765 0.60117,15.90718 0.63134,23.86486 0.0423,11.15567 -0.39011,22.30816 -0.63134,33.4613 -0.14931,6.90315 -0.43437,13.80373 -0.50507,20.70813 -0.11033,10.77448 -0.0129,21.55074 0.12627,32.32488 0.12398,9.59796 0.41901,19.19294 0.63134,28.78935 0.2086,9.42813 0.34489,18.85818 0.63134,28.28427 0.23286,7.66245 0.85149,15.31505 0.88389,22.98097 0.0178,4.21082 -0.37881,12.6269 -0.37881,12.6269 0,0 -17.32993,1.26259 -26.01143,1.51523 -15.01966,0.4371 -30.05387,0.2347 -45.07805,0 -13.47363,-0.21047 -26.93487,-0.93285 -40.40611,-1.26269 -16.62306,-0.40701 -33.25462,-0.42349 -49.87628,-0.88389 -14.52568,-0.40234 -29.03774,-1.21834 -43.56283,-1.64149 -14.30746,-0.41681 -28.61857,-0.75141 -42.93148,-0.88389 -20.2864,-0.18776 -40.57721,0.46308 -60.86169,0.12628 -14.31743,-0.23772 -28.62004,-1.03765 -42.93148,-1.51523 -13.38369,-0.44662 -26.77244,-0.7451 -40.15357,-1.26269 -16.5042,-0.63839 -32.99074,-1.70348 -49.49747,-2.27285 -10.93973,-0.37734 -21.88517,-0.5797 -32.82996,-0.75761 -13.38335,-0.21754 -26.76856,-0.43516 -40.15356,-0.37881 -7.07213,0.0298 -14.142334,0.24202 -21.213207,0.37881 -4.040731,0.0782 -12.12183,0.25254 -12.12183,0.25254 z"
         style="fill:#000000;stroke:none;stroke-width:1;stroke-miterlimit:4;stroke-opacity:1;stroke-dasharray:none;fill-opacity:0.31555554" />
      <path
         sodipodi:nodetypes="ccsssssssssssssscsssssssscc"
         id="path4081-5"
         d="m 75.508903,508.1425 25.758887,-23.23351 c 0,0 24.58534,0.7158 36.87057,1.26269 12.29645,0.54739 24.57955,1.36224 36.87057,2.02031 12.87859,0.68953 25.75071,1.52757 38.63833,2.0203 10.43367,0.39891 20.87345,0.77732 31.31473,0.75761 12.04234,-0.0227 24.07104,-1.11281 36.11296,-1.01015 9.35304,0.0797 18.68255,0.98242 28.03173,1.26269 11.27623,0.33804 22.55913,0.4209 33.84011,0.50508 12.20567,0.0911 24.4121,-0.0436 36.61803,0 11.78534,0.0421 23.57134,0.43482 35.35534,0.25254 8.84419,-0.13681 17.67275,-1.17283 26.5165,-1.01016 6.75212,0.12419 13.45452,1.26251 20.20305,1.51523 16.067,0.60167 32.15722,-0.14978 48.23479,0 13.55464,0.12628 27.10451,0.58461 40.65864,0.75762 12.20531,0.1558 24.41549,0.55551 36.61803,0.25254 4.46727,-0.11092 13.38452,-0.75762 13.38452,-0.75762 0,0 0.13053,-28.4529 0.25254,-42.67894 0.0643,-7.49216 0.319,-14.98376 0.25254,-22.4759 -0.10309,-11.62118 -0.84178,-23.22985 -1.01016,-34.85026 -0.1183,-8.16454 0.0329,-16.33087 0,-24.4962 -0.0421,-10.4385 -0.21045,-20.87623 -0.25254,-31.31473 -0.0299,-7.40772 0.10099,-14.81626 0,-22.22335 -0.12628,-9.26232 -0.72395,-18.51608 -0.75761,-27.7792 -0.0306,-8.41956 0.48372,-16.83422 0.50508,-25.25381 0.0143,-5.64063 -0.25254,-16.92006 -0.25254,-16.92006 l 23.99112,-19.95051"
         style="fill:none;fill-opacity:0.31555552999999997;stroke:#000000;stroke-opacity:1" />
      <path
         id="path4105"
         d="M 622.85714,516.29076 600.53572,492.54075"
         style="fill:none;stroke:#000000;stroke-width:1;stroke-miterlimit:4;stroke-opacity:1;stroke-dasharray:none"
         sodipodi:nodetypes="cc" />
      <path
         sodipodi:nodetypes="csscssssssc"
         id="path4107"
         d="m 101.33928,484.68361 c 0,0 -1.10653,-40.4198 -1.08293,-60.63452 0.0373,-31.99702 1.4497,-63.97824 1.93818,-95.97155 0.41394,-27.11174 0.84119,-81.34035 0.84119,-81.34035 0,0 37.708,-1.05401 56.56749,-1.21831 30.30405,-0.26401 60.6104,0.15712 90.91483,0.3737 25.92778,0.18531 51.85403,0.54476 77.7813,0.79207 22.05268,0.21036 44.10478,0.62038 66.15844,0.58844 19.69886,-0.0285 39.39384,-0.61055 59.09253,-0.69676 24.58113,-0.10757 49.16417,0.51913 73.74377,0.22402 23.88518,-0.28678 71.63449,-1.93817 71.63449,-1.93817"
         style="fill:none;stroke:#000000;stroke-width:1;stroke-miterlimit:4;stroke-opacity:1;stroke-dasharray:none" />
      <path
         id="path4109"
         d="m 81.064742,223.78456 21.718278,22.72843"
         style="fill:none;stroke:#000000;stroke-width:1;stroke-miterlimit:4;stroke-opacity:1;stroke-dasharray:none" />
    </g>
    <g
       id="g4026">
      <g
         id="g3886">
        <path
           style="fill:#000000;fill-opacity:1;stroke:none"
           d="m 281.70629,457.88741 c 0,0 0.3961,9.76437 0.50508,14.39467 0.10005,4.25072 0.14191,8.50273 0.25254,12.75318 0.13587,5.22007 0.40735,10.43644 0.50507,15.65736 0.15201,8.122 0.13623,16.24652 0.12627,24.36993 -0.007,5.51391 -0.10522,11.02738 -0.12627,16.54125 -0.0243,6.3555 0,19.06663 0,19.06663 l 7.07107,0 c 0,0 0.0143,-10.18573 0,-15.27856 -0.021,-7.49205 -0.12864,-14.98381 -0.12627,-22.47589 0.002,-6.73448 0.21208,-13.46912 0.12627,-20.20305 -0.0676,-5.30554 -0.40272,-10.60492 -0.50508,-15.9099 -0.11855,-6.1441 -0.25872,-12.29148 -0.12627,-18.43529 0.0727,-3.3706 0.12627,-10.6066 0.12627,-10.6066 l -7.82868,0.12627 z"
           id="path3807"
           sodipodi:nodetypes="csssssccssssscc" />
        <g
           id="g3881">
          <path
             sodipodi:nodetypes="csssccsssscc"
             id="path3781"
             d="m 271.07143,437.00504 c 0,0 -0.99327,6.05075 0.35714,8.57143 0.76465,1.4273 2.56019,1.99145 3.92857,2.85714 1.26058,0.79749 3.01611,0.96283 3.92857,2.14286 1.50126,1.9415 1.78572,7.14285 1.78572,7.14285 l 9.64286,0 c 0,0 -0.3824,-3.14322 0,-4.64285 0.36857,-1.44541 1.05847,-2.90428 2.14285,-3.92857 1.81946,-1.71865 4.99723,-1.46344 6.78572,-3.21429 0.95111,-0.93109 1.47991,-2.27604 1.78571,-3.57143 0.32822,-1.39035 0,-4.28571 0,-4.28571 l -30.35714,-1.07143 z"
             style="fill:#000552;fill-opacity:1;stroke:none" />
          <path
             sodipodi:nodetypes="csssssccssssscc"
             id="path3805"
             d="m 288.90363,457.25606 c 0,0 -0.44058,-3.67416 0,-5.42957 0.32546,-1.29675 0.99975,-2.54168 1.89403,-3.53553 0.85115,-0.94591 2.04189,-1.53312 3.15673,-2.14657 1.20567,-0.66343 2.84334,-0.64087 3.78807,-1.6415 0.92327,-0.97791 1.15385,-2.46389 1.38896,-3.78807 0.15452,-0.87027 0,-2.65165 0,-2.65165 l 2.27285,0.12626 c 0,0 0.63026,3.07589 0.25253,4.54569 -0.39534,1.53831 -1.23007,3.12146 -2.52538,4.04061 -1.09089,0.77409 -2.70748,0.30705 -3.91434,0.88388 -1.16243,0.5556 -2.21793,1.39925 -3.03046,2.39912 -0.6529,0.80343 -1.13751,1.77365 -1.38896,2.77792 -0.37838,1.51124 -0.12626,4.67195 -0.12626,4.67195 l -1.76777,-0.25254 z"
             style="fill:#000000;fill-opacity:0.31555553;stroke:none" />
          <path
             sodipodi:nodetypes="csssccsssscc"
             id="path3781-5"
             d="m 271.07143,437.00504 c 0,0 -0.99327,6.05075 0.35714,8.57143 0.76465,1.4273 2.56019,1.99145 3.92857,2.85714 1.26058,0.79749 3.01611,0.96283 3.92857,2.14286 1.50126,1.9415 1.78572,7.14285 1.78572,7.14285 l 9.64286,0 c 0,0 -0.3824,-3.14322 0,-4.64285 0.36857,-1.44541 1.05847,-2.90428 2.14285,-3.92857 1.81946,-1.71865 4.99723,-1.46344 6.78572,-3.21429 0.95111,-0.93109 1.47991,-2.27604 1.78571,-3.57143 0.32822,-1.39035 0,-4.28571 0,-4.28571 l -30.35714,-1.07143 z"
             style="fill:none;stroke:#000000;stroke-opacity:1" />
        </g>
      </g>
      <g
         id="g4000">
        <path
           style="fill:#2c2c2c;fill-opacity:1;stroke:none"
           d="m 120.20815,459.40264 c 0,0 -0.51288,-35.69127 -0.50507,-53.53809 0.007,-16.33167 0.23535,-32.66296 0.50507,-48.9924 0.24475,-14.81737 0.74681,-29.62965 1.01016,-44.44671 0.23338,-13.13099 0.50507,-39.39595 0.50507,-39.39595 0,0 18.85309,-0.77535 28.28427,-1.01015 11.95096,-0.29754 23.90664,-0.36053 35.86042,-0.50508 16.66715,-0.20155 33.33423,-0.54527 50.00255,-0.50507 11.28126,0.0272 22.55913,0.42089 33.84011,0.50507 16.16199,0.1206 32.3252,0.10101 48.48732,0 13.46949,-0.0842 26.93736,-0.67021 40.4061,-0.50507 13.64538,0.16731 27.26526,1.6311 40.91118,1.51523 12.47629,-0.10594 24.91246,-1.43912 37.37565,-2.02031 17.16714,-0.80054 34.3323,-2.12377 51.51778,-2.0203 13.149,0.0792 26.24746,2.16075 39.39595,2.0203 9.28366,-0.0992 18.49811,-2.26053 27.77919,-2.0203 8.14138,0.21073 24.24366,3.03045 24.24366,3.03045 0,0 -0.24418,21.21508 -0.50507,31.81981 -0.24857,10.10408 -0.35779,20.21852 -1.01016,30.30458 -0.56768,8.77669 -2.17485,17.47592 -2.52538,26.26396 -0.41607,10.43131 0.4209,20.87547 0.50508,31.31473 0.0787,9.76449 0.0857,19.53 0,29.29443 -0.0842,9.59755 -0.68004,19.19301 -0.50508,28.78934 0.11372,6.23733 1.01015,18.68782 1.01015,18.68782 0,0 -20.87518,0.47258 -31.31473,0.50508 -17.00498,0.053 -34.00765,-0.52852 -51.0127,-0.50508 -13.30139,0.0183 -26.59988,0.4209 -39.90102,0.50508 -4.71395,0.0298 -14.14214,0 -14.14214,0 0,0 -0.50126,-14.15992 0,-21.2132 0.16878,-2.37496 1.01015,-7.07107 1.01015,-7.07107 0,0 -25.58889,-0.74258 -38.38579,-1.01015 -21.71614,-0.45407 -43.4346,-0.84179 -65.15484,-1.01016 -15.15183,-0.11745 -30.30708,0.27536 -45.45687,0 -9.26432,-0.16839 -27.77919,-1.01015 -27.77919,-1.01015 l -0.50508,29.29443 c 0,0 -32.32132,-1.4386 -48.48732,-2.02031 -16.66438,-0.59965 -33.33515,-1.00627 -50.00255,-1.51523 -10.9434,-0.33417 -21.95262,0.23612 -32.82996,-1.01015 -4.26442,-0.4886 -12.62691,-2.52538 -12.62691,-2.52538 z"
           id="path2887"
           sodipodi:nodetypes="cssscssssssssssscsssssscssscscsssccsssc" />
        <path
           style="fill:none;stroke:#000000;stroke-opacity:1"
           d="m 120.20815,459.40263 c 0,0 -0.51288,-35.69127 -0.50507,-53.53809 0.007,-16.33167 0.23535,-32.66296 0.50507,-48.99239 0.24475,-14.81737 0.74681,-29.62965 1.01016,-44.44671 0.23338,-13.13099 0.50507,-39.39595 0.50507,-39.39595 0,0 18.85309,-0.77535 28.28427,-1.01015 11.95096,-0.29754 23.90664,-0.36053 35.86042,-0.50508 16.66715,-0.20155 33.33423,-0.54527 50.00255,-0.50507 11.28126,0.0272 22.55913,0.42089 33.84011,0.50507 16.16199,0.1206 32.3252,0.10101 48.48732,0 13.46949,-0.0842 26.93736,-0.67021 40.4061,-0.50507 13.64538,0.16731 27.26526,1.6311 40.91118,1.51523 12.47629,-0.10594 24.91246,-1.43912 37.37565,-2.02031 17.16714,-0.80054 34.3323,-2.12377 51.51778,-2.0203 13.149,0.0792 26.24746,2.16075 39.39595,2.0203 9.28366,-0.0992 18.49811,-2.26053 27.77919,-2.0203 8.14138,0.21073 24.24366,3.03045 24.24366,3.03045 0,0 -0.24418,21.21508 -0.50507,31.81981 -0.24857,10.10408 -0.35779,20.21852 -1.01016,30.30458 -0.56768,8.77669 -2.17485,17.47592 -2.52538,26.26396 -0.41607,10.4313 0.4209,20.87546 0.50508,31.31472 0.0787,9.76449 0.0857,19.53 0,29.29443 -0.0842,9.59755 -0.68004,19.19301 -0.50508,28.78934 0.11372,6.23733 1.01015,18.68782 1.01015,18.68782 0,0 -20.87518,0.47258 -31.31473,0.50508 -17.00498,0.053 -34.00765,-0.52852 -51.0127,-0.50508 -13.30139,0.0183 -26.59988,0.4209 -39.90102,0.50508 -4.71395,0.0298 -14.14214,0 -14.14214,0 0,0 -0.50126,-14.15992 0,-21.2132 0.16878,-2.37496 1.01015,-7.07107 1.01015,-7.07107 0,0 -25.58889,-0.74258 -38.38579,-1.01015 -21.71614,-0.45407 -43.4346,-0.84179 -65.15484,-1.01016 -15.15183,-0.11745 -30.30708,0.27536 -45.45687,0 -9.26432,-0.16839 -27.77919,-1.01015 -27.77919,-1.01015 l -0.50508,29.29443 c 0,0 -32.32132,-1.4386 -48.48732,-2.02031 -16.66438,-0.59965 -33.33515,-1.00627 -50.00255,-1.51523 -10.9434,-0.33417 -21.95262,0.23612 -32.82996,-1.01015 -4.26442,-0.4886 -12.62691,-2.52538 -12.62691,-2.52538 z"
           id="path2887-4"
           sodipodi:nodetypes="cssscssssssssssscsssssscssscscsssccsssc" />
        <path
           style="fill:#000000;fill-opacity:0.31555553;stroke:none"
           d="m 120.20815,459.40264 6.81853,-5.3033 34.59773,1.51523 44.44671,1.51522 29.7995,1.51523 21.97082,1.01016 0.25254,-15.65737 0.50507,-13.38452 38.13326,0.50508 54.04316,0.50507 20.70813,0.50508 35.1028,0.25254 22.98097,0.25254 17.93021,0.50507 -5.55584,6.81853 -42.42641,-1.01015 -46.71955,-1.01015 -28.03174,0.25253 -37.88072,0 -22.47589,-1.26269 -0.25254,22.72844 0,6.81853 -46.97209,-2.27285 -29.7995,-0.50507 -28.03174,-0.50508 -21.71828,-0.75761 -14.39467,-2.02031 -3.03046,-1.01015 z"
           id="path3683" />
        <path
           style="fill:#000000;fill-opacity:0.31555553;stroke:none"
           d="m 440.55278,467.98893 7.19734,-6.18718 c 0,0 14.6474,0.0528 21.97081,0 8.75534,-0.0631 17.50866,-0.44567 26.26397,-0.37881 8.50562,0.065 17.00195,0.59972 25.50635,0.75762 11.32049,0.21019 22.64394,0.25884 33.96638,0.25254 4.92467,-0.003 14.77348,-0.12627 14.77348,-0.12627 0,0 -0.57234,-15.06541 -0.63134,-22.60217 -0.0537,-6.86093 0.16675,-13.72126 0.25254,-20.58186 0.0826,-6.6081 0.27125,-13.21565 0.25253,-19.82424 -0.0194,-6.86175 -0.34963,-13.72014 -0.3788,-20.58186 -0.0181,-4.25123 0.10522,-8.50196 0.12627,-12.75317 0.0304,-6.14502 -0.27491,-12.29635 0,-18.43529 0.29492,-6.58578 1.36389,-13.11798 1.76776,-19.69797 0.38958,-6.34708 0.43196,-12.71073 0.63135,-19.06663 0.17824,-5.68181 0.26883,-11.36664 0.50507,-17.04633 0.19619,-4.71672 0.75762,-14.14213 0.75762,-14.14213 l 5.93464,-5.55584 c 0,0 0.15858,8.16531 0.12627,12.2481 -0.051,6.44172 -0.32028,12.8799 -0.50507,19.31917 -0.15461,5.38789 -0.32721,10.77527 -0.50508,16.16244 -0.15982,4.8406 -0.21483,9.6864 -0.50508,14.52094 -0.20759,3.45768 -0.48358,6.91336 -0.88388,10.35406 -0.29992,2.57788 -0.88499,5.11936 -1.13642,7.70242 -0.34292,3.52289 -0.43696,7.06772 -0.50508,10.6066 -0.0891,4.6292 0.0391,9.26036 0.12627,13.8896 0.0832,4.42044 0.33734,8.83722 0.37881,13.25825 0.0403,4.29316 -0.1413,8.58611 -0.12627,12.87944 0.0175,5.00935 0.2315,10.01668 0.25254,15.02602 0.021,5.00881 0.006,10.01892 -0.12627,15.02602 -0.0501,1.89525 -0.21044,3.78667 -0.25254,5.68211 -0.0776,3.49258 -0.0609,6.98742 0,10.48033 0.0631,3.62136 0.19716,7.24178 0.37881,10.85914 0.12905,2.56975 0.50508,7.70242 0.50508,7.70242 0,0 -8.07884,0.41012 -12.12184,0.50507 -7.91079,0.18578 -15.8258,0.1813 -23.73858,0.12627 -6.56705,-0.0457 -13.13128,-0.2968 -19.69797,-0.37881 -7.32316,-0.0915 -14.64729,-0.0725 -21.97082,-0.12626 -4.71411,-0.0346 -9.42799,-0.15432 -14.14214,-0.12627 -6.06212,0.0361 -12.12123,0.28566 -18.18274,0.3788 -4.25077,0.0653 -8.50195,0.14495 -12.75318,0.12627 -4.50434,-0.0198 -13.51079,-0.25254 -13.51079,-0.25254 z"
           id="path3685"
           sodipodi:nodetypes="ccsssscsssssssssccssssssssssssssscsssssssc" />
        <path
           style="fill:none;stroke:#000000;stroke-opacity:1"
           d="m 131.82491,272.77695 0,17.93021"
           id="path3714"
           sodipodi:nodetypes="cc" />
        <path
           style="fill:none;stroke:#000000;stroke-opacity:1"
           d="m 141.80016,272.65068 0.12627,17.55141"
           id="path3716"
           sodipodi:nodetypes="cc" />
        <path
           style="fill:none;stroke:#000000;stroke-opacity:1"
           d="m 151.14407,272.01934 -0.12626,17.17259"
           id="path3718"
           sodipodi:nodetypes="cc" />
        <path
           style="fill:none;stroke:#000000;stroke-opacity:1"
           d="m 160.99306,272.14561 0.12627,15.5311"
           id="path3720"
           sodipodi:nodetypes="cc" />
        <path
           style="fill:none;stroke:#000000;stroke-opacity:1"
           d="m 171.34712,271.7668 -0.12626,15.40483"
           id="path3722"
           sodipodi:nodetypes="cc" />
        <path
           style="fill:none;stroke:#000000;stroke-opacity:1"
           d="m 130.43595,461.29667 0.3788,-15.53109"
           id="path3724"
           sodipodi:nodetypes="cc" />
        <path
           style="fill:none;stroke:#000000;stroke-opacity:1"
           d="m 139.77986,462.18056 0.12627,-14.89975"
           id="path3726"
           sodipodi:nodetypes="cc" />
        <path
           style="fill:none;stroke:#000000;stroke-opacity:1"
           d="m 150.00766,462.55937 -10e-6,-15.78364"
           id="path3728"
           sodipodi:nodetypes="cc" />
        <path
           style="fill:none;stroke:#000000;stroke-opacity:1"
           d="m 159.09903,463.19071 0,-16.41498"
           id="path3730"
           sodipodi:nodetypes="cc" />
        <path
           style="fill:none;stroke:#000000;stroke-opacity:1"
           d="m 168.06413,462.68563 0.12627,-16.41497"
           id="path3732"
           sodipodi:nodetypes="cc" />
        <path
           style="fill:none;stroke:#000000;stroke-opacity:1"
           d="m 524.77425,467.98894 0,-15.65737"
           id="path3734"
           sodipodi:nodetypes="cc" />
        <path
           style="fill:none;stroke:#000000;stroke-opacity:1"
           d="m 534.87577,468.49402 0,-15.1523"
           id="path3736"
           sodipodi:nodetypes="cc" />
        <path
           style="fill:none;stroke:#000000;stroke-opacity:1"
           d="m 543.84088,468.49402 0.12627,-15.65737"
           id="path3738"
           sodipodi:nodetypes="cc" />
        <path
           style="fill:none;stroke:#000000;stroke-opacity:1"
           d="m 554.57375,467.98894 0,-15.65737"
           id="path3740"
           sodipodi:nodetypes="cc" />
        <path
           style="fill:none;stroke:#000000;stroke-opacity:1"
           d="m 564.1702,468.11521 0,-16.79379"
           id="path3742"
           sodipodi:nodetypes="cc" />
        <path
           style="fill:none;stroke:#000000;stroke-width:1;stroke-miterlimit:4;stroke-opacity:1;stroke-dasharray:none"
           d="m 566.56931,269.87277 0.12627,15.78363"
           id="path3744"
           sodipodi:nodetypes="cc" />
        <path
           style="fill:none;stroke:#000000;stroke-width:1;stroke-miterlimit:4;stroke-opacity:1;stroke-dasharray:none"
           d="m 556.46778,268.73634 0.12627,17.93021"
           id="path3746"
           sodipodi:nodetypes="cc" />
        <path
           style="fill:none;stroke:#000000;stroke-width:1;stroke-miterlimit:4;stroke-opacity:1;stroke-dasharray:none"
           d="m 548.00776,269.11515 -0.12627,15.65737"
           id="path3748"
           sodipodi:nodetypes="cc" />
        <path
           style="fill:none;stroke:#000000;stroke-width:1;stroke-miterlimit:4;stroke-opacity:1;stroke-dasharray:none"
           d="m 537.90623,269.99903 0,16.16245"
           id="path3750"
           sodipodi:nodetypes="cc" />
        <path
           style="fill:none;stroke:#000000;stroke-width:1;stroke-miterlimit:4;stroke-opacity:1;stroke-dasharray:none"
           d="m 529.82501,270.75665 -0.12627,15.5311"
           id="path3752"
           sodipodi:nodetypes="cc" />
      </g>
    </g>
  </g>
</svg>
